<svg xmlns="http://www.w3.org/2000/svg" viewBox="0 0 351.28 446.65"><defs><style>.cls-1{fill:#f8f8f5;}.cls-2{fill:#110802;}.cls-3{fill:#d2cab6;}</style></defs><title>Asset 6</title><g id="Layer_2" data-name="Layer 2"><g id="Draw_Layer" data-name="Draw Layer"><path class="cls-1" d="M37.89,5.35a11,11,0,0,0-4.08,1.14l-.89.44-.13,0a12.07,12.07,0,0,0-3.87,2.2,11.09,11.09,0,0,0-2.8,3.4c-.73,1.38-1.26,2.88-1.86,4.33a32.21,32.21,0,0,0-1.21,3.59,59.52,59.52,0,0,0-1.46,7.71c-.39,2.7-.7,5.41-1.05,8.12-.55,3.31-1.24,6.6-1.71,9.93-.52,3.77-.89,7.55-1.38,11.33-.14,1-.28,2.06-.41,3.1-.69,5.06-1.41,10.13-2.08,15.2-.32,2.41-.24,4.91-.32,7.35-.1,2.7-.29,5.38-.53,8.07-.44,4.81-.28,9.65-.48,14.47-.11,2.59-.21,5.18-.23,7.78s.08,5,.14,7.56c.08,3.3.3,6.6.48,9.9a95.73,95.73,0,0,0,1.15,11q1.3,7.68,2.41,15.38c.2,4.51.06,9,.18,13.54A60.05,60.05,0,0,0,19,179.72c0,1.11.06,2.22.11,3.32.14,3.4.35,6.8.5,10.2.08,1.74.21,3.48.37,5.21.18,2,.23,4.05.6,6A5.75,5.75,0,0,0,30.22,207,5.56,5.56,0,0,0,31.9,203c-.06-.8-.11-1.61-.18-2.41-.47-6.49-.73-13-.95-19.5-.13-3.67,0-7.35-.17-11-.1-1.92-.17-3.84-.34-5.76-.2-2.28-.49-4.54-.8-6.81,0,.26.07.52.11.79,0-.32-.08-.63-.13-.94l-.09-.71-.07-.54.06.44c-.47-3.43-1-6.85-1.48-10.28-.05-.37-.11-.74-.17-1.11,0-.6-.05-1.21-.07-1.81-.09-2.56-.27-5.1-.39-7.66s0-5.23,0-7.83a112.92,112.92,0,0,1,.66-14.6c.45-3.42.81-6.86,1.23-10.29.81-5.12,2-10.18,2.58-15.34C32.26,82.72,32.8,77.84,33,73c.13-2.59.34-5.17.54-7.75.2-2.4.24-4.8.27-7.21,0-2.67.11-5.34.23-8,0-1.17.2-2.34.29-3.51s.14-2.36.23-3.53c.24-3.14.52-6.29.84-9.42.1-.67.19-1.35.28-2,.18-1.29.35-2.58.53-3.87L36.06,29c.25-1.76.54-3.51.83-5.26.17-1,.37-2.05.59-3.06a25.3,25.3,0,0,1,.91-3.08c.08,0,.17-.07.25-.12l.74.23c1.28.63,2.52,1.39,3.78,2.05,1.49.79,2.9,1.67,4.3,2.6s2.83,2,4.25,3,2.81,1.89,4.2,2.87a28,28,0,0,1,3.58,3.88c.46.62.89,1.26,1.33,1.88.79,1.11,1.63,2.17,2.46,3.24,1.12,1.45,2.32,2.82,3.48,4.24,2.42,3.26,4.6,6.7,7.2,9.82,1.21,1.46,2.48,2.87,3.68,4.33,1,1.21,2,2.44,2.94,3.68s1.81,2.66,2.64,4A5.89,5.89,0,0,0,89.8,66a5.83,5.83,0,0,0,3.47-2.68,5.68,5.68,0,0,0,.59-4.48c-.35-1-.78-2-1.22-3a12.65,12.65,0,0,0-1.33-2.08c-1.15-1.65-2.45-3.19-3.7-4.76-1-1.28-2-2.53-3.07-3.79-.79-1-1.65-1.86-2.45-2.82-1.58-2.2-3.06-4.48-4.7-6.64-1.85-2.42-3.81-4.73-5.71-7.11-2.35-3.18-4.54-6.48-7.54-9.11a62.06,62.06,0,0,0-5.71-4.06c-1.46-1-2.89-2-4.32-3.07a41.69,41.69,0,0,0-4-2.5C48.63,9,47.08,8.19,45.53,7.37a16.92,16.92,0,0,0-4.84-1.76,13.63,13.63,0,0,0-2.31-.28l-.49,0ZM35.31,34.43l-.06.41.06-.41ZM29.68,159c0-.26-.07-.52-.11-.78,0,.26.07.52.11.78Z"/><path class="cls-1" d="M130.46,39.72c-1.7.17-3.38.44-5.09.51a36.47,36.47,0,0,0-6.82.94c-1.77.41-3.52.92-5.32,1.27s-3.57.59-5.36.91a42.31,42.31,0,0,0-5.07,1.29c-1.77.53-3.57,1-5.3,1.66-2,.74-3.83,1.63-5.74,2.47C88.87,50,86,51.06,83,52.13a5.11,5.11,0,0,0-2.91,2.23A4.84,4.84,0,0,0,81.85,61a4.72,4.72,0,0,0,3.74.49Q92,59.18,98.28,56.74A44.94,44.94,0,0,1,104.05,55c1.87-.45,3.74-.93,5.64-1.27,2.3-.26,4.62-.44,6.88-.89s4.33-1,6.51-1.32c1.55-.14,3.12,0,4.68-.18a36.05,36.05,0,0,1,5.49-.26c.93.14,1.85.27,2.78.39s2.07.14,3.1.18c1.48.07,3,0,4.46,0,.92,0,1.83,0,2.75,0,4.2,0,8.44.17,12.62.56,1.55.25,3.07.57,4.59,1,1.84.46,3.7.77,5.49,1.4,1.56.72,3.1,1.45,4.71,2.06,1.16.44,2.36.79,3.53,1.22a10,10,0,0,0,2.3.89,5.89,5.89,0,0,0,7.24-7.24A5.72,5.72,0,0,0,184.11,48a45,45,0,0,0-4.34-1.87c-1.24-.44-2.49-.8-3.72-1.26a35.61,35.61,0,0,0-4.74-2c-1.52-.45-3.09-.7-4.63-1.07a52.49,52.49,0,0,0-10.06-1.45c-3.72-.16-7.44-.26-11.16-.27H143a71.29,71.29,0,0,1-7.31-.19,22.36,22.36,0,0,0-3.54-.3c-.55,0-1.11,0-1.68.07Z"/><path class="cls-1" d="M220.05.35a9.92,9.92,0,0,0-2.18.39,22.66,22.66,0,0,0-2.54,1.06,23.66,23.66,0,0,0-3.44,2.25c-2.38,1.67-4.74,3.33-7.06,5.1l.82-.63a46.87,46.87,0,0,0-6.81,5.92,40.15,40.15,0,0,0-3.4,4.6c-.72,1.05-1.45,2.09-2.2,3.13-1.44,1.75-3,3.44-4.51,5.1l-1.47,1.58a35.82,35.82,0,0,0-2.4,2.92c-.8,1.06-1.57,2.14-2.36,3.21-3.61,4.94-7.16,9.91-10.57,15-1.6,2.37-.47,5.8,1.88,7.18a5.3,5.3,0,0,0,4.05.53A5.47,5.47,0,0,0,181,55.27c3.77-5.6,7.7-11.05,11.79-16.42,2.26-2.81,4.91-5.31,7.34-8a96.72,96.72,0,0,0,6-7.78,27.57,27.57,0,0,1,3.57-3.43c1.8-1.33,3.61-2.65,5.5-3.85,1-.65,2.07-1.29,3.07-2A28.44,28.44,0,0,1,221.21,12l.21-.07a5.74,5.74,0,0,0,2.09-.73,5.83,5.83,0,0,0,2.09-8A5.57,5.57,0,0,0,222.12.57,11.12,11.12,0,0,0,220.4.33l-.35,0Z"/><path class="cls-1" d="M219.31.69a5.19,5.19,0,0,0-1.85,7c2,3.49,4,7.07,5.65,10.74.61,1.62,1.23,3.23,2,4.77.61,1.22,1.34,2.38,2,3.59.73,1.45,1.35,2.94,2.07,4.39.5,1,1,2,1.47,3,.72,2,1.17,4.09,1.77,6.13.7,2.39,1.29,4.82,2,7.23a125.64,125.64,0,0,1,2.86,14.12c.42,3.71.61,7.41.86,11.13.3,4.35,1.07,8.64,1.69,13,.54,3.81,1.2,7.6,1.86,11.39.64,3.61,1.17,7.24,1.66,10.87,0-.1,0-.21,0-.31.19,1.43.39,2.86.59,4.29.42,3.41.83,6.82,1.33,10.22q.57,3.84,1.1,7.7c1.23,10,2.28,20.09,2.81,30.17.14,2.49.27,5,.52,7.48.27,2.77.58,5.54.78,8.32.34,5,.36,9.91.38,14.87q0,7.93,0,15.86a35.67,35.67,0,0,0,.28,4.85,8.67,8.67,0,0,0,1.47,4,27.31,27.31,0,0,0,2.23,2.68c.58.59,1.13,1.21,1.66,1.85.85,1.23,1.55,2.54,2.3,3.83.9,1.57,1.78,3.15,2.67,4.72a95,95,0,0,1,4.6,9.8l.07.15c0-.09-.08-.17-.11-.26,1.2,3.14,2.19,6.35,3.17,9.57a65.76,65.76,0,0,1,2,9.2c.41,3.62.55,7.25.79,10.89a72.66,72.66,0,0,1,.21,10.74,24.32,24.32,0,0,1-.9,3.21c-.41,1.17-.83,2.35-1.28,3.5s-.92,2.1-1.34,3.17c-.33.88-.6,1.78-.92,2.67a15.94,15.94,0,0,1-.9,1.62c-.64.72-1.3,1.42-2,2.09l-.66-.41c-.38-.33-.75-.67-1.11-1-1.28-1.82-2.47-3.72-3.72-5.56s-2.38-3.67-3.59-5.49c-1.31-2-2.67-3.94-3.87-6-.48-.82-.89-1.67-1.31-2.52A21.05,21.05,0,0,0,249,270.9a6.33,6.33,0,0,0-3.57-2.75,6,6,0,0,0-6.76,8.79c1,1.7,1.63,3.55,2.56,5.26s2.25,3.59,3.42,5.34,2.27,3.51,3.42,5.25,2.54,3.74,3.78,5.63a23.92,23.92,0,0,0,3.59,4.49,17.75,17.75,0,0,0,4.11,2.87,12.18,12.18,0,0,0,3.69,1.33,8.94,8.94,0,0,0,2,.23,9.79,9.79,0,0,0,2.4-.34,11.51,11.51,0,0,0,4.6-2.66,25.54,25.54,0,0,0,5.22-6,48.23,48.23,0,0,0,2.87-7.07c.42-1,.84-1.92,1.22-2.9s.73-2.05,1.12-3.07a23.89,23.89,0,0,0,1.48-7.43c.22-4.87-.33-9.72-.55-14.57a86,86,0,0,0-2-15.08c-.55-2.41-1.28-4.76-2-7.11-.87-2.7-1.78-5.35-2.88-8q-1.4-3.26-2.88-6.48c-1.09-2.38-2.34-4.65-3.64-6.92a60,60,0,0,0-3.54-6,44.88,44.88,0,0,0-3-3.62c-.29-.32-.59-.62-.88-.93-.12-2.22,0-4.46,0-6.69q0-3.72,0-7.44c0-5,0-10-.18-15-.18-5.28-.9-10.51-1.25-15.78s-.56-10.37-1.07-15.54-1.08-10.55-1.62-15.82-1.43-10.71-2.22-16c-.87-6.9-1.76-13.8-2.85-20.67-.48-3.1-1.09-6.19-1.6-9.29s-1-6.4-1.49-9.6c-.25-2-.45-4.06-.58-6.09-.15-2.56-.23-5.15-.55-7.68A135.43,135.43,0,0,0,246.42,47c-1.19-4.66-2.71-9.23-4.09-13.84a33.46,33.46,0,0,0-3-6.74c-1-1.9-1.95-3.91-3.12-5.76a44.85,44.85,0,0,1-3.1-5.33c.17.42.35.84.53,1.26a122.93,122.93,0,0,0-7.26-14.06A5.16,5.16,0,0,0,221.87,0a5,5,0,0,0-2.56.69ZM266.12,238.8l.39.92-.39-.92Zm-.53,56.51h0Zm11.65-60.77c-.05-.13-.11-.27-.17-.4.06.13.12.27.17.4Zm-.17-.4-.09-.21.09.21Zm-.09-.21-.12-.3.12.3Zm-.12-.3,0-.09,0,.09Zm-.19-.45.15.36-.18-.43,0,.07ZM243.42,109.32c0-.19,0-.38-.07-.56,0,.18.05.37.07.56Zm-.07-.56c0-.24-.07-.48-.1-.72,0,.24.06.48.1.72Z"/><path class="cls-1" d="M245.53,277.23a6,6,0,0,0-2.57,3.34c-1.32,3.37-2.81,6.7-4,10.12a67,67,0,0,0-2.52,9.23c-.64,3.27-1.39,6.5-1.79,9.81-.19,1.53-.32,3-.4,4.58,0,.68,0,1.36-.06,2,0,.46,0,.92,0,1.37,0,.19,0,.4-.07.64a5.8,5.8,0,0,0,.79,2.93,5.87,5.87,0,0,0,3.47,2.66,5.75,5.75,0,0,0,3.08,0,6.06,6.06,0,0,0,3.46-2.66,6.21,6.21,0,0,0,.95-2.36c.34-1,.65-1.94,1-2.92.51-1.58,1.06-3.13,1.63-4.69.5-1.11,1-2.21,1.58-3.29.71-1.32,1.43-2.64,2.18-3.94l.87-1.48.23.05a6,6,0,1,0,3.19-11.55l-.06,0a6.26,6.26,0,0,0-2.17-2.17,4.7,4.7,0,0,0-2.4-.8c.61-1.52,1.23-3.05,1.83-4.57a5.42,5.42,0,0,0-.56-4.32,5.6,5.6,0,0,0-4.82-2.77,5.58,5.58,0,0,0-2.84.77Zm-11.14,39.59h0v0Z"/><path class="cls-1" d="M316.66,144.57c-2.43.12-4.85.38-7.28.54-3,.21-5.94.57-8.89,1a28.15,28.15,0,0,0-8.38,2.93,48,48,0,0,0-6.06,3.69c-.92.66-1.82,1.33-2.71,2a30,30,0,0,0-3.85,3.26,39.71,39.71,0,0,0-8.33,13.16c-.77,2.08-1.35,4.23-2.06,6.33-.38,1.09-.7,2.19-1,3.31a43.53,43.53,0,0,0-.76,4.82,59.82,59.82,0,0,0,0,14.34c.18,1.51.46,3,.76,4.46.27,1.3.46,2.62.71,3.93.41,2.21,1,4.38,1.54,6.57a42.31,42.31,0,0,0,1.95,6.44c1,2.26,1.88,4.55,2.64,6.88a62.89,62.89,0,0,1,1.72,6.88c.46,2.22,1,4.42,1.41,6.66.25,2.46.33,4.94.6,7.4s.42,5.15.49,7.75c.08,2.78.34,5.58.26,8.36s-.29,5.65-.58,8.46c-.93,6.61-2.07,13.23-4.47,19.48a5.92,5.92,0,0,0-.38.9,38.16,38.16,0,0,1-1.9,3.57,26.2,26.2,0,0,1-1.82,2.63,36,36,0,0,1-5.2,5.41,33.11,33.11,0,0,1-4.45,3.1c-1.8,1-3.58,2-5.44,2.83l-1.85.77a32,32,0,0,1-6.21,1.82c-1.06.12-2.13.19-3.2.23-1.88.07-3.72.18-5.59.38l-1.51.21a5.56,5.56,0,0,0-2.5,1.46,5.66,5.66,0,0,0,0,8,5.43,5.43,0,0,0,4,1.66c2.13-.23,4.23-.33,6.37-.39a47.22,47.22,0,0,0,6.59-.7,25.24,25.24,0,0,0,5-1.4c1.95-.78,3.93-1.53,5.84-2.41,1.52-.71,3-1.52,4.48-2.29a36.35,36.35,0,0,0,4.47-3,38.52,38.52,0,0,0,4.91-4.1,49.47,49.47,0,0,0,4.27-5.08c-.18.22-.35.45-.52.67a43,43,0,0,0,3.67-5.42c.49-.91.93-1.84,1.35-2.77a16.55,16.55,0,0,0,.68-1.64c.45-1.12.89-2.24,1.27-3.4.73-2.21,1.36-4.42,1.87-6.69a136.78,136.78,0,0,0,2.45-15.45,74.51,74.51,0,0,0,.42-7.62c0-2.56-.21-5.13-.28-7.7s-.18-4.86-.45-7.28-.37-4.91-.59-7.37a66.23,66.23,0,0,0-1.52-8.51c-.49-2.26-.91-4.53-1.51-6.76-1.2-4.38-3.46-8.39-4.59-12.78-.53-2-1-4.06-1.5-6.09-.61-2.48-.95-5-1.47-7.51l-.27-1.34a64.07,64.07,0,0,1,0-13.28,35.84,35.84,0,0,1,1.62-6c.68-2,1.21-4,1.93-5.91a33.66,33.66,0,0,1,3.42-5.55,22.26,22.26,0,0,1,3.06-3.29,54.35,54.35,0,0,1,9.81-6.22,19.08,19.08,0,0,1,3.27-1c1-.19,2-.34,2.94-.48,1.76-.2,3.53-.3,5.29-.45,2-.16,4-.33,6-.43a77.84,77.84,0,0,1,10.36.15,14.42,14.42,0,0,1,1.82.5q.35.18.69.39l.94.85c.71.61,1.48,1.15,2.25,1.7a23.24,23.24,0,0,1,3.16,3.19,10.48,10.48,0,0,1,.79,1.28c.53,1.53.85,3.14,1.23,4.72.45,1.91.9,3.8,1.22,5.73a26.68,26.68,0,0,1,.06,4.73,26.61,26.61,0,0,1-1.37,4.78,32.59,32.59,0,0,1-2.69,5.22,15.38,15.38,0,0,1-1.53,1.49,35.3,35.3,0,0,1-4.49,2.62c-1.82.93-3.6,1.89-5.32,3-.91.57-1.81,1.17-2.68,1.81l-.64.48-.29.2a5.89,5.89,0,0,0-.84.65c-.28.23-.55.46-.84.68L317,201.94a35.34,35.34,0,0,0-4.78,4.53,35.88,35.88,0,0,0-2.68,3.7,26.58,26.58,0,0,0-1.93,4.07,31.88,31.88,0,0,0-2,8.35c-.15,1.14-.3,2.29-.38,3.43a35.32,35.32,0,0,0,0,3.85c0,.95.15,1.91.24,2.86.07.73.19,1.48.21,2.22a6,6,0,0,0,2.81,6.37,6,6,0,0,0,4.61.61,6.19,6.19,0,0,0,3.58-2.76c1.84-2.79.63-6.47.54-9.55,0-1.2-.07-2.4,0-3.6.05-.77.14-1.54.24-2.3A31,31,0,0,1,319,218a22.05,22.05,0,0,1,1.95-3.27,38.43,38.43,0,0,1,5.47-5l.5-.4a5.68,5.68,0,0,0,.74-.55,52.85,52.85,0,0,1,4.61-2.94c1.78-1,3.63-1.86,5.41-2.86a23.75,23.75,0,0,0,5.63-4.28,23.16,23.16,0,0,0,3.93-5.91,45.19,45.19,0,0,0,3.06-7.58,29.07,29.07,0,0,0,1-8.14,42.21,42.21,0,0,0-1.14-8.05c-.45-2.08-.94-4.17-1.5-6.23a23.47,23.47,0,0,0-1.53-4,15.29,15.29,0,0,0-1.9-2.77c-.55-.72-1.1-1.44-1.71-2.12-.45-.5-1-1-1.48-1.44a33,33,0,0,0-3.36-2.66c-.86-.75-1.68-1.49-2.61-2.18a16,16,0,0,0-4-1.89,27.79,27.79,0,0,0-8-1.11c-1.05,0-2.1-.07-3.15-.07-1.41,0-2.82,0-4.23.1Zm-10,12.7-.48.07.48-.07Zm21.53,51-.15.11.15-.11Z"/><path class="cls-1" d="M325.51,192.12a5.49,5.49,0,0,0-3.14,2.41c-1.24,1.81-2.58,3.59-3.69,5.48l-.42.75a6,6,0,0,0-5.94.06,6,6,0,0,0-2.16,2.15,10.94,10.94,0,0,0-1,2.94,31.43,31.43,0,0,0-.38,3.22c-.05,1.49-.08,3-.05,4.48.08,3.37,1,6.64,1.54,9.95.1,1.24.15,2.49.19,3.74s-.17,2.54-.23,3.82c-.09,2.21-.13,4.42-.06,6.64a64.51,64.51,0,0,0,.57,6.67c-.05-.32-.09-.63-.13-1,.6,4.63.64,9.31,1.08,14,.34,3.66.75,7.31,1.06,11,0,4.81-.06,9.61-.42,14.42-.28,3.75-.66,7.52-1.14,11.25a78.5,78.5,0,0,1-1.33,7.78,56,56,0,0,1-2.59,8c-.85,1.94-1.68,3.88-2.67,5.74s-2,3.58-3,5.32-2.12,3.5-3.17,5.27-2.13,3.65-3.37,5.37c-.51.63-1,1.24-1.56,1.85-.28.23-.56.47-.84.69-.67.49-1.36.94-2,1.42-1,.69-1.92,1.43-2.85,2.17-1.42,1.05-2.88,2-4.38,2.95-1.8,1.12-3.5,2.41-5.34,3.47-1.67,1-3.45,1.67-5.18,2.52s-3.28,1.82-4.95,2.68a17,17,0,0,1-2.44.5c-1.68.19-3.36.31-5,.45-1.93.15-3.85.36-5.77.6s-3.57.45-5.37.61c-1.26.11-2.56.26-3.85.33l-.86,0-1.43-.07c-1.27-.36-2.52-.85-3.79-1.21s-2.65-.68-3.94-1.13a19.13,19.13,0,0,1-2.49-1.5,17.6,17.6,0,0,0-5.4-2.5c-1.12-.32-2.28-.58-3.43-.8a7.88,7.88,0,0,0-5.62.64,6.81,6.81,0,0,0-2.28,2.31,5,5,0,0,0-.66,1.64,6.16,6.16,0,0,0,0,3.19c.39,2.62,3,4.56,5.08,5.84A26.7,26.7,0,0,0,225,360.1a51.25,51.25,0,0,0,6.75,2.11c1.16.27,2.37.43,3.56.62q2.52.41,5.07.66l1.27.11a15.06,15.06,0,0,0,2.14.22c.52,0,1,0,1.55,0l2.57.08c2.36.06,4.71-.08,7.06-.18,2.16-.09,4.28-.24,6.42-.52,2.42-.33,4.83-.66,7.21-1.19a5.39,5.39,0,0,0,3.35,1,63.53,63.53,0,0,0,8.71-.93,21.08,21.08,0,0,0,5.23-2.08c.95-.5,1.93-.94,2.87-1.48s2.15-1.22,3.22-1.86,2.12-1.45,3.17-2.2,2.08-1.4,3.15-2a26.56,26.56,0,0,0,3.15-2.25c.94-.67,1.92-1.28,2.89-1.92a29.11,29.11,0,0,0,4.56-4q1.83-1.87,3.7-3.72a41.75,41.75,0,0,0,3.94-4.77c-.1.12-.2.25-.29.38a60.24,60.24,0,0,0,4.06-5.84c1.19-2,2.35-4.05,3.52-6.09a66.66,66.66,0,0,0,3.09-6.15c1.14-2.54,2.23-5.1,3.12-7.73a62.18,62.18,0,0,0,2.86-15,69.14,69.14,0,0,0,.1-7.48,64.71,64.71,0,0,0-.69-8.57c-.27-1.68-.61-3.35-.91-5s-.49-3.47-.84-5.19c-.6-2.92-1.43-5.8-1.91-8.74-.41-3.43-.77-6.86-1.24-10.29-.37-2.73-.89-5.43-1.29-8.15-.39-3.29-.74-6.56-1.36-9.82-.53-2.8-1.26-5.57-1.72-8.38-.14-1.2-.25-2.4-.35-3.6.07-.35.15-.7.23-1a35.64,35.64,0,0,1,1.33-4.3c.51-1.39,1-2.79,1.46-4.2.34-1.09.66-2.18,1.05-3.25a66,66,0,0,1,4.73-7.46c1.61-2.37.45-5.82-1.89-7.19a5.24,5.24,0,0,0-2.66-.72,5,5,0,0,0-1.39.19ZM307,310.64c-.05.14-.11.28-.17.41.06-.13.12-.27.17-.41Z"/><path class="cls-1" d="M265.22,292.87a13.47,13.47,0,0,0-3.24,2.06c-1,.89-2,1.86-2.92,2.84l-.29.29a6,6,0,0,0-.37-.65,4.77,4.77,0,0,0-6.52-1.7c-.45.23-.9.46-1.33.73a4.84,4.84,0,0,0-2.1,5.64c-.85,1.21-1.73,2.38-2.53,3.62a11.27,11.27,0,0,0-1.86,3.83,5.82,5.82,0,0,0,.16,3.07,7.08,7.08,0,0,0,1.13,2.1,5.2,5.2,0,0,0,2.94,2.26l1.3.17h0a5.21,5.21,0,0,0,1.14.68,5.26,5.26,0,0,0,9,3.42,5.48,5.48,0,0,0,1.54-3.71c0-.1,0-.2,0-.3a8.76,8.76,0,0,1,.32-1.11,65,65,0,0,1,5.24-8.74l.28-.32c.31-.34.6-.7.89-1.07a9.38,9.38,0,0,0,2.1-3.47,1.16,1.16,0,0,1,0-.18,10.78,10.78,0,0,0,1.83-2.68,4.89,4.89,0,0,0,.68-2.5,4.94,4.94,0,0,0-3.64-4.78,4.45,4.45,0,0,0-1.23-.17,6,6,0,0,0-2.59.67Z"/><path class="cls-1" d="M280.9,339.91c-1.23,1.92-2.38,3.92-3.71,5.78a24.46,24.46,0,0,1-1.82,1.85c-.75.7-1.45,1.45-2.23,2.11a37.18,37.18,0,0,1-5.86,3.84l-.92.35a19.24,19.24,0,0,1-3.57,1,44,44,0,0,1-8.42.43c-1.14-.19-2.27-.41-3.4-.64a47.85,47.85,0,0,0-5.45-.73c-2.74-.26-5.5-.3-8.23-.58-1.48-.26-2.92-.66-4.4-1a30.18,30.18,0,0,1-4.19-1.15,21.62,21.62,0,0,1-2.44-1.36,35.31,35.31,0,0,0-3.15-2,5.8,5.8,0,0,0-4.33-.57,5.68,5.68,0,0,0-3.36,2.58,5.61,5.61,0,0,0-.56,4.33,5.86,5.86,0,0,0,2.58,3.36c.95.65,1.89,1.31,2.87,1.93a28.62,28.62,0,0,0,4.14,2.08,41.88,41.88,0,0,0,6.82,1.85,48.77,48.77,0,0,0,8.43,1.19c2.41.13,4.81.28,7.2.52l2.64.47a42,42,0,0,0,4.34.65,36.4,36.4,0,0,0,6.26-.25c1.61-.18,3.22-.39,4.82-.62a17.74,17.74,0,0,0,4.48-1.24,25.37,25.37,0,0,0,3.32-1.5c.73-.44,1.46-.91,2.16-1.4,1.55-1.08,3-2.3,4.48-3.49a40.56,40.56,0,0,0,3.11-3c2.84-2.84,4.79-6.4,6.94-9.77a5,5,0,0,0-1.78-6.77,4.75,4.75,0,0,0-2.43-.67,5.2,5.2,0,0,0-4.34,2.44Z"/><path class="cls-1" d="M214.56,336.44a5.86,5.86,0,0,0-4.06,7.17,70,70,0,0,1,1.55,7.46q.6,3.27,1.09,6.56c.7,6.46,1.23,12.93,1.37,19.43a175.2,175.2,0,0,1-1,20.48c-.47,3.13-1.1,6.24-1.79,9.34-.42,1.9-.85,3.78-1.44,5.63-.39,1.26-.89,2.49-1.4,3.71a31,31,0,0,1-3.64,5.84c-1.11,1.39-2.26,2.72-3.5,4-.65.67-1.4,1.27-2.1,1.89l-1.55,1.36a17.72,17.72,0,0,1-1.75,1,33.51,33.51,0,0,1-3.26,1.06,47,47,0,0,1-7.5-.09,18.41,18.41,0,0,1-2.75-.68,14.69,14.69,0,0,1-1.28-.74,18.43,18.43,0,0,1-2-2.08,23.92,23.92,0,0,1-2.38-3.9,60.72,60.72,0,0,1-2.68-9.46c-.73-3.51-1.41-7-2.11-10.56l-1.05-5.32a43.45,43.45,0,0,0-1.38-5.24,73.47,73.47,0,0,1-2.58-10.85c-.18-1.49-.35-3-.4-4.48-.07-2-.07-4.07-.06-6.11a5,5,0,1,0-9.91,0c0,2.88,0,5.76.21,8.64a84.2,84.2,0,0,0,1.18,8.68c.45,2.42,1,4.84,1.72,7.21.27.92.56,1.84.74,2.79.26,1.3.49,2.6.73,3.9.83,4.54,1.56,9.11,2.49,13.64.47,2.26.95,4.5,1.58,6.73a34.7,34.7,0,0,0,3,7.57,28.3,28.3,0,0,0,1.84,2.77,30.74,30.74,0,0,0,2.57,3.22,19.26,19.26,0,0,0,8,4.82,24.9,24.9,0,0,0,5.36.88c1.28.13,2.57.19,3.86.23a32.53,32.53,0,0,0,4.07-.08,20.8,20.8,0,0,0,5.36-1.36c1-.36,1.91-.77,2.85-1.18a14.42,14.42,0,0,0,3.25-2.12c1-.83,2-1.72,3-2.59A41.78,41.78,0,0,0,214,430a36,36,0,0,0,5.25-7.92,77.68,77.68,0,0,0,3-7.76c.4-1.27.65-2.63.94-3.93s.53-2.52.8-3.78a83.63,83.63,0,0,0,1.47-8.75c.51-5.12.87-10.25,1-15.38a169,169,0,0,0-2.58-33.08c-.28-1.55-.58-3.1-.91-4.63-.14-.68-.28-1.37-.47-2a27,27,0,0,0-1.36-3.61,5.78,5.78,0,0,0-5-2.89,5.72,5.72,0,0,0-1.54.21Z"/><path class="cls-1" d="M161.21,378c-1.53.84-3.09,1.61-4.68,2.33-1.09.42-2.17.82-3.29,1.14a31.54,31.54,0,0,1-3.86.7c-2.44.39-4.85.89-7.28,1.31-2.31.24-4.62.33-6.94.39-1.31,0-2.61.13-3.92.19-1.5.07-3,0-4.5.06a5.8,5.8,0,0,0-4.1,9.89,6.09,6.09,0,0,0,4.1,1.7,68.21,68.21,0,0,0,9.58-.44,65.6,65.6,0,0,0,10.34-1.42c3.05-.72,6.16-1.2,9.19-2a35.63,35.63,0,0,0,5.29-2c1.85-.82,3.65-1.71,5.42-2.68a5.35,5.35,0,0,0,1.9-7.25,5.24,5.24,0,0,0-4.57-2.59,5.63,5.63,0,0,0-2.68.69Z"/><path class="cls-1" d="M77.51,347.77a5,5,0,0,0-3,2.31l-.51,1.2A5,5,0,0,0,74,354c.2,1.4.4,2.81.59,4.21l.69,5.72c.16,1.29.33,2.57.59,3.84.19.92.52,1.81.72,2.74s.17,1.82.22,2.74c.08,1.38.24,2.76.43,4.13.11.94.2,1.86.22,2.81,0,1.12,0,2.25-.09,3.36-.09,2.47-.11,4.93-.15,7.4s-.09,5.19-.13,7.78a42.81,42.81,0,0,0,.91,8.37c.43,2.36.81,4.73,1.29,7.07a34.43,34.43,0,0,0,2.52,7.45c1,2.13,1.86,4.31,3,6.39A67.38,67.38,0,0,0,88.62,434a30.6,30.6,0,0,0,5,5.84c1,.9,2.09,1.73,3.17,2.55a17.58,17.58,0,0,0,4.12,2,22.59,22.59,0,0,0,3.13,1,31.24,31.24,0,0,0,3.76.55,19.84,19.84,0,0,0,5.79.69,23.56,23.56,0,0,0,2.77-.25l.25,0c1-.15,2-.35,2.93-.56a13.52,13.52,0,0,0,8.6-6.39,32.8,32.8,0,0,0,2.13-5.25c.56-1.58,1-3.15,1.45-4.77.36-1.45.74-2.89,1-4.36.41-2,.61-4.11.88-6.17l-.21,1.6.3-2.39c.33-2,.58-4.07.82-6.11.63-5.45,1.18-10.91,1.38-16.39.2-5.23.28-10.46.31-15.69v-.75a6,6,0,0,0-12,0c0,6.64-.54,13.29-1,19.91-.23,3.37-.49,6.73-.7,10.1-.14,2.28-.32,4.55-.57,6.82-.2,1.24-.44,2.48-.76,3.7a35.92,35.92,0,0,1-1.09,3.57c-.2.55-.42,1.09-.64,1.63a40.4,40.4,0,0,1-3.12,5.84,25.12,25.12,0,0,1-2.66,2.6,19,19,0,0,1-1.68,1h0c-.61,0-1.22,0-1.82,0l-.31-.11c-.44-.2-.86-.42-1.28-.66a6,6,0,0,0-4.68-.5,12.39,12.39,0,0,1-1.2-.73,26.88,26.88,0,0,1-3.27-3.13c-.55-.77-1.07-1.56-1.59-2.36-.9-1.35-1.8-2.7-2.6-4.11a64.37,64.37,0,0,1-3-6.45,41.31,41.31,0,0,1-2-7.59c-.47-2.46-1-4.92-1.42-7.39-.21-2.28-.17-4.59-.2-6.88q0-3.81,0-7.62c0-2.27.09-4.55-.08-6.81-.19-2.56-.73-5.07-1.12-7.6a29.5,29.5,0,0,0-1.33-6.6,28.66,28.66,0,0,1-1.15-6.11l.12.92q-.6-4.65-1.28-9.28a4.8,4.8,0,0,0-2.31-3,5.06,5.06,0,0,0-3.87-.5Z"/><path class="cls-1" d="M31.07,273.07A5.16,5.16,0,0,0,28,275.44a5.46,5.46,0,0,0-.52,4c1,5.48,2,10.95,3.4,16.35.66,2.62,1.35,5.22,2.08,7.82s1.58,5.09,2.43,7.62a102,102,0,0,0,6.32,15.3c1.14,2.18,2.31,4.34,3.45,6.52s2.33,4.62,3.64,6.86c1.64,2.81,3.68,5.41,5.57,8.06,2.07,2.89,4.08,5.82,6.1,8.75a53.74,53.74,0,0,0,6.65,7.72A80.32,80.32,0,0,0,75,370.75l.45.35c.56.44,1.12.89,1.69,1.31a10,10,0,0,0,2.36,1.12A5.73,5.73,0,0,0,85.09,364a46.76,46.76,0,0,0-3.91-3.11c-1.24-.94-2.5-1.85-3.75-2.77a55,55,0,0,1-7.27-7.21c-1.94-2.58-3.79-5.25-5.7-7.85-2.26-3.08-4.61-6.12-6.58-9.39-1.85-3-3.41-6.26-5.13-9.37-.87-1.56-1.78-3.12-2.57-4.72s-1.49-3.11-2.2-4.68a166.61,166.61,0,0,1-6.12-18.18c-.81-3-1.62-5.92-2.3-8.91-.83-3.67-1.46-7.4-2.14-11.1a5,5,0,0,0-2.37-3.08,5.27,5.27,0,0,0-2.62-.7,5.18,5.18,0,0,0-1.36.18Z"/><path class="cls-1" d="M24.31,192.1a5.08,5.08,0,0,0-3.11,2.4c-1.07,2.18-2.19,4.34-3.21,6.55-.95,2-1.82,4.1-2.82,6.11s-2,3.74-3.13,5.57a32.84,32.84,0,0,0-2.1,4.78c-.28.72-.56,1.44-.86,2.16l-.89,2.13a25,25,0,0,0-.93,3.09c-.36,1.3-.66,2.62-1,3.93-.52,2.19-1,4.37-1.52,6.56C3.6,240.5,3.25,245.75,2.62,251c-.32,2.24-.68,4.47-1,6.71a86.3,86.3,0,0,0-.78,8.93c0,.81,0,1.63-.06,2.45-.2,1.81-.38,3.62-.5,5.44-.16,2.3-.23,4.62-.27,6.93,0,1.13,0,2.26,0,3.39.12,1.79.38,3.55.62,5.32L.46,288.6a35.15,35.15,0,0,0,3.75,12.46,40,40,0,0,0,3.67,5.27A21.08,21.08,0,0,0,13,310.77a21.88,21.88,0,0,0,7.59,2.77,40,40,0,0,0,4.07.61l1.63.16a11.77,11.77,0,0,0,4.59-.59A25.87,25.87,0,0,0,34.83,312a14.61,14.61,0,0,0,3-2.12,28.25,28.25,0,0,0,2.83-3.16,42.89,42.89,0,0,1,4.84-4.88,5.78,5.78,0,0,0,1.49-2.55,5.84,5.84,0,0,0-.59-4.46A5.78,5.78,0,0,0,43,292.23l.18-.39c1-2,1.84-4.07,2.67-6.15.35-.87.7-1.75,1-2.63a19.78,19.78,0,0,0,1-2.6,5.86,5.86,0,0,0-7.21-7.2A6.06,6.06,0,0,0,37.12,276c-.7,1.07-1.26,2.25-1.85,3.38-.78,1.49-1.53,3-2.28,4.49a71.78,71.78,0,0,1-5.53,9.07,27.73,27.73,0,0,1-3.12,3l-.52.3-.31.09c-.48,0-1,0-1.44-.08a16.83,16.83,0,0,1-1.85-.5,34.11,34.11,0,0,1-1.7-3.15,54.23,54.23,0,0,1-2.22-9.77,128.18,128.18,0,0,1-.69-14.13c0-2.79.08-5.56.18-8.35.08-2.17.32-4.33.58-6.49.51-2.63,1-5.26,1.8-7.84.86-3,1.75-5.91,2.69-8.85,1.28-4,2.58-8.07,4-12.06l1.05-2.65c.23-.6.46-1.2.7-1.79,1.19-2.6,2.43-5.16,3.7-7.73.82-1.65,1.59-3.31,2.3-5,.32-.78.61-1.57.88-2.37a10.27,10.27,0,0,0,.88-4.14l-.21-1.54a5.73,5.73,0,0,0-3.39-3.8c0-.1,0-.19-.07-.29a5.2,5.2,0,0,0-5-3.82,5.39,5.39,0,0,0-1.38.18Z"/><path class="cls-2" d="M131.19,49.34c-2.54.13-5.07.17-7.6.27a69.78,69.78,0,0,0-9,.78c-1.11.2-2.23.39-3.33.68s-2.13.65-3.19,1c-2.37.74-4.76,1.41-7.13,2.11s-4.81,1.5-7.23,2.2c-1.72.49-3.44,1-5.16,1.46A5.23,5.23,0,0,0,89,68h0a5.54,5.54,0,0,0,2.24-.1c2.54-.7,5.17-1.47,7.5-2.15l.39-.11c2.15-.63,4.3-1.27,6.47-1.86l2.76-.74.59-.15c.9-.24,1.79-.47,2.68-.72A50,50,0,0,1,116.61,61c3.12-.27,6.27-.34,9.31-.4,1.75,0,3.51-.06,5.27-.14.52,0,1,0,1.56-.07l.46,0c1.25-.07,2.53-.15,3.8-.15l1,0c2.73.09,4.84.22,6.83.41.8.13,1.59.29,2.38.44.63.13,1.25.24,1.88.35,1.55.29,3.17.47,4.59.63l1.35.16,2.15.33.87.14,3.25.51a26.45,26.45,0,0,1,5.46,1.6c1.66.72,3.45,1.48,5.24,2.13a5.68,5.68,0,0,0,3.06,0l.15,0h0a5.77,5.77,0,0,0,3.86-7,5.59,5.59,0,0,0-2.65-3.45c-1.59-.74-3.23-1.37-4.86-2-1.16-.47-2.31-.94-3.5-1.35a36.11,36.11,0,0,0-7.53-1.4c-1.46-.22-2.91-.46-4.38-.64-1.23-.16-2.48-.29-3.72-.43-.89-.15-1.79-.32-2.68-.51-1.48-.31-3-.48-4.46-.66A71.5,71.5,0,0,0,138,49h-.67c-2.05,0-4.1.21-6.15.32Z"/><path class="cls-2" d="M213.33,9.44c-1.41.58-2.79,1.23-4.16,1.93A23.57,23.57,0,0,0,203,15.83a29.14,29.14,0,0,0-2.68,3.37c-.72,1-1.42,2-2.13,3-1.54,2.18-3.07,4.38-4.6,6.58-3.21,4.63-6.74,9-9.76,13.81C180.13,48.36,176.56,54.18,173,60a4.94,4.94,0,0,0,1.76,6.71,4.52,4.52,0,0,0,.49.25h0a4.71,4.71,0,0,0,1.91.4,5.09,5.09,0,0,0,4.28-2.41l3.72-6,3.72-6c2-3.25,4.19-6.7,6.57-10q1.26-1.75,2.54-3.49l.17-.23c1.5-2,3-4.1,4.47-6.17,1.84-2.61,4-5.67,6.23-8.64A21.37,21.37,0,0,1,211.18,22a29.53,29.53,0,0,1,4-2.12l.8-.26h0c.26.24.5.49.75.75l.67.68.14.13c.3.29.6.58.88.89l.07.13c.3.83.56,1.66.81,2.5l0,.11c.29,1,.6,2,.95,2.89,1,2.65,1.81,4.88,2.45,7,.87,2.86,1.68,5.78,2.46,8.59.6,2.15,1.2,4.29,1.82,6.43.75,2.56,1.42,5.19,2,8,.4,1.85.68,3.75,1,5.69l.07.44.24,1.6c.74,4.74,1.63,10.33,2.58,15.84.39,2.3.85,4.64,1.32,7,.63,3.2,1.34,6.82,1.85,10.39.31,2.35.65,4.7,1,7l.16,1.13.31,2.18.36,2.56c.29,2.73.55,5.45.82,8.18.25,2.46.49,4.91.74,7.37.29,2.78.55,5.57.8,8.36.18,2.13.24,4.33.3,6.54l0,1.11c.27,10.36.24,20.84.21,31v1.15l0,7.81v1.27c0,1.91-.07,3.86-.14,5.74v.41l0,1.23c-.21,5.49-.32,11-.44,17.06-.06,2.77-.15,5.54-.24,8.34-.09,2.63-.18,5.26-.25,8.05,0,1,0,2-.08,3a15.47,15.47,0,0,1,2.86,2,20.56,20.56,0,0,1,2.48,2.86,32.76,32.76,0,0,1,3.53,5.82c.36.75.71,1.51,1.06,2.27s.69,1.48,1,2.22l.27.58c.05-1.11.1-2.22.14-3.33.16-4.54.29-9.38.39-15.24,0-1.61.08-3.22.15-4.84.11-3.82.25-7.63.31-11.44.11-5.74.21-11.47.4-17.2.08-2.46.17-4.9.17-7.36q0-4.45,0-8.92c0-10.66-.05-21.33-.35-32-.09-3.52-.25-7-.57-10.53s-.73-7.23-1.1-10.84-.71-7.08-1.08-10.61-1-7.32-1.55-11c-.33-2.61-.6-5.25-1.07-7.83s-1-5.27-1.52-7.9c-1-5.16-1.88-10.36-2.7-15.55-.89-5.52-1.6-11.09-2.8-16.54-1.14-5.17-2.91-10.19-4.27-15.31-.64-2.43-1.38-4.83-2.13-7.23s-1.66-4.51-2.53-6.76c-.35-.91-.6-1.86-.88-2.79a16.78,16.78,0,0,0-2.93-6c-.72-.84-1.56-1.53-2.34-2.3a21.86,21.86,0,0,0-3.43-2.8,7.37,7.37,0,0,0-4-1.1,9.84,9.84,0,0,0-3.77.76Zm3.09,10.08h0l.08,0-.08,0Zm2.27,3.08c.06.13.12.26.17.39l-.17-.39Z"/><path class="cls-2" d="M236.7,274.64c-.6,3.92-1.24,7.62-2,11.31-.43,2.21-.87,4.4-1.33,6.6-.34,1.63-.77,3.3-1.15,4.77l-.27,1.09c-.92,3.66-2.1,7.6-3.51,11.73l-.72,2.12c-.73,2.14-1.48,4.35-2.28,6.48,1.49,1.06,2.84,2.07,4.14,3.09a31.56,31.56,0,0,1,3.6,3.21l.16.17.31.34c.39.45.77.93,1.12,1.42.28-.61.55-1.21.81-1.84.57-1.37,1.08-2.74,1.57-4.14,1.69-4.78,3.43-9.57,4.79-14.46.81-2.91,1.6-5.81,2.34-8.74.6-2.41,1.05-4.87,1.53-7.31,1.11-5.71,2.14-11.42,2.8-17.2.07-.61.13-1.23.2-1.84l0,0c.29-2.7.56-5.63.83-9l-.17-.24a6.2,6.2,0,0,0-.42-.46c-.19-.2-.39-.39-.59-.57l-.77-.75A27.09,27.09,0,0,1,244.9,257a43,43,0,0,1-3.38-5.74c-.53-1.07-1-2.15-1.51-3.24-.26-.57-.52-1.14-.77-1.71l-.22-.49c-.48,9.68-1.26,19.38-2.32,28.82Z"/><path class="cls-2" d="M38.82,245.31c-.93,1.36-1.78,2.79-2.6,4.17l-.79,1.31a86,86,0,0,0-4.72,9.4c.18,1.12.37,2.23.57,3.34.67,3.78,1.52,7.61,2.26,10.87v0c.4,1.73.81,3.45,1.21,5.17a199.35,199.35,0,0,0,10,30.58c1.07,2.62,2.15,5.27,3.38,7.82l2.08,4.29c.64,1.33,1.41,2.61,2.11,3.91,2.56,4.72,5.5,9.25,8.4,13.76A134.74,134.74,0,0,0,71,353.53c1.62,1.92,3.3,3.83,5.08,5.61s3.78,3.7,5.61,5.6,3.21,3.88,4.87,5.77c1,1.16,2.07,2.28,3.2,3.34A22.09,22.09,0,0,0,93,376.29v0a42.06,42.06,0,0,0,6.75,3.33c1,.39,2.06.78,3.21,1.18l.35.11c0-.71-.1-1.43-.16-2.14-.24-3.23-.53-6.73-.91-11a28.43,28.43,0,0,1-3.78-2.2A48.88,48.88,0,0,1,92.56,359a58.76,58.76,0,0,0-5.28-5.66c-2-1.92-3.86-3.8-5.59-5.78-2.18-2.5-4.31-5.05-5.72-6.76-1.78-2.35-3.37-4.46-4.8-6.68-1.69-2.63-3.6-5.61-5.36-8.56l-.89-1.47-.11-.17c-.55-.91-1.13-1.86-1.64-2.81l-1-1.9-1.58-2.92c-.57-1-1.09-2.17-1.55-3.16l-.15-.33c-.2-.44-.41-.87-.61-1.3-.53-1.08-1-2.24-1.41-3.18l-.32-.76c-1.69-4.12-3.29-8.37-4.78-12.6-1.72-4.88-3-8.94-4-12.79-1.09-4.15-2.15-8.61-3.23-13.65-.12-.57-.25-1.14-.37-1.7L44,266.3c-.33-1.48-.71-3.15-1-4.79-.34-1.88-.67-3.9-1.1-6.75-.47-3.75-.83-7.14-1.08-10.32l-.15-1.77q-.95,1.31-1.86,2.64Z"/><path class="cls-2" d="M180.24,365.86A128.22,128.22,0,0,1,167,370.57l-2,.55-.12,0c-1.91.55-3.88,1.11-5.84,1.5-2.49.51-5.09,1-8.44,1.52-3.6.46-6.61.81-9.65,1-1.78.1-3.59.13-5.33.17H135c-1.48,0-3-.11-4.34-.22-1.73-.27-3.78-.62-5.9-1.17-2.4-.61-4.86-1.22-7.51-1.84-1-.23-1.93-.46-2.87-.71l-.27-.06c.28,3.1.53,6.21.76,9.36q.14,1.6.24,3.18l2.82.71.75.2,2.39.61,1.38.32a66.68,66.68,0,0,0,9.11,1.44,70.07,70.07,0,0,0,7.67.07c2.71-.05,5.4-.36,8.09-.64,3-.31,6.05-.8,9.05-1.28,2.57-.41,5.12-.89,7.64-1.54s5-1.23,7.5-2c1.25-.41,2.49-.84,3.73-1.27v0q2.4-.84,4.79-1.72c1.14-.43,2.27-.87,3.38-1.31l-.45-2.79-.45-2.78-.41-2.57c-.2-1.21-.39-2.43-.55-3.63l0-.27-1.23.49Z"/><path class="cls-2" d="M218.75,332.11c-1.24,2.22-2.33,4.1-3.42,5.91-.89,1.51-1.92,3-2.91,4.38l-.11.14-.43.61c-.67.85-1.46,1.85-2.3,2.82-1.36,1.54-2.72,3-3.87,4.15a71.42,71.42,0,0,1-6.1,5.53c-.93.61-1.92,1.17-2.88,1.71l-.12.07-.45.26-.75.42-3.16,1.81.2,1.43c.41,3,.9,6,1.38,8.86l.29,1.88c0,.15,0,.3.07.46.31-.17.61-.33.91-.51l2.07-1.19.57-.34.23-.13c1.36-.8,2.75-1.61,4.15-2.37,1.16-.63,2.4-1.32,3.57-2.11.32-.22.64-.46,1-.7l.16-.1c1-.73,1.86-1.53,2.76-2.3A78.39,78.39,0,0,0,220.69,351,92.5,92.5,0,0,0,228,339.76h0a18.84,18.84,0,0,1-.86-1.9l-.13-.33c-.33-.8-.62-1.6-.9-2.4l-.17-.48a11,11,0,0,0-.71-1.21,27.26,27.26,0,0,0-3.72-3.38l-1-.77-.13-.09-1.62,2.92Z"/><path class="cls-2" d="M43,12.24a7.73,7.73,0,0,0-4.16,2.69,17.85,17.85,0,0,0-2,2.69,42.67,42.67,0,0,0-2.29,5.64,54.92,54.92,0,0,0-2.74,6.48c-.63,2.11-1.16,4.26-1.63,6.42-.28,1.3-.55,2.6-.79,3.91-.29,1.6-.43,3.25-.61,4.87-.32,2.8-.51,5.62-.71,8.44-.38,5.36-.75,10.72-1.18,16.07-.41,5.17-.71,10.32-.77,15.5-.13,10.79-.64,21.58-.32,32.37.16,5.56.4,11.12.44,16.69q.06,8,.21,15.91c.1,5.55.32,11.1.36,16.66.05,5.2,0,10.4.13,15.61s.37,10.71.41,16.06,0,10.81.1,16.22q0,2.72.09,5.43l0,0c.08,3.4.23,6.85.43,10.24l.05,1.1v.11c.14,2.42.28,4.85.4,7.27,0,.48.07,1,.1,1.45,1.16-1.8,2.29-3.42,3.44-4.95a56.7,56.7,0,0,1,7.66-8.61c0-.71-.07-1.41-.09-2.11-.19-5.58-.25-11.37-.3-16.49S39.15,197,39,191.38c-.16-4.79-.32-9.92-.37-14.91,0-1.82,0-3.65,0-5.48,0-3.14,0-7.06-.13-10.78l-.1-3.46c-.13-4.14-.27-8.42-.33-12.69,0-1.45,0-2.91,0-4.36v-2.12c0-3.34,0-6.8-.14-10.19q-.06-2-.15-4.08c0-1.3-.1-2.59-.14-3.88,0-1.81-.08-3.61-.11-5.42l0-.9,0-1.9c-.07-4.34,0-8.74.17-13,0-1.31.08-2.62.11-3.93.06-2.44.1-4.89.14-7.34q.08-4.38.19-8.75c.07-2.23.26-4.52.42-6.55l.05-.71c.22-2.74.44-5.49.64-8.24.09-1.19.17-2.38.25-3.57l.08-1.18v-.2c.33-4.82.67-9.8,1.24-14.68.46-2.39,1-4.73,1.47-6.81A40.27,40.27,0,0,1,43.69,31c.62-1.36,1.27-2.84,1.89-4.45a3.42,3.42,0,0,1,.17-.4v-.05h0v0c.77.86,1.56,1.79,2.4,2.85,1.75,2.2,3.27,4,4.78,5.71,2.16,2.45,4.48,4.83,6.78,7.18,1.37,1.4,2.75,2.81,4.1,4.24,2.64,2.8,5.09,5.8,7.46,8.69.75.93,1.51,1.85,2.26,2.76A61.44,61.44,0,0,0,78,62.33l.45.45c.59.57,1.2,1.17,1.77,1.8.38.41.74.84,1.1,1.27l.3.34c.19.23.38.46.58.68a5.51,5.51,0,0,0,4.15,1.73,6.36,6.36,0,0,0,2.71-.6h0l.34-.18a6,6,0,0,0,2.74-3.57,5.73,5.73,0,0,0-.6-4.61c-.88-1.15-1.78-2.24-2.73-3.33-.76-.85-1.59-1.62-2.4-2.42a65.69,65.69,0,0,1-4.66-5.07c-1.72-2.06-3.41-4.15-5.12-6.22s-3.81-4.27-5.78-6.35c-3.59-3.78-7.41-7.34-10.78-11.33-1.75-2.08-3.45-4.21-5.23-6.26-.76-.88-1.63-1.69-2.46-2.52a15.92,15.92,0,0,0-3.7-2.89,12.19,12.19,0,0,0-2-.9,6.8,6.8,0,0,0-2-.31,8,8,0,0,0-1.71.2Z"/><path class="cls-2" d="M207,51.15a6.7,6.7,0,0,0-2.06,2.23c-.8,1.24-1.57,2.49-2.33,3.74-.61,1-1.23,2-1.85,3-2,3.14-3.87,6-5.74,8.72a4.06,4.06,0,0,0-.55,3.22,4.85,4.85,0,0,0,2.22,3.14,4.6,4.6,0,0,0,2.35.63,4.49,4.49,0,0,0,1.22-.16,4.9,4.9,0,0,0,2.79-2.13c1.91-2.81,3.82-5.71,5.83-8.88l.06-.1.06-.05v0h0v0l.33.8a21.51,21.51,0,0,1,.93,2.51,4.76,4.76,0,0,0,.53,3.29,4.85,4.85,0,0,0,2.83,2.17,4.8,4.8,0,0,0,1.23.17,4.86,4.86,0,0,0,4.57-3.47,9,9,0,0,0,0-5,13.46,13.46,0,0,0-.76-2l-.21-.47c-.44-1-.86-2-1.29-3l-.29-.68-.25-.59L216.5,58c-.51-1.17-1-2.37-1.62-3.52-1.06-2.09-2.38-3.36-3.91-3.78a5.35,5.35,0,0,0-1.39-.18,5.23,5.23,0,0,0-2.58.65ZM210.28,68a1.57,1.57,0,0,1,0,.23c0-.07,0-.15,0-.23Z"/><path class="cls-2" d="M54.83,56.78a4.85,4.85,0,0,0-3.32,1.55,7.44,7.44,0,0,0-1.58,2.81c-.1.29-.21.59-.32.88l-.19.51-.37,1-.29.79-.22.59c-.37,1-.8,2.16-1.25,3.26l-.6,1.41-.27.66-.05.12-.06.12v0h0l-.5,1-.07.12c-.43.86-.87,1.71-1.34,2.55A4.65,4.65,0,0,0,46,80.37a4.56,4.56,0,0,0,2.29.61,4.51,4.51,0,0,0,4-2.24c.48-.89.94-1.78,1.4-2.67l.12-.25.4-.77c.24-.47.44-1,.68-1.58l.08-.2.22-.55.32-.75.54-1.3c.32-.75.62-1.52.93-2.3l0,0v0h0v0c1.13,1,2.09,1.83,2.94,2.62a4.86,4.86,0,0,0,3.35,1.34,4.55,4.55,0,0,0,3.25-1.34,4.89,4.89,0,0,0,1.36-3.54,4.23,4.23,0,0,0-1.36-3.06C65.31,63.15,64,62,62.46,60.85c-.87-.69-1.75-1.36-2.63-2l-1.25-.92A6.56,6.56,0,0,0,55,56.78Z"/><path class="cls-2" d="M84.6,356.48a4.74,4.74,0,0,0-2.83,2.18,5,5,0,0,0-.48,3.64c.85,4.89,1.52,9.81,2.19,14.73.31,2.42.6,4.85.93,7.28.14,1.05.28,2.11.44,3.16.33,2.7.56,5.4.91,8.1.15,1.19.31,2.38.47,3.56q.45,3.71.81,7.39a79.69,79.69,0,0,0,1.1,8,73.88,73.88,0,0,0,3.58,13.27,29.85,29.85,0,0,0,4.62,8.29A18.39,18.39,0,0,0,99.57,439a17.67,17.67,0,0,0,2.53,1.55c1.23.59,2.5,1.14,3.78,1.61a25.23,25.23,0,0,0,3.23.75,34.88,34.88,0,0,0,6.27.84c2.7.09,4.9-1.53,6.85-3.18a13.63,13.63,0,0,0,2.85-3.56,31.8,31.8,0,0,0,3.5-11.47,107.69,107.69,0,0,0,.89-12.81c.08-3.65.17-7.27.57-10.89.38-2.38.85-4.73,1.27-7.1a66.68,66.68,0,0,1,1.83-8.27A5.79,5.79,0,0,0,126,379.3a5.58,5.58,0,0,0-3.46,2.66c-.51,1.15-1,2.3-1.36,3.47h0c-.29.85-.54,1.73-.75,2.6s-.41,1.95-.58,2.9l0,.12-.1.55c-.06.34-.13.68-.19,1A97.6,97.6,0,0,0,118,403.42c-.26,3.07-.29,6.21-.32,9.31,0,3.41-.07,6.94-.43,10.4a35,35,0,0,1-1.57,6.77,15.26,15.26,0,0,1-.94,1.7l-.36.35-.52-.09-.5-.07.46.06-1.68-.32-.9-.18a20.49,20.49,0,0,1-3-.79,19.81,19.81,0,0,1-3-1.65,11.83,11.83,0,0,1-1-1,30.19,30.19,0,0,1-2.38-4.41,57,57,0,0,1-2.69-8.67c-.13-.57-.26-1.13-.4-1.7l0-.12-.07-.3c-.21-.91-.43-1.82-.62-2.74-.29-1.42-.5-2.83-.67-4.05l-.21-1.71v-.11c-.29-2.35-.59-4.78-1-7.15s-.75-4.51-1-6.49L95,389v0l0,.18,0-.17v.17c-.36-2.67-.8-5.38-1.22-8l-.06-.37c-.21-1.28-.42-2.56-.6-3.85l-.21-1.38c-.79-5.26-1.54-10.53-2.46-15.77A4.55,4.55,0,0,0,88.24,357a4.82,4.82,0,0,0-2.4-.64,4.69,4.69,0,0,0-1.24.16Z"/><path class="cls-2" d="M209.08,355.6l-.93,1.19a5.87,5.87,0,0,0-.8,3c-.2,1.74-.32,3.49-.41,5.25l0,0c-.07,1.22-.11,2.44-.15,3.65v.53c-.09,2.45-.17,5-.4,7.46,0,.46-.08.92-.13,1.38,0-.15.05-.3.08-.45s0-.22,0-.33c0,.1,0,.2,0,.3,0-.1,0-.2.07-.3-.19,1.33-.34,2.66-.49,4l0,.39-.09.77-.06.57.06-.45c0,.18-.05.35-.07.53l-.12,1.06q-.57,4.31-1.11,8.61c-.46,3.18-1,6.59-1.8,10l-.51,2.13-.13.54c-.2.81-.39,1.62-.56,2.43a34.29,34.29,0,0,1-1.78,5.17,40.66,40.66,0,0,1-3.72,6.78,23.13,23.13,0,0,1-2.82,3,15.07,15.07,0,0,1-1.58,1,14,14,0,0,1-1.53.43h-.35c-.38,0-.76,0-1.15-.05a15,15,0,0,1-2.07-.55,15.78,15.78,0,0,1-1.92-1.07l-.19-.2c-.23-.36-.44-.73-.64-1.11-.2-.58-.38-1.15-.58-1.82l-.08-.25c-.17-.55-.35-1.1-.54-1.64l-.1-.33c-.15-.44-.29-.88-.43-1.31-.4-1.32-.77-2.65-1.14-4l-.47-1.69c-.21-.72-.43-1.44-.67-2.24-.38-1.24-.77-2.52-1.06-3.82-.43-1.83-.68-3.75-.91-5.5s-.49-3.72-.76-5.57l-.23-1.82c-.45-3.54-.91-7.2-1.59-10.78h0c-.39-2-.85-4-1.42-5.94a5,5,0,0,0-9.65,2.66,71.59,71.59,0,0,1,1.94,9.6c.52,4.77.91,9.55,1.4,14.32a66.76,66.76,0,0,0,1.31,8.56c.49,2.1,1,4.2,1.5,6.3s1.14,4.35,1.72,6.52c.15.57.29,1.13.45,1.69a24.71,24.71,0,0,0,1,2.63,15.43,15.43,0,0,0,2.31,3.58,13.52,13.52,0,0,0,3.5,2.83,22.93,22.93,0,0,0,4.55,2,22.59,22.59,0,0,0,4.77.83,15.08,15.08,0,0,0,6-.74,21.11,21.11,0,0,0,9.91-7.12,34.27,34.27,0,0,0,3.74-5.46c.87-1.63,1.63-3.29,2.36-5l0,.08a1.08,1.08,0,0,0,.08-.19l.12-.26,0,.06.07-.18a43.54,43.54,0,0,0,2.45-7.22c.52-2.31,1.13-4.6,1.6-6.92s.87-5,1.23-7.45c.42-3,.77-5.93,1.13-8.89,0,.32-.09.65-.13,1,.35-2.67.65-5.35,1-8l-.21,1.6a97.25,97.25,0,0,0,.9-10.91c0-1.74.07-3.48.19-5.22s.24-3.62.19-5.44a5.89,5.89,0,0,0-10-4.17Zm-9.7,58.2c-.08.19-.16.37-.23.55.07-.18.15-.36.23-.55Z"/><path class="cls-2" d="M23.88,204.65a83.31,83.31,0,0,0-4.1,7.4l-2.16,4.61c-.68,1.45-1.25,3-1.84,4.45-2,5.06-3.63,10.28-5.39,15.44a93.2,93.2,0,0,0-4.08,15.29C5.43,257.4,4.53,263,4.07,268.56c-.21,2.5-.23,5-.29,7.5,0,1.1-.06,2.19,0,3.29,0,1.28.14,2.56.26,3.84a41.75,41.75,0,0,0,1.42,8.31,20.75,20.75,0,0,0,4.4,7.57,22.54,22.54,0,0,0,3.31,2.76,16.28,16.28,0,0,0,4.5,2.67,18.2,18.2,0,0,0,3.66.7,11.7,11.7,0,0,0,2,.09,10.47,10.47,0,0,0,7.33-3.63,46.76,46.76,0,0,0,4.33-5.4c.53-.79,1-1.64,1.49-2.46S37.52,292,38,291.11c1.83-3.51,3.37-7.18,4.9-10.83l.57-1.32.55-1.29A5.43,5.43,0,0,0,37.34,271a5.7,5.7,0,0,0-3.25,2.49c-.19.29-.38.59-.55.9v0a31.64,31.64,0,0,0-1.44,3.05c-1.41,3.17-2.6,5.72-3.74,8A25.18,25.18,0,0,1,27,287.76c-.22.34-.43.68-.64,1l-.17.28c-.53.89-1,1.69-1.55,2.46l-1,1.19-.25.29c-.36.41-.71.81-1.1,1.21l-.57,0-.12,0a4.77,4.77,0,0,1-.51-.13,24.87,24.87,0,0,1-2.62-1.75,10,10,0,0,1-1.09-1,19.12,19.12,0,0,1-1.4-2.37,25.18,25.18,0,0,1-1.08-4.73c-.19-1.75-.35-3.34-.39-4.95,0-1.29,0-2.62,0-3.9v-.17l0-1.14c.08-3.85.31-7.27.69-10.44.11-.78.21-1.57.31-2.35.41-3,.89-6.43,1.51-9.84a76.7,76.7,0,0,1,2.75-10c1.26-3.8,2.38-7.22,3.41-10.46s2.24-6.29,3.36-9.12l.45-.92c.69-1.5,1.39-3,2.08-4.5.48-1,1.13-2,1.68-3,.65-1.16,1.31-2.32,2-3.47A5.23,5.23,0,0,0,31,202.79a5.11,5.11,0,0,0-2.57-.69,5.32,5.32,0,0,0-4.53,2.55ZM43.39,279.1c-.14.35-.29.69-.43,1,.14-.35.29-.69.43-1Z"/><path class="cls-2" d="M245.09,197.76a5.25,5.25,0,0,0-2.37,3.09l-.18,1.37a5.17,5.17,0,0,0,.7,2.6c1,2.42,2.18,4.77,3.39,7.1a61.92,61.92,0,0,0,3.77,6.19c.37.56.75,1.11,1.14,1.66v0l.86,1.23a53.9,53.9,0,0,1,5.06,8.2c.71,1.73,1.32,3.32,1.85,4.86s1,3.11,1.47,4.63l.4,1.33.63,2c.84,2.74,1.81,5.84,2.5,8.9l.34,1.42c.31,1.35.62,2.71,1,4.07.14.59.28,1.17.43,1.75.27,1,.58,2.21.8,3.36.68,3.56,1.25,7.32,1.71,10.34l.25,1.62a39.26,39.26,0,0,1,.34,7.16,21.51,21.51,0,0,1-1,3.41h0c-.06.17-.13.33-.2.5a16.53,16.53,0,0,1-.86,1.78l-.1.09c-.53.34-1,.63-1.53.9l-.56.16h-1.11a20.13,20.13,0,0,1-2.48-.7,27.49,27.49,0,0,1-3.81-2.31c-.49-.41-1-.82-1.43-1.26a14.81,14.81,0,0,1-1.75-2.05l-.09-.13-.11-.15.11.14-.06-.09a39.87,39.87,0,0,1-3.86-6.24c-.4-1-.87-2.16-1.45-3.3v0c-.09-.19-.2-.38-.3-.57a5.47,5.47,0,0,0-6.13-2.5c-2.71.75-4.75,3.88-3.78,6.68a38.76,38.76,0,0,0,3.3,7.66c.64,1.06,1.37,2.06,2.09,3.07,1,1.38,2,2.74,3.11,4a26.17,26.17,0,0,0,6.6,5.18,20.85,20.85,0,0,0,7.37,2.84,15.53,15.53,0,0,0,6.78-.2,14.8,14.8,0,0,0,4.53-2.3,11.71,11.71,0,0,0,3.24-3.15,14.86,14.86,0,0,0,1.05-2c.66-1.44,1.27-2.92,1.82-4.41a16.2,16.2,0,0,0,.7-3.1,25.59,25.59,0,0,0,.28-4.87,73.86,73.86,0,0,0-1-8.51,144,144,0,0,0-2.67-14.45c-.6-2.35-1.12-4.73-1.65-7.1s-1.25-4.88-2-7.29-1.47-4.87-2.22-7.3-1.75-5-2.79-7.5a36.43,36.43,0,0,0-3.73-6.86c-1.5-2.14-3.05-4.25-4.52-6.41a63.54,63.54,0,0,1-3.61-6c-1.16-2.2-2.23-4.43-3.2-6.71a4.93,4.93,0,0,0-3.09-2.37,5.16,5.16,0,0,0-1.35-.18,5.22,5.22,0,0,0-2.62.7Z"/><path class="cls-2" d="M310,152.6a27.55,27.55,0,0,0-6.1,1.12c-1.07.31-2.13.69-3.18,1.07-.65.24-1.29.47-1.93.72-.4.15-.79.3-1.17.47l-.06,0-1.91.81c-4.58,2-8.28,5.55-11.84,8.95a36.85,36.85,0,0,0-5.78,6.75,50.63,50.63,0,0,0-3.2,6.16c-.65,1.44-1.23,2.92-1.77,4.41-.22.6-.43,1.21-.64,1.82a18.77,18.77,0,0,0-.81,4.21,44.62,44.62,0,0,0,.1,7.31,52.93,52.93,0,0,0,1.17,8.69c.54,2.46,1.25,4.84,2,7.23s1.58,5,2.31,7.55c.68,2.33,1.3,4.68,2.08,7s1.64,4.61,2.44,6.92,1.57,4.85,2.32,7.29,1.54,5.16,2.27,7.74a75,75,0,0,1,1.66,7.85c.37,2.94.66,5.88.75,8.85a63.5,63.5,0,0,1-.61,9.73c-.49,2.79-1.07,5.56-1.7,8.32-.31,1.36-.63,2.71-1,4s-.93,2.68-1.44,4c-1,2.26-2,4.52-3.13,6.71a74.17,74.17,0,0,1-5,8.65,65,65,0,0,1-6.88,6.9,60.61,60.61,0,0,1-5.45,3.48c-1.82,1.05-3.62,2.11-5.51,3a44,44,0,0,1-8.37,2.32,20.71,20.71,0,0,1-2.84.16c-1.05,0-2.09-.11-3.12-.23a14.66,14.66,0,0,1-2.45-.62c-.53-.27-1-.56-1.54-.88q-.31-.3-.6-.63a3.62,3.62,0,0,1-.22-.32,4.83,4.83,0,0,0-6.52-1.71A5,5,0,0,0,230,322.1a30.32,30.32,0,0,1,3.25,2.94l.16.17.31.34c.39.46.77.93,1.12,1.43a13.56,13.56,0,0,1,1.49,2.65c.1.23.2.47.29.71a18.33,18.33,0,0,0,6.13,1.8,39.51,39.51,0,0,0,4.47.45l.64,0a29.64,29.64,0,0,0,4.14-.38A41.38,41.38,0,0,0,265.19,328c2.11-1.09,4.12-2.23,6-3.39a41.72,41.72,0,0,0,6.64-5l.2-.19a68.64,68.64,0,0,0,5.62-5.81,49.75,49.75,0,0,0,5.12-8.17l.13-.24a100.88,100.88,0,0,0,6.56-14.69A51.19,51.19,0,0,0,297,284.4l.11-.51c.75-3.5,1.24-6.22,1.58-8.84.16-1.15.28-2.3.36-3.53l0-.58.05-.59c.09-1,.17-2,.17-2.87a69.49,69.49,0,0,0-.32-7.41,91.79,91.79,0,0,0-2.75-15.73c-.84-3.1-2-7.16-3.27-11.17q-1-2.92-2-5.85c-.58-1.7-1.16-3.39-1.72-5.09-.36-1.06-.65-2.17-.94-3.29-.17-.66-.35-1.32-.53-2-.52-1.81-1.1-3.76-1.83-6.11l-.57-1.8c-.44-1.4-.88-2.8-1.28-4.2a51.62,51.62,0,0,1-1.16-5.18c-.17-1.55-.3-3.17-.43-5.26a40.81,40.81,0,0,1-.06-5.23,24.36,24.36,0,0,1,.85-2.81l.15-.43c.32-.95.68-1.91,1.06-2.86A36.2,36.2,0,0,1,287.7,177a67.52,67.52,0,0,1,8.9-8.68,29,29,0,0,1,4.55-2.58,2.66,2.66,0,0,0,.39-.16,50.73,50.73,0,0,1,7.71-2.46q.76-.06,1.53-.06a17.73,17.73,0,0,1,1.79.08c1.17.11,2.33.24,3.5.37l.47.08.32.06a16.59,16.59,0,0,1,2.83.87l.3.12q1.15.42,2.28.9l.24.1,0,0-.08,0,.08,0-.07-.05.73.3a31.91,31.91,0,0,1,5.44,2.67,16,16,0,0,1,1.53,1.6c.22.32.44.63.65,1a6.45,6.45,0,0,1,.58,1.09,18.15,18.15,0,0,1,.8,3.33,29.21,29.21,0,0,1,.08,4.83,22.54,22.54,0,0,1-1.1,3.34,27.89,27.89,0,0,1-2.29,4.18c-.4.45-.8.85-1.23,1.25a29.41,29.41,0,0,1-4.62,2.59l-.87.39c-.93.41-1.76.79-2.58,1.22a28.46,28.46,0,0,0-3.25,2c-1,.74-2.24,1.62-3.35,2.58a17.88,17.88,0,0,0-3.33,3.77,18.85,18.85,0,0,0-1.87,4.08c-.39,1.11-.74,2.26-1,3a37.23,37.23,0,0,0-1.38,8,54.38,54.38,0,0,0-.15,7.4c0,.89.07,1.78.1,2.68.06,1.42.11,2.85.2,4.27a84.58,84.58,0,0,0,1,8.61c.36,2.34.87,4.69,1.36,7l0,.14,0,.13c.37,1.79.77,3.64,1.1,5.48.6,3.33,1.18,6.88,1.9,11.52l.51,4.69v.12c.38,3.6.78,7.32,1.29,11,.22,1.89.37,3.9.45,6.15a46.34,46.34,0,0,1-.09,6.4,79.13,79.13,0,0,1-2,8.28l-.1.34-.36,1.33c-.61,2.2-1.3,4.71-2.2,7.07a62.2,62.2,0,0,1-6.57,11.18,34.75,34.75,0,0,1-3.17,3.51c-.91.88-1.93,1.68-2.92,2.47-.48.38-1,.76-1.42,1.15L292.74,329l-.29.24c-.72.58-1.44,1.16-2.15,1.77-.52.44-1,.89-1.54,1.34-.87.76-1.73,1.52-2.63,2.24a42,42,0,0,1-4.26,2.54l-.11.06-.53.28-1.18.65-.21.12c-1.14.63-2.32,1.27-3.53,1.82-2.92,1.2-5.1,2.14-7.08,3-1.44.52-2.93.91-4.41,1.3l-.14,0-1.76.46a63,63,0,0,1-6.7,1.59,34.73,34.73,0,0,1-3.6.2c-1,0-2-.06-3-.14l-.84-.14-.83-.14a5.67,5.67,0,0,1-3.6,1.49h-.27c-1.22-.09-2.48-.23-4-.43a11.38,11.38,0,0,1-2.15-.46c-1-.33-1.93-.74-2.92-1.16l-.23-.1-.64-.25a8.75,8.75,0,0,1-1.65-.82l-.22-.15a11.17,11.17,0,0,1-2.17-1.75c-.46-.53-.89-1.09-1.35-1.69l-.07-.09a7.76,7.76,0,0,1-.68-1.09,14.56,14.56,0,0,1-.74-1.61,5.79,5.79,0,0,0-6.48,5.76,6.14,6.14,0,0,0,1.7,4.11,20,20,0,0,0,1.87,1.68c.66.6,1.35,1.18,2.06,1.75a19,19,0,0,0,3.39,2.35,25.93,25.93,0,0,0,4.5,1.68,60.34,60.34,0,0,0,7,1.37c2.77.42,5.54.91,8.32,1.21a32.74,32.74,0,0,0,8.09-.37,52.54,52.54,0,0,0,6.78-1.48c2.36-.67,4.78-1.23,7.1-2,1.41-.5,2.77-1.16,4.12-1.79.76-.36,1.53-.69,2.3-1a60.25,60.25,0,0,0,6.93-3.18c2-1.14,4-2.18,6-3.41a53,53,0,0,0,6.49-5.29c1.64-1.44,3.37-2.78,5-4.19a59.38,59.38,0,0,0,4.92-4.32,57.85,57.85,0,0,0,5-6.32,48.72,48.72,0,0,0,3.46-5.6,62.91,62.91,0,0,0,3.62-7.87c.89-2.43,1.48-5,2.18-7.47.76-2.69,1.53-5.35,2-8.09,1.1-6.23.62-12.53-.22-18.75-.38-3.14-.71-6.28-1-9.43-.21-2.22-.43-4.42-.77-6.63-.25-1.67-.54-3.33-.81-5-.58-3.61-1.22-7.21-2-10.79-.36-1.7-.82-3.38-1.18-5.07s-.62-3.38-.88-5.08c-.16-1.41-.31-2.82-.4-4.23-.12-1.75-.15-3.5-.22-5.24a67.71,67.71,0,0,1,.25-10,38.74,38.74,0,0,1,1.88-6.76,13.73,13.73,0,0,1,.81-1.45,20.09,20.09,0,0,1,2-1.88,30.84,30.84,0,0,1,5.19-3.23,43.55,43.55,0,0,0,6.08-3.21,23.13,23.13,0,0,0,3.15-2.51,21.21,21.21,0,0,0,2.77-3.5,35.85,35.85,0,0,0,3.4-7.29,20.74,20.74,0,0,0,1.14-8,39.29,39.29,0,0,0-.48-4.45,21.52,21.52,0,0,0-.67-3.19,24.87,24.87,0,0,0-1.34-3.2,21.66,21.66,0,0,0-3.24-4.51,16.49,16.49,0,0,0-3.28-2.78,17.22,17.22,0,0,0-2.69-1.41c-2.48-1.17-5-2.2-7.57-3.19-.53-.21-1.06-.4-1.59-.59a20.77,20.77,0,0,0-4.53-1c-1.35-.18-2.69-.32-4-.47-.93-.09-1.88-.19-2.82-.19-.25,0-.5,0-.75,0Z"/><path class="cls-2" d="M137.6,162.44a4.63,4.63,0,0,0-2.9,2.23l-1.65,3.76h0l-.44,1-1.33,3c-.83,1.66-1.78,3.29-2.71,4.86l-.05.09-.46.79-2,3.52a9.71,9.71,0,0,0-1.62,4.52,5.16,5.16,0,0,0,.65,2.84,5.76,5.76,0,0,0,2,1.88,4.19,4.19,0,0,0,2.38.68,4.93,4.93,0,0,0,2.55-.68c2.08-1.27,3.15-3.37,4.08-5.41q1-2.24,2-4.48l.63-1.43.46-1,.18-.42h0v0c.27.32.55.64.83,1a22.3,22.3,0,0,0,2.59,2.26,22.68,22.68,0,0,1,2.52,2.2,9.63,9.63,0,0,1,.58,1.1,5.1,5.1,0,0,0,1.83,1.83,5.16,5.16,0,0,0,2.58.69,5.53,5.53,0,0,0,1.34-.17,5.21,5.21,0,0,0,3.14-2.54,4.82,4.82,0,0,0,.43-3.73A10.42,10.42,0,0,0,153,177a15.14,15.14,0,0,0-2.48-2.16l-.16-.12-1.31-.95-.19-.14-.68-.47a24.1,24.1,0,0,1-3-3.05c-.48-.66-1-1.32-1.42-2l-.11-.15,0-.1,0-.15h0a4.83,4.83,0,0,0-2.37-4.73,4.85,4.85,0,0,0-2.46-.66,5.06,5.06,0,0,0-1.28.17Z"/><path class="cls-2" d="M135.49,154.89l-.14,0a32.91,32.91,0,0,0-3.28.52l-1.94.83-1,.75a4,4,0,0,0-1.3,1.41,4.3,4.3,0,0,0-.88,1.71l-.18,1.29a3.72,3.72,0,0,0,.08,1.93,6.44,6.44,0,0,0,.9,1.82,6.6,6.6,0,0,0,2.12,2,15.86,15.86,0,0,0,3,1.19l1.7.44c1.24.3,2.5.58,3.76.87a5,5,0,0,0,5.3-2h0v0c.92-.13,1.84-.26,2.77-.42a6.35,6.35,0,0,0,4.46-3.14,4.75,4.75,0,0,0,0-4.74,12.92,12.92,0,0,0-.93-1.24,18.12,18.12,0,0,0-1.46-1.15l-.13-.1a7.3,7.3,0,0,0-1.09-.65,20.78,20.78,0,0,0-2.53-1,14.32,14.32,0,0,0-3.58-.58h-.16c-.42,0-.83-.05-1.25-.05a37,37,0,0,0-4.32.35Z"/><path class="cls-2" d="M166.83,98a4.83,4.83,0,0,0-1.37,3.33l-.21,3.37c-.18,2.83-.38,6-.47,9.17-.07,2.18-.08,4.15,0,6,0,.61,0,1.22.08,1.83l0,.63a19.7,19.7,0,0,0,.32,3,11.29,11.29,0,0,0,1.26,3.15,8.8,8.8,0,0,0,2.17,2.49,4.7,4.7,0,0,0,2.11,1.23c.56.09,1.12.16,1.69.21a7.53,7.53,0,0,0,1.66-.26,4.82,4.82,0,0,0,2.13-1.24,9.78,9.78,0,0,0,2.49-4,32.33,32.33,0,0,0,1.41-6.67,27.07,27.07,0,0,0,.33-3.7,15,15,0,0,0-.75-4.6,29.81,29.81,0,0,0-1.36-3.49l-.11-.24-.43-1.12c-.47-1.21-.89-2.3-1.39-3.37a5.21,5.21,0,0,0-1.59-1.65l.05-.79a4.27,4.27,0,0,0-1.21-3.15,4.91,4.91,0,0,0-3.49-1.56A4.73,4.73,0,0,0,166.83,98Z"/><path class="cls-2" d="M92.17,103.93a4.58,4.58,0,0,0-1.31,3.16c-.28,4.4-.45,9.2-.53,14.67,0,1.83,0,3.49,0,5.06v.31a33.77,33.77,0,0,0,.7,7.27,6.41,6.41,0,0,0,4.79,4.71,4.11,4.11,0,0,0,1.16.16l.38,0a6,6,0,0,0,2.65-.71,7,7,0,0,0,2.13-1.66,10,10,0,0,0,1.53-2.12,22.78,22.78,0,0,0,1.37-3.5,17.77,17.77,0,0,0,.6-3.62l.09-.82c.14-1.3.21-2.63.22-3.95a42.61,42.61,0,0,0-.66-6.46l0-.21c-.15-1-.33-1.91-.53-2.76a19.73,19.73,0,0,0-2.39-5.87,5.07,5.07,0,0,0-2.88-2.21,4.68,4.68,0,0,0-4.17-2.73,4.47,4.47,0,0,0-3.15,1.3Z"/><path class="cls-3" d="M216,19.62h0l-.81.26a29.53,29.53,0,0,0-4,2.12,21.37,21.37,0,0,0-2.35,2.45c-2.22,3-4.4,6-6.23,8.64-1.47,2.07-3,4.12-4.47,6.16l-.17.24q-1.28,1.74-2.54,3.49c-2.37,3.27-4.55,6.72-6.57,10l-3.72,6-3.72,6a5.09,5.09,0,0,1-4.28,2.41,4.74,4.74,0,0,1-1.91-.4l-.15,0A5.68,5.68,0,0,1,172,67c-1.79-.65-3.58-1.41-5.24-2.13a26.45,26.45,0,0,0-5.46-1.6l-3.25-.51-.87-.14L155,62.26l-1.35-.16c-1.42-.16-3-.34-4.59-.62-.63-.11-1.25-.23-1.88-.36l-2.38-.44c-2-.19-4.09-.32-6.83-.41l-1,0c-1.27,0-2.56.07-3.8.14l-.46,0-1.56.08c-1.76.07-3.52.1-5.27.14-3,0-6.19.11-9.31.39a47.31,47.31,0,0,0-4.92,1.14l-2.67.72-.59.15-2.77.74c-2.16.59-4.32,1.23-6.47,1.86l-.39.11c-2.33.68-5,1.45-7.5,2.14a5.09,5.09,0,0,1-1.34.18,5.54,5.54,0,0,1-.9-.07,6.36,6.36,0,0,1-2.71.6,5.51,5.51,0,0,1-4.15-1.73c-.2-.22-.39-.45-.59-.68l-.29-.34c-.36-.43-.72-.86-1.1-1.27-.57-.63-1.18-1.23-1.77-1.8L78,62.33a61.44,61.44,0,0,1-4.44-4.85L71.3,54.73c-2.37-2.9-4.82-5.9-7.46-8.7-1.35-1.43-2.73-2.84-4.1-4.24-2.3-2.35-4.62-4.73-6.79-7.17-1.5-1.7-3-3.52-4.77-5.72-.84-1.06-1.63-2-2.4-2.85a2.65,2.65,0,0,0-.2.47c-.62,1.61-1.27,3.09-1.9,4.45a42,42,0,0,0-1.57,5.28c-.48,2.07-1,4.43-1.47,6.81-.57,4.88-.91,9.86-1.24,14.68v.19l-.08,1.19c-.08,1.19-.16,2.38-.25,3.57-.2,2.75-.42,5.49-.64,8.24l-.05.71c-.17,2-.35,4.32-.42,6.54-.08,2.92-.13,5.84-.18,8.76q-.06,3.68-.15,7.34c0,1.31-.07,2.62-.1,3.93-.13,4.26-.25,8.66-.18,13l0,1.9,0,.9c0,1.81.06,3.61.11,5.42,0,1.29.09,2.58.15,3.88s.11,2.72.14,4.08c.09,3.39.12,6.85.14,10.2v2.11c0,1.45,0,2.91,0,4.36.06,4.27.2,8.55.33,12.69l.1,3.46c.12,3.72.12,7.64.13,10.78,0,1.83,0,3.66,0,5.48.05,5,.21,10.12.37,14.91.2,5.58.26,11.38.31,16.49s.11,10.91.3,16.49c0,.7,0,1.4.09,2.11A56.7,56.7,0,0,0,32,235.08c-1.15,1.54-2.28,3.16-3.46,5q-.23-4.37-.48-8.75v-.1L28,230.1c-.19-3.39-.34-6.84-.42-10.24l-.93,1.92c-1.12,2.83-2.35,5.95-3.36,9.12s-2.15,6.66-3.41,10.46a76.7,76.7,0,0,0-2.75,10c-.61,3.41-1.1,6.87-1.5,9.84-.11.78-.21,1.56-.32,2.35-.38,3.17-.61,6.59-.69,10.44l0,1.14v.17c0,1.28-.06,2.61,0,3.9,0,1.61.2,3.2.39,4.95A25.91,25.91,0,0,0,16,288.85a20.54,20.54,0,0,0,1.41,2.37,11,11,0,0,0,1.09,1A26.58,26.58,0,0,0,21.12,294l.51.12.12,0,.57,0c.39-.4.74-.8,1.1-1.21l.25-.29,1-1.19c.54-.77,1-1.57,1.56-2.46l.16-.28c.21-.34.42-.68.64-1,.48-.76.94-1.51,1.33-2.29,1.14-2.3,2.33-4.85,3.74-8a29.35,29.35,0,0,1,1.45-3.05c-.75-3.26-1.6-7.09-2.28-10.87-.2-1.11-.38-2.23-.56-3.34a86.94,86.94,0,0,1,4.72-9.4l.79-1.31c.82-1.38,1.67-2.81,2.6-4.17.61-.9,1.24-1.78,1.87-2.66.26,3.69.67,7.65,1.22,12.11.43,2.85.76,4.87,1.1,6.75.29,1.64.67,3.31,1,4.79l.12.52c.12.56.25,1.13.37,1.7,1.08,5,2.14,9.5,3.23,13.65,1,3.85,2.28,7.91,4,12.79,1.49,4.23,3.09,8.48,4.77,12.6l.32.76c.4.93.89,2.1,1.42,3.18l.61,1.3.15.33c.46,1,1,2.12,1.55,3.16l1.58,2.92,1,1.9c.51.95,1.09,1.9,1.65,2.82l.1.16.89,1.47c1.76,2.95,3.67,5.93,5.36,8.56,1.43,2.22,3,4.33,4.8,6.68,1.41,1.7,3.54,4.26,5.72,6.76,1.73,2,3.63,3.86,5.59,5.78A58.76,58.76,0,0,1,92.56,359a48.27,48.27,0,0,0,5.89,6.52,28.43,28.43,0,0,0,3.78,2.2c.38,4.29.67,7.79.91,11,.06.72.11,1.43.16,2.15-1.28-.43-2.48-.87-3.56-1.3A42.06,42.06,0,0,1,93,376.26c.2,1.53.44,3,.69,4.53l.06.37c.42,2.62.86,5.33,1.22,8v-.37c.31,2.48.7,5.08,1.24,8.17.41,2.37.71,4.8,1,7.15v.11l.21,1.71c.17,1.22.38,2.63.67,4.05.19.92.41,1.83.62,2.74l.07.3,0,.12.39,1.7a57,57,0,0,0,2.69,8.67,30.19,30.19,0,0,0,2.38,4.41,13.54,13.54,0,0,0,1,1,19.81,19.81,0,0,0,3,1.65,20.49,20.49,0,0,0,3,.79l.9.17c.74.16,1.49.3,2.24.42l.36-.34a17.1,17.1,0,0,0,1-1.7,35.91,35.91,0,0,0,1.56-6.77c.36-3.46.4-7,.43-10.4,0-3.1,0-6.24.32-9.31a95.27,95.27,0,0,1,1.61-10.79c.06-.34.13-.68.19-1l.1-.55,0-.12c.17-.95.35-1.94.58-2.9s.46-1.75.75-2.6l-2.58-.67-.75-.19-2.82-.71c-.07-1.05-.16-2.12-.24-3.18-.23-3.15-.49-6.26-.76-9.37,1,.27,2.08.52,3.14.77,2.65.63,5.11,1.24,7.51,1.85,2.12.55,4.17.9,5.9,1.17,1.38.11,2.86.21,4.34.21h.7c1.75,0,3.55-.07,5.33-.17,3-.17,6-.52,9.65-1,3.35-.54,6-1,8.44-1.52,2-.4,3.93-.95,5.84-1.5l.12,0,2-.55a128.22,128.22,0,0,0,13.25-4.71l1.23-.49c.17,1.29.38,2.6.59,3.9l.42,2.57.44,2.78.45,2.79c-1.11.44-2.24.88-3.38,1.3-1.59.6-3.19,1.17-4.79,1.73.68,3.58,1.14,7.24,1.59,10.78L177,393q.4,2.77.76,5.57c.23,1.75.48,3.67.9,5.5.3,1.3.69,2.58,1.07,3.82.24.8.46,1.52.66,2.23l.48,1.7q.54,2,1.14,4l.42,1.32.11.33c.19.54.37,1.09.54,1.64l.08.25c.2.67.38,1.24.58,1.82.2.38.41.75.64,1.11l.19.2a17.27,17.27,0,0,0,1.92,1.08,16.68,16.68,0,0,0,2.07.54c.39,0,.77.05,1.15.05h.35a14,14,0,0,0,1.53-.43,15.07,15.07,0,0,0,1.58-1,23.13,23.13,0,0,0,2.82-3,41.4,41.4,0,0,0,3.72-6.78,33.18,33.18,0,0,0,1.77-5.17q.27-1.21.57-2.43l.13-.54c.17-.71.34-1.42.5-2.13.81-3.43,1.35-6.83,1.81-10q.53-4.32,1.11-8.62c.07-.57.13-1.14.19-1.72l.09-.75,0-.4c.15-1.34.3-2.67.49-4-.12.53-.19,1.06-.26,1.59.42-3.21.53-6.48.63-9.65l0-.53c0-1.22.08-2.43.15-3.65l-.31.2c-.33.24-.65.48-1,.7-1.17.78-2.41,1.48-3.57,2.11-1.39.76-2.79,1.57-4.15,2.37l-.23.13-.57.34L195.1,372c-.3.18-.61.34-.91.51l-.36-2.34c-.48-2.89-1-5.88-1.38-8.86l-.2-1.43,3.16-1.81.75-.42.45-.26.12-.07c1-.54,2-1.1,2.88-1.71a69.78,69.78,0,0,0,6.09-5.53c1.16-1.19,2.53-2.61,3.88-4.15.84-1,1.63-2,2.3-2.83l.43-.6.11-.14c1-1.41,2-2.87,2.91-4.38,1.09-1.81,2.17-3.69,3.42-5.9.55-1,1.08-1.95,1.62-2.93l1.17.86a27.26,27.26,0,0,1,3.72,3.38,11,11,0,0,1,.71,1.21l.17.48c.28.8.57,1.6.9,2.4l.13.33c.26.63.52,1.28.85,1.9a8.15,8.15,0,0,0,.69,1.09l.07.09c.46.6.89,1.16,1.35,1.69a11.48,11.48,0,0,0,2.17,1.75l.22.15a8.55,8.55,0,0,0,1.66.82l.63.25.23.1c1,.43,2,.83,2.92,1.16a11.38,11.38,0,0,0,2.15.46c1.49.2,2.75.34,4,.42h.27a5.67,5.67,0,0,0,3.6-1.49l.82.14.85.13a29.43,29.43,0,0,0,3,.14,35,35,0,0,0,3.61-.19,62.64,62.64,0,0,0,6.68-1.59l1.77-.47.14,0c1.48-.39,3-.78,4.41-1.3,2-.9,4.16-1.84,7.08-3,1.21-.55,2.39-1.2,3.53-1.82l.21-.12,1.18-.65.53-.28.11-.06a42,42,0,0,0,4.26-2.54c.89-.72,1.76-1.48,2.62-2.24L290.3,331c.7-.61,1.43-1.19,2.15-1.78l.29-.23,1.66-1.33c.46-.39.94-.77,1.42-1.15,1-.79,2-1.59,2.92-2.47a34.75,34.75,0,0,0,3.17-3.51,62.2,62.2,0,0,0,6.57-11.18c.9-2.36,1.59-4.87,2.2-7.07l.37-1.33.09-.34a76.69,76.69,0,0,0,2-8.28,46.34,46.34,0,0,0,.09-6.4c-.08-2.25-.23-4.26-.45-6.15-.51-3.66-.91-7.38-1.29-11v-.13L311,264c-.72-4.64-1.3-8.19-1.9-11.52-.33-1.84-.72-3.69-1.11-5.48l0-.13,0-.14c-.48-2.28-1-4.63-1.35-7a84.58,84.58,0,0,1-1-8.61c-.09-1.42-.14-2.85-.2-4.27,0-.9-.07-1.79-.1-2.68a54.41,54.41,0,0,1,.15-7.4,37.23,37.23,0,0,1,1.38-8c.24-.76.59-1.91,1-3a19.33,19.33,0,0,1,1.87-4.08,18.16,18.16,0,0,1,3.33-3.77c1.11-1,2.31-1.84,3.35-2.58a29.36,29.36,0,0,1,3.25-2c.82-.43,1.65-.81,2.58-1.22l.87-.39a29.41,29.41,0,0,0,4.62-2.59c.43-.4.83-.81,1.23-1.25a27.89,27.89,0,0,0,2.29-4.18,21.43,21.43,0,0,0,1.09-3.34,28.11,28.11,0,0,0-.07-4.83,18.15,18.15,0,0,0-.8-3.33,7.85,7.85,0,0,0-.58-1.1c-.21-.32-.43-.64-.65-1a16,16,0,0,0-1.53-1.6,31.91,31.91,0,0,0-5.44-2.67l-.73-.3.13.09c-.84-.37-1.69-.71-2.55-1l-.3-.11a16.87,16.87,0,0,0-2.83-.87l-.32-.06-.47-.07c-1.16-.14-2.33-.27-3.5-.38-.59,0-1.19-.08-1.79-.08s-1,0-1.53.06a50.27,50.27,0,0,0-7.7,2.46,3.33,3.33,0,0,1-.4.16,29,29,0,0,0-4.55,2.58,67.52,67.52,0,0,0-8.9,8.68,36.2,36.2,0,0,0-3.17,6.06c-.38.95-.74,1.91-1.06,2.86l-.15.44a24.19,24.19,0,0,0-.85,2.8,40.81,40.81,0,0,0,.06,5.23c.13,2.09.26,3.71.43,5.26a51.52,51.52,0,0,0,1.15,5.18c.41,1.4.85,2.8,1.29,4.2l.57,1.8c.73,2.35,1.31,4.3,1.83,6.11.18.65.36,1.31.53,2,.29,1.12.58,2.22.94,3.29.56,1.7,1.14,3.39,1.72,5.09q1,2.93,2,5.85c1.31,4,2.44,8.07,3.27,11.17A91.63,91.63,0,0,1,299,260.07a72.23,72.23,0,0,1,.32,7.41c0,.92-.09,1.85-.18,2.87l-.05.58,0,.59c-.09,1.23-.21,2.38-.37,3.53-.34,2.62-.83,5.34-1.58,8.84l-.11.51a50.71,50.71,0,0,1-1.57,6.14,100.88,100.88,0,0,1-6.56,14.69l-.13.24a49.5,49.5,0,0,1-5.12,8.17,67.17,67.17,0,0,1-5.62,5.81l-.2.19a41.72,41.72,0,0,1-6.64,5c-1.84,1.16-3.85,2.3-6,3.39A41.25,41.25,0,0,1,252,332.23a29.64,29.64,0,0,1-4.14.38l-.64,0a39.51,39.51,0,0,1-4.47-.45,18.33,18.33,0,0,1-6.13-1.8c-.09-.24-.18-.48-.29-.71a13.28,13.28,0,0,0-1.49-2.65,17.66,17.66,0,0,0-1.12-1.43l-.31-.34-.16-.17a31.56,31.56,0,0,0-3.6-3.21c-1.3-1-2.65-2-4.14-3.09.8-2.13,1.55-4.34,2.28-6.48l.72-2.12c1.41-4.13,2.59-8.07,3.51-11.73l.28-1.09c.37-1.48.8-3.14,1.14-4.77.45-2.2.89-4.39,1.32-6.6.72-3.69,1.37-7.39,2-11.31,1.07-9.46,1.84-19.17,2.32-28.86.31.75.65,1.5,1,2.25.49,1.08,1,2.16,1.51,3.23A43,43,0,0,0,244.9,257a27.09,27.09,0,0,0,2.81,3.42l.77.74c.2.19.4.38.59.58a6.2,6.2,0,0,1,.42.46l.17.24c-.27,3.33-.54,6.26-.83,9,.58,1.14,1,2.3,1.45,3.3a39.13,39.13,0,0,0,3.86,6.24l.15.24a15.34,15.34,0,0,0,1.75,2c.46.44.94.85,1.43,1.26a29.29,29.29,0,0,0,3.8,2.32,20.6,20.6,0,0,0,2.49.68l.66,0h.44l.57-.16c.5-.27,1-.56,1.53-.9l.1-.09a19,19,0,0,0,.87-1.78,22,22,0,0,0,1.2-3.91,39.26,39.26,0,0,0-.34-7.16l-.25-1.62c-.46-3-1-6.78-1.71-10.34-.22-1.15-.53-2.32-.79-3.36-.16-.58-.31-1.16-.45-1.75-.32-1.35-.64-2.72-.95-4.07l-.32-1.42c-.71-3.06-1.67-6.16-2.51-8.9l-.63-2-.4-1.33c-.45-1.52-.93-3.09-1.46-4.63s-1.15-3.13-1.86-4.86a53.9,53.9,0,0,0-5.06-8.2l-.86-1.23q-.14,2.88-.18,5.73c-.11,5.86-.24,10.7-.4,15.24,0,1.13-.09,2.25-.14,3.37-.41-1-.85-1.9-1.3-2.84-.35-.76-.7-1.51-1.06-2.27a32.76,32.76,0,0,0-3.53-5.82,19.92,19.92,0,0,0-2.48-2.86,15.47,15.47,0,0,0-2.86-2c0-1,.06-2,.08-3,.06-2.79.15-5.42.24-8.05.1-2.8.19-5.57.25-8.34.12-6.08.23-11.57.43-17.06l0-1.23v-.41c.07-1.88.14-3.82.14-5.74v-1.27l0-7.81v-1.15c0-10.13.06-20.61-.21-31l0-1.11c0-2.21-.11-4.41-.29-6.55-.25-2.78-.51-5.57-.8-8.36-.25-2.45-.5-4.91-.74-7.36q-.41-4.09-.82-8.18l-.36-2.56-.31-2.18-.16-1.13c-.33-2.35-.67-4.7-1-7-.51-3.57-1.22-7.19-1.85-10.39-.47-2.39-.93-4.73-1.32-7-.95-5.51-1.83-11.1-2.58-15.84-.09-.53-.16-1.06-.24-1.6l-.07-.45c-.29-1.93-.57-3.83-1-5.68-.62-2.84-1.29-5.47-2-8-.62-2.13-1.22-4.28-1.81-6.43-.79-2.82-1.6-5.73-2.46-8.59-.65-2.15-1.43-4.38-2.45-7-.36-.95-.67-1.93-1-2.89l0-.11c-.25-.84-.51-1.67-.8-2.5l-.08-.13c-.28-.31-.58-.6-.88-.89l-.14-.13-.67-.68-.75-.75ZM199,75.82a4.61,4.61,0,0,1-2.35-.64,4.85,4.85,0,0,1-2.22-3.13,4,4,0,0,1,.55-3.23c1.87-2.73,3.75-5.58,5.74-8.72.63-1,1.24-2,1.85-3,.76-1.25,1.53-2.5,2.33-3.73A6.64,6.64,0,0,1,207,51.15a5.23,5.23,0,0,1,2.58-.65,5.35,5.35,0,0,1,1.39.18c1.53.42,2.85,1.69,3.91,3.78.59,1.15,1.11,2.35,1.62,3.52l.12.28.25.59.29.68c.43,1,.85,2,1.29,3l.21.47a13.91,13.91,0,0,1,.76,2,8.94,8.94,0,0,1,0,5,4.86,4.86,0,0,1-4.57,3.47,4.7,4.7,0,0,1-4.59-5.63,21.51,21.51,0,0,0-.93-2.51l-.33-.8-.08.09-.06.09c-2,3.17-3.92,6.07-5.83,8.88a4.9,4.9,0,0,1-2.79,2.13,4.49,4.49,0,0,1-1.22.17ZM46.31,70.47h0v0l.06-.12.05-.12.27-.66.6-1.41c.46-1.1.88-2.25,1.25-3.26l.22-.59.29-.79.37-1,.19-.51c.11-.29.22-.59.32-.88a7.31,7.31,0,0,1,1.58-2.81,4.83,4.83,0,0,1,3.32-1.55H55a6.65,6.65,0,0,1,3.62,1.14l1.25.92c.88.66,1.76,1.33,2.63,2,1.5,1.17,2.85,2.3,4.12,3.44a4.23,4.23,0,0,1,1.36,3.06,4.9,4.9,0,0,1-1.36,3.54,4.55,4.55,0,0,1-3.25,1.34A4.86,4.86,0,0,1,60,70.89c-.85-.8-1.81-1.65-2.94-2.62l-.06.1c-.3.78-.61,1.54-.93,2.3L55.5,72l-.31.75c-.08.18-.15.37-.22.55l-.08.2c-.24.6-.44,1.11-.68,1.58l-.4.77-.12.25c-.46.89-.92,1.78-1.4,2.66a4.5,4.5,0,0,1-4,2.25A4.56,4.56,0,0,1,46,80.37a4.65,4.65,0,0,1-1.63-6.25c.47-.84.91-1.69,1.35-2.55l.06-.12.5-1Zm126.11,62c-.57-.05-1.13-.12-1.69-.21a4.79,4.79,0,0,1-2.12-1.23,8.93,8.93,0,0,1-2.16-2.49,11,11,0,0,1-1.25-3.15,18.5,18.5,0,0,1-.33-3l0-.63q-.06-.92-.09-1.83c-.05-1.89,0-3.87,0-6,.09-3.14.29-6.34.47-9.17l.21-3.37A4.83,4.83,0,0,1,166.83,98a4.73,4.73,0,0,1,3.33-1.38,4.91,4.91,0,0,1,3.49,1.56,4.23,4.23,0,0,1,1.21,3.15l-.05.79a5.21,5.21,0,0,1,1.59,1.65c.5,1.07.92,2.16,1.39,3.37l.43,1.12.1.24a28.16,28.16,0,0,1,1.37,3.49,15.34,15.34,0,0,1,.76,4.6,30.81,30.81,0,0,1-.34,3.7A32.33,32.33,0,0,1,178.7,127a9.78,9.78,0,0,1-2.49,4,4.82,4.82,0,0,1-2.13,1.24,7.53,7.53,0,0,1-1.66.26ZM97,139.27a4.06,4.06,0,0,1-1.16-.16,6.41,6.41,0,0,1-4.79-4.71,33.83,33.83,0,0,1-.7-7.27v-.31c0-1.57,0-3.23,0-5.06.08-5.47.25-10.27.53-14.67a4.58,4.58,0,0,1,1.31-3.16,4.49,4.49,0,0,1,3.15-1.31,4.69,4.69,0,0,1,4.17,2.74,5,5,0,0,1,2.87,2.21,19.21,19.21,0,0,1,2.39,5.87c.21.85.39,1.75.54,2.76l0,.21a42.61,42.61,0,0,1,.66,6.46,37.05,37.05,0,0,1-.22,3.95l-.08.82a18.51,18.51,0,0,1-.61,3.62,22.78,22.78,0,0,1-1.37,3.5,10,10,0,0,1-1.53,2.12,7,7,0,0,1-2.13,1.66,6,6,0,0,1-2.65.71l-.38,0Zm32.37,52.38A4.22,4.22,0,0,1,127,191a5.85,5.85,0,0,1-2-1.88,5.24,5.24,0,0,1-.66-2.84,9.84,9.84,0,0,1,1.63-4.52l2-3.52.46-.79.05-.09c.93-1.57,1.88-3.2,2.71-4.86l1.33-3,.45-1a15.7,15.7,0,0,1-3.18-1.24,6.6,6.6,0,0,1-2.12-2,6.44,6.44,0,0,1-.9-1.82,3.65,3.65,0,0,1-.08-1.94l.17-1.28a4.45,4.45,0,0,1,.89-1.71,4,4,0,0,1,1.3-1.41l1-.75,1.94-.83c1.09-.24,2.18-.38,3.28-.52l.14,0a37,37,0,0,1,4.32-.35c.42,0,.83,0,1.25.05h.16a14.4,14.4,0,0,1,3.58.58,19.22,19.22,0,0,1,2.53,1,7,7,0,0,1,1.1.64l.12.1a18.12,18.12,0,0,1,1.46,1.15,11.44,11.44,0,0,1,.93,1.24,4.75,4.75,0,0,1,0,4.74,6.39,6.39,0,0,1-4.46,3.15c-.93.16-1.85.28-2.78.41l0,.15,0,.1.11.15c.46.68.94,1.34,1.42,2a24.1,24.1,0,0,0,3,3.05l.67.47.2.14,1.31.95.17.12A15.94,15.94,0,0,1,153,177a10.35,10.35,0,0,1,2.13,3.84,4.82,4.82,0,0,1-.43,3.73,5.16,5.16,0,0,1-3.14,2.53,5.09,5.09,0,0,1-1.34.18,5.08,5.08,0,0,1-4.41-2.52,9.63,9.63,0,0,0-.58-1.1,22.68,22.68,0,0,0-2.52-2.2,21.4,21.4,0,0,1-2.59-2.26c-.28-.31-.56-.62-.83-.94l-.66,1.44-.63,1.43c-.65,1.5-1.33,3-2,4.48-.93,2-2,4.14-4.08,5.41a4.93,4.93,0,0,1-2.55.68Z"/><path class="cls-2" d="M131.19,49.34c-2.54.13-5.07.17-7.6.28a68,68,0,0,0-9,.77c-1.11.2-2.23.39-3.33.68s-2.13.65-3.19,1c-2.37.73-4.76,1.4-7.13,2.1s-4.81,1.5-7.23,2.2c-1.71.49-3.44,1-5.16,1.46a5.24,5.24,0,0,0,2.78,10.1c4.81-1.3,9.56-2.79,14.36-4.11,2-.55,4-1.06,6-1.61a47.25,47.25,0,0,1,4.92-1.13c4.85-.44,9.71-.34,14.58-.54,2.27-.1,4.55-.3,6.82-.23s4.56.19,6.83.41c1.43.24,2.83.55,4.26.8,2,.35,4,.54,5.94.78s4.18.64,6.27,1a26,26,0,0,1,5.45,1.6c1.73.75,3.47,1.48,5.25,2.13a5.72,5.72,0,0,0,3.07,0,5.77,5.77,0,0,0,4-7.1,5.59,5.59,0,0,0-2.65-3.45c-1.59-.74-3.23-1.37-4.86-2-1.16-.46-2.31-.94-3.5-1.35a36.11,36.11,0,0,0-7.53-1.4c-1.46-.22-2.91-.46-4.38-.64-1.23-.16-2.48-.29-3.71-.43-.9-.15-1.8-.32-2.69-.51-1.47-.31-3-.47-4.46-.66A71.5,71.5,0,0,0,138,49h-.67c-2.05,0-4.11.21-6.15.32Z"/><path class="cls-2" d="M213.33,9.44c-1.41.58-2.79,1.23-4.16,1.93A23.57,23.57,0,0,0,203,15.83a28.21,28.21,0,0,0-2.68,3.38c-.72,1-1.42,2-2.13,3q-2.31,3.29-4.6,6.58c-3.21,4.63-6.74,9-9.76,13.81C180.13,48.36,176.56,54.18,173,60a4.91,4.91,0,1,0,8.47,5l7.44-12c2.11-3.38,4.24-6.74,6.58-10s4.82-6.57,7.17-9.89c2-2.9,4.11-5.8,6.24-8.64A19.28,19.28,0,0,1,211.19,22a28.64,28.64,0,0,1,4-2.12l.81-.27c.26.25.51.5.75.76.56.57,1.15,1.11,1.7,1.69a.75.75,0,0,0,.07.12c.65,1.82,1.11,3.71,1.8,5.51.9,2.32,1.73,4.64,2.45,7,1.5,5,2.82,10,4.28,15,.77,2.65,1.44,5.33,2,8,.55,2.54.88,5.15,1.28,7.72.83,5.29,1.67,10.57,2.58,15.84,1,5.82,2.34,11.57,3.17,17.42.57,4.31,1.21,8.61,1.81,12.92.53,5.18,1,10.36,1.56,15.55q.42,4.17.8,8.36c.22,2.53.25,5.11.32,7.65.28,10.71.24,21.42.21,32.12,0,3,0,6,0,9.08,0,2.47-.11,4.91-.2,7.38-.21,5.69-.32,11.37-.43,17.06-.11,5.41-.36,10.82-.48,16.24-.11,5.06-.24,10.11-.43,15.18-.43,11.46-1.26,22.93-2.56,34.33-.58,3.79-1.22,7.55-2,11.31q-.65,3.3-1.32,6.6c-.41,2-.93,3.9-1.42,5.85-1,4-2.19,7.88-3.51,11.73-1.26,3.68-2.47,7.4-3.9,11q-2.77,5.55-5.83,11c-1.12,2-2.24,3.95-3.41,5.9-1.06,1.77-2.26,3.44-3.45,5.12-.75,1-1.51,1.9-2.31,2.82-1.25,1.44-2.54,2.79-3.87,4.16a70.84,70.84,0,0,1-6.09,5.52c-1.36.9-2.79,1.65-4.2,2.47q-2.62,1.51-5.26,3c-1.63.93-3.31,1.76-5,2.62-1.1.56-2.25,1-3.39,1.49l.15-.06A146.93,146.93,0,0,1,167,370.55c-2.62.72-5.24,1.54-7.91,2.08s-5.6,1.06-8.43,1.51c-3.21.42-6.41.8-9.65,1-1.81.1-3.62.13-5.43.17-1.66,0-3.29-.08-4.94-.22-2-.31-3.94-.66-5.89-1.16-2.5-.64-5-1.25-7.52-1.85A109.94,109.94,0,0,1,102.87,368a28.59,28.59,0,0,1-4.41-2.5A47.85,47.85,0,0,1,92.58,359a59,59,0,0,0-5.29-5.66c-1.91-1.87-3.82-3.76-5.59-5.78-1.94-2.22-3.83-4.48-5.71-6.76-1.66-2.18-3.32-4.36-4.8-6.67-1.82-2.83-3.64-5.67-5.37-8.56-.88-1.49-1.82-2.94-2.64-4.45l-2.62-4.82c-.84-1.55-1.54-3.2-2.31-4.79-.62-1.29-1.17-2.62-1.73-3.94-1.7-4.17-3.28-8.36-4.77-12.6s-2.87-8.48-4-12.79c-1.19-4.52-2.25-9.08-3.23-13.65-.5-2.33-1.07-4.66-1.49-7s-.76-4.5-1.1-6.76c-.62-5-1.12-9.94-1.46-14.93-.17-2.5-.29-5-.44-7.5-.17-2.65-.36-5.3-.45-8-.38-11-.23-22-.61-33-.17-5-.32-9.95-.37-14.92-.05-5.42,0-10.84-.15-16.26s-.36-10.76-.43-16.15c-.07-5.55-.05-11.12-.2-16.67-.07-2.65-.21-5.31-.29-8s-.11-5.48-.17-8.22c-.09-5.64.15-11.29.28-16.93.14-5.36.17-10.73.33-16.09.07-2.42.28-4.85.47-7.26.22-2.74.44-5.49.64-8.24.48-6.54.82-13.11,1.58-19.62.43-2.29.94-4.55,1.47-6.81A39.6,39.6,0,0,1,43.7,31c.66-1.45,1.3-2.9,1.87-4.39l.19-.52c.84.92,1.63,1.88,2.4,2.84,1.55,1.94,3.13,3.86,4.78,5.72,3.48,3.94,7.28,7.59,10.89,11.42,3.44,3.64,6.52,7.59,9.72,11.45A65.63,65.63,0,0,0,78,62.35c.76.74,1.52,1.46,2.23,2.24s1.31,1.54,2,2.3a6,6,0,0,0,10-2.64,5.74,5.74,0,0,0-.6-4.61c-.88-1.15-1.78-2.24-2.73-3.33-.76-.85-1.59-1.62-2.4-2.42a63.9,63.9,0,0,1-4.66-5.07c-1.72-2.06-3.41-4.15-5.12-6.22s-3.81-4.27-5.78-6.35c-3.59-3.78-7.41-7.34-10.78-11.33-1.75-2.08-3.45-4.21-5.23-6.26-.76-.88-1.63-1.69-2.46-2.52a15.92,15.92,0,0,0-3.7-2.89,12.19,12.19,0,0,0-2-.9,7,7,0,0,0-3.7-.11,7.73,7.73,0,0,0-4.16,2.69,17.85,17.85,0,0,0-2,2.69,41.35,41.35,0,0,0-2.29,5.64,54.92,54.92,0,0,0-2.74,6.48c-.63,2.11-1.16,4.26-1.63,6.42-.28,1.3-.55,2.6-.79,3.91-.29,1.6-.43,3.25-.61,4.87-.32,2.8-.51,5.62-.71,8.44-.38,5.36-.75,10.72-1.18,16.08-.41,5.16-.71,10.32-.77,15.5-.13,10.78-.64,21.57-.32,32.36.16,5.56.4,11.12.44,16.69q.06,8,.21,15.91c.1,5.55.32,11.1.36,16.66.05,5.2,0,10.4.13,15.61s.37,10.71.41,16.06,0,10.81.1,16.22q.06,7.83.51,15.63c.32,5.51.61,11,1.08,16.5.49,5.66,1.21,11.33,2.21,16.93,1,5.39,2.25,10.73,3.49,16.06a199.35,199.35,0,0,0,10,30.58c1.07,2.62,2.15,5.27,3.38,7.82l2.08,4.29c.64,1.33,1.41,2.61,2.11,3.91,2.56,4.71,5.5,9.25,8.4,13.75A134.87,134.87,0,0,0,71,353.53c1.62,1.92,3.3,3.83,5.07,5.61s3.79,3.69,5.62,5.6,3.21,3.88,4.87,5.77a43.72,43.72,0,0,0,3.2,3.33,31.51,31.51,0,0,0,9.94,5.76c4.75,1.93,9.85,3,14.83,4.17,2.62.62,5.21,1.35,7.84,1.94a66.68,66.68,0,0,0,9.11,1.44,72.66,72.66,0,0,0,7.67.07c2.71-.05,5.4-.37,8.09-.64,3-.31,6.05-.8,9.05-1.28,2.57-.41,5.12-.9,7.64-1.54s5-1.23,7.5-2c2.87-1,5.7-1.94,8.53-3,2.59-1,5.15-2,7.69-3.12a76.42,76.42,0,0,0,7.42-3.55c2.34-1.33,4.65-2.75,7-4,1.22-.67,2.41-1.34,3.57-2.12a44.39,44.39,0,0,0,3.88-3.11A78.9,78.9,0,0,0,220.69,351a103.57,103.57,0,0,0,8.82-13.9c1.32-2.4,2.68-4.81,3.9-7.27.78-1.56,1.54-3.1,2.21-4.71.57-1.38,1.08-2.75,1.57-4.15,1.69-4.78,3.43-9.57,4.79-14.46.81-2.91,1.6-5.81,2.34-8.74.6-2.41,1.05-4.87,1.53-7.31,1.11-5.71,2.14-11.42,2.8-17.2.58-5.13,1-10.28,1.37-15.43.39-5.71.76-11.41,1-17.14.18-5.07.3-10.15.4-15.23.1-5.43.34-10.86.43-16.29.11-5.74.21-11.47.4-17.2.08-2.46.17-4.9.17-7.36q0-4.45,0-8.92c0-10.66-.05-21.33-.35-32-.09-3.52-.25-7-.57-10.53s-.74-7.23-1.1-10.84-.71-7.07-1.08-10.61-1-7.33-1.56-11c-.32-2.61-.6-5.25-1.06-7.83s-1-5.27-1.52-7.9c-1-5.16-1.88-10.36-2.7-15.55-.89-5.52-1.6-11.09-2.81-16.54-1.13-5.17-2.91-10.19-4.26-15.31-.65-2.43-1.38-4.83-2.13-7.23s-1.66-4.51-2.53-6.76c-.35-.91-.6-1.86-.88-2.78a16.62,16.62,0,0,0-2.93-6c-.72-.85-1.56-1.54-2.34-2.31a22.43,22.43,0,0,0-3.43-2.8,7.38,7.38,0,0,0-4-1.1,10,10,0,0,0-3.76.76Zm3.09,10.08.08,0-.09,0Zm2.27,3.08c.06.13.12.26.17.39l-.17-.39Zm17.23,74.95.09.66-.09-.66Z"/><path class="cls-2" d="M207,51.14a6.64,6.64,0,0,0-2.07,2.24c-1.43,2.21-2.77,4.49-4.18,6.72Q198,64.5,195,68.81c-1.44,2.1-.4,5.17,1.68,6.39a4.7,4.7,0,0,0,3.59.47,4.91,4.91,0,0,0,2.79-2.14q3-4.4,5.84-8.88a1.74,1.74,0,0,1,.11-.18,30.54,30.54,0,0,1,1.24,3.3,4.73,4.73,0,0,0,9.21,2.17,9,9,0,0,0,0-5,18.63,18.63,0,0,0-1-2.45c-.54-1.21-1.06-2.42-1.58-3.64-.64-1.47-1.26-3-2-4.39-.83-1.62-2.09-3.28-3.93-3.79a5.3,5.3,0,0,0-1.39-.18,5.22,5.22,0,0,0-2.59.66ZM210.28,68a2,2,0,0,1,0,.24c0-.08,0-.16,0-.24Z"/><path class="cls-2" d="M51.49,58.31a7.27,7.27,0,0,0-1.57,2.82c-.29.79-.59,1.57-.89,2.36-.58,1.55-1.13,3.12-1.76,4.64-.33.78-.65,1.56-1,2.33-.63,1.22-1.24,2.45-1.91,3.65a4.59,4.59,0,1,0,7.92,4.63c.68-1.21,1.29-2.45,1.93-3.68.37-.73.66-1.57,1-2.33s.57-1.37.86-2,.65-1.59,1-2.39q1.5,1.26,2.94,2.61a4.69,4.69,0,1,0,6.64-6.63q-2-1.78-4.12-3.44c-.88-.68-1.75-1.36-2.64-2l-1.25-.91A6.47,6.47,0,0,0,55,56.76h-.13a4.92,4.92,0,0,0-3.34,1.55ZM46.41,70.18l-.11.26h0c0-.09.07-.18.11-.27Z"/><path class="cls-2" d="M84.6,356.48a4.74,4.74,0,0,0-2.83,2.18,5,5,0,0,0-.48,3.64c.85,4.89,1.52,9.81,2.19,14.73.31,2.42.6,4.85.93,7.28.14,1.05.29,2.11.44,3.16.33,2.7.56,5.41.91,8.11,0-.18-.05-.36-.07-.54l.54,4.09c.3,2.46.57,4.93.82,7.39a76.51,76.51,0,0,0,1.09,8,74.72,74.72,0,0,0,3.58,13.27,29.71,29.71,0,0,0,4.62,8.29A18.39,18.39,0,0,0,99.57,439a17.67,17.67,0,0,0,2.53,1.55c1.23.59,2.5,1.14,3.78,1.61a25.23,25.23,0,0,0,3.23.75,34.88,34.88,0,0,0,6.27.84c2.7.09,4.9-1.53,6.85-3.18a13.63,13.63,0,0,0,2.85-3.56,31.8,31.8,0,0,0,3.5-11.47,107.54,107.54,0,0,0,.89-12.81c.08-3.65.17-7.27.57-10.89.38-2.38.85-4.73,1.27-7.1a66.68,66.68,0,0,1,1.83-8.27A5.79,5.79,0,0,0,126,379.3a5.58,5.58,0,0,0-3.46,2.66,33.63,33.63,0,0,0-2.1,6.08c-.37,1.51-.6,3.06-.9,4.59A100.62,100.62,0,0,0,118,403.42c-.56,6.56-.06,13.15-.75,19.7a35.39,35.39,0,0,1-1.56,6.77c-.29.58-.6,1.15-.94,1.69l-.35.34c-1-.16-2.09-.39-3.14-.59a19.66,19.66,0,0,1-3-.79,19.45,19.45,0,0,1-3-1.65,13.23,13.23,0,0,1-1-1,29.76,29.76,0,0,1-2.38-4.41,56.52,56.52,0,0,1-2.69-8.67c-.36-1.62-.77-3.23-1.11-4.85-.27-1.34-.48-2.7-.67-4.05-.37-3-.71-6-1.22-9-.47-2.72-.9-5.43-1.28-8.17l0,.37c-.62-4.54-1.42-9.06-2.11-13.6-.79-5.26-1.54-10.53-2.46-15.77A4.58,4.58,0,0,0,88.24,357a4.82,4.82,0,0,0-2.4-.64,4.69,4.69,0,0,0-1.24.16Zm28.73,75.31.88.12-.88-.12Z"/><path class="cls-2" d="M209.08,355.6l-.93,1.2a5.83,5.83,0,0,0-.8,3c-.73,6.33-.41,12.73-1.16,19.06l.21-1.59c-.31,2.29-.53,4.58-.8,6.87q-.58,4.31-1.11,8.62c-.49,3.35-1,6.7-1.81,10-.39,1.7-.81,3.39-1.2,5.09a32.51,32.51,0,0,1-1.77,5.17,41.26,41.26,0,0,1-3.71,6.78,24.67,24.67,0,0,1-2.82,3,15.91,15.91,0,0,1-1.58,1,15.54,15.54,0,0,1-1.52.43c-.5,0-1,0-1.5,0a16.57,16.57,0,0,1-2.07-.54,16.84,16.84,0,0,1-1.9-1.07l-.2-.2a12.17,12.17,0,0,1-.63-1.11c-.24-.68-.45-1.37-.66-2.07-.34-1.1-.73-2.18-1.07-3.28-.58-1.88-1.08-3.77-1.62-5.66s-1.26-4-1.73-6.05c-.51-2.26-.77-4.57-1.09-6.86.07.47.13.94.19,1.41-.24-1.88-.49-3.76-.76-5.62-.8-6.23-1.49-12.49-3.25-18.54a5,5,0,0,0-9.65,2.66,71.59,71.59,0,0,1,1.94,9.6c.51,4.77.91,9.55,1.4,14.32a66.76,66.76,0,0,0,1.31,8.56c.49,2.11,1,4.2,1.5,6.3s1.14,4.35,1.72,6.52c.15.57.29,1.13.45,1.69a24.71,24.71,0,0,0,1,2.63,15.43,15.43,0,0,0,2.31,3.58,13.52,13.52,0,0,0,3.5,2.83,23.19,23.19,0,0,0,4.55,2,22.07,22.07,0,0,0,4.77.83,14.9,14.9,0,0,0,6-.74,21,21,0,0,0,9.91-7.12,34.27,34.27,0,0,0,3.74-5.46c.94-1.74,1.74-3.53,2.51-5.35a44.09,44.09,0,0,0,2.5-7.34c.52-2.3,1.13-4.6,1.6-6.92s.87-5,1.23-7.45c.42-3,.77-5.93,1.13-8.89,0,.33-.09.65-.14,1,.36-2.67.66-5.35,1-8l-.21,1.59a97.25,97.25,0,0,0,.9-10.91c0-1.74.07-3.48.19-5.22s.24-3.62.19-5.44a5.89,5.89,0,0,0-10-4.17Zm-3.27,26.92c-.07.5-.13,1-.2,1.49.07-.5.13-1,.2-1.49Zm-6.43,31.28c-.08.18-.16.37-.23.55.07-.18.15-.37.23-.55Zm11,4.48.18-.44-.18.44Zm.37-.89c-.06.15-.12.3-.19.45l.42-1c-.07.18-.15.36-.23.54Z"/><path class="cls-2" d="M23.89,204.65a80.94,80.94,0,0,0-4.11,7.4l-2.16,4.61c-.68,1.45-1.25,3-1.84,4.45-2,5-3.62,10.28-5.39,15.44a91.92,91.92,0,0,0-4.07,15.29C5.43,257.4,4.53,263,4.07,268.56c-.21,2.5-.23,5-.29,7.5,0,1.1-.06,2.19,0,3.28,0,1.29.14,2.57.26,3.85a41.75,41.75,0,0,0,1.42,8.31,20.9,20.9,0,0,0,4.4,7.57,23.08,23.08,0,0,0,3.31,2.76,16.28,16.28,0,0,0,4.5,2.67,18.2,18.2,0,0,0,3.66.7,11.7,11.7,0,0,0,2,.09,10.47,10.47,0,0,0,7.33-3.63,47.63,47.63,0,0,0,4.33-5.4c.53-.79,1-1.64,1.49-2.46S37.52,292,38,291.11c1.83-3.51,3.37-7.18,4.9-10.83l.57-1.32c.19-.43.37-.87.55-1.3A5.43,5.43,0,0,0,37.34,271a5.7,5.7,0,0,0-3.25,2.49,23.12,23.12,0,0,0-2,4c-1.2,2.69-2.43,5.37-3.74,8-.56,1.15-1.31,2.22-2,3.31-.56.93-1.1,1.85-1.73,2.74-.32.4-.66.79-1,1.18s-.87,1-1.34,1.49a5.25,5.25,0,0,1-.56,0l-.63-.14a26.54,26.54,0,0,1-2.62-1.75,13.51,13.51,0,0,1-1.09-1.05,22.53,22.53,0,0,1-1.4-2.36A26.34,26.34,0,0,1,15,284.12c-.18-1.64-.35-3.29-.39-4.95s0-3.47.06-5.21c.08-3.49.27-7,.69-10.44.11-.78.21-1.57.32-2.35.45-3.29.91-6.57,1.51-9.84a73.57,73.57,0,0,1,2.74-10q1.73-5.21,3.41-10.45c1-3.1,2.16-6.1,3.35-9.12.84-1.81,1.69-3.61,2.52-5.43.48-1,1.13-2,1.68-3,.65-1.17,1.31-2.32,2-3.47A5.23,5.23,0,0,0,31,202.79a5.09,5.09,0,0,0-2.57-.69,5.28,5.28,0,0,0-4.52,2.55Zm19.5,74.45c-.14.35-.29.69-.43,1,.14-.35.29-.69.43-1Z"/><path class="cls-2" d="M245.09,197.76a5.22,5.22,0,0,0-2.37,3.09l-.18,1.37a5.07,5.07,0,0,0,.7,2.6c1,2.42,2.18,4.77,3.39,7.1a61.92,61.92,0,0,0,3.77,6.19c2.44,3.65,5.2,7.08,7,11.07.65,1.61,1.28,3.22,1.85,4.86.69,2,1.26,4,1.87,6,1.1,3.63,2.28,7.23,3.13,10.94.42,1.83.83,3.66,1.27,5.48s.91,3.39,1.24,5.11c.76,4,1.34,8,2,12a38.07,38.07,0,0,1,.33,7.15,21.74,21.74,0,0,1-1.19,3.91,18.15,18.15,0,0,1-.87,1.77l-.09.09c-.5.32-1,.62-1.53.9l-.54.16a10.28,10.28,0,0,1-1.11,0,19.5,19.5,0,0,1-2.49-.68,27.38,27.38,0,0,1-3.8-2.32c-.48-.4-1-.82-1.43-1.25a18.93,18.93,0,0,1-2-2.32l.74,1a44.6,44.6,0,0,1-4.54-7.16,34.17,34.17,0,0,0-1.76-3.9,5.47,5.47,0,0,0-6.13-2.5c-2.71.75-4.75,3.88-3.79,6.68a38.79,38.79,0,0,0,3.31,7.66c.64,1.06,1.37,2.06,2.09,3.07,1,1.38,2,2.74,3.11,4a26.17,26.17,0,0,0,6.6,5.18,20.85,20.85,0,0,0,7.37,2.84,15.53,15.53,0,0,0,6.78-.2,14.8,14.8,0,0,0,4.53-2.3,11.71,11.71,0,0,0,3.24-3.15,14.86,14.86,0,0,0,1.05-2c.66-1.44,1.27-2.92,1.82-4.41a16.37,16.37,0,0,0,.7-3.1,25.59,25.59,0,0,0,.28-4.87,73.86,73.86,0,0,0-1-8.51,144,144,0,0,0-2.67-14.45c-.6-2.35-1.12-4.73-1.65-7.1s-1.26-4.88-2-7.29-1.47-4.87-2.22-7.3-1.75-5-2.79-7.5a36.43,36.43,0,0,0-3.73-6.86c-1.5-2.14-3.05-4.25-4.52-6.41a63.54,63.54,0,0,1-3.61-6c-1.16-2.2-2.23-4.43-3.2-6.71a4.93,4.93,0,0,0-3.09-2.37,5.16,5.16,0,0,0-1.35-.18,5.25,5.25,0,0,0-2.62.7Zm23,86.29v0Z"/><path class="cls-2" d="M310,152.6a27.55,27.55,0,0,0-6.1,1.12c-1.07.31-2.13.69-3.18,1.07l-1.93.71c-.4.16-.79.31-1.17.48l-.06,0-1.91.81c-4.58,2-8.28,5.55-11.85,8.95a36.8,36.8,0,0,0-5.77,6.75,49.83,49.83,0,0,0-3.2,6.15c-.65,1.45-1.23,2.93-1.77,4.42-.22.6-.43,1.21-.64,1.82a18.77,18.77,0,0,0-.81,4.21,44.63,44.63,0,0,0,.1,7.31,54,54,0,0,0,1.16,8.69c.55,2.46,1.26,4.84,2,7.23s1.58,5,2.31,7.55c.68,2.33,1.29,4.68,2.08,7s1.64,4.61,2.44,6.92,1.57,4.85,2.32,7.29,1.54,5.16,2.27,7.74a77.64,77.64,0,0,1,1.66,7.85c.37,2.94.66,5.88.75,8.85a63.5,63.5,0,0,1-.61,9.73c-.49,2.79-1.07,5.56-1.7,8.32-.31,1.36-.63,2.71-1,4s-.93,2.67-1.44,4c-1,2.26-2,4.52-3.13,6.71a74.17,74.17,0,0,1-5,8.65,65,65,0,0,1-6.88,6.9,62.92,62.92,0,0,1-5.45,3.48c-1.82,1.05-3.61,2.1-5.52,3a43.91,43.91,0,0,1-8.36,2.32,22.43,22.43,0,0,1-2.84.16c-1.05,0-2.09-.11-3.12-.23a15,15,0,0,1-2.46-.62c-.52-.27-1-.56-1.53-.88-.21-.2-.41-.41-.6-.62l-.22-.33a4.77,4.77,0,1,0-8.24,4.82,18.36,18.36,0,0,0,2.3,2.89,16.55,16.55,0,0,0,3.5,2.42,17.69,17.69,0,0,0,6.31,1.9,39.34,39.34,0,0,0,4.47.45,26.36,26.36,0,0,0,4.77-.36A41.59,41.59,0,0,0,265.19,328c2-1,4-2.18,6-3.39a42.53,42.53,0,0,0,6.64-5,70.37,70.37,0,0,0,5.83-6,52.42,52.42,0,0,0,5.25-8.41,100,100,0,0,0,6.55-14.69,54.85,54.85,0,0,0,1.68-6.65c.64-2.95,1.2-5.87,1.59-8.85.16-1.17.28-2.35.37-3.53.09-1.34.25-2.7.27-4,0-2.48-.11-4.94-.32-7.41a92.3,92.3,0,0,0-2.76-15.74c-1-3.74-2.07-7.49-3.28-11.17s-2.49-7.28-3.7-10.94c-.57-1.72-1-3.51-1.47-5.26-.58-2.05-1.2-4.08-1.83-6.11s-1.27-4-1.85-6a50.74,50.74,0,0,1-1.15-5.17c-.19-1.75-.32-3.5-.43-5.26a41.47,41.47,0,0,1-.07-5.23,30.88,30.88,0,0,1,1-3.23c.33-1,.69-1.92,1.07-2.87a36.91,36.91,0,0,1,3.16-6,67,67,0,0,1,8.9-8.68,29.13,29.13,0,0,1,4.54-2.58l.4-.16a50.72,50.72,0,0,1,7.7-2.46,19.39,19.39,0,0,1,3.32,0c1.17.11,2.33.24,3.5.38l.79.13a19.13,19.13,0,0,1,3.12,1c1,.39,2.09.81,3.13,1.23-.24-.09-.47-.19-.71-.3a36,36,0,0,1,6.16,3,15.4,15.4,0,0,1,1.53,1.6c.23.31.45.63.66.95a9.42,9.42,0,0,1,.57,1.09,17.55,17.55,0,0,1,.8,3.33,29.86,29.86,0,0,1,.07,4.82,20.69,20.69,0,0,1-1.09,3.34,27.69,27.69,0,0,1-2.29,4.17c-.39.44-.79.85-1.22,1.25a29.41,29.41,0,0,1-4.62,2.59c-1.16.53-2.33,1-3.45,1.61a28.46,28.46,0,0,0-3.25,2c-1.15.82-2.29,1.67-3.36,2.58a18.43,18.43,0,0,0-3.32,3.78,18.84,18.84,0,0,0-1.88,4.08c-.35,1-.67,2-1,3a38.35,38.35,0,0,0-1.39,8,58.9,58.9,0,0,0-.15,7.4c.11,2.31.16,4.64.31,6.95.17,2.89.56,5.76,1,8.61.68,4.28,1.76,8.46,2.53,12.72.69,3.83,1.3,7.67,1.9,11.52.59,5.27,1.07,10.54,1.81,15.79.24,2,.38,4.09.45,6.15a48.78,48.78,0,0,1-.09,6.4,79.92,79.92,0,0,1-2.08,8.61c-.79,2.83-1.52,5.66-2.57,8.4a61.15,61.15,0,0,1-6.57,11.18,36.28,36.28,0,0,1-3.16,3.51c-1.36,1.3-2.9,2.41-4.35,3.61s-2.76,2.19-4.09,3.34-2.75,2.43-4.17,3.58a49.74,49.74,0,0,1-4.89,2.88c-1.64.89-3.23,1.82-4.93,2.59-2.38,1-4.74,2-7.08,3-2.06.75-4.2,1.22-6.31,1.8a64.36,64.36,0,0,1-6.69,1.59,33.09,33.09,0,0,1-6.6.05c-2.33-.37-4.67-.75-7-1.19a45,45,0,0,1-6.68-1.66c-.42-.22-.82-.45-1.22-.71a36.27,36.27,0,0,0-5.19-4.06,5.87,5.87,0,0,0-7,.91,5.81,5.81,0,0,0-1.71,4.11,6.15,6.15,0,0,0,1.71,4.11,18.57,18.57,0,0,0,1.87,1.67c.66.61,1.35,1.19,2.05,1.75a19.23,19.23,0,0,0,3.39,2.36,26.33,26.33,0,0,0,4.51,1.68,62.5,62.5,0,0,0,7,1.37c2.77.41,5.54.91,8.32,1.21a32.64,32.64,0,0,0,8.08-.37,51.82,51.82,0,0,0,6.78-1.48c2.37-.67,4.79-1.23,7.11-2a44.11,44.11,0,0,0,4.12-1.78c.76-.36,1.53-.7,2.3-1a58.66,58.66,0,0,0,6.93-3.19c2-1.13,4-2.17,5.95-3.4a52.32,52.32,0,0,0,6.5-5.29c1.63-1.44,3.37-2.78,5-4.19a61.05,61.05,0,0,0,4.92-4.32,57.85,57.85,0,0,0,5-6.32,48.72,48.72,0,0,0,3.46-5.6,62.85,62.85,0,0,0,3.61-7.87c.9-2.43,1.49-5,2.19-7.47.75-2.69,1.53-5.35,2-8.09,1.1-6.23.62-12.53-.23-18.75-.37-3.14-.7-6.29-1-9.43-.22-2.22-.43-4.43-.77-6.63-.26-1.67-.54-3.33-.81-5q-.87-5.42-2-10.79c-.35-1.7-.81-3.38-1.17-5.08s-.62-3.37-.88-5.06c-.17-1.41-.31-2.83-.4-4.24-.12-1.75-.15-3.5-.23-5.24a69.11,69.11,0,0,1,.26-10,38.74,38.74,0,0,1,1.88-6.76,13.73,13.73,0,0,1,.81-1.45,19.07,19.07,0,0,1,2-1.88,30.75,30.75,0,0,1,5.18-3.23,43.66,43.66,0,0,0,6.09-3.21,23.13,23.13,0,0,0,3.15-2.51,21.75,21.75,0,0,0,2.77-3.5,36.1,36.1,0,0,0,3.4-7.29,20.74,20.74,0,0,0,1.14-8,41.73,41.73,0,0,0-.48-4.45,23.32,23.32,0,0,0-.67-3.2,24,24,0,0,0-1.35-3.19,22,22,0,0,0-3.23-4.51,16.6,16.6,0,0,0-6-4.19c-2.47-1.17-5-2.2-7.57-3.19-.52-.21-1.06-.4-1.59-.59a20.56,20.56,0,0,0-4.52-1c-1.35-.18-2.7-.32-4-.47-.93-.09-1.88-.19-2.82-.19-.25,0-.5,0-.75,0Zm5.1,10.83.44.06-.44-.06Z"/><path class="cls-2" d="M137.6,162.44a4.63,4.63,0,0,0-2.9,2.23q-1.71,3.9-3.43,7.79c-1,2-2.11,3.85-3.22,5.74-.68,1.17-1.37,2.34-2.05,3.52a9.92,9.92,0,0,0-1.63,4.53,5.26,5.26,0,0,0,.66,2.85,5.91,5.91,0,0,0,2,1.89,4.83,4.83,0,0,0,5,0c2-1.25,3.13-3.32,4.08-5.43q1-2.22,2-4.47l1.26-2.87c.28.32.55.64.84.95,1.53,1.66,3.57,2.81,5.11,4.45a10.38,10.38,0,0,1,.57,1.1,5.12,5.12,0,0,0,9.35-3.94,10.42,10.42,0,0,0-2.12-3.84,15.9,15.9,0,0,0-2.64-2.28c-.72-.54-1.46-1-2.19-1.57a23.93,23.93,0,0,1-3-3c-.49-.66-1-1.32-1.43-2l-.09-.14a5.06,5.06,0,0,0-.11-2.08,5,5,0,0,0-2.23-2.9,4.85,4.85,0,0,0-2.46-.66,5.06,5.06,0,0,0-1.28.17Z"/><path class="cls-2" d="M135.35,154.89a33.14,33.14,0,0,0-3.29.53l-1.94.82-1,.75a3.89,3.89,0,0,0-1.31,1.42,4.56,4.56,0,0,0-.89,1.72c0,.43-.11.85-.17,1.28a3.7,3.7,0,0,0,.08,2,6.61,6.61,0,0,0,.91,1.82,6.49,6.49,0,0,0,2.13,2,19.07,19.07,0,0,0,4.7,1.61c1.24.3,2.5.58,3.76.87a5,5,0,0,0,5.3-2c.95-.13,1.89-.26,2.83-.42a6.4,6.4,0,0,0,4.48-3.16,4.74,4.74,0,0,0,0-4.76,12.53,12.53,0,0,0-.93-1.24c-.51-.45-1.05-.85-1.59-1.25a6.77,6.77,0,0,0-1.1-.65,19.21,19.21,0,0,0-2.53-1,15.37,15.37,0,0,0-3.75-.6c-.42,0-.83,0-1.25,0a37.08,37.08,0,0,0-4.46.37Z"/><path class="cls-2" d="M166.82,98a4.89,4.89,0,0,0-1.38,3.35c-.25,4.18-.56,8.36-.68,12.55-.07,2-.08,4,0,6,0,.82.08,1.64.12,2.46a18.62,18.62,0,0,0,.33,3,11.27,11.27,0,0,0,1.25,3.15A9.09,9.09,0,0,0,168.6,131a4.8,4.8,0,0,0,2.13,1.25c.56.09,1.12.16,1.69.21a7.86,7.86,0,0,0,1.67-.27,4.8,4.8,0,0,0,2.13-1.25,9.83,9.83,0,0,0,2.5-3.95,33,33,0,0,0,1.41-6.68,30.46,30.46,0,0,0,.34-3.7,15.78,15.78,0,0,0-.76-4.61,31.93,31.93,0,0,0-1.47-3.72c-.59-1.51-1.13-3-1.83-4.49a4.77,4.77,0,0,0-1.58-1.64c0-.27,0-.54,0-.8A4.72,4.72,0,0,0,166.82,98Z"/><path class="cls-2" d="M92.15,103.91a4.73,4.73,0,0,0-1.32,3.18c-.3,4.89-.45,9.77-.52,14.66,0,1.69,0,3.38,0,5.07a35.18,35.18,0,0,0,.71,7.59,6.4,6.4,0,0,0,4.8,4.72,4.3,4.3,0,0,0,1.55.14,6,6,0,0,0,2.66-.71,7.08,7.08,0,0,0,2.14-1.67,10.3,10.3,0,0,0,1.53-2.12,22.56,22.56,0,0,0,1.36-3.51,22.09,22.09,0,0,0,.7-4.44,37.2,37.2,0,0,0,.22-3.95,42.62,42.62,0,0,0-.69-6.67c-.14-.93-.31-1.86-.54-2.77a19.41,19.41,0,0,0-2.39-5.87,5,5,0,0,0-2.86-2.2h0a4.71,4.71,0,0,0-4.18-2.75,4.54,4.54,0,0,0-3.17,1.31Z"/><path class="cls-2" d="M125.39,52.23c-3.79,0-7.58.18-11.37.32a4.34,4.34,0,0,0-4.29,4.29,4.07,4.07,0,0,0,.14,1c-.29.21-.57.43-.85.66a5.6,5.6,0,0,0-1.3,2.45,4.53,4.53,0,0,0,.46,3.49,4.67,4.67,0,0,0,2.51,2l-1.08.47a17.23,17.23,0,0,0-2,1,4.78,4.78,0,0,0-2.2,5.39c.42,1.26,1.13,2.81,2.44,3.39l1.57.67a17.3,17.3,0,0,0,2.37.24c1.88,0,3.76,0,5.64-.06q3.47-.12,6.93-.29a5.09,5.09,0,0,0,2.33,6,18.41,18.41,0,0,0,2.49,1.09A18.92,18.92,0,0,0,132,85l.31.06a6.81,6.81,0,0,0-2.41,1.46,5.25,5.25,0,0,0-1.41,5,6,6,0,0,0,3.38,3.64,20.5,20.5,0,0,0,4.62,1.38,8.7,8.7,0,0,0-1.09,2.31,7.48,7.48,0,0,0-.29,1.69,8.76,8.76,0,0,0,.07,1c0,.2,0,.41,0,.62a4.59,4.59,0,0,0,7.83,3.24,4.83,4.83,0,0,0,1.34-3.24c0-.26,0-.51,0-.76.17-.3.35-.59.55-.88a21.29,21.29,0,0,0,1.24-1.75,13.05,13.05,0,0,0,.89-2.19,10.5,10.5,0,0,0,.43-2.22,6,6,0,0,0-.93-3.73l.32-.09c1.11-.3,2.2-.64,3.27-1a18.77,18.77,0,0,0,2.81-1.09,8.29,8.29,0,0,0,2-1.55,4.67,4.67,0,0,0,1.34-3.23,4.74,4.74,0,0,0-1.34-3.23A5.92,5.92,0,0,0,152.81,79a4.63,4.63,0,0,0,1-7.3l-.94-.73a4.71,4.71,0,0,0-.76-.35h.77a4.59,4.59,0,0,0,4.42-5.81A4.89,4.89,0,0,0,155.17,62l-.37-.24c.39,0,.78.06,1.17.07a4.28,4.28,0,0,0,1.14-8.41,13.35,13.35,0,0,0-3.1-.37c-1.61-.21-3.22-.39-4.84-.49-1.92-.12-3.81-.16-5.74-.18l-1.67,0c-1.81-.09-3.62-.16-5.44-.18q-3.23,0-6.45,0c-1.49,0-3,0-4.48,0ZM138.45,93.5l-.15.37v0l.15-.35Z"/><path class="cls-2" d="M32.93,128a4.69,4.69,0,0,0-1.29,3.11c-.33,4.07-.36,8.15-.49,12.22,0,1.62.07,3.26.11,4.88s0,3.18.12,4.76c.2,3.61.37,7.22.68,10.82a38.48,38.48,0,0,0,.85,6,15.86,15.86,0,0,0,.65,1.74c.17.47.34.95.52,1.43a18.07,18.07,0,0,0,1.58,3.92,4.41,4.41,0,0,0,6,1.59l.89-.7a4.3,4.3,0,0,0,1.14-1.94,31.6,31.6,0,0,0,1.56-6c.25-1.15.48-2.31.72-3.46.09-.43.18-.86.26-1.29.06.43.11.86.17,1.29a13.66,13.66,0,0,0,1.25,5.07,5.08,5.08,0,0,0,3,2.41,9.52,9.52,0,0,0,1.6.25L54,173.9l1.5-.63a13.88,13.88,0,0,0,1.35-1.08c.36-.46.72-.93,1.07-1.4a9.61,9.61,0,0,0,.56-1.11,29.92,29.92,0,0,0,1.3-3.21q.1-.28.18-.57a3.42,3.42,0,0,0,.77.7,4.39,4.39,0,0,0,1.44,1,7.49,7.49,0,0,0,1.63.62,7,7,0,0,0,6.52-1.68,13.86,13.86,0,0,0,1-1.05l.41.7A32.94,32.94,0,0,0,76,172.39a4.8,4.8,0,1,0,6.79-6.79,6.33,6.33,0,0,1-.44-.46A67.64,67.64,0,0,1,77.92,158c-.44-.8-.86-1.6-1.28-2.41l-1.09-1.43A5.65,5.65,0,0,0,74,153.14a4.62,4.62,0,0,0-2.38-.64,7.08,7.08,0,0,0-1.89.34c-1.72.47-2.67,1.8-3.56,3.18-.13-.53-.27-1.06-.41-1.58a43,43,0,0,0-1.26-4.19c-.2-.55-.43-1.09-.67-1.63a3.5,3.5,0,0,0-.94-1.44,5.4,5.4,0,0,0-6.54-1.29,4.56,4.56,0,0,0-2.12,2.76c-.17.66-.32,1.32-.47,2v-.09c-.15-1.67-.29-3.34-.46-5a22.12,22.12,0,0,0-.79-4.43,5.41,5.41,0,0,0-3.56-3.57,4.89,4.89,0,0,0-4.59,1.26,8.44,8.44,0,0,0-1.79,3.4c-.32,1-.6,2-.88,3-.56,2.08-1.06,4.17-1.54,6.26,0-.27,0-.54,0-.81-.06-2.75-.23-5.52-.14-8.26.12-3.79.16-7.58.46-11.36A4.29,4.29,0,0,0,39.16,128a4.41,4.41,0,0,0-6.23,0Zm48.9,36.52c.12.14.23.29.34.43-.12-.14-.23-.28-.34-.43Z"/><path class="cls-2" d="M238.3,135.13a4.29,4.29,0,0,0-2.56,2c-.15.34-.29.68-.43,1a4.17,4.17,0,0,0,0,2.27c0,.06,0,.12,0,.17.11.9.2,1.8.28,2.7l-.36-.14a12.53,12.53,0,0,0-1.5-.18c-1.77-.11-3.38,1.2-4.3,2.58a17.74,17.74,0,0,0-2.36,6.63c0,.13-.05.27-.07.4-.48-1.28-1-2.55-1.54-3.8a10.14,10.14,0,0,0-2.4-3.84,4.61,4.61,0,0,0-2.05-1.19,6.68,6.68,0,0,0-1.54-.24l-1.55.2a6,6,0,0,0-2.48,1.6,8.83,8.83,0,0,0-1.87,3.29,31.57,31.57,0,0,0-1.15,3.73c-.26,1-.45,2-.63,3.08a13.92,13.92,0,0,0-1.57-.16,4.58,4.58,0,0,0-2.37.64,5.76,5.76,0,0,0-.69.38,6.51,6.51,0,0,0-1.87-1.9,5,5,0,0,0-2.89-1,6.44,6.44,0,0,0-2.89.69,7.7,7.7,0,0,0-3.36,5.23,5,5,0,0,0,.48,3.6,4.74,4.74,0,0,0,2.79,2.15,4.87,4.87,0,0,0,1.61.15c.5,1.49,1,3,1.61,4.45a4.54,4.54,0,0,0,2.82,2.17,4.77,4.77,0,0,0,4.16-.83l.5,1.16.94,1.22a4.72,4.72,0,0,0,4.59,1.21A10.62,10.62,0,0,0,217,174a4.81,4.81,0,0,0,2.17-2.81,22.43,22.43,0,0,0,.51-3c.14-1,.21-2.08.29-3.12.1-1.2.2-2.39.32-3.58.18.54.36,1.07.55,1.61A110.19,110.19,0,0,0,225.25,175a4.52,4.52,0,0,0,2.78,2.13,4.58,4.58,0,0,0,4.52-1.19,6,6,0,0,0,1.5-2.41,14.88,14.88,0,0,0,.32-3c0-.77.11-1.54.16-2.3.1-1.35.2-2.69.31-4,0-.3,0-.61.07-.92.24.9.49,1.8.77,2.69s.56,1.76.87,2.63a11.68,11.68,0,0,0,.93,2.41,4.5,4.5,0,0,0,2.78,2.18,4.63,4.63,0,0,0,3.4-.44,4.24,4.24,0,0,0,2-2.63,9.67,9.67,0,0,0,.1-2.68l-.12-1.52c-.1-1.43-.2-2.87-.29-4.31-.14-2.06-.25-4.12-.37-6.18-.33-5.75-.63-11.5-1.44-17.21a4.12,4.12,0,0,0-2-2.56,4.32,4.32,0,0,0-3.29-.43Z"/><path class="cls-2" d="M236.73,220.86c-.19,4.89-.32,9.78-.42,14.67-.28-1.33-.56-2.67-.85-4-.12-.6-.27-1.19-.41-1.79-.09-.38-.21-.75-.34-1.13-.22-.55-.46-1.09-.69-1.63a13.26,13.26,0,0,0-.93-1.17,4.32,4.32,0,0,0-3.14-1.3,4.55,4.55,0,0,0-3.14,1.3,13.32,13.32,0,0,0-3,5.13q-1.12,2.87-2.1,5.77c-.53,1.55-1,3.12-1.58,4.66-.76,2.07-1.53,4.12-2.34,6.16-.06-.38-.13-.77-.19-1.15a40,40,0,0,0-1.27-6.7,4.57,4.57,0,0,0-1.18-2,4.43,4.43,0,0,0-3.23-1.34,13.17,13.17,0,0,0-1.88.2l-.6.16a4.64,4.64,0,0,0-2,1.17,9.76,9.76,0,0,0-2.3,2.92c-.27.48-.52,1-.77,1.44a7.32,7.32,0,0,0-1.53-2.12,3.67,3.67,0,0,0-1.24-.87,4.76,4.76,0,0,0-2.39-.65,6,6,0,0,0-3.2.72,4.48,4.48,0,0,0-1.09-.72l-1.15-.48c-.52-.09-1-.15-1.56-.19a4.64,4.64,0,0,0-3.38,1.39,4.78,4.78,0,0,0,0,6.76l.53.41c.15,1.24.3,2.49.48,3.73a4.86,4.86,0,0,0,1.24,2.12,4.69,4.69,0,0,0,3.39,1.4,5.84,5.84,0,0,0,2.58-.59c0,.55.09,1.1.14,1.65a24.36,24.36,0,0,0,.31,2.57,10.74,10.74,0,0,0,1,2.61,4.62,4.62,0,0,0,4,2.3,4.76,4.76,0,0,0,4-2.3,32,32,0,0,0,2.43-5.44l.56-1.37a22.86,22.86,0,0,0,1.53,4.7,9.38,9.38,0,0,0,1.59,2.71,5.28,5.28,0,0,0,2.8,1.66,6.51,6.51,0,0,0,6.39-2.5,16.74,16.74,0,0,0,2.43-4.12c1.42-3.16,2.65-6.44,3.8-9.71.31-.85.6-1.7.89-2.56.11.53.23,1.06.34,1.59,1.1,5,2.18,10.09,3.59,15.06.18.62.35,1.25.54,1.87a14.94,14.94,0,0,0,1.73,3.71,5.07,5.07,0,0,0,6.91,1.91,4.24,4.24,0,0,0,1.56-1.56,7.49,7.49,0,0,0,.62-1.35,76,76,0,0,0,.41-9.89q0-7.65.14-15.31.1-9.24.47-18.49A4.27,4.27,0,0,0,241,216.6a4.32,4.32,0,0,0-4.27,4.26ZM189,245.51l.18.23-.18-.23Zm6.73.56.06.07-.06-.07Zm-6.31.63a.68.68,0,0,0,0,.14l0-.14Zm11.7.39-.26.2.26-.2Zm13.55,6.83a3.8,3.8,0,0,1-.38.29l.38-.29Zm-8,1.79.09.22-.09-.22Z"/><path class="cls-2" d="M230.47,296.12c-.58,1-1.16,2-1.73,3a4.47,4.47,0,0,0-.45-1,4.52,4.52,0,0,0-1.62-1.63,4.61,4.61,0,0,0-5.5.71c-.76.7-1.5,1.4-2.2,2.16s-1.33,1.6-2,2.37l-2.1,2.34-.49.54a4.06,4.06,0,0,0-.43-1c-.34-.48-.71-.93-1.09-1.38a4.69,4.69,0,0,0-2.54-1.29c-1.71-.42-3.13.17-4.65.87-1.16.53-2.29,1.13-3.43,1.7l-.07,0a4.67,4.67,0,0,0,0-.52,6.25,6.25,0,0,0-.78-3.25,5.41,5.41,0,0,0-4.42-2.58c-2.41,0-4.32,1.45-6.11,2.87h0l-.49-.63a11.85,11.85,0,0,0-1.74-1.34,8.81,8.81,0,0,0-3.83-1c-.48,0-1,0-1.45,0a4.69,4.69,0,1,0,0,9.38h.33a6.94,6.94,0,0,0,1.55,2.67,7.1,7.1,0,0,0,2.54,1.56,5.73,5.73,0,0,0,3.68.23,8.09,8.09,0,0,0,1-.38,6.16,6.16,0,0,0,2.78,4.12,5.19,5.19,0,0,0,3.92.46,21.19,21.19,0,0,0,2.63-1l1-.5c-.25.63-.51,1.25-.76,1.88a12.4,12.4,0,0,0-.73,2,5.19,5.19,0,0,0,2.24,5.56,4.77,4.77,0,0,0,4.66,0,13.35,13.35,0,0,0,2.94-2.25l.83-.77c-.13.71-.24,1.43-.34,2.15-.15,1-.3,2.06-.44,3.08s-.3,2.29-.41,3.44a9.7,9.7,0,0,0,.51,3.89,4.63,4.63,0,0,0,2.08,2.71,4.52,4.52,0,0,0,4.58,0c.61-.41,1.18-.86,1.75-1.33.39-.49.77-1,1.14-1.51a14.24,14.24,0,0,0,.69-1.35c.31-.65.67-1.28,1-1.92l1.8-3.36c1.32-2.51,2.63-5,4-7.51,1.46-2.67,2.86-5.38,4.37-8,1.84-3.22,3.68-6.45,5.55-9.66a4.55,4.55,0,0,0-1.61-6.17,4.41,4.41,0,0,0-2.24-.6,4.56,4.56,0,0,0-3.93,2.22Zm-47.47,9a2.87,2.87,0,0,1,.31.4c-.1-.13-.21-.26-.31-.4Zm1.76,1.45.25.1-.25-.1Zm25.45,13.08h0v0Z"/><path class="cls-2" d="M37.59,225.4c-.29,6.54-.57,13.1-.54,19.64,0,2.83,0,5.67.11,8.5.07,1.67.12,3.33.23,5,.12,1.91.4,3.79.68,5.68a6.07,6.07,0,0,0,1.61,3.1,6.66,6.66,0,0,0,3.06,1.55,4.5,4.5,0,0,0,3.44-.45,4.73,4.73,0,0,0,2-2.67c.21-.56.43-1.11.63-1.67l.42.49a4.45,4.45,0,0,0,5.44.7,13.54,13.54,0,0,0,1.51-1.1,9.33,9.33,0,0,0,1.59-1.89,12.27,12.27,0,0,0,.75-1.65c.25-.61.48-1.23.7-1.86h0a3.89,3.89,0,0,0,.73.9,5.43,5.43,0,0,0,5.33,1.46,5.94,5.94,0,0,0,1.68-.61,11.32,11.32,0,0,0,2.1-1.47c.13-.15.26-.29.38-.44a14.45,14.45,0,0,0,1.05-1.42,4.25,4.25,0,0,0,.27-.46,4.78,4.78,0,0,0,3,1,6.68,6.68,0,0,0,5-2.34,12.56,12.56,0,0,0,1.2-1.62,4.64,4.64,0,0,0,6.06-7A19.68,19.68,0,0,0,83.05,244a3.9,3.9,0,0,0-1-.63,4.61,4.61,0,0,0-2.32-.62,5.67,5.67,0,0,0-3.51.72l-.09.05c-.07-.64-.14-1.28-.24-1.91s-.42-1.06-.65-1.58a6.77,6.77,0,0,0-2-1.9,4.36,4.36,0,0,0-3.49-.45,4.63,4.63,0,0,0-3.16,3.16c-.53,1.56-.93,3.16-1.4,4.74l-.27.86c-.06-.28-.13-.56-.2-.84-.19-.78-.36-1.55-.58-2.32a9.2,9.2,0,0,0-2.26-3.62,4.48,4.48,0,0,0-7,.89,14.08,14.08,0,0,0-1.39,3.24c-.18.65-.23,1.35-.36,2-.07.33-.13.67-.2,1-.09-.76-.18-1.53-.24-2.3l-.27-3.17a5.63,5.63,0,0,1,0-.58,8.05,8.05,0,0,0-.22-2.22c-.2-.5-.41-1-.62-1.48a4.88,4.88,0,0,0-1.92-1.77,4.36,4.36,0,0,0-3.47-.39c.09-3.16.21-6.33.35-9.49a4.47,4.47,0,0,0-8.94,0Zm24.93,27.28a3.5,3.5,0,0,1-.43.33l.43-.33Z"/><path class="cls-2" d="M112.55,307.2a6.63,6.63,0,0,0-3.07,3.2,36.83,36.83,0,0,0-1.31,4c-.32,1-.63,2-1,2.93-.4-.43-.77-.88-1.14-1.34-.11-.14-.21-.29-.31-.43a4.74,4.74,0,0,0-1.66-1.67,5,5,0,0,0-4.11-.62,3,3,0,0,0-1.32.62c-.3.25-.62.48-.93.73a4.58,4.58,0,0,0-1.19,2,15.62,15.62,0,0,0-.38,3.34c0,.13,0,.26-.07.38-.25-.25-.5-.51-.74-.78a12.72,12.72,0,0,0-2.08-2.42,4.83,4.83,0,0,0-3.2-1.32,4.62,4.62,0,0,0-3.19,1.32c-2.37,2.14-1.66,5.37-1.33,8.15.16,1.37.33,2.74.46,4.11,0,.05,0,.1,0,.15l-3.16-2.83c-1-.9-2-1.88-2.92-2.82-.53-.51-1-1-1.55-1.56a8.64,8.64,0,0,0-2.24-1.75A6,6,0,0,0,73,320a4.61,4.61,0,0,0-4,2.58c-2-3.31-4-6.63-5.95-10a4.43,4.43,0,0,0-7.65,4.47c2,3.51,4.12,7,6.22,10.46.57.94,1.09,1.95,1.73,2.85l2.51,3.6,2.73,3.89c.86,1.23,1.86,2.38,2.8,3.55,1.09,1.37,2.19,2.73,3.28,4.11.48.6,1,1.19,1.47,1.78a25.65,25.65,0,0,0,1.78,2,5.07,5.07,0,0,0,6.47.66,4.54,4.54,0,0,0,2.07-5.09c-.47-1.5-1-2.93-1.61-4.37,0-.11-.09-.21-.13-.32l.65.53.91.7c.5.23,1,.43,1.51.62a5.23,5.23,0,0,0,4.49-.94,4.54,4.54,0,0,0,1.61-1.62,9.53,9.53,0,0,0,.88-2.05,12.53,12.53,0,0,0,.33-2.37c.08-.75.12-1.5.13-2.25s0-1.24,0-1.86l.13,0a9.14,9.14,0,0,0,2.55.31,6.09,6.09,0,0,0,3.86-1.55,8.53,8.53,0,0,0,2.14-3l.43.22a8.82,8.82,0,0,0,6,.9c4-1.11,5.28-5.51,6.42-9,.17-.52.32-1,.47-1.55a4.48,4.48,0,0,0,1.34.2,4.75,4.75,0,0,0,4.73-4.73,4.56,4.56,0,0,0-1.39-3.35c-.38-.33-.75-.67-1.14-1a9.13,9.13,0,0,0-3.33-1.86,4.64,4.64,0,0,0-1.38-.19,7.93,7.93,0,0,0-3.39.87ZM98.4,322.39l.43.18-.43-.18ZM84.67,340.13l.19.14-.18-.14Z"/><path class="cls-2" d="M255.36,323.21c-1.12.08-2.24.15-3.36.29a25.81,25.81,0,0,0-2.61.43,4.92,4.92,0,0,0-4,3.7,4.34,4.34,0,0,0,1.11,4.19l.28.24a4.35,4.35,0,0,0,1.9,1.11l1.16.38a32.53,32.53,0,0,0-3.46,2.31,4.36,4.36,0,0,0-1.12,4.25l.06.27a4,4,0,0,0,1.44,2.22c-.1.24-.19.48-.26.7-.72,2.07.69,4.45,2.46,5.49a7.37,7.37,0,0,0,3.45.79c1,0,2.06,0,3.08,0l2.81-.07a4.76,4.76,0,0,0,.87.66,4.37,4.37,0,0,0,3.37.45,4.46,4.46,0,0,0,2.61-2,4.61,4.61,0,0,0,.45-3.37,8.4,8.4,0,0,0-.75-1.93,4.32,4.32,0,0,0-1.56-1.56,5.56,5.56,0,0,0-1.55-.75l-.09,0a4.32,4.32,0,0,0,1-2.71,4.27,4.27,0,0,0-.59-2.18,4.59,4.59,0,0,0-.55-.74,6.21,6.21,0,0,0,1-2.16,5.12,5.12,0,0,0-2.7-5.63l-.12-.07a4.35,4.35,0,0,0-4.07-4.27Z"/><path class="cls-2" d="M286.28,295.54l-.9.69a4.46,4.46,0,0,0-1.13,1.95c-.31.76-.62,1.53-.94,2.29-.78,1.84-1.57,3.68-2.41,5.49l-1.45,3.1c-.22.48-.43,1-.65,1.45s-.55,1.27-.8,1.92a5.61,5.61,0,0,0-.08,3.12,4.3,4.3,0,0,0,2,2.65,4.46,4.46,0,0,0,4.47,0c1.56-.73,3.08-1.55,4.58-2.41a8.07,8.07,0,0,0,.23,1.13,4.47,4.47,0,0,0,4.32,3.29,7.28,7.28,0,0,0,1.23-.09,4.59,4.59,0,0,0,1.94-.44,14.43,14.43,0,0,0,1.91-.89c-.09.31-.19.62-.29.93a4.6,4.6,0,1,0,8.87,2.45c.56-1.74,1-3.51,1.6-5.23s1.19-3.27,1.8-4.89a8,8,0,0,0,.94-3.1,5.1,5.1,0,0,0-1.67-4.08,4.52,4.52,0,0,0-5.45-.7c-.27.16-.54.33-.8.51a4.45,4.45,0,0,0-1.3-2.76,4.34,4.34,0,0,0-3.11-1.29l-.71,0a4.33,4.33,0,0,0-2.22.6c-.44.2-.85.46-1.27.7l-2.12,1.24-1.62,1c.5-1.21,1-2.43,1.48-3.63a4.3,4.3,0,0,0-.44-3.41,4.46,4.46,0,0,0-2.64-2,4.16,4.16,0,0,0-1.16-.16,4.53,4.53,0,0,0-2.24.6Zm-2.57,4-.18.41.18-.41Z"/><path class="cls-2" d="M292.74,257.05c.12,4,.31,8.08,1.65,11.89a14.16,14.16,0,0,0,3,5.1,6.68,6.68,0,0,0,3.07,2,5.88,5.88,0,0,0,4.47-.61,6.55,6.55,0,0,0,2.55-3.07,4.66,4.66,0,0,0,.47.3,4.41,4.41,0,0,0,3.42.45l.38-.12a4.42,4.42,0,0,0,2-1.14,8.48,8.48,0,0,0,2.29-3c.1-.19.19-.38.28-.57a3.63,3.63,0,0,0,.8-.14,4.35,4.35,0,0,0,2.6-2,4.67,4.67,0,0,0,.44-3.36c-.09-.55-.18-1.1-.28-1.65a7.64,7.64,0,0,0-1-2.43,4.48,4.48,0,0,0-2.63-2,4.36,4.36,0,0,0-4.26,1.13c-.28.32-.54.65-.8,1a4.89,4.89,0,0,0-7.9-.68l-.69.9c-.23.5-.43,1-.62,1.52l-.09.26c-.08-1.26-.12-2.51-.16-3.77a4.48,4.48,0,1,0-9,0Zm25.84,6.43-.16.21a1.66,1.66,0,0,1,.16-.21Z"/><path class="cls-2" d="M295.74,205.23a4.83,4.83,0,0,0-2.34,1.51,11.61,11.61,0,0,0-1.39,2c-.45.72-.86,1.48-1.28,2.22-.57,1-1.12,1.94-1.67,2.93l-.87-5a4.38,4.38,0,0,0-2.08-2.7,4.53,4.53,0,0,0-6.2,1.62,4.87,4.87,0,0,0-.46,3.49c.92,5.23,1.76,10.48,2.71,15.71a5.9,5.9,0,0,0,.69,2.18,4.89,4.89,0,0,0,7.53,1,6.5,6.5,0,0,0,1.63-2.48c.8-1.73,1.77-3.41,2.65-5.11.14-.27.29-.54.43-.82a5.35,5.35,0,0,0,.67,1.82,6.48,6.48,0,0,0,2.09,2.14,5.78,5.78,0,0,0,6-.43,7.51,7.51,0,0,0,1.29-1.14,4.53,4.53,0,0,0,5.38-3.21,4.48,4.48,0,0,0-.21-2.92,24,24,0,0,1,.2-2.67,4.61,4.61,0,0,0,0-2.36,4.54,4.54,0,0,0-2.07-2.69,4.49,4.49,0,0,0-2.27-.61A4.32,4.32,0,0,0,303,211c-.05.06-.11.12-.16.19a8.79,8.79,0,0,0-1.35-3.92,4.7,4.7,0,0,0-2.66-2.05,6.12,6.12,0,0,0-1.54-.25c-.52.06-1,.13-1.56.22Z"/><path class="cls-2" d="M317.76,155.47a73.61,73.61,0,0,0-8.87,1.11c-1.14.19-2.3.37-3.44.61-.74.16-1.47.32-2.2.5a11.22,11.22,0,0,0-2.25.82,4.19,4.19,0,0,0-1.34.91,8.11,8.11,0,0,0-1,1.4,4.48,4.48,0,0,0,.7,5.44,11.23,11.23,0,0,0,1.26,1,3.79,3.79,0,0,0,1.46.73,13.35,13.35,0,0,0,3.08.61c.87.11,1.75.19,2.62.24a4.52,4.52,0,0,0,.58,1.61,3.08,3.08,0,0,0,.88,1.32,4.6,4.6,0,0,0,2,1.19,4.88,4.88,0,0,0,.65.2l-.87.29c-.62.24-1.24.49-1.85.76l-1.39,1.08a4.39,4.39,0,0,0-1.35,3.25,4.53,4.53,0,0,0,2.29,4c.48.23,1,.45,1.48.64a5.08,5.08,0,0,0,.74.2,5.1,5.1,0,0,0-.19.55,4.5,4.5,0,0,0,5.53,5.53l1.52-.37a4.12,4.12,0,0,0,.15.84,4.53,4.53,0,0,0,5.53,3.14c1-.33,2.05-.67,3.07-1a22.83,22.83,0,0,0,5.13-2.45,16.64,16.64,0,0,0,2.51-2.16,6.49,6.49,0,0,0,1.16-1.59,4.87,4.87,0,0,0,.45-3.39,5.13,5.13,0,0,0-2.51-3.46,4.88,4.88,0,0,0-.9-.41,4.57,4.57,0,0,0-.14-1.52,17,17,0,0,0,1.67-.66,9.05,9.05,0,0,0,2.1-1.55l1-1.26a5.59,5.59,0,0,0,.75-2.64,5,5,0,0,0-1.77-3.72,4.48,4.48,0,0,0-2-1.17,8.5,8.5,0,0,0-1.49-.28c-.79-.12-1.59-.23-2.39-.33a4.46,4.46,0,0,0-.15-1.25,4,4,0,0,0-.76-1.48,4.5,4.5,0,0,0-2-5.18,19,19,0,0,0-4.48-1.71,15.23,15.23,0,0,0-3.63-.38c-.45,0-.89,0-1.33,0Z"/><path class="cls-2" d="M247.42,244.08a2.67,2.67,0,0,0-.51.55l-.68.88a9.53,9.53,0,0,0-.59,1.5c0,.17,0,.34-.07.51-.08.56-.15,1.12-.21,1.67s-.15,1.36-.21,2.05c-.09,1-.2,2-.27,2.95a4.19,4.19,0,0,0-1.76.11,4.38,4.38,0,0,0-2.59,2,4.15,4.15,0,0,0-.44,3.35c.52,1.23,1,2.46,1.55,3.7a23.64,23.64,0,0,0,1,2.61,6.14,6.14,0,0,0,1,1.46,17.39,17.39,0,0,0,1.67,1.3,4.35,4.35,0,0,0,5.95-1.56,14.66,14.66,0,0,0,1.35-3.31,25.45,25.45,0,0,0,.46-3.7,17.18,17.18,0,0,0,1.12,1.7,5.54,5.54,0,0,0,1.11,1.3,6.88,6.88,0,0,0,2.38,1.32,4.41,4.41,0,0,0,2.39,0,5.72,5.72,0,0,0,2.3-1.38,8,8,0,0,0,1.83-3.6,30.7,30.7,0,0,0,.62-3.8l.09-.79a3.61,3.61,0,0,0,.44-.22,4.46,4.46,0,0,0,1.59-6.06c-.64-1.09-1.2-2.25-1.91-3.3a4.56,4.56,0,0,0-3.81-2.18,4.34,4.34,0,0,0-3.8,2.18c-.07.18-.16.36-.24.54a3.87,3.87,0,0,0-.55,1.7c0,.18-.05.36-.07.53l-.55-1a14.28,14.28,0,0,0-2.48-3,4.33,4.33,0,0,0-3.05-1.26,4.51,4.51,0,0,0-3.11,1.26Zm2.34,16.36c.12.26.23.53.34.79-.11-.26-.22-.53-.34-.79Z"/><path class="cls-2" d="M14.31,238.59a4.33,4.33,0,0,0-2.08,2.71c-.46,3.31-.91,6.61-1.35,9.93a19.07,19.07,0,0,0-.38,4.33,4.7,4.7,0,0,0,2.25,3.91,4.58,4.58,0,0,0,4.57,0A7.79,7.79,0,0,0,19,258.33a6,6,0,0,0,.85,2.09,5.52,5.52,0,0,0,3,2.32,6.32,6.32,0,0,0,2.77,0l.06.17a4.85,4.85,0,0,0,2.08,2.69A4.51,4.51,0,0,0,34,264a4.32,4.32,0,0,0,.46-3.47c-.7-1.71-1.23-3.49-2-5.17a7.58,7.58,0,0,0-1.4-2.12,4.48,4.48,0,0,0-3.41-1.31l-.3,0c-.08-.55-.17-1.09-.26-1.63a8.64,8.64,0,0,0-.84-2.29,5.49,5.49,0,0,0-1.9-1.9,6.37,6.37,0,0,0-2.63-.78,5.25,5.25,0,0,0-1,.1l.24-1.75c.06-.41.11-.81.17-1.21a4.61,4.61,0,0,0-.63-2.29,4.55,4.55,0,0,0-2.7-2.08,4.38,4.38,0,0,0-1.19-.16,4.56,4.56,0,0,0-2.3.62Z"/><path class="cls-2" d="M90.65,392.35a4.39,4.39,0,0,0-2.61,2,4.72,4.72,0,0,0-.44,3.36c.6,3.75,1.22,7.51,2,11.23.34,1.65.68,3.29,1,4.93.2.91.4,1.82.61,2.72.13.61.22,1.22.36,1.82s.43,1.07.66,1.59a16.44,16.44,0,0,0,1.24,1.52,4.39,4.39,0,0,0,6.92-.89c.39-.83.74-1.67,1.09-2.52A10.68,10.68,0,0,0,102,416c.16-.81.31-1.63.45-2.45.1-.52.19-1,.28-1.55.42.61.88,1.19,1.34,1.78l.49.51,1.38,1.07a6.13,6.13,0,0,0,3,.73,5.79,5.79,0,0,0,2.75-.78,9,9,0,0,0,1.42-1l.4.22a4.77,4.77,0,0,0,3.45.45,6.05,6.05,0,0,0,2.67-1.68c.16-.17.31-.35.46-.54a4.43,4.43,0,0,0,3.06-5.41,5.06,5.06,0,0,0-1.45-2.52,4.42,4.42,0,0,0-4.31-1.14,10.06,10.06,0,0,0-1.59.74l-.28-.21a5.06,5.06,0,0,0-5.3-.26A4.27,4.27,0,0,0,109,405l-.47-1c-.27-.74-.54-1.48-.79-2.23a17,17,0,0,0-1-2.51,6.35,6.35,0,0,0-2.48-2.68,5.73,5.73,0,0,0-4.26-.45,5.56,5.56,0,0,0-3.07,2.55,4.37,4.37,0,0,0-.3.57c-.21-1.27-.41-2.54-.61-3.8a4.19,4.19,0,0,0-2-2.61,4.42,4.42,0,0,0-2.21-.6,4.57,4.57,0,0,0-1.16.16Z"/><path class="cls-2" d="M196.61,384.72a6,6,0,0,0-1.53,3.29,9.23,9.23,0,0,0-2.63-.66A5.27,5.27,0,0,0,188,389.1a6.41,6.41,0,0,0-.85,1.2c-.13-.29-.26-.57-.38-.85a7.74,7.74,0,0,0-1.21-1.6,4.29,4.29,0,0,0-3.17-1.31,4.56,4.56,0,0,0-2.47.74,4.83,4.83,0,0,0-2.77-.89,4.77,4.77,0,0,0-4.74,4.74c.2,3.43.38,6.85.61,10.27.1,1.39.18,2.78.33,4.17.1,1,.21,1.92.35,2.87.08.56.17,1.09.29,1.64s.44,1.08.67,1.61l1,1.24a4.66,4.66,0,0,0,2.08,1.21,4.59,4.59,0,0,0,3.62-.47q.79-.54,1.53-1.14a17.63,17.63,0,0,0,1.35-1.86,13.44,13.44,0,0,0,.93-2.08,6.29,6.29,0,0,0,1.83.27,4.54,4.54,0,0,0,2.31-.62,6.88,6.88,0,0,0,2.05-2c.24-.29.46-.6.67-.91a10.21,10.21,0,0,0,1-2.13,19.66,19.66,0,0,0,.86-3.29c.12-.58.24-1.16.35-1.75l0,.07c.45.37.92.72,1.4,1.05a4.47,4.47,0,0,0,5.48-.7c.08-.09.15-.18.23-.26.36.3.74.58,1.13.87a6.57,6.57,0,0,0,3.54,1,4.59,4.59,0,0,0,3.25-7.84,4.3,4.3,0,0,0-2.11-1.16c-.56-.86-1-1.76-1.53-2.67-.26-.5-.52-1-.79-1.49a11.69,11.69,0,0,0-.59-1l-1-1.25a4.5,4.5,0,0,0-2-1.15,3.66,3.66,0,0,0-1.35-.24,4.88,4.88,0,0,0-3.33,1.36Zm10.09,6.21.25.2-.25-.2Z"/><path class="cls-2" d="M104,397.52q0,4.83,0,9.66v3.3c0,.6,0,1.19,0,1.78a20.75,20.75,0,0,0,.35,4.16,4.54,4.54,0,0,0,5.58,3.16,4.42,4.42,0,0,0,2-1.17,8.34,8.34,0,0,0,2.19-4l.16.09a4.42,4.42,0,0,0,3.43.45,4.49,4.49,0,0,0,2.65-2,4.27,4.27,0,0,0,.45-3.43,30.82,30.82,0,0,1-1.35-3.89c-.15-.56-.32-1.11-.5-1.67a12.18,12.18,0,0,0-.64-1.67,3.77,3.77,0,0,0-.9-1.34l-1.38-1a4.41,4.41,0,0,0-2.22-.61,4.53,4.53,0,0,0-.71.06c0-.61,0-1.23,0-1.84a4.55,4.55,0,0,0-9.09,0Zm13.32,8.74-.09.11.09-.11Z"/><path class="cls-2" d="M193.56,384.55a4.47,4.47,0,0,0-2.66,2,4.81,4.81,0,0,0-.45,3.43c.61,3.8,1.21,7.59,1.85,11.37.27,1.62.51,3.23.81,4.84.55,2.95,1,7.17,4.55,7.9a4.42,4.42,0,0,0,2.34,0,4.57,4.57,0,0,0,2.63-2,12,12,0,0,0,1.21-4.25l.51-2.47c.4-1.88.83-3.75,1.33-5.6a4.32,4.32,0,0,0-3-5.26,4.27,4.27,0,0,0-2.53.1q-.56-3.48-1.12-7a4.24,4.24,0,0,0-2-2.67,4.43,4.43,0,0,0-2.25-.6,4.36,4.36,0,0,0-1.18.16Z"/></g></g></svg>