<svg xmlns="http://www.w3.org/2000/svg" viewBox="0 0 339.27 435.03"><defs><style>.cls-1{fill:#110802;}.cls-2{fill:#d2cab6;}</style></defs><title>Asset 5</title><g id="Layer_2" data-name="Layer 2"><g id="Draw_Layer" data-name="Draw Layer"><path class="cls-1" d="M127.46,40.66c-2.54.14-5.07.17-7.6.28a68,68,0,0,0-9,.78c-1.12.2-2.23.38-3.33.68s-2.13.64-3.19,1c-2.37.73-4.76,1.4-7.13,2.1S92.38,47,90,47.67q-2.58.75-5.16,1.46a5.23,5.23,0,0,0,.5,10.2h0a5.55,5.55,0,0,0,.89.08,5.16,5.16,0,0,0,1.35-.18c2.54-.69,5.17-1.46,7.5-2.14l.39-.12c2.15-.63,4.3-1.26,6.47-1.85.92-.26,1.83-.5,2.76-.74l.59-.16c.9-.24,1.79-.47,2.68-.72a49.89,49.89,0,0,1,4.92-1.13c3.12-.28,6.27-.34,9.31-.4,1.75,0,3.51-.07,5.27-.14l1.56-.08.46,0c1.24-.07,2.53-.14,3.8-.14h1c2.73.09,4.84.22,6.83.42.8.13,1.59.28,2.38.44l1.88.35c1.55.28,3.17.46,4.59.62l1.35.16,2.15.34.87.13,3.25.51A25.92,25.92,0,0,1,163,56.17c1.66.71,3.45,1.47,5.24,2.13a6,6,0,0,0,3.06,0l.15,0h0a5.77,5.77,0,0,0,3.86-7,5.57,5.57,0,0,0-2.66-3.45c-1.58-.74-3.22-1.37-4.85-2-1.16-.46-2.31-.93-3.5-1.34A36.13,36.13,0,0,0,156.84,43c-1.46-.21-2.91-.45-4.38-.64l-3.72-.43c-.89-.14-1.79-.31-2.68-.5-1.48-.31-3-.48-4.46-.67a71.5,71.5,0,0,0-7.32-.4h-.67c-2.05,0-4.1.2-6.15.31Z"/><path class="cls-1" d="M209.6.76c-1.41.59-2.79,1.23-4.16,1.93a23.57,23.57,0,0,0-6.21,4.46,28.21,28.21,0,0,0-2.68,3.38c-.72,1-1.42,2-2.13,3q-2.31,3.29-4.6,6.59c-3.21,4.62-6.74,9.05-9.76,13.81-3.66,5.76-7.23,11.58-10.84,17.38A4.94,4.94,0,0,0,171,58a3.23,3.23,0,0,0,.49.25h0a4.87,4.87,0,0,0,1.91.39,5.1,5.1,0,0,0,4.28-2.4l3.72-6,3.72-6c2-3.26,4.19-6.71,6.57-10q1.26-1.76,2.54-3.49l.17-.24c1.5-2,3-4.1,4.47-6.16,1.84-2.61,4-5.68,6.23-8.65a20.44,20.44,0,0,1,2.35-2.44,27.44,27.44,0,0,1,4-2.12c.27-.1.53-.19.8-.27h0l.75.75c.22.23.44.46.67.68l.14.14c.3.28.6.58.88.88l.07.13c.3.83.56,1.66.81,2.5l0,.11c.29,1,.59,1.95,1,2.89,1,2.65,1.81,4.88,2.45,7,.87,2.86,1.68,5.78,2.46,8.6.6,2.14,1.2,4.29,1.82,6.43.75,2.56,1.42,5.19,2,8,.4,1.84.68,3.75,1,5.68l.06.45c.09.53.17,1.06.25,1.59.74,4.75,1.63,10.34,2.58,15.85.39,2.3.85,4.63,1.32,7,.63,3.2,1.34,6.83,1.85,10.4.31,2.35.65,4.69,1,7.05l.16,1.12.31,2.19.36,2.55q.42,4.09.82,8.18c.25,2.46.49,4.91.74,7.37.29,2.79.55,5.57.8,8.36.18,2.14.24,4.33.3,6.55l0,1.11c.27,10.35.24,20.83.21,31v1.16l0,7.81v1.26c0,1.92-.07,3.86-.14,5.74v.41l0,1.23c-.21,5.5-.32,11-.44,17.07-.06,2.77-.15,5.54-.24,8.34-.09,2.62-.18,5.26-.25,8,0,1,0,2-.08,3a16,16,0,0,1,2.86,2,21.15,21.15,0,0,1,2.48,2.86,32.5,32.5,0,0,1,3.53,5.83c.36.75.71,1.5,1.06,2.26s.69,1.48,1,2.23l.27.57c0-1.1.1-2.21.14-3.32.16-4.55.29-9.39.39-15.24,0-1.61.08-3.23.15-4.85.11-3.81.25-7.63.31-11.44.11-5.74.21-11.47.4-17.2.08-2.46.17-4.9.17-7.36q0-4.45,0-8.91c0-10.67,0-21.34-.35-32-.09-3.52-.25-7-.57-10.53s-.74-7.22-1.1-10.83-.71-7.08-1.08-10.62-1-7.32-1.56-11c-.32-2.61-.59-5.24-1.06-7.83s-1-5.27-1.52-7.9c-1-5.16-1.88-10.35-2.7-15.55-.89-5.52-1.6-11.08-2.81-16.54C234.75,39.1,233,34.08,231.62,29c-.65-2.43-1.38-4.82-2.13-7.22S227.83,17.22,227,15c-.35-.91-.6-1.86-.88-2.78a16.78,16.78,0,0,0-2.93-6c-.72-.85-1.56-1.54-2.34-2.31a22.43,22.43,0,0,0-3.43-2.8,7.37,7.37,0,0,0-4-1.1,10,10,0,0,0-3.77.76Zm3.09,10.08h0l.08,0-.08,0ZM215,13.92c.06.13.12.26.17.39l-.17-.39Z"/><path class="cls-1" d="M233,266c-.6,3.91-1.25,7.61-2,11.3-.43,2.21-.88,4.41-1.33,6.61-.34,1.62-.77,3.29-1.15,4.76l-.27,1.09c-.92,3.66-2.1,7.61-3.51,11.73l-.72,2.12c-.73,2.14-1.48,4.35-2.28,6.49,1.49,1.05,2.84,2.06,4.14,3.08a32.55,32.55,0,0,1,3.6,3.21l.16.18.31.34c.39.45.77.92,1.12,1.41q.42-.9.81-1.83c.57-1.37,1.08-2.74,1.57-4.14,1.69-4.78,3.43-9.58,4.79-14.47.81-2.9,1.6-5.81,2.34-8.74.6-2.41,1-4.87,1.53-7.31,1.11-5.7,2.14-11.42,2.8-17.2.07-.61.13-1.22.2-1.84l0,0c.29-2.7.56-5.63.83-9l-.17-.24c-.14-.17-.27-.32-.42-.47l-.59-.57c-.26-.25-.52-.49-.77-.75a27.09,27.09,0,0,1-2.81-3.42,42.39,42.39,0,0,1-3.38-5.74c-.53-1.07-1-2.15-1.51-3.23-.26-.57-.52-1.14-.77-1.72-.07-.16-.15-.32-.22-.49-.48,9.68-1.26,19.38-2.32,28.83Z"/><path class="cls-1" d="M35.09,236.63c-.93,1.37-1.78,2.79-2.6,4.18l-.79,1.3a87.87,87.87,0,0,0-4.72,9.4c.18,1.12.37,2.23.57,3.35.67,3.77,1.52,7.61,2.26,10.87v0c.4,1.72.81,3.44,1.21,5.17a199.23,199.23,0,0,0,10,30.57c1.07,2.62,2.15,5.27,3.38,7.82.69,1.43,1.39,2.86,2.08,4.3s1.41,2.61,2.11,3.9c2.56,4.72,5.5,9.25,8.4,13.76a133.62,133.62,0,0,0,10.35,13.58c1.62,1.92,3.3,3.84,5.07,5.62s3.79,3.69,5.62,5.6,3.21,3.88,4.87,5.76a45.8,45.8,0,0,0,3.2,3.34,21.39,21.39,0,0,0,3.19,2.44v0A42.82,42.82,0,0,0,96,370.91c1,.39,2.06.79,3.21,1.18l.35.11c0-.71-.1-1.42-.16-2.14-.24-3.23-.53-6.73-.91-11a28.43,28.43,0,0,1-3.78-2.2,48.2,48.2,0,0,1-5.89-6.51,58.84,58.84,0,0,0-5.28-5.66c-2-1.92-3.86-3.81-5.59-5.79-2.18-2.49-4.31-5.05-5.72-6.76-1.78-2.34-3.37-4.46-4.8-6.67-1.69-2.63-3.6-5.61-5.36-8.57l-.89-1.47-.11-.16c-.55-.92-1.13-1.86-1.64-2.82l-1-1.89-1.58-2.93c-.57-1-1.09-2.16-1.55-3.16l-.15-.33c-.2-.44-.41-.87-.61-1.3-.53-1.08-1-2.24-1.41-3.18l-.32-.75c-1.69-4.13-3.29-8.37-4.78-12.61-1.72-4.87-3-8.93-4-12.79-1.09-4.14-2.15-8.61-3.23-13.64-.12-.58-.25-1.14-.37-1.71l-.12-.51c-.33-1.48-.71-3.16-1-4.79-.34-1.89-.67-3.91-1.1-6.76-.47-3.74-.83-7.14-1.08-10.31L37,234q-.95,1.31-1.86,2.64Z"/><path class="cls-1" d="M176.51,357.18a126,126,0,0,1-13.25,4.72l-1.95.54-.12,0c-1.91.54-3.88,1.1-5.84,1.5-2.49.5-5.09,1-8.44,1.51-3.6.47-6.61.81-9.65,1-1.78.09-3.59.13-5.33.16h-.7c-1.48,0-3-.11-4.34-.22-1.73-.27-3.78-.62-5.9-1.17-2.4-.61-4.86-1.22-7.52-1.84l-2.86-.7-.27-.07c.28,3.11.53,6.21.76,9.37q.14,1.59.24,3.18c.94.22,1.87.46,2.82.71l.75.19,2.39.61,1.38.33a69.91,69.91,0,0,0,9.11,1.44,70.07,70.07,0,0,0,7.67.06c2.71-.05,5.4-.36,8.09-.64,3-.3,6-.79,9-1.27,2.57-.41,5.12-.9,7.64-1.54s5-1.23,7.5-2c1.25-.41,2.49-.83,3.73-1.26v0q2.4-.84,4.79-1.73c1.14-.43,2.27-.87,3.38-1.31l-.45-2.78-.45-2.79-.41-2.56c-.2-1.22-.39-2.44-.55-3.64l0-.27-1.23.49Z"/><path class="cls-1" d="M215,323.44c-1.24,2.22-2.33,4.09-3.42,5.9-.89,1.51-1.92,3-2.91,4.38l-.11.14-.43.61c-.67.86-1.46,1.85-2.3,2.82-1.36,1.55-2.72,3-3.88,4.16a71.33,71.33,0,0,1-6.09,5.52c-.93.62-1.92,1.18-2.88,1.71l-.12.08-.45.25-.75.42-3.16,1.82.2,1.43c.41,3,.9,6,1.38,8.86l.29,1.87c0,.16.05.31.07.46.31-.16.61-.33.91-.5l2.07-1.2.57-.33.23-.14c1.36-.79,2.75-1.61,4.15-2.37,1.16-.63,2.4-1.32,3.57-2.11l1-.69.16-.11c.95-.73,1.86-1.53,2.76-2.3A79.31,79.31,0,0,0,217,342.35a94.07,94.07,0,0,0,7.34-11.26h0a20.06,20.06,0,0,1-.86-1.91l-.13-.32c-.33-.8-.62-1.6-.9-2.41l-.17-.48a11,11,0,0,0-.71-1.21,27.93,27.93,0,0,0-3.72-3.38l-1-.76-.13-.09L215,323.44Z"/><path class="cls-1" d="M39.24,3.56a7.74,7.74,0,0,0-4.16,2.7,17.36,17.36,0,0,0-2,2.69,42.54,42.54,0,0,0-2.29,5.63,55.64,55.64,0,0,0-2.74,6.48c-.63,2.11-1.16,4.27-1.63,6.42-.28,1.31-.55,2.61-.79,3.92-.29,1.59-.43,3.25-.61,4.86-.32,2.81-.51,5.63-.71,8.44-.38,5.36-.75,10.72-1.18,16.08-.41,5.16-.71,10.32-.77,15.5-.13,10.79-.64,21.57-.32,32.36.16,5.56.4,11.12.44,16.69q.06,8,.21,15.91c.1,5.55.32,11.11.36,16.66.05,5.2,0,10.41.13,15.61.12,5.35.37,10.71.41,16.07s.05,10.81.1,16.21c0,1.82,0,3.63.09,5.44l0,0c.08,3.41.23,6.85.43,10.25l0,1.09v.11q.21,3.65.4,7.27c0,.49.07,1,.1,1.46,1.16-1.81,2.29-3.42,3.44-5a57.18,57.18,0,0,1,7.66-8.61c0-.7-.07-1.4-.09-2.11-.19-5.57-.25-11.37-.3-16.48s-.11-10.91-.31-16.49c-.16-4.8-.32-9.92-.37-14.92,0-1.82,0-3.65,0-5.47,0-3.15,0-7.07-.13-10.78l-.1-3.46c-.13-4.15-.27-8.42-.33-12.69,0-1.46,0-2.91,0-4.37v-2.11c0-3.35-.05-6.81-.14-10.2q-.06-2-.15-4.08c-.05-1.29-.1-2.59-.14-3.88-.05-1.8-.08-3.61-.11-5.41l0-.91,0-1.89c-.07-4.34,0-8.75.17-13,0-1.31.08-2.61.11-3.92.06-2.45.1-4.9.14-7.34,0-2.92.1-5.84.19-8.76.07-2.22.25-4.52.41-6.54l.06-.71c.22-2.75.44-5.5.64-8.24.09-1.19.17-2.39.25-3.57l.08-1.19v-.19c.33-4.82.67-9.81,1.24-14.68.46-2.39,1-4.74,1.47-6.82A40.09,40.09,0,0,1,40,22.3c.62-1.37,1.27-2.84,1.89-4.46a4.34,4.34,0,0,1,.17-.4v-.05h0v0c.77.85,1.56,1.78,2.4,2.84,1.75,2.2,3.27,4,4.77,5.72,2.17,2.45,4.49,4.82,6.79,7.17,1.37,1.41,2.75,2.82,4.1,4.24,2.64,2.81,5.09,5.8,7.46,8.7l2.26,2.76a65.2,65.2,0,0,0,4.44,4.85l.45.44c.59.58,1.2,1.17,1.77,1.8.38.42.74.84,1.1,1.27l.29.34c.2.23.39.46.59.68a5.51,5.51,0,0,0,4.15,1.73,6.21,6.21,0,0,0,2.71-.6h0l.34-.19a6,6,0,0,0,2.74-3.57,5.71,5.71,0,0,0-.6-4.6c-.88-1.15-1.78-2.25-2.73-3.33-.76-.86-1.59-1.63-2.4-2.42a65.69,65.69,0,0,1-4.66-5.07c-1.72-2.06-3.41-4.16-5.12-6.23s-3.81-4.27-5.78-6.34c-3.59-3.79-7.41-7.35-10.78-11.34C54.62,14.16,52.92,12,51.14,10c-.76-.88-1.63-1.69-2.46-2.51A15.66,15.66,0,0,0,45,4.58a11.48,11.48,0,0,0-2-.91,6.77,6.77,0,0,0-2-.3,8.61,8.61,0,0,0-1.71.19Z"/><path class="cls-1" d="M203.27,42.48a6.61,6.61,0,0,0-2.06,2.23c-.8,1.23-1.57,2.48-2.33,3.73-.61,1-1.23,2-1.85,3-2,3.14-3.87,6-5.74,8.71a4,4,0,0,0-.55,3.23A4.9,4.9,0,0,0,193,66.51a4.7,4.7,0,0,0,2.35.63,4.62,4.62,0,0,0,4-2.3c1.91-2.81,3.82-5.71,5.83-8.88l.06-.09.06-.06v0h0l.33.79a21,21,0,0,1,.93,2.52,4.74,4.74,0,0,0,.53,3.28,4.86,4.86,0,0,0,2.83,2.18,4.78,4.78,0,0,0,1.23.16,4.86,4.86,0,0,0,4.57-3.47,9,9,0,0,0,0-5,13,13,0,0,0-.76-2l-.21-.48c-.44-1-.86-2-1.29-3l-.29-.68-.25-.59-.12-.28c-.51-1.16-1-2.37-1.62-3.52-1.06-2.08-2.38-3.36-3.91-3.78a5.35,5.35,0,0,0-1.39-.17,5.23,5.23,0,0,0-2.58.65Zm3.28,16.85a2,2,0,0,1,0,.24c0-.08,0-.16,0-.24Z"/><path class="cls-1" d="M51.1,48.11a4.82,4.82,0,0,0-3.32,1.54,7.52,7.52,0,0,0-1.58,2.81c-.1.3-.21.59-.32.89l-.19.5-.37,1-.29.79-.22.58c-.37,1-.8,2.16-1.25,3.27l-.6,1.4-.27.67,0,.11-.06.13h0l-.5,1-.07.12c-.43.86-.87,1.71-1.34,2.56A4.66,4.66,0,0,0,42.3,71.7a4.55,4.55,0,0,0,2.29.6,4.51,4.51,0,0,0,4-2.24c.48-.88.94-1.77,1.4-2.67l.12-.24.4-.78c.24-.46.44-1,.68-1.57l.08-.2c.07-.19.14-.38.22-.56l.32-.75L52.32,62c.32-.76.62-1.53.93-2.31l0,0v0h0c1.13,1,2.09,1.82,2.94,2.61a4.87,4.87,0,0,0,3.35,1.35,4.56,4.56,0,0,0,3.25-1.35,4.87,4.87,0,0,0,1.36-3.53,4.23,4.23,0,0,0-1.36-3.07c-1.27-1.14-2.62-2.26-4.12-3.44-.87-.68-1.75-1.36-2.63-2l-1.25-.91a6.49,6.49,0,0,0-3.62-1.14Z"/><path class="cls-1" d="M80.87,347.81A4.69,4.69,0,0,0,78,350a5,5,0,0,0-.48,3.65c.85,4.89,1.52,9.8,2.19,14.72.31,2.43.6,4.85.93,7.28.14,1.06.28,2.11.44,3.16.33,2.7.56,5.41.91,8.1.15,1.19.31,2.38.47,3.57q.45,3.69.81,7.39a80.09,80.09,0,0,0,1.1,8A74,74,0,0,0,88,419.11a29.71,29.71,0,0,0,4.62,8.29,20.64,20.64,0,0,0,5.76,4.42,38,38,0,0,0,3.78,1.61,25.23,25.23,0,0,0,3.23.75,34,34,0,0,0,6.27.84c2.7.09,4.9-1.53,6.85-3.17a13.67,13.67,0,0,0,2.85-3.57,31.74,31.74,0,0,0,3.5-11.47,107.37,107.37,0,0,0,.89-12.8c.08-3.65.17-7.27.57-10.9.38-2.37.85-4.73,1.27-7.1a67.08,67.08,0,0,1,1.83-8.27,5.79,5.79,0,0,0-7.12-7.12,5.63,5.63,0,0,0-3.46,2.66c-.51,1.16-1,2.3-1.36,3.48h0q-.43,1.29-.75,2.61c-.23,1-.41,1.94-.58,2.9l0,.11-.1.55c-.07.34-.13.68-.19,1a97.94,97.94,0,0,0-1.61,10.79c-.27,3.08-.29,6.21-.32,9.31,0,3.42-.07,6.94-.43,10.4a34.88,34.88,0,0,1-1.57,6.77,14.42,14.42,0,0,1-.94,1.7l-.36.35-.52-.09-.5-.07.46.07-1.68-.33-.9-.18a18.21,18.21,0,0,1-3-.79,19,19,0,0,1-3-1.65,11.83,11.83,0,0,1-1-1,29.68,29.68,0,0,1-2.38-4.41,56.52,56.52,0,0,1-2.69-8.66c-.13-.57-.26-1.14-.4-1.71l0-.12L95,404c-.21-.91-.43-1.82-.62-2.73-.29-1.42-.5-2.84-.67-4.06l-.21-1.71v-.11c-.29-2.34-.59-4.77-1-7.14s-.75-4.51-1-6.49c-.07-.51-.14-1-.22-1.52v0l0,.18,0-.17v.17c-.35-2.66-.79-5.37-1.21-8l-.06-.38c-.21-1.27-.42-2.55-.6-3.85l-.21-1.38c-.79-5.26-1.54-10.53-2.46-15.77a4.58,4.58,0,0,0-2.17-2.83,4.82,4.82,0,0,0-2.4-.64,4.7,4.7,0,0,0-1.24.17Z"/><path class="cls-1" d="M205.35,346.93l-.93,1.19a5.86,5.86,0,0,0-.8,3c-.2,1.75-.32,3.5-.41,5.25h0c-.07,1.21-.11,2.43-.15,3.64v.53c-.09,2.45-.17,5-.4,7.47,0,.46-.08.91-.13,1.37,0-.15,0-.3.08-.45s0-.22,0-.33c0,.1,0,.2,0,.31a2.82,2.82,0,0,1,.07-.31c-.19,1.33-.34,2.67-.49,4l0,.4-.09.76-.06.58.06-.45c0,.17-.05.35-.07.52l-.12,1.06c-.38,2.87-.76,5.74-1.11,8.62-.46,3.17-1,6.58-1.81,10-.16.71-.34,1.42-.5,2.13l-.13.54c-.2.81-.39,1.61-.56,2.42a34.41,34.41,0,0,1-1.78,5.18,41.47,41.47,0,0,1-3.72,6.78,23.13,23.13,0,0,1-2.82,3,15,15,0,0,1-1.58,1,14,14,0,0,1-1.53.44H186c-.38,0-.76,0-1.15-.05a16.68,16.68,0,0,1-2.07-.54,17.25,17.25,0,0,1-1.92-1.07l-.19-.21c-.23-.35-.44-.73-.64-1.11-.2-.57-.38-1.15-.58-1.82l-.08-.25c-.17-.55-.35-1.1-.54-1.64l-.11-.33-.42-1.31c-.4-1.32-.77-2.64-1.14-4l-.47-1.69c-.21-.72-.43-1.43-.67-2.23-.38-1.25-.77-2.53-1.06-3.82-.43-1.84-.68-3.76-.91-5.51s-.49-3.72-.76-5.57l-.23-1.82c-.45-3.53-.91-7.19-1.59-10.77h0c-.39-2-.85-4-1.42-5.94a5,5,0,1,0-9.65,2.66,71.45,71.45,0,0,1,1.94,9.59c.52,4.77.91,9.55,1.4,14.32a66.91,66.91,0,0,0,1.31,8.57c.49,2.1,1,4.19,1.5,6.29s1.14,4.35,1.72,6.53c.15.56.29,1.12.45,1.68a23.9,23.9,0,0,0,1,2.63,15.43,15.43,0,0,0,2.31,3.58,13.32,13.32,0,0,0,3.5,2.83,23.29,23.29,0,0,0,4.55,2.05,22,22,0,0,0,4.76.82,15.1,15.1,0,0,0,6-.73,21.13,21.13,0,0,0,9.91-7.13,34.27,34.27,0,0,0,3.74-5.46c.87-1.62,1.63-3.29,2.36-5l0,.09c0-.07.06-.13.08-.19l.12-.26,0,0,.07-.17a44.48,44.48,0,0,0,2.45-7.22c.52-2.31,1.13-4.61,1.6-6.93s.87-5,1.23-7.45c.42-3,.76-5.92,1.13-8.89-.05.33-.09.66-.13,1,.35-2.68.65-5.35,1-8l-.21,1.59a97.25,97.25,0,0,0,.9-10.91c0-1.74.07-3.48.19-5.21s.24-3.63.19-5.45a5.88,5.88,0,0,0-10.05-4.16Zm-9.7,58.2c-.08.18-.16.36-.23.54.07-.18.15-.36.23-.54Z"/><path class="cls-1" d="M20.15,196c-1.44,2.41-2.91,4.85-4.1,7.39L13.89,208c-.68,1.45-1.25,3-1.84,4.45-2.05,5.06-3.63,10.29-5.39,15.45a92.67,92.67,0,0,0-4.08,15.29C1.7,248.72.8,254.28.34,259.89c-.21,2.49-.23,5-.29,7.5,0,1.09-.06,2.19,0,3.28,0,1.29.13,2.56.26,3.85a41.66,41.66,0,0,0,1.42,8.3,20.88,20.88,0,0,0,4.4,7.58,23,23,0,0,0,3.3,2.76,16.45,16.45,0,0,0,4.51,2.66,17.53,17.53,0,0,0,3.66.7,11.7,11.7,0,0,0,2,.09A10.45,10.45,0,0,0,26.84,293a46.65,46.65,0,0,0,4.33-5.39c.53-.8,1-1.64,1.49-2.46s1.13-1.77,1.61-2.7c1.83-3.51,3.37-7.18,4.9-10.83l.57-1.31c.18-.44.37-.87.55-1.3a5.44,5.44,0,0,0-6.68-6.68,5.7,5.7,0,0,0-3.25,2.49c-.2.3-.38.6-.55.9v0a29.52,29.52,0,0,0-1.44,3c-1.41,3.17-2.6,5.71-3.74,8a23.89,23.89,0,0,1-1.33,2.29c-.22.34-.43.68-.64,1l-.17.28c-.53.89-1,1.7-1.55,2.47-.33.4-.66.79-1,1.18l-.25.29c-.36.41-.71.82-1.1,1.21l-.57,0-.12,0-.51-.12a24.87,24.87,0,0,1-2.62-1.75,11.08,11.08,0,0,1-1.09-1.06,19.77,19.77,0,0,1-1.4-2.36,25.53,25.53,0,0,1-1.08-4.73c-.19-1.76-.35-3.34-.39-4.95,0-1.3,0-2.62,0-3.9v-.18l0-1.13c.08-3.86.31-7.27.69-10.44.11-.79.21-1.57.31-2.36.41-3,.89-6.43,1.51-9.84a75.58,75.58,0,0,1,2.75-10c1.26-3.8,2.38-7.21,3.41-10.45s2.24-6.3,3.36-9.12l.45-.93c.69-1.5,1.39-3,2.08-4.49.48-1,1.13-2,1.68-3,.65-1.17,1.31-2.32,2-3.47a5.23,5.23,0,0,0-1.86-7.09,5.13,5.13,0,0,0-2.57-.7A5.29,5.29,0,0,0,20.15,196Zm19.51,74.45-.43,1c.14-.35.29-.69.43-1Z"/><path class="cls-1" d="M241.36,189.09a5.2,5.2,0,0,0-2.37,3.08l-.18,1.37a5.15,5.15,0,0,0,.7,2.6c1,2.42,2.18,4.78,3.39,7.11a62.93,62.93,0,0,0,3.77,6.18c.37.56.75,1.11,1.14,1.66v0l.86,1.24a53.42,53.42,0,0,1,5.06,8.2c.71,1.72,1.32,3.31,1.85,4.86s1,3.11,1.47,4.62l.4,1.33.63,2c.84,2.74,1.8,5.84,2.5,8.91l.34,1.41c.3,1.35.62,2.72.95,4.07.14.59.28,1.17.43,1.76.27,1,.58,2.2.8,3.35.68,3.57,1.25,7.33,1.71,10.35l.25,1.62a39.1,39.1,0,0,1,.34,7.15,21.92,21.92,0,0,1-1,3.42h0c-.06.16-.13.33-.2.49a17.55,17.55,0,0,1-.86,1.79l-.1.08a16.84,16.84,0,0,1-1.53.9l-.57.17h-.44l-.66,0a20.05,20.05,0,0,1-2.48-.69,26.7,26.7,0,0,1-3.81-2.32c-.49-.4-1-.82-1.43-1.25a16.08,16.08,0,0,1-1.75-2.05l-.09-.14-.11-.14.11.13-.06-.09a39,39,0,0,1-3.86-6.24c-.4-1-.87-2.16-1.45-3.3v0l-.3-.58a5.47,5.47,0,0,0-6.13-2.49c-2.71.74-4.75,3.87-3.79,6.67a39.39,39.39,0,0,0,3.31,7.66c.64,1.06,1.37,2.06,2.09,3.07,1,1.38,2,2.75,3.11,4a26.2,26.2,0,0,0,6.6,5.19,21,21,0,0,0,7.37,2.83,15.53,15.53,0,0,0,6.78-.2,14.58,14.58,0,0,0,4.53-2.3,11.44,11.44,0,0,0,3.24-3.15,15.36,15.36,0,0,0,1-2q1-2.18,1.82-4.41a16.55,16.55,0,0,0,.7-3.1,25.69,25.69,0,0,0,.28-4.87,73.78,73.78,0,0,0-1-8.52,144.38,144.38,0,0,0-2.67-14.44c-.6-2.36-1.12-4.73-1.65-7.11s-1.26-4.87-2-7.29-1.47-4.87-2.22-7.3-1.75-5-2.79-7.49a36.83,36.83,0,0,0-3.73-6.87c-1.5-2.14-3.05-4.25-4.52-6.41a63.54,63.54,0,0,1-3.61-6c-1.16-2.19-2.23-4.42-3.2-6.71a5,5,0,0,0-3.09-2.37,5.18,5.18,0,0,0-1.36-.18,5.12,5.12,0,0,0-2.61.71Z"/><path class="cls-1" d="M306.24,143.92a28.14,28.14,0,0,0-6.1,1.12c-1.07.31-2.13.7-3.18,1.08l-1.93.71c-.4.15-.79.31-1.17.47l-.06,0-1.91.8c-4.58,2-8.28,5.55-11.84,9a36.91,36.91,0,0,0-5.78,6.76,49.78,49.78,0,0,0-3.2,6.15c-.65,1.44-1.23,2.92-1.77,4.41-.22.61-.43,1.21-.64,1.82a18.88,18.88,0,0,0-.81,4.21,44.74,44.74,0,0,0,.1,7.32,53.07,53.07,0,0,0,1.17,8.69c.54,2.45,1.25,4.83,2,7.23s1.58,5,2.31,7.55c.68,2.33,1.3,4.67,2.08,7s1.64,4.61,2.44,6.92,1.57,4.86,2.32,7.3,1.54,5.15,2.27,7.74a74.27,74.27,0,0,1,1.66,7.84c.37,2.94.66,5.89.75,8.85a63.63,63.63,0,0,1-.61,9.74c-.49,2.78-1.07,5.55-1.7,8.32-.31,1.36-.63,2.7-1,4s-.93,2.68-1.44,4c-1,2.27-2,4.52-3.13,6.71a74.17,74.17,0,0,1-5,8.65,65,65,0,0,1-6.88,6.9,64.59,64.59,0,0,1-5.45,3.49c-1.82,1-3.62,2.1-5.51,3a44.76,44.76,0,0,1-8.37,2.32,22.42,22.42,0,0,1-2.84.15c-1.05,0-2.09-.11-3.12-.23a15,15,0,0,1-2.46-.62,16.65,16.65,0,0,1-1.53-.87c-.21-.21-.41-.41-.6-.63s-.15-.22-.22-.33a4.85,4.85,0,0,0-6.52-1.71,5,5,0,0,0-2.36,3.69,30.34,30.34,0,0,1,3.25,2.93l.16.18.31.34c.39.45.77.93,1.12,1.42a13.56,13.56,0,0,1,1.49,2.65l.29.71a18.35,18.35,0,0,0,6.13,1.81,41.72,41.72,0,0,0,4.47.45h.64a29.6,29.6,0,0,0,4.14-.37,41.71,41.71,0,0,0,13.22-4.21c2.11-1.09,4.12-2.24,6-3.4a41.63,41.63,0,0,0,6.64-5l.2-.19a68.77,68.77,0,0,0,5.62-5.82A49.66,49.66,0,0,0,285,296.8l.13-.24a101,101,0,0,0,6.56-14.7,50.71,50.71,0,0,0,1.57-6.14l.11-.51c.75-3.49,1.24-6.22,1.58-8.84.16-1.15.27-2.3.36-3.53l.05-.58.05-.58c.09-1,.17-2,.17-2.87a69.28,69.28,0,0,0-.32-7.41,91.62,91.62,0,0,0-2.75-15.73c-.84-3.1-2-7.17-3.27-11.17q-1-2.94-2-5.85c-.58-1.7-1.16-3.4-1.72-5.1-.36-1.06-.65-2.16-.94-3.29-.17-.66-.35-1.31-.53-2-.52-1.81-1.1-3.75-1.83-6.11l-.57-1.8c-.44-1.39-.88-2.79-1.29-4.2-.5-1.73-.85-3.51-1.16-5.18s-.29-3.17-.42-5.26a40.78,40.78,0,0,1-.06-5.23,24.19,24.19,0,0,1,.85-2.8l.15-.44c.32-.94.68-1.91,1.06-2.86a36.11,36.11,0,0,1,3.17-6,66.9,66.9,0,0,1,8.9-8.68,27.84,27.84,0,0,1,4.55-2.58c.13,0,.27-.1.39-.16a50.81,50.81,0,0,1,7.71-2.47q.76-.06,1.53-.06c.6,0,1.2,0,1.79.08,1.17.11,2.33.24,3.5.38l.47.08.32.05a16.62,16.62,0,0,1,2.83.88l.3.11c.77.28,1.53.58,2.28.91l.24.1,0,0-.08,0,.08,0-.07-.05.73.3a31.91,31.91,0,0,1,5.44,2.67,16,16,0,0,1,1.53,1.6l.65,1a6.45,6.45,0,0,1,.58,1.09,18.34,18.34,0,0,1,.8,3.33,29.24,29.24,0,0,1,.08,4.83,22.16,22.16,0,0,1-1.1,3.34,27.4,27.4,0,0,1-2.29,4.18,16.16,16.16,0,0,1-1.23,1.25,29.41,29.41,0,0,1-4.62,2.59l-.87.39c-.93.41-1.76.79-2.58,1.22a28.46,28.46,0,0,0-3.25,2c-1,.75-2.24,1.62-3.35,2.58a18.38,18.38,0,0,0-3.33,3.77,18.71,18.71,0,0,0-1.87,4.09c-.39,1.1-.74,2.25-1,3a37.23,37.23,0,0,0-1.38,8,54.41,54.41,0,0,0-.15,7.4c0,.89.07,1.79.1,2.68.06,1.43.11,2.85.2,4.28a84.91,84.91,0,0,0,1,8.61c.36,2.33.87,4.69,1.36,7l0,.15,0,.13c.38,1.79.78,3.64,1.11,5.47.6,3.33,1.18,6.89,1.9,11.52l.51,4.69v.12c.38,3.6.78,7.33,1.29,11,.22,1.89.37,3.89.45,6.14a46.49,46.49,0,0,1-.09,6.41,78.35,78.35,0,0,1-2,8.27l-.1.35-.36,1.32c-.61,2.21-1.3,4.71-2.2,7.08a62.55,62.55,0,0,1-6.57,11.18,35.88,35.88,0,0,1-3.17,3.51c-.91.87-1.93,1.68-2.92,2.47-.48.37-1,.75-1.42,1.14L289,320.31l-.29.23c-.72.58-1.44,1.16-2.15,1.77L285,323.65c-.87.76-1.73,1.52-2.63,2.25a43.79,43.79,0,0,1-4.26,2.53l-.11.06-.53.28-1.18.65-.21.12c-1.14.63-2.32,1.27-3.53,1.82-2.92,1.21-5.11,2.15-7.08,3a45.43,45.43,0,0,1-4.41,1.3l-.14,0-1.76.46a63,63,0,0,1-6.7,1.6c-1.24.12-2.45.19-3.61.19-1,0-2-.05-3-.14l-.84-.14-.83-.14a5.69,5.69,0,0,1-3.6,1.5h-.27c-1.22-.09-2.48-.23-4-.43a11.38,11.38,0,0,1-2.15-.46c-1-.32-1.93-.73-2.92-1.15l-.23-.1-.64-.26a8.19,8.19,0,0,1-1.65-.82l-.22-.14a11.6,11.6,0,0,1-2.17-1.76c-.46-.52-.89-1.09-1.35-1.69l-.07-.09a7.64,7.64,0,0,1-.68-1.08,16.46,16.46,0,0,1-.74-1.61,5.78,5.78,0,0,0-6.48,5.75,6.16,6.16,0,0,0,1.7,4.12,19.88,19.88,0,0,0,1.87,1.67c.66.6,1.35,1.19,2.06,1.75a18.47,18.47,0,0,0,3.39,2.35,26,26,0,0,0,4.5,1.69,64.81,64.81,0,0,0,7,1.37c2.77.41,5.54.9,8.32,1.2a33.23,33.23,0,0,0,8.09-.36,52.57,52.57,0,0,0,6.78-1.49c2.36-.67,4.78-1.22,7.1-2a41.68,41.68,0,0,0,4.12-1.79c.76-.35,1.53-.69,2.3-1a60.32,60.32,0,0,0,6.93-3.19c2-1.13,4-2.18,6-3.41a53.83,53.83,0,0,0,6.49-5.28c1.64-1.45,3.37-2.79,5-4.19a63.33,63.33,0,0,0,4.92-4.32,58.83,58.83,0,0,0,5-6.32,48.85,48.85,0,0,0,3.46-5.61,62.91,62.91,0,0,0,3.62-7.87c.89-2.43,1.48-5,2.18-7.47a83.15,83.15,0,0,0,2-8.09c1.1-6.23.62-12.53-.22-18.75-.38-3.14-.71-6.28-1-9.42-.21-2.22-.43-4.43-.77-6.63-.25-1.68-.54-3.34-.81-5-.58-3.61-1.22-7.21-2-10.79-.35-1.7-.81-3.38-1.17-5.07s-.62-3.38-.88-5.07c-.16-1.41-.31-2.82-.4-4.24-.12-1.74-.15-3.49-.22-5.24a67.74,67.74,0,0,1,.25-10,38.88,38.88,0,0,1,1.88-6.75,13.73,13.73,0,0,1,.81-1.45,20.18,20.18,0,0,1,2-1.89,30.79,30.79,0,0,1,5.19-3.22,44.64,44.64,0,0,0,6.08-3.21,23.2,23.2,0,0,0,3.15-2.52,21.32,21.32,0,0,0,2.77-3.5,36,36,0,0,0,3.4-7.28,20.79,20.79,0,0,0,1.14-8,39.29,39.29,0,0,0-.48-4.45,21.79,21.79,0,0,0-.67-3.19,25.47,25.47,0,0,0-1.34-3.2,21.34,21.34,0,0,0-3.24-4.5,16.21,16.21,0,0,0-3.28-2.79,17.22,17.22,0,0,0-2.69-1.41c-2.48-1.16-5-2.19-7.58-3.19-.52-.2-1.05-.39-1.59-.58a20,20,0,0,0-4.52-1c-1.35-.18-2.69-.32-4.05-.46a26.54,26.54,0,0,0-2.82-.2l-.75,0Z"/><path class="cls-1" d="M133.87,153.77A4.63,4.63,0,0,0,131,156l-1.65,3.76h0l-.44,1-1.33,3c-.83,1.67-1.78,3.29-2.71,4.87l0,.09-.46.78-2,3.52a9.71,9.71,0,0,0-1.62,4.53,5.14,5.14,0,0,0,.65,2.83,5.88,5.88,0,0,0,2,1.89,4.19,4.19,0,0,0,2.38.67,4.92,4.92,0,0,0,2.55-.67c2.08-1.27,3.15-3.38,4.08-5.42.68-1.48,1.35-3,2-4.47l.63-1.44.46-1,.18-.42h0v0c.27.32.55.64.83.94a22.39,22.39,0,0,0,2.59,2.27,21.6,21.6,0,0,1,2.52,2.19,10.69,10.69,0,0,1,.58,1.11,5.11,5.11,0,0,0,5.75,2.34,5.23,5.23,0,0,0,3.14-2.53,4.84,4.84,0,0,0,.43-3.74,10.5,10.5,0,0,0-2.13-3.84,15.14,15.14,0,0,0-2.48-2.16l-.16-.11c-.43-.33-.87-.64-1.31-1l-.2-.13-.67-.48a23.46,23.46,0,0,1-3-3.05c-.48-.66-1-1.32-1.42-2l-.11-.15,0-.1,0-.15h0a4.81,4.81,0,0,0-2.37-4.72,4.85,4.85,0,0,0-2.46-.66,4.64,4.64,0,0,0-1.28.17Z"/><path class="cls-1" d="M131.76,146.22l-.14,0a30.24,30.24,0,0,0-3.28.52c-.65.26-1.3.54-1.94.82l-1,.75a3.94,3.94,0,0,0-1.3,1.42,4.19,4.19,0,0,0-.88,1.7l-.18,1.29a3.72,3.72,0,0,0,.08,1.93,6.31,6.31,0,0,0,.9,1.82,6.64,6.64,0,0,0,2.12,2,15.8,15.8,0,0,0,3,1.18c.56.16,1.12.3,1.7.44,1.24.31,2.5.58,3.76.87a5,5,0,0,0,5.3-2H140v0c.93-.12,1.85-.25,2.78-.41a6.33,6.33,0,0,0,4.46-3.15,4.75,4.75,0,0,0,0-4.74,12.73,12.73,0,0,0-.93-1.23,18.16,18.16,0,0,0-1.46-1.16l-.13-.09a6.54,6.54,0,0,0-1.09-.65,20.78,20.78,0,0,0-2.53-1,13.88,13.88,0,0,0-3.58-.58h-.16c-.42,0-.83,0-1.25,0a35,35,0,0,0-4.32.35Z"/><path class="cls-1" d="M163.1,89.35a4.83,4.83,0,0,0-1.37,3.33l-.21,3.38c-.18,2.82-.38,6-.47,9.17-.07,2.17-.08,4.14,0,6,0,.61,0,1.22.08,1.83l0,.62a19.7,19.7,0,0,0,.32,3,11.29,11.29,0,0,0,1.26,3.15,8.93,8.93,0,0,0,2.16,2.49,4.81,4.81,0,0,0,2.12,1.24c.56.09,1.12.16,1.69.21a7.53,7.53,0,0,0,1.66-.26,4.9,4.9,0,0,0,2.12-1.25,9.72,9.72,0,0,0,2.5-3.94,32.61,32.61,0,0,0,1.41-6.67,27.21,27.21,0,0,0,.33-3.7,15,15,0,0,0-.75-4.6,29.14,29.14,0,0,0-1.36-3.49l-.11-.24-.43-1.13c-.47-1.21-.89-2.3-1.39-3.36a5.21,5.21,0,0,0-1.59-1.65l0-.8a4.28,4.28,0,0,0-1.21-3.15A4.94,4.94,0,0,0,166.43,88a4.77,4.77,0,0,0-3.33,1.37Z"/><path class="cls-1" d="M88.44,95.26a4.54,4.54,0,0,0-1.31,3.15c-.28,4.4-.45,9.2-.53,14.67,0,1.84,0,3.49,0,5.06v.31a33.77,33.77,0,0,0,.7,7.27,6.39,6.39,0,0,0,4.79,4.71,4.07,4.07,0,0,0,1.16.17l.38,0a6,6,0,0,0,2.65-.72,6.83,6.83,0,0,0,2.13-1.66,10.22,10.22,0,0,0,1.53-2.11,23.32,23.32,0,0,0,1.37-3.51,17.77,17.77,0,0,0,.6-3.62l.09-.81c.14-1.31.21-2.64.22-4a42.35,42.35,0,0,0-.66-6.46l0-.22c-.15-1-.33-1.91-.53-2.76a19.57,19.57,0,0,0-2.4-5.87,5.06,5.06,0,0,0-2.87-2.21A4.7,4.7,0,0,0,91.59,94a4.43,4.43,0,0,0-3.15,1.31Z"/><path class="cls-2" d="M212.25,10.94h0q-.41.12-.81.27a27.44,27.44,0,0,0-4,2.12,19.13,19.13,0,0,0-2.35,2.45c-2.22,3-4.4,6-6.23,8.63-1.47,2.07-3,4.12-4.47,6.17l-.17.24-2.54,3.48c-2.37,3.27-4.55,6.72-6.58,10l-3.71,6-3.72,6a5.11,5.11,0,0,1-4.28,2.41,4.76,4.76,0,0,1-1.91-.41l-.15,0a6,6,0,0,1-3.06,0c-1.79-.66-3.58-1.42-5.24-2.14a25.77,25.77,0,0,0-5.46-1.59l-3.25-.52-.87-.13-2.15-.34L150,53.42c-1.42-.16-3-.34-4.59-.62l-1.88-.35c-.79-.16-1.58-.31-2.38-.44-2-.2-4.09-.33-6.83-.42h-1c-1.27,0-2.56.07-3.8.14l-.46,0-1.57.08c-1.75.07-3.51.11-5.26.14-3,.06-6.19.12-9.31.4A49.89,49.89,0,0,0,108,53.49c-.89.25-1.78.48-2.68.72l-.59.16-2.76.73c-2.16.6-4.32,1.23-6.47,1.86l-.39.11c-2.33.69-5,1.46-7.5,2.15a5.11,5.11,0,0,1-1.35.18,5.55,5.55,0,0,1-.89-.08,6.21,6.21,0,0,1-2.71.6,5.51,5.51,0,0,1-4.15-1.73c-.2-.22-.39-.45-.59-.68l-.29-.34c-.36-.43-.72-.85-1.1-1.27-.57-.63-1.18-1.22-1.77-1.8l-.45-.44a65.2,65.2,0,0,1-4.44-4.85l-2.26-2.76c-2.37-2.9-4.82-5.89-7.46-8.7-1.35-1.42-2.73-2.83-4.1-4.24-2.3-2.35-4.62-4.72-6.79-7.17-1.5-1.7-3-3.52-4.77-5.72-.84-1.06-1.63-2-2.4-2.84a2.57,2.57,0,0,0-.2.46c-.62,1.62-1.27,3.09-1.9,4.46a41.28,41.28,0,0,0-1.57,5.27c-.48,2.08-1,4.43-1.47,6.82-.57,4.87-.91,9.86-1.24,14.68v.19l-.08,1.18c-.08,1.2-.16,2.39-.25,3.58-.2,2.74-.42,5.49-.64,8.23l0,.72c-.17,2-.35,4.32-.42,6.54-.08,2.92-.13,5.83-.18,8.76q-.06,3.66-.15,7.34c0,1.31-.07,2.61-.1,3.92-.13,4.26-.25,8.67-.18,13l0,1.9v.9c0,1.8.07,3.61.12,5.41,0,1.29.09,2.59.15,3.88s.11,2.72.14,4.08c.09,3.39.12,6.85.14,10.2V131c0,1.46,0,2.91,0,4.37.06,4.27.2,8.55.33,12.69l.1,3.46c.12,3.71.12,7.63.13,10.78,0,1.82,0,3.65,0,5.47,0,5,.21,10.12.37,14.92.2,5.58.26,11.37.31,16.49s.11,10.91.3,16.49q0,1,.09,2.1a56.74,56.74,0,0,0-7.66,8.62c-1.15,1.53-2.28,3.16-3.46,5-.15-2.9-.32-5.82-.48-8.74v-.11l-.06-1.09c-.19-3.4-.34-6.84-.42-10.25l-.93,1.93c-1.12,2.82-2.35,5.94-3.36,9.12s-2.15,6.65-3.41,10.45a77.15,77.15,0,0,0-2.75,10c-.61,3.41-1.1,6.87-1.5,9.84-.11.79-.21,1.57-.32,2.35-.38,3.18-.61,6.59-.69,10.45l0,1.13v.18c0,1.28-.06,2.6,0,3.9,0,1.61.2,3.19.39,4.95a26.29,26.29,0,0,0,1.07,4.73,20.42,20.42,0,0,0,1.41,2.36,11.08,11.08,0,0,0,1.09,1.06,24.87,24.87,0,0,0,2.62,1.75l.51.12.12,0,.57,0c.39-.39.74-.8,1.1-1.21l.25-.29c.34-.39.67-.78,1-1.18.54-.77,1-1.57,1.56-2.46l.16-.29c.21-.34.42-.68.64-1a25.18,25.18,0,0,0,1.33-2.29c1.14-2.3,2.33-4.84,3.74-8a27.51,27.51,0,0,1,1.45-3c-.75-3.26-1.6-7.1-2.28-10.88-.2-1.11-.38-2.22-.56-3.34a86.81,86.81,0,0,1,4.72-9.39l.79-1.31c.82-1.39,1.67-2.81,2.6-4.17.61-.9,1.24-1.79,1.87-2.67.26,3.7.67,7.66,1.22,12.11.43,2.85.76,4.87,1.1,6.76.29,1.63.67,3.31,1,4.78l.12.52c.12.57.25,1.13.37,1.7,1.08,5,2.14,9.51,3.23,13.65,1,3.85,2.28,7.92,4,12.79,1.49,4.24,3.09,8.48,4.77,12.61l.32.75c.4.94.89,2.1,1.41,3.18.21.43.41.87.62,1.3l.15.33c.46,1,1,2.12,1.55,3.16l1.58,2.93,1,1.89c.52,1,1.1,1.9,1.66,2.82l.1.16.89,1.47c1.76,3,3.67,5.94,5.36,8.57,1.43,2.21,3,4.33,4.8,6.67,1.41,1.71,3.54,4.27,5.72,6.76,1.73,2,3.63,3.87,5.59,5.78a60,60,0,0,1,5.28,5.66,48.27,48.27,0,0,0,5.89,6.52,29.59,29.59,0,0,0,3.78,2.21c.38,4.28.67,7.78.91,11,.06.72.11,1.44.16,2.15-1.28-.43-2.48-.87-3.56-1.3a42.82,42.82,0,0,1-6.75-3.32c.2,1.52.44,3,.69,4.53l.06.37c.42,2.62.86,5.33,1.22,8v-.37c.31,2.48.7,5.08,1.24,8.18.4,2.37.71,4.8,1,7.15v.11l.21,1.7c.17,1.22.38,2.64.67,4.05.19.92.4,1.83.62,2.74l.07.3,0,.12c.14.57.27,1.14.4,1.7a56.63,56.63,0,0,0,2.69,8.67,30.19,30.19,0,0,0,2.38,4.41,11.83,11.83,0,0,0,1,1,19,19,0,0,0,3,1.65,18.21,18.21,0,0,0,3,.79l.9.18c.74.15,1.49.3,2.24.42l.36-.35a16,16,0,0,0,1-1.7,35.56,35.56,0,0,0,1.56-6.77c.36-3.46.4-7,.43-10.4,0-3.1,0-6.23.32-9.31A95.13,95.13,0,0,1,115.85,384c.06-.34.13-.69.19-1l.1-.55,0-.11c.17-1,.35-1.95.58-2.9s.46-1.75.75-2.61l-2.58-.66-.75-.19-2.82-.72c-.07-1.05-.16-2.11-.24-3.17-.23-3.16-.49-6.27-.76-9.38,1,.28,2.08.53,3.14.78,2.65.63,5.11,1.23,7.51,1.84,2.12.55,4.17.9,5.9,1.17,1.38.11,2.86.22,4.34.22h.7c1.74,0,3.55-.07,5.33-.16,3-.18,6.05-.52,9.65-1,3.35-.54,6-1,8.44-1.51,2-.4,3.93-1,5.84-1.5l.12,0,1.95-.54a128.22,128.22,0,0,0,13.25-4.71l1.23-.5c.17,1.29.38,2.6.59,3.91l.42,2.56.44,2.79.45,2.78c-1.11.44-2.24.88-3.38,1.31q-2.38.88-4.79,1.73c.68,3.58,1.14,7.23,1.59,10.77l.23,1.82c.27,1.85.51,3.71.76,5.57s.48,3.67.9,5.51c.3,1.29.69,2.57,1.07,3.82.24.79.46,1.51.66,2.23l.48,1.69c.36,1.32.73,2.65,1.14,4l.42,1.31.11.33c.19.54.37,1.09.54,1.64l.08.25c.2.67.38,1.25.58,1.82.2.38.41.76.64,1.12l.19.2a17.25,17.25,0,0,0,1.92,1.07,15.09,15.09,0,0,0,2.07.54c.39,0,.77.05,1.15.05h.35a14,14,0,0,0,1.53-.44,15,15,0,0,0,1.58-1,23.13,23.13,0,0,0,2.82-3,42.24,42.24,0,0,0,3.72-6.78,33.29,33.29,0,0,0,1.77-5.18c.18-.81.37-1.61.57-2.42l.13-.54c.17-.71.33-1.42.5-2.14.81-3.42,1.35-6.83,1.81-10q.53-4.32,1.11-8.61c.06-.58.13-1.15.19-1.72l.09-.76,0-.4c.15-1.33.3-2.67.49-4-.12.53-.19,1.06-.26,1.59.42-3.21.53-6.48.63-9.65l0-.53c0-1.21.08-2.43.14-3.64l-.3.2-1,.69c-1.17.79-2.41,1.48-3.57,2.11-1.4.76-2.8,1.58-4.15,2.37l-.23.14-.57.33-2.07,1.2-.91.5-.36-2.34c-.48-2.89-1-5.88-1.38-8.85l-.2-1.43,3.16-1.81.75-.43.45-.25.12-.07c1-.54,1.95-1.1,2.88-1.72a71.33,71.33,0,0,0,6.09-5.52c1.16-1.19,2.53-2.61,3.88-4.16.84-1,1.63-2,2.3-2.82l.43-.61.1-.14c1-1.41,2-2.87,2.92-4.38,1.09-1.81,2.17-3.68,3.42-5.9.55-1,1.08-1.95,1.62-2.93l1.17.86a27.93,27.93,0,0,1,3.72,3.38,11,11,0,0,1,.71,1.21l.17.48c.28.81.57,1.61.9,2.4l.13.33c.26.63.52,1.28.85,1.91a8.7,8.7,0,0,0,.69,1.08l.07.09c.46.6.89,1.17,1.35,1.69a11.6,11.6,0,0,0,2.17,1.76l.22.14a8,8,0,0,0,1.66.82l.63.26.23.1c1,.42,1.95.83,2.92,1.15a11.38,11.38,0,0,0,2.15.46c1.49.2,2.75.34,4,.43h.27a5.69,5.69,0,0,0,3.6-1.5l.82.14.85.14c1,.09,2,.14,3,.14,1.16,0,2.37-.07,3.62-.19a67.89,67.89,0,0,0,6.68-1.59c.59-.17,1.18-.32,1.77-.47l.14,0a44.62,44.62,0,0,0,4.41-1.3c2-.9,4.16-1.83,7.08-3,1.21-.56,2.39-1.2,3.53-1.83l.21-.12,1.18-.64.53-.29.11-.06a43.79,43.79,0,0,0,4.26-2.53c.89-.73,1.76-1.49,2.62-2.25l1.55-1.34c.7-.61,1.43-1.19,2.15-1.77l.29-.23c.56-.45,1.11-.89,1.65-1.34s.95-.77,1.43-1.14c1-.79,2-1.6,2.92-2.47a36.21,36.21,0,0,0,3.17-3.52,62.11,62.11,0,0,0,6.57-11.17c.9-2.37,1.59-4.87,2.2-7.08l.37-1.32.09-.35a78.35,78.35,0,0,0,2-8.27,46.49,46.49,0,0,0,.09-6.41c-.08-2.24-.23-4.26-.45-6.15-.51-3.65-.91-7.38-1.29-11l0-.12c-.16-1.56-.33-3.13-.5-4.69-.72-4.63-1.3-8.19-1.9-11.52-.33-1.83-.72-3.68-1.11-5.47l0-.13,0-.15c-.48-2.27-1-4.63-1.35-7a84.91,84.91,0,0,1-1-8.61c-.09-1.43-.15-2.85-.2-4.28,0-.89-.07-1.79-.11-2.68a56.12,56.12,0,0,1,.16-7.4,37.34,37.34,0,0,1,1.38-8c.24-.76.59-1.91,1-3a16.23,16.23,0,0,1,5.2-7.86c1.11-1,2.31-1.83,3.35-2.58a29.36,29.36,0,0,1,3.25-2c.82-.43,1.65-.81,2.58-1.22l.87-.39a28.63,28.63,0,0,0,4.62-2.59,16.16,16.16,0,0,0,1.23-1.25,26.93,26.93,0,0,0,2.29-4.18,21.09,21.09,0,0,0,1.09-3.34,28.13,28.13,0,0,0-.07-4.83,18.34,18.34,0,0,0-.8-3.33,7.77,7.77,0,0,0-.58-1.09c-.21-.33-.43-.64-.65-.95a15.17,15.17,0,0,0-1.53-1.61,31.91,31.91,0,0,0-5.44-2.67l-.73-.3.13.1c-.84-.38-1.69-.71-2.55-1l-.3-.12a17.85,17.85,0,0,0-2.83-.87l-.32-.05-.47-.08c-1.16-.14-2.33-.27-3.5-.37a17.73,17.73,0,0,0-1.79-.09q-.76,0-1.53.06a49.27,49.27,0,0,0-7.7,2.47l-.4.16a28.26,28.26,0,0,0-4.55,2.58,66.9,66.9,0,0,0-8.9,8.68,36.11,36.11,0,0,0-3.17,6c-.38,1-.74,1.92-1.07,2.87l-.14.43a24.19,24.19,0,0,0-.85,2.8,40.78,40.78,0,0,0,.06,5.23c.13,2.1.26,3.72.43,5.26a51.52,51.52,0,0,0,1.15,5.18c.41,1.41.85,2.8,1.29,4.2l.56,1.8c.74,2.36,1.32,4.3,1.84,6.11.18.66.36,1.31.53,2,.29,1.13.58,2.23.94,3.29.56,1.7,1.14,3.4,1.72,5.1q1,2.91,2,5.85c1.32,4,2.45,8.07,3.28,11.16a92.9,92.9,0,0,1,2.76,15.74,72,72,0,0,1,.32,7.41c0,.91-.09,1.84-.18,2.87l-.05.58,0,.58c-.09,1.23-.21,2.39-.37,3.53-.34,2.62-.83,5.35-1.58,8.84l-.11.51a51.34,51.34,0,0,1-1.57,6.15,101.36,101.36,0,0,1-6.56,14.69l-.13.24a49,49,0,0,1-5.12,8.16,68.77,68.77,0,0,1-5.62,5.82l-.2.19a41.63,41.63,0,0,1-6.64,5c-1.84,1.16-3.85,2.31-6,3.39a41.27,41.27,0,0,1-13.21,4.22,29.6,29.6,0,0,1-4.14.37h-.64a42,42,0,0,1-4.47-.45,18.12,18.12,0,0,1-6.13-1.81c-.09-.23-.18-.47-.29-.71a13.56,13.56,0,0,0-1.49-2.65,17.16,17.16,0,0,0-1.13-1.42l-.3-.34-.16-.17a31.54,31.54,0,0,0-3.6-3.22c-1.3-1-2.65-2-4.14-3.08.8-2.14,1.55-4.35,2.28-6.49l.72-2.12c1.41-4.12,2.59-8.07,3.51-11.73l.28-1.09c.37-1.47.8-3.14,1.14-4.77q.67-3.28,1.32-6.59c.72-3.7,1.37-7.39,2-11.31,1.07-9.46,1.84-19.18,2.32-28.87.31.75.65,1.5,1,2.25.49,1.08,1,2.16,1.51,3.23a43,43,0,0,0,3.38,5.74,27.09,27.09,0,0,0,2.81,3.42c.25.26.51.5.77.75l.59.57c.15.15.28.3.42.47l.17.24c-.27,3.32-.54,6.25-.83,9,.58,1.14,1.05,2.3,1.45,3.3a39.13,39.13,0,0,0,3.86,6.24l.15.24a16.08,16.08,0,0,0,1.75,2.05c.46.43.94.85,1.43,1.25a27.22,27.22,0,0,0,3.8,2.32,20.69,20.69,0,0,0,2.49.69h1.1l.57-.17c.5-.26,1-.56,1.53-.9l.1-.09a16.53,16.53,0,0,0,.86-1.78,20.27,20.27,0,0,0,1.2-3.91,38.27,38.27,0,0,0-.33-7.15l-.25-1.62c-.46-3-1-6.78-1.71-10.35-.22-1.15-.53-2.32-.8-3.35-.15-.59-.3-1.17-.44-1.76-.32-1.35-.64-2.71-.95-4.07l-.32-1.41c-.71-3.07-1.67-6.17-2.51-8.91l-.63-2-.4-1.33c-.45-1.52-.93-3.09-1.46-4.62s-1.15-3.14-1.86-4.86a53.42,53.42,0,0,0-5.06-8.2l-.86-1.24c-.1,1.92-.15,3.83-.19,5.74-.1,5.85-.23,10.69-.39,15.24,0,1.12-.09,2.25-.14,3.37-.41-.95-.85-1.9-1.3-2.85-.35-.76-.7-1.51-1.06-2.26a32.5,32.5,0,0,0-3.53-5.83,20.47,20.47,0,0,0-2.48-2.86,16,16,0,0,0-2.86-2c0-1,.06-2,.08-3,.06-2.78.15-5.41.24-8,.1-2.81.19-5.57.25-8.34.12-6.09.23-11.57.43-17.07l0-1.23v-.41c.07-1.88.14-3.82.14-5.74v-1.26l0-7.81v-1.16c0-10.13.06-20.61-.21-31l0-1.11c-.05-2.22-.11-4.41-.29-6.55-.25-2.79-.51-5.58-.8-8.36-.25-2.46-.5-4.91-.74-7.37q-.4-4.08-.82-8.18l-.36-2.55-.31-2.19-.16-1.13c-.33-2.35-.67-4.69-1-7-.51-3.56-1.22-7.19-1.85-10.38-.47-2.4-.93-4.73-1.32-7-1-5.51-1.84-11.11-2.58-15.85-.09-.53-.16-1.06-.24-1.59l-.07-.45c-.29-1.93-.57-3.84-1-5.68-.62-2.84-1.29-5.47-2-8q-.93-3.21-1.81-6.43c-.79-2.82-1.6-5.74-2.46-8.6-.65-2.15-1.43-4.38-2.45-7-.36-1-.67-1.94-1-2.89l0-.12c-.25-.83-.51-1.67-.8-2.5l-.08-.13c-.28-.3-.58-.59-.88-.88l-.14-.14c-.23-.22-.45-.45-.67-.68l-.75-.75Zm-16.94,56.2A4.61,4.61,0,0,1,193,66.5a4.85,4.85,0,0,1-2.22-3.13,4,4,0,0,1,.55-3.23c1.87-2.72,3.74-5.57,5.74-8.71.63-1,1.24-2,1.85-3,.76-1.25,1.53-2.5,2.33-3.73a6.61,6.61,0,0,1,2.06-2.23,5.23,5.23,0,0,1,2.58-.66,5.82,5.82,0,0,1,1.39.18c1.53.42,2.85,1.7,3.91,3.78.59,1.15,1.11,2.36,1.62,3.52l.12.28.25.59.29.68c.43,1,.85,2,1.29,3l.21.48a13.36,13.36,0,0,1,.76,2,9,9,0,0,1,0,5,4.84,4.84,0,0,1-4.57,3.47,4.35,4.35,0,0,1-1.23-.17,4.66,4.66,0,0,1-3.36-5.45,21,21,0,0,0-.93-2.52l-.33-.79-.08.08-.06.09c-2,3.17-3.92,6.07-5.83,8.88a4.62,4.62,0,0,1-4,2.3ZM42.58,61.8h0l.06-.13,0-.11.27-.67.6-1.4c.45-1.11.88-2.25,1.25-3.27l.22-.58.29-.79.37-1,.19-.51c.11-.29.22-.58.32-.88a7.31,7.31,0,0,1,1.58-2.81,4.82,4.82,0,0,1,3.32-1.54h.13a6.49,6.49,0,0,1,3.62,1.14l1.25.91c.88.66,1.76,1.34,2.63,2,1.5,1.17,2.85,2.3,4.12,3.44a4.23,4.23,0,0,1,1.36,3.07,4.91,4.91,0,0,1-1.36,3.53,4.56,4.56,0,0,1-3.25,1.35,4.87,4.87,0,0,1-3.35-1.35c-.85-.79-1.81-1.65-2.94-2.61l-.06.09q-.45,1.17-.93,2.31l-.55,1.29-.31.75c-.08.19-.15.37-.22.56l-.08.2c-.24.59-.44,1.11-.68,1.57l-.4.78-.12.24c-.46.9-.92,1.79-1.4,2.67a4.51,4.51,0,0,1-4,2.24,4.53,4.53,0,0,1-3.92-6.85c.47-.85.91-1.7,1.34-2.56l.07-.12.5-1Zm126.11,62c-.57,0-1.13-.12-1.69-.21a4.81,4.81,0,0,1-2.12-1.24,8.93,8.93,0,0,1-2.16-2.49,11,11,0,0,1-1.25-3.15,18.5,18.5,0,0,1-.33-3l0-.63c0-.6-.07-1.21-.09-1.82-.05-1.9,0-3.87,0-6,.09-3.14.29-6.35.47-9.17l.21-3.38a4.83,4.83,0,0,1,1.37-3.33A4.77,4.77,0,0,1,166.43,88a4.94,4.94,0,0,1,3.49,1.55,4.25,4.25,0,0,1,1.21,3.15l0,.8a5.21,5.21,0,0,1,1.59,1.65c.5,1.06.92,2.15,1.39,3.36l.43,1.13.1.24a28,28,0,0,1,1.37,3.48,15,15,0,0,1,.75,4.61,28.61,28.61,0,0,1-.33,3.69,32.56,32.56,0,0,1-1.41,6.68,9.81,9.81,0,0,1-2.49,3.94,4.82,4.82,0,0,1-2.13,1.24,7,7,0,0,1-1.66.27ZM93.28,130.6a4.07,4.07,0,0,1-1.16-.17,6.41,6.41,0,0,1-4.79-4.7,33.92,33.92,0,0,1-.7-7.28v-.31c0-1.57,0-3.22,0-5.06.08-5.47.25-10.26.53-14.67a4.6,4.6,0,0,1,1.31-3.16A4.47,4.47,0,0,1,91.59,94a4.65,4.65,0,0,1,4.16,2.73,5.05,5.05,0,0,1,2.88,2.21,19.32,19.32,0,0,1,2.39,5.87c.21.85.39,1.75.54,2.76l0,.22a42.35,42.35,0,0,1,.66,6.46,37,37,0,0,1-.22,3.94L102,119a18.51,18.51,0,0,1-.61,3.62,23.32,23.32,0,0,1-1.37,3.51,10.22,10.22,0,0,1-1.53,2.11,6.83,6.83,0,0,1-2.13,1.66,6,6,0,0,1-2.65.72l-.38,0ZM125.65,183a4.3,4.3,0,0,1-2.38-.68,6,6,0,0,1-2-1.89,5.23,5.23,0,0,1-.66-2.83,9.83,9.83,0,0,1,1.63-4.53l2-3.52.46-.78,0-.09c.93-1.58,1.88-3.2,2.71-4.87l1.33-3,.45-1a16.26,16.26,0,0,1-3.18-1.23,6.53,6.53,0,0,1-2.12-2,6.31,6.31,0,0,1-.9-1.82,3.62,3.62,0,0,1-.08-1.93l.17-1.28a4.31,4.31,0,0,1,.89-1.71,3.86,3.86,0,0,1,1.3-1.42l1-.75,1.94-.82c1.09-.25,2.18-.39,3.28-.53l.14,0a37.07,37.07,0,0,1,4.32-.34c.42,0,.83,0,1.25,0l.16,0a14.4,14.4,0,0,1,3.58.58,20.78,20.78,0,0,1,2.53,1,7.07,7.07,0,0,1,1.1.65l.12.09a18.16,18.16,0,0,1,1.46,1.16,10.54,10.54,0,0,1,.93,1.24,4.73,4.73,0,0,1,0,4.73,6.36,6.36,0,0,1-4.46,3.15c-.93.16-1.85.29-2.78.41l0,.15,0,.1.11.16c.46.67.94,1.34,1.42,2a24,24,0,0,0,3,3l.67.48.2.13c.44.32.88.63,1.31,1l.16.11a15.56,15.56,0,0,1,2.48,2.16,10.5,10.5,0,0,1,2.13,3.84,4.84,4.84,0,0,1-.43,3.74,5.23,5.23,0,0,1-3.14,2.53,5.1,5.1,0,0,1-3.92-.52,5.15,5.15,0,0,1-1.83-1.82,10.69,10.69,0,0,0-.58-1.11,20.9,20.9,0,0,0-2.53-2.19,23.15,23.15,0,0,1-2.58-2.27c-.28-.3-.56-.62-.83-.94l-.66,1.44-.63,1.44c-.65,1.49-1.33,3-2,4.47-.93,2-2,4.15-4.08,5.42a5,5,0,0,1-2.55.68Z"/><path class="cls-1" d="M127.46,40.66c-2.54.14-5.07.17-7.6.28a68,68,0,0,0-9,.78c-1.11.2-2.23.38-3.33.68s-2.13.64-3.19,1c-2.37.73-4.76,1.4-7.13,2.1S92.38,47,90,47.67q-2.58.75-5.16,1.46a5.24,5.24,0,0,0,2.78,10.11c4.81-1.31,9.56-2.8,14.36-4.12,2-.55,4-1,6-1.61a50,50,0,0,1,4.92-1.13c4.85-.44,9.71-.34,14.58-.54,2.27-.09,4.55-.3,6.82-.22s4.56.18,6.83.41c1.43.23,2.83.54,4.26.79,2,.35,4,.54,5.94.78s4.18.65,6.27,1A26,26,0,0,1,163,56.18c1.73.75,3.47,1.49,5.25,2.13a5.72,5.72,0,0,0,3.07,0,5.77,5.77,0,0,0,4-7.1,5.62,5.62,0,0,0-2.65-3.45c-1.59-.74-3.23-1.37-4.86-2-1.16-.46-2.31-.93-3.5-1.34A36.13,36.13,0,0,0,156.84,43c-1.46-.21-2.91-.45-4.38-.64l-3.71-.43c-.9-.14-1.8-.31-2.69-.5-1.48-.31-3-.48-4.46-.67a71.5,71.5,0,0,0-7.32-.4h-.67c-2.05,0-4.11.2-6.15.31Z"/><path class="cls-1" d="M209.6.76c-1.41.59-2.79,1.23-4.16,1.93a23.57,23.57,0,0,0-6.21,4.46,28.21,28.21,0,0,0-2.68,3.38c-.72,1-1.42,2-2.13,3q-2.31,3.29-4.6,6.59c-3.21,4.62-6.74,9.05-9.76,13.81-3.66,5.77-7.23,11.58-10.84,17.38a4.91,4.91,0,0,0,8.47,5l7.44-12c2.11-3.39,4.24-6.75,6.57-10s4.83-6.56,7.18-9.89c2.05-2.9,4.11-5.79,6.24-8.63a20.06,20.06,0,0,1,2.34-2.45,29.74,29.74,0,0,1,4-2.12c.27-.1.54-.18.81-.26q.39.36.75.75c.56.58,1.15,1.11,1.7,1.69a.54.54,0,0,0,.07.13c.65,1.82,1.11,3.7,1.8,5.5.9,2.33,1.73,4.64,2.45,7,1.5,5,2.82,10,4.27,15,.78,2.66,1.45,5.33,2,8,.55,2.53.87,5.14,1.28,7.71.83,5.29,1.67,10.57,2.58,15.85,1,5.82,2.34,11.57,3.17,17.41.57,4.31,1.21,8.61,1.81,12.92.53,5.18,1,10.37,1.56,15.55.28,2.79.55,5.57.8,8.36.22,2.54.25,5.11.32,7.66.28,10.7.24,21.41.21,32.12,0,3,0,6.05,0,9.07,0,2.47-.11,4.92-.2,7.38-.21,5.69-.32,11.38-.43,17.07-.11,5.41-.37,10.82-.48,16.23-.11,5.06-.24,10.12-.43,15.18-.43,11.46-1.26,22.94-2.56,34.33-.58,3.79-1.22,7.55-2,11.32q-.64,3.29-1.32,6.59c-.41,2-.93,3.91-1.42,5.85-1,3.95-2.19,7.89-3.51,11.74-1.26,3.68-2.47,7.39-3.9,11-1.85,3.71-3.8,7.35-5.83,11-1.12,2-2.24,3.95-3.41,5.9-1.06,1.77-2.27,3.44-3.45,5.12-.75,1-1.51,1.91-2.31,2.83-1.25,1.43-2.54,2.79-3.87,4.15a69.23,69.23,0,0,1-6.09,5.52c-1.36.9-2.79,1.65-4.2,2.47q-2.62,1.51-5.26,3c-1.63.93-3.31,1.77-5,2.62-1.1.56-2.25,1-3.39,1.5l.15-.07a147,147,0,0,1-14.94,5.39c-2.62.72-5.24,1.53-7.91,2.07s-5.6,1.06-8.43,1.51c-3.21.42-6.41.81-9.65,1-1.81.1-3.62.13-5.43.17a47.9,47.9,0,0,1-4.94-.22,56.75,56.75,0,0,1-5.89-1.16q-3.75-1-7.52-1.84a111.53,111.53,0,0,1-14.34-4.07,29.5,29.5,0,0,1-4.41-2.51,48.37,48.37,0,0,1-5.88-6.51,59,59,0,0,0-5.29-5.66c-1.91-1.88-3.82-3.77-5.59-5.78-1.94-2.23-3.83-4.49-5.71-6.77-1.66-2.17-3.32-4.36-4.8-6.66-1.82-2.84-3.64-5.68-5.37-8.57-.88-1.48-1.82-2.94-2.64-4.45l-2.62-4.82c-.84-1.55-1.54-3.2-2.31-4.79-.62-1.28-1.17-2.62-1.73-3.94-1.7-4.16-3.28-8.35-4.77-12.6s-2.87-8.47-4-12.79c-1.19-4.52-2.25-9.08-3.23-13.65-.5-2.32-1.07-4.65-1.49-7s-.76-4.5-1.1-6.76c-.62-5-1.12-9.93-1.46-14.92-.17-2.5-.29-5-.44-7.5-.17-2.66-.36-5.31-.45-8-.38-11-.23-22-.61-33-.17-5-.32-9.94-.37-14.91,0-5.42,0-10.85-.15-16.26s-.36-10.77-.43-16.15c-.07-5.56,0-11.12-.2-16.68-.07-2.65-.21-5.3-.29-8s-.11-5.47-.17-8.21c-.09-5.65.15-11.29.28-16.93.14-5.37.17-10.74.33-16.1.07-2.42.28-4.84.47-7.25.22-2.75.44-5.5.64-8.24.48-6.55.81-13.11,1.58-19.63.43-2.29.94-4.55,1.47-6.81A40,40,0,0,1,40,22.3c.66-1.44,1.3-2.9,1.87-4.38.06-.18.13-.35.19-.53.84.92,1.63,1.88,2.4,2.85C46,22.17,47.56,24.1,49.21,26c3.48,3.93,7.28,7.59,10.89,11.41C63.54,41,66.62,45,69.82,48.82a63.67,63.67,0,0,0,4.43,4.85c.76.74,1.52,1.46,2.23,2.25s1.31,1.53,2,2.29a6,6,0,0,0,10-2.64,5.71,5.71,0,0,0-.6-4.6c-.88-1.15-1.78-2.25-2.73-3.33-.76-.86-1.59-1.63-2.41-2.42a67.63,67.63,0,0,1-4.65-5.07c-1.72-2.06-3.41-4.16-5.12-6.23s-3.81-4.27-5.78-6.34c-3.59-3.79-7.41-7.35-10.78-11.34C54.62,14.16,52.92,12,51.14,10c-.76-.88-1.63-1.69-2.46-2.51A15.92,15.92,0,0,0,45,4.58a12.25,12.25,0,0,0-2-.91,7.26,7.26,0,0,0-3.7-.11,7.74,7.74,0,0,0-4.16,2.7,17.36,17.36,0,0,0-2,2.69,41.23,41.23,0,0,0-2.29,5.63,55.64,55.64,0,0,0-2.74,6.48c-.63,2.11-1.16,4.27-1.63,6.42-.28,1.31-.55,2.61-.79,3.92-.29,1.59-.43,3.25-.62,4.86-.31,2.81-.5,5.63-.7,8.45-.38,5.35-.75,10.71-1.18,16.07-.41,5.16-.71,10.32-.77,15.5-.13,10.79-.64,21.57-.32,32.36.16,5.57.4,11.12.44,16.69q.06,8,.21,15.91c.1,5.56.32,11.11.36,16.66.05,5.2,0,10.41.13,15.61.12,5.36.37,10.71.41,16.07s.05,10.81.1,16.22q.06,7.81.51,15.63c.32,5.5.61,11,1.08,16.49.49,5.67,1.21,11.33,2.21,16.93,1,5.39,2.25,10.73,3.49,16.06a199.35,199.35,0,0,0,10,30.58c1.07,2.62,2.15,5.27,3.38,7.82l2.08,4.29c.64,1.33,1.41,2.61,2.11,3.91,2.56,4.72,5.5,9.25,8.39,13.76a136.34,136.34,0,0,0,10.36,13.58c1.62,1.92,3.3,3.84,5.07,5.61s3.79,3.7,5.62,5.6,3.2,3.88,4.87,5.77a45.8,45.8,0,0,0,3.2,3.34A31.37,31.37,0,0,0,96,370.92c4.75,1.93,9.85,3,14.83,4.17,2.61.63,5.21,1.35,7.84,1.94a66.68,66.68,0,0,0,9.11,1.44,70.07,70.07,0,0,0,7.67.07c2.71-.05,5.4-.36,8.08-.64,3-.31,6.06-.8,9.06-1.28,2.57-.41,5.12-.89,7.64-1.54s5-1.23,7.5-2c2.87-.95,5.7-1.94,8.53-3,2.59-1,5.15-2,7.68-3.11a73.36,73.36,0,0,0,7.43-3.56c2.34-1.33,4.65-2.74,7-4,1.22-.66,2.41-1.33,3.57-2.11a46.45,46.45,0,0,0,3.88-3.12A78.83,78.83,0,0,0,217,342.35a104.21,104.21,0,0,0,8.82-13.9c1.32-2.41,2.67-4.81,3.9-7.27.77-1.56,1.54-3.11,2.21-4.72.56-1.37,1.08-2.74,1.57-4.14,1.69-4.78,3.43-9.58,4.79-14.47.81-2.9,1.6-5.81,2.34-8.73.6-2.42,1-4.88,1.53-7.32,1.11-5.7,2.14-11.41,2.8-17.2.58-5.13,1-10.27,1.37-15.42.39-5.71.76-11.42,1-17.14.18-5.08.3-10.16.4-15.24.1-5.43.34-10.86.43-16.29.11-5.73.21-11.46.4-17.2.08-2.46.17-4.9.17-7.35q0-4.47,0-8.92c0-10.67,0-21.33-.35-32-.09-3.51-.25-7-.57-10.53s-.74-7.22-1.1-10.83-.71-7.08-1.08-10.62-1-7.32-1.56-11c-.32-2.61-.6-5.24-1.06-7.83s-1-5.27-1.52-7.9c-1-5.16-1.88-10.35-2.7-15.55-.89-5.51-1.6-11.08-2.81-16.53C234.75,39.1,233,34.08,231.62,29c-.65-2.43-1.38-4.82-2.13-7.22S227.83,17.22,227,15c-.35-.91-.6-1.85-.88-2.78a16.78,16.78,0,0,0-2.93-6c-.72-.84-1.56-1.54-2.34-2.31a22.43,22.43,0,0,0-3.43-2.8,7.38,7.38,0,0,0-4-1.1,10,10,0,0,0-3.76.76Zm3.09,10.08.08,0-.09,0ZM215,13.92l.17.39-.17-.39Zm17.23,75,.09.66-.09-.66Z"/><path class="cls-1" d="M203.26,42.46a6.73,6.73,0,0,0-2.07,2.24c-1.43,2.22-2.77,4.49-4.18,6.72q-2.79,4.41-5.74,8.72c-1.44,2.1-.4,5.17,1.68,6.38a4.66,4.66,0,0,0,3.59.48,4.88,4.88,0,0,0,2.79-2.15c2-2.92,3.94-5.89,5.84-8.88a1,1,0,0,1,.11-.17,29.77,29.77,0,0,1,1.24,3.3,4.73,4.73,0,0,0,9.21,2.16,9,9,0,0,0,0-5,18.5,18.5,0,0,0-1-2.44c-.54-1.21-1.06-2.43-1.58-3.64-.64-1.48-1.26-3-2-4.39-.83-1.63-2.09-3.29-3.93-3.79a4.91,4.91,0,0,0-1.39-.19,5.22,5.22,0,0,0-2.59.66Zm3.29,16.87a2,2,0,0,1,0,.24c0-.08,0-.16,0-.24Z"/><path class="cls-1" d="M47.76,49.63a7.34,7.34,0,0,0-1.57,2.82c-.29.79-.59,1.58-.89,2.37-.58,1.54-1.13,3.11-1.76,4.64-.33.77-.65,1.55-1,2.32-.63,1.23-1.24,2.45-1.91,3.66a4.59,4.59,0,0,0,7.92,4.63c.67-1.22,1.29-2.46,1.92-3.69.38-.73.67-1.57,1-2.33s.57-1.36.86-2,.65-1.59.95-2.39c1,.85,2,1.71,2.94,2.62a4.7,4.7,0,0,0,6.64-6.64c-1.34-1.19-2.72-2.33-4.13-3.44-.87-.68-1.74-1.35-2.63-2l-1.25-.92a6.46,6.46,0,0,0-3.63-1.13H51.1a4.92,4.92,0,0,0-3.34,1.55ZM42.68,61.51c0,.08-.07.17-.11.25h0c0-.09.07-.17.11-.26Z"/><path class="cls-1" d="M80.87,347.81A4.72,4.72,0,0,0,78,350a5,5,0,0,0-.48,3.65c.85,4.89,1.52,9.8,2.19,14.72.31,2.43.6,4.86.93,7.28.14,1.06.28,2.11.44,3.17.33,2.69.56,5.4.91,8.1,0-.18,0-.36-.07-.53l.54,4.09q.45,3.69.81,7.39a80.09,80.09,0,0,0,1.1,8A74.33,74.33,0,0,0,88,419.12a29.8,29.8,0,0,0,4.62,8.28,17.62,17.62,0,0,0,3.23,2.87,16.81,16.81,0,0,0,2.53,1.55,38,38,0,0,0,3.78,1.61,25.23,25.23,0,0,0,3.23.75,34.89,34.89,0,0,0,6.27.85c2.7.08,4.9-1.54,6.85-3.18a13.51,13.51,0,0,0,2.85-3.57,31.75,31.75,0,0,0,3.5-11.46,107.69,107.69,0,0,0,.89-12.81c.08-3.65.17-7.27.57-10.9.38-2.37.85-4.73,1.27-7.1a67.08,67.08,0,0,1,1.83-8.27,5.8,5.8,0,0,0-7.12-7.12,5.63,5.63,0,0,0-3.46,2.66,34.73,34.73,0,0,0-2.11,6.08c-.36,1.52-.59,3.06-.89,4.59a101,101,0,0,0-1.61,10.79c-.57,6.56-.06,13.16-.75,19.71a35.56,35.56,0,0,1-1.56,6.77c-.29.58-.6,1.14-.94,1.69l-.35.34c-1.05-.17-2.09-.4-3.14-.6a18.55,18.55,0,0,1-3-.79,19.4,19.4,0,0,1-3-1.64,11.68,11.68,0,0,1-1-1,29.66,29.66,0,0,1-2.38-4.4,57.22,57.22,0,0,1-2.69-8.67c-.36-1.62-.77-3.23-1.11-4.86-.27-1.34-.48-2.7-.67-4.05-.37-3-.71-6-1.22-9q-.7-4.08-1.28-8.17l0,.36c-.62-4.54-1.42-9.06-2.11-13.59-.79-5.27-1.54-10.54-2.46-15.78a4.58,4.58,0,0,0-2.17-2.83,4.82,4.82,0,0,0-2.4-.64,4.32,4.32,0,0,0-1.24.17Zm28.73,75.3.88.12-.88-.12Z"/><path class="cls-1" d="M205.35,346.93l-.93,1.19a5.86,5.86,0,0,0-.8,3c-.73,6.34-.41,12.73-1.16,19.07l.21-1.6c-.31,2.29-.53,4.58-.8,6.87q-.59,4.31-1.11,8.62c-.49,3.35-1,6.7-1.81,10-.39,1.7-.81,3.39-1.2,5.1a33.91,33.91,0,0,1-1.77,5.17,41.58,41.58,0,0,1-3.71,6.77,24.67,24.67,0,0,1-2.82,3,16,16,0,0,1-1.58,1c-.5.16-1,.31-1.52.43s-1,0-1.5,0a13.7,13.7,0,0,1-2.07-.54,16.84,16.84,0,0,1-1.9-1.07l-.2-.19a11.11,11.11,0,0,1-.63-1.12c-.24-.68-.45-1.37-.66-2.07-.34-1.09-.73-2.18-1.07-3.28-.58-1.88-1.08-3.77-1.62-5.66s-1.26-4-1.73-6.05c-.51-2.25-.77-4.57-1.09-6.86.07.47.13.94.19,1.41q-.36-2.82-.76-5.62c-.8-6.22-1.49-12.49-3.25-18.53a5,5,0,1,0-9.65,2.66,71.45,71.45,0,0,1,1.94,9.59c.51,4.77.91,9.55,1.4,14.33a67,67,0,0,0,1.31,8.56c.49,2.1,1,4.19,1.5,6.29s1.14,4.36,1.72,6.53c.15.56.29,1.12.45,1.68a23.9,23.9,0,0,0,1,2.63,15.22,15.22,0,0,0,2.31,3.58,13.32,13.32,0,0,0,3.5,2.83,23.29,23.29,0,0,0,4.55,2.05,22,22,0,0,0,4.77.82,14.89,14.89,0,0,0,6-.73,21.13,21.13,0,0,0,9.91-7.13,33.83,33.83,0,0,0,3.74-5.46c.94-1.74,1.74-3.53,2.51-5.35a43.68,43.68,0,0,0,2.5-7.33c.52-2.31,1.13-4.6,1.6-6.92s.87-5,1.23-7.46c.42-2.95.77-5.92,1.13-8.89-.05.33-.09.66-.14,1,.36-2.68.66-5.35,1-8l-.21,1.59a97.06,97.06,0,0,0,.9-10.91c0-1.74.07-3.47.19-5.21s.24-3.63.19-5.45a5.88,5.88,0,0,0-10.05-4.16Zm-3.27,26.92c-.07.49-.13,1-.2,1.48.07-.49.13-1,.2-1.48Zm-6.44,31.28-.22.54.22-.54Zm11,4.48.18-.44-.18.44Zm.37-.9c-.06.15-.12.31-.19.46l.42-1c-.07.19-.15.37-.23.54Z"/><path class="cls-1" d="M20.16,196a80.78,80.78,0,0,0-4.11,7.39L13.89,208c-.68,1.45-1.25,3-1.84,4.45-2.05,5.06-3.63,10.29-5.39,15.45a92.82,92.82,0,0,0-4.08,15.28C1.7,248.72.8,254.28.34,259.89c-.21,2.49-.23,5-.29,7.5,0,1.09-.06,2.18,0,3.28,0,1.29.14,2.56.26,3.85a41.66,41.66,0,0,0,1.42,8.3,21,21,0,0,0,4.4,7.58,23.08,23.08,0,0,0,3.31,2.76,16.25,16.25,0,0,0,4.5,2.66,18.2,18.2,0,0,0,3.66.7,11.7,11.7,0,0,0,2,.09A10.43,10.43,0,0,0,26.84,293a46.65,46.65,0,0,0,4.33-5.39c.53-.8,1-1.64,1.49-2.46s1.13-1.77,1.61-2.7c1.83-3.51,3.37-7.18,4.9-10.83l.57-1.31c.18-.44.37-.87.55-1.3a5.44,5.44,0,0,0-6.68-6.68,5.7,5.7,0,0,0-3.25,2.49,23.49,23.49,0,0,0-2,4c-1.2,2.69-2.43,5.38-3.74,8-.56,1.14-1.31,2.21-2,3.3-.56.93-1.1,1.86-1.73,2.74-.32.4-.66.79-1,1.19s-.86,1-1.33,1.49l-.56,0-.63-.15a25.41,25.41,0,0,1-2.62-1.75,12,12,0,0,1-1.09-1.05,21.54,21.54,0,0,1-1.4-2.36,26.43,26.43,0,0,1-1.07-4.72c-.18-1.65-.35-3.29-.39-4.95s0-3.48.06-5.21c.08-3.5.27-7,.69-10.44.11-.79.21-1.57.32-2.36.45-3.29.91-6.57,1.51-9.84a73.83,73.83,0,0,1,2.74-10q1.73-5.22,3.41-10.46c1-3.09,2.16-6.1,3.35-9.11l2.52-5.43c.48-1,1.13-2,1.68-3,.65-1.17,1.31-2.32,2-3.47a5.23,5.23,0,0,0-1.86-7.09,5.13,5.13,0,0,0-2.57-.7A5.26,5.26,0,0,0,20.16,196Zm19.5,74.45-.43,1,.43-1Z"/><path class="cls-1" d="M241.36,189.09a5.16,5.16,0,0,0-2.37,3.08c-.06.46-.13.91-.18,1.37a5,5,0,0,0,.7,2.6c1,2.42,2.18,4.78,3.39,7.11a62.93,62.93,0,0,0,3.77,6.18c2.44,3.65,5.2,7.08,7.05,11.07.65,1.61,1.28,3.22,1.85,4.86.69,2,1.26,4,1.87,6,1.1,3.64,2.28,7.24,3.13,10.94.42,1.83.83,3.66,1.27,5.49s.91,3.38,1.24,5.1c.76,4,1.34,8,2,12a38,38,0,0,1,.33,7.15,21.74,21.74,0,0,1-1.19,3.91,19.34,19.34,0,0,1-.87,1.77l-.09.09c-.5.32-1,.61-1.53.89a5.52,5.52,0,0,1-.54.16,10.28,10.28,0,0,1-1.11,0,21.34,21.34,0,0,1-2.49-.69,27.38,27.38,0,0,1-3.8-2.32c-.48-.4-1-.81-1.43-1.25a19.61,19.61,0,0,1-2-2.31c.25.31.5.63.74.95a44.16,44.16,0,0,1-4.54-7.16,35,35,0,0,0-1.76-3.9,5.47,5.47,0,0,0-6.13-2.49c-2.71.74-4.75,3.87-3.79,6.67a38.79,38.79,0,0,0,3.31,7.66c.64,1.06,1.37,2.06,2.09,3.07,1,1.38,2,2.75,3.11,4a26,26,0,0,0,6.6,5.19,21,21,0,0,0,7.37,2.83,15.53,15.53,0,0,0,6.78-.2,14.58,14.58,0,0,0,4.53-2.3,11.44,11.44,0,0,0,3.24-3.15,15.36,15.36,0,0,0,1-2c.65-1.45,1.27-2.92,1.82-4.41a16.55,16.55,0,0,0,.7-3.1,25.69,25.69,0,0,0,.28-4.87,73.78,73.78,0,0,0-1-8.52,144.38,144.38,0,0,0-2.67-14.44c-.6-2.36-1.12-4.74-1.65-7.11s-1.26-4.88-2-7.29-1.47-4.87-2.22-7.3-1.75-5-2.79-7.49a36.83,36.83,0,0,0-3.73-6.87c-1.5-2.14-3.05-4.25-4.52-6.41a63.64,63.64,0,0,1-3.62-6c-1.15-2.19-2.22-4.42-3.19-6.71a5,5,0,0,0-3.09-2.37,5.18,5.18,0,0,0-1.36-.18,5.12,5.12,0,0,0-2.61.71Zm23,86.29v0Z"/><path class="cls-1" d="M306.24,143.92a27.92,27.92,0,0,0-6.1,1.12c-1.07.31-2.13.69-3.18,1.08l-1.93.71c-.4.15-.79.31-1.17.47l-.06,0-1.91.81c-4.58,2-8.28,5.55-11.85,9a36.86,36.86,0,0,0-5.77,6.76,48.45,48.45,0,0,0-3.2,6.15c-.65,1.44-1.23,2.92-1.77,4.41-.22.6-.43,1.21-.64,1.82a18.88,18.88,0,0,0-.81,4.21,44.74,44.74,0,0,0,.1,7.32,54.31,54.31,0,0,0,1.16,8.69c.55,2.45,1.26,4.83,2,7.22s1.58,5,2.31,7.56c.68,2.33,1.29,4.67,2.08,7s1.64,4.61,2.44,6.92,1.57,4.86,2.32,7.3,1.54,5.15,2.27,7.74a76.88,76.88,0,0,1,1.66,7.84c.37,2.94.66,5.88.75,8.85a63.63,63.63,0,0,1-.61,9.74c-.49,2.78-1.07,5.55-1.7,8.32-.31,1.35-.63,2.7-1,4s-.93,2.68-1.44,4c-1,2.27-2,4.52-3.13,6.71a74.17,74.17,0,0,1-5,8.65,65,65,0,0,1-6.88,6.9,60.61,60.61,0,0,1-5.45,3.48c-1.82,1-3.62,2.11-5.52,3a44.66,44.66,0,0,1-8.36,2.32,22.42,22.42,0,0,1-2.84.15c-1.05,0-2.09-.11-3.12-.23a15,15,0,0,1-2.46-.62,15.43,15.43,0,0,1-1.53-.87c-.21-.21-.41-.41-.6-.63s-.15-.22-.22-.33a4.86,4.86,0,0,0-6.53-1.71,4.8,4.8,0,0,0-1.71,6.53,18.44,18.44,0,0,0,2.3,2.9,16.15,16.15,0,0,0,3.5,2.41,17.91,17.91,0,0,0,6.31,1.91,41.77,41.77,0,0,0,4.47.45,26.36,26.36,0,0,0,4.77-.36,41.36,41.36,0,0,0,13.23-4.22c2-1,4-2.18,6-3.39a41.92,41.92,0,0,0,6.64-5,68.65,68.65,0,0,0,5.82-6,51.55,51.55,0,0,0,5.25-8.42,98.51,98.51,0,0,0,6.56-14.69,54.39,54.39,0,0,0,1.68-6.65c.64-3,1.2-5.86,1.59-8.85.16-1.17.28-2.35.37-3.53.09-1.34.25-2.69.27-4,0-2.49-.11-4.94-.32-7.41a92.13,92.13,0,0,0-2.76-15.74c-1-3.74-2.07-7.49-3.28-11.17s-2.49-7.29-3.7-11c-.57-1.72-1-3.51-1.47-5.25-.58-2-1.2-4.09-1.83-6.12s-1.27-4-1.85-6a50.74,50.74,0,0,1-1.15-5.17c-.19-1.75-.32-3.5-.43-5.26a41.34,41.34,0,0,1-.07-5.22,30.33,30.33,0,0,1,1-3.24c.33-1,.69-1.92,1.07-2.86a37,37,0,0,1,3.16-6,67,67,0,0,1,8.9-8.68,29.08,29.08,0,0,1,4.54-2.57l.4-.17a50.72,50.72,0,0,1,7.7-2.46,19.4,19.4,0,0,1,3.32,0c1.17.1,2.33.24,3.5.37l.79.13a20.15,20.15,0,0,1,3.12,1c1.05.4,2.09.81,3.13,1.24l-.71-.3a36,36,0,0,1,6.16,3,14.46,14.46,0,0,1,1.53,1.6c.23.31.45.62.66,1a8,8,0,0,1,.57,1.09,16.54,16.54,0,0,1,.79,3.32,28.86,28.86,0,0,1,.08,4.83,20.58,20.58,0,0,1-1.09,3.33,27.79,27.79,0,0,1-2.29,4.18c-.39.43-.8.85-1.22,1.24a27.89,27.89,0,0,1-4.62,2.59c-1.16.53-2.33,1-3.45,1.62a27.12,27.12,0,0,0-3.25,2c-1.15.82-2.29,1.66-3.36,2.58a18.08,18.08,0,0,0-3.32,3.77,18.7,18.7,0,0,0-1.88,4.09c-.35,1-.67,2-1,3a38.46,38.46,0,0,0-1.39,8,59,59,0,0,0-.15,7.4c.11,2.32.16,4.64.31,7,.17,2.88.56,5.76,1,8.61.68,4.27,1.76,8.45,2.53,12.71.69,3.83,1.3,7.68,1.9,11.52.59,5.27,1.07,10.54,1.8,15.79.25,2.05.39,4.1.46,6.15a49,49,0,0,1-.09,6.41,79.92,79.92,0,0,1-2.08,8.61c-.79,2.82-1.52,5.66-2.57,8.4a61.41,61.41,0,0,1-6.57,11.17,36.28,36.28,0,0,1-3.16,3.51c-1.36,1.3-2.9,2.41-4.35,3.61s-2.76,2.2-4.1,3.34-2.74,2.43-4.16,3.59a47.75,47.75,0,0,1-4.89,2.87c-1.64.89-3.23,1.82-4.93,2.6-2.38,1-4.74,2-7.08,3-2.06.76-4.2,1.22-6.31,1.81a67,67,0,0,1-6.69,1.59,33.85,33.85,0,0,1-6.6.05c-2.33-.38-4.67-.76-7-1.2a45,45,0,0,1-6.68-1.66,12.38,12.38,0,0,1-1.22-.7,36.33,36.33,0,0,0-5.19-4.07,5.82,5.82,0,0,0-8.75,5,6.17,6.17,0,0,0,1.71,4.12,21.09,21.09,0,0,0,1.86,1.67c.67.6,1.36,1.19,2.06,1.75a19.18,19.18,0,0,0,3.39,2.35,26.37,26.37,0,0,0,4.51,1.69,62.46,62.46,0,0,0,7,1.36c2.77.42,5.54.91,8.32,1.21A32.64,32.64,0,0,0,254,349a50.24,50.24,0,0,0,6.78-1.48c2.37-.67,4.79-1.22,7.11-2a41.68,41.68,0,0,0,4.12-1.79c.76-.36,1.53-.69,2.3-1a62.06,62.06,0,0,0,6.93-3.19c2-1.13,4-2.18,6-3.41a53.93,53.93,0,0,0,6.5-5.28c1.63-1.45,3.37-2.79,5-4.19a65.23,65.23,0,0,0,4.92-4.32,58.83,58.83,0,0,0,5-6.32,48.85,48.85,0,0,0,3.46-5.61,62.85,62.85,0,0,0,3.61-7.87c.9-2.43,1.49-5,2.19-7.47.75-2.68,1.53-5.34,2-8.09,1.1-6.23.62-12.53-.23-18.75-.37-3.14-.7-6.28-1-9.43-.22-2.21-.43-4.42-.77-6.62-.26-1.68-.54-3.34-.81-5q-.87-5.42-2-10.79c-.35-1.7-.81-3.38-1.17-5.07s-.62-3.38-.88-5.07c-.17-1.41-.31-2.82-.4-4.24-.12-1.74-.15-3.49-.23-5.24a69.15,69.15,0,0,1,.26-10,39,39,0,0,1,1.88-6.76,12.67,12.67,0,0,1,.81-1.44,18.17,18.17,0,0,1,2-1.89,30.07,30.07,0,0,1,5.18-3.22,44.75,44.75,0,0,0,6.09-3.21,23.2,23.2,0,0,0,3.15-2.52,21.75,21.75,0,0,0,2.77-3.5,35.85,35.85,0,0,0,3.4-7.29,20.72,20.72,0,0,0,1.14-8,41.73,41.73,0,0,0-.48-4.45,23.18,23.18,0,0,0-.67-3.19,24.13,24.13,0,0,0-1.35-3.2,21.65,21.65,0,0,0-3.23-4.5,16.49,16.49,0,0,0-3.28-2.79,16.89,16.89,0,0,0-2.7-1.41c-2.47-1.16-5-2.2-7.57-3.19-.52-.2-1.06-.39-1.59-.58a20,20,0,0,0-4.52-1c-1.35-.18-2.7-.32-4.05-.46a26.54,26.54,0,0,0-2.83-.2l-.74,0Zm5.1,10.83.44.06-.44-.06Z"/><path class="cls-1" d="M133.87,153.77A4.63,4.63,0,0,0,131,156q-1.71,3.88-3.43,7.79c-1,2-2.11,3.84-3.22,5.73-.68,1.18-1.37,2.35-2,3.52a10,10,0,0,0-1.63,4.54,5.23,5.23,0,0,0,.66,2.84,5.81,5.81,0,0,0,2,1.89,4.83,4.83,0,0,0,5,0c2-1.25,3.13-3.32,4.08-5.42q1-2.23,2-4.47l1.26-2.88c.27.32.55.64.84,1,1.53,1.66,3.56,2.81,5.11,4.45a11.45,11.45,0,0,1,.57,1.1,5.07,5.07,0,0,0,1.84,1.84,5.11,5.11,0,0,0,7.51-5.78,10.5,10.5,0,0,0-2.12-3.84,16.38,16.38,0,0,0-2.64-2.28c-.72-.54-1.46-1-2.19-1.57a23.86,23.86,0,0,1-3-3c-.49-.66-1-1.33-1.43-2a.71.71,0,0,0-.1-.14,4.8,4.8,0,0,0-2.33-5,4.86,4.86,0,0,0-2.46-.67,4.65,4.65,0,0,0-1.28.18Z"/><path class="cls-1" d="M131.62,146.21a33.14,33.14,0,0,0-3.29.53l-1.94.82-1,.75a4.05,4.05,0,0,0-1.31,1.42,4.63,4.63,0,0,0-.89,1.72c-.06.43-.11.86-.17,1.28a3.7,3.7,0,0,0,.08,2,6.34,6.34,0,0,0,.91,1.82,6.46,6.46,0,0,0,2.12,2,19.29,19.29,0,0,0,4.71,1.61c1.24.31,2.5.58,3.76.87a5,5,0,0,0,5.3-2c1-.12,1.89-.26,2.83-.42a6.37,6.37,0,0,0,4.48-3.16,4.72,4.72,0,0,0,0-4.75,12.66,12.66,0,0,0-.93-1.25c-.51-.45-1.05-.85-1.59-1.25a7.57,7.57,0,0,0-1.1-.65,20.68,20.68,0,0,0-2.53-1,15.37,15.37,0,0,0-3.75-.6c-.42,0-.83,0-1.25,0a37.08,37.08,0,0,0-4.46.37Z"/><path class="cls-1" d="M163.09,89.34a4.9,4.9,0,0,0-1.39,3.34c-.24,4.18-.55,8.37-.67,12.55-.07,2-.08,4,0,6,0,.81.08,1.63.12,2.45a18.37,18.37,0,0,0,.33,3,11.15,11.15,0,0,0,1.25,3.15,9.13,9.13,0,0,0,2.17,2.5,4.78,4.78,0,0,0,2.13,1.24c.56.09,1.12.16,1.69.21a7.86,7.86,0,0,0,1.67-.27,4.78,4.78,0,0,0,2.13-1.24,9.83,9.83,0,0,0,2.5-4,33.09,33.09,0,0,0,1.41-6.68,30.65,30.65,0,0,0,.34-3.7,15.78,15.78,0,0,0-.76-4.61,32.08,32.08,0,0,0-1.47-3.73c-.59-1.51-1.13-3-1.83-4.49a4.86,4.86,0,0,0-1.58-1.64c0-.27,0-.53.05-.8a4.72,4.72,0,0,0-8.06-3.34Z"/><path class="cls-1" d="M88.42,95.24a4.7,4.7,0,0,0-1.32,3.17c-.3,4.89-.45,9.77-.52,14.67,0,1.69,0,3.37,0,5.06a35.12,35.12,0,0,0,.71,7.59,6.38,6.38,0,0,0,4.8,4.72,4.1,4.1,0,0,0,1.55.15,6.14,6.14,0,0,0,2.66-.72,7.21,7.21,0,0,0,2.14-1.66,10.76,10.76,0,0,0,1.53-2.13,22.85,22.85,0,0,0,1.36-3.5,22.31,22.31,0,0,0,.7-4.44,37.35,37.35,0,0,0,.22-4,42.87,42.87,0,0,0-.69-6.68c-.14-.93-.31-1.85-.54-2.77a19.41,19.41,0,0,0-2.39-5.87,5,5,0,0,0-2.86-2.2h0a4.71,4.71,0,0,0-4.18-2.75,4.5,4.5,0,0,0-3.17,1.31Z"/><path class="cls-1" d="M121.66,43.55c-3.79,0-7.58.18-11.37.33A4.33,4.33,0,0,0,106,48.16a4.09,4.09,0,0,0,.14,1.05c-.29.21-.57.43-.85.65a5.58,5.58,0,0,0-1.3,2.46,4.54,4.54,0,0,0,.46,3.49,4.66,4.66,0,0,0,2.51,2l-1.08.47a19,19,0,0,0-2,1,4.78,4.78,0,0,0-2.2,5.39c.42,1.26,1.13,2.81,2.44,3.39.52.23,1,.46,1.57.67A17.3,17.3,0,0,0,108,69c1.88,0,3.76,0,5.64,0,2.31-.09,4.62-.18,6.93-.3a5.43,5.43,0,0,0-.06,2.88,5.33,5.33,0,0,0,2.39,3.08,18.41,18.41,0,0,0,2.49,1.09,18.92,18.92,0,0,0,2.79.68l.31.07a6.92,6.92,0,0,0-2.42,1.45,5.28,5.28,0,0,0-1.4,5,5.94,5.94,0,0,0,3.38,3.64,19.88,19.88,0,0,0,4.62,1.39,8.84,8.84,0,0,0-1.1,2.3,8.16,8.16,0,0,0-.28,1.7,8.74,8.74,0,0,0,.07,1c0,.21,0,.42,0,.63A4.63,4.63,0,0,0,136,98.12a4.56,4.56,0,0,0,3.23-1.35,4.77,4.77,0,0,0,1.35-3.23c0-.26,0-.52,0-.76a10,10,0,0,1,.55-.88,20.62,20.62,0,0,0,1.23-1.76,12.3,12.3,0,0,0,.9-2.19,11.21,11.21,0,0,0,.43-2.21,6,6,0,0,0-.93-3.74l.32-.09q1.66-.45,3.27-1a18.82,18.82,0,0,0,2.81-1.1,8.29,8.29,0,0,0,2-1.55A4.63,4.63,0,0,0,152.53,75a4.78,4.78,0,0,0-1.34-3.23,5.9,5.9,0,0,0-2.11-1.48,4.64,4.64,0,0,0,1-7.31l-.95-.72a4.3,4.3,0,0,0-.75-.36h.77a4.58,4.58,0,0,0,4.42-5.8,4.86,4.86,0,0,0-2.11-2.74l-.37-.25c.39,0,.78.07,1.17.08a4.29,4.29,0,0,0,1.14-8.42,13.91,13.91,0,0,0-3.1-.37c-1.61-.21-3.22-.39-4.84-.49-1.92-.12-3.81-.16-5.74-.17-.56,0-1.11,0-1.67,0-1.81-.09-3.62-.16-5.44-.19q-3.22,0-6.46,0l-4.47,0Zm13.06,41.28-.15.37v0l.15-.35Z"/><path class="cls-1" d="M29.2,119.3a4.69,4.69,0,0,0-1.29,3.12c-.33,4.06-.36,8.14-.49,12.22-.05,1.61.07,3.26.11,4.87s0,3.18.12,4.77c.2,3.6.37,7.21.68,10.81a38.59,38.59,0,0,0,.84,6.06c.15.59.45,1.15.66,1.73s.34,1,.52,1.43a18.15,18.15,0,0,0,1.58,3.93,4.54,4.54,0,0,0,3.81,2.18,4.33,4.33,0,0,0,2.22-.6l.89-.69A4.41,4.41,0,0,0,40,167.19a32,32,0,0,0,1.56-6c.25-1.16.48-2.31.72-3.47.09-.43.18-.86.26-1.28.06.42.11.85.17,1.28A13.61,13.61,0,0,0,44,162.78a5,5,0,0,0,3,2.41,8.6,8.6,0,0,0,1.6.25l1.68-.22c.5-.2,1-.4,1.5-.62s.92-.7,1.35-1.08.72-.93,1.07-1.41A8.23,8.23,0,0,0,54.7,161a30.62,30.62,0,0,0,1.3-3.2q.11-.28.18-.57a3.44,3.44,0,0,0,.77.7,4.55,4.55,0,0,0,1.44,1,7.49,7.49,0,0,0,1.63.62,7,7,0,0,0,6.52-1.69,12,12,0,0,0,1-1.05l.42.7a32.31,32.31,0,0,0,4.36,6.22,4.8,4.8,0,1,0,6.79-6.79,6.2,6.2,0,0,1-.44-.45,68.82,68.82,0,0,1-4.44-7.12c-.44-.8-.86-1.6-1.28-2.41-.36-.48-.72-.95-1.09-1.42a5.44,5.44,0,0,0-1.55-1.05,4.63,4.63,0,0,0-2.38-.65,7.5,7.5,0,0,0-1.89.34c-1.72.47-2.67,1.8-3.56,3.19-.13-.53-.27-1.06-.41-1.59a41.21,41.21,0,0,0-1.27-4.19c-.19-.55-.42-1.09-.66-1.62a3.47,3.47,0,0,0-.94-1.45,5.4,5.4,0,0,0-6.54-1.29A4.58,4.58,0,0,0,50.5,140c-.17.66-.32,1.32-.47,2v-.09c-.15-1.67-.29-3.33-.46-5a22.12,22.12,0,0,0-.79-4.43,5.4,5.4,0,0,0-3.56-3.56,4.87,4.87,0,0,0-4.59,1.26,8.34,8.34,0,0,0-1.79,3.39c-.32,1-.6,2-.88,3.06-.56,2.07-1.06,4.16-1.54,6.26,0-.27,0-.54,0-.82-.06-2.75-.23-5.51-.14-8.26.12-3.79.16-7.58.46-11.35a4.27,4.27,0,0,0-1.29-3.12,4.39,4.39,0,0,0-6.22,0Zm48.9,36.52c.12.14.23.29.34.44l-.34-.44Z"/><path class="cls-1" d="M234.57,126.46a4.27,4.27,0,0,0-2.56,2c-.15.34-.29.68-.43,1a4.2,4.2,0,0,0,0,2.28,1.11,1.11,0,0,0,0,.17c.11.9.2,1.8.28,2.7l-.36-.14a10.79,10.79,0,0,0-1.5-.19c-1.77-.11-3.38,1.2-4.3,2.58a17.81,17.81,0,0,0-2.36,6.63c0,.14-.05.27-.07.41-.48-1.28-1-2.55-1.54-3.8a10,10,0,0,0-2.4-3.84,4.54,4.54,0,0,0-2-1.2,7.27,7.27,0,0,0-1.54-.24l-1.55.21a6,6,0,0,0-2.48,1.59,8.83,8.83,0,0,0-1.87,3.29,32.77,32.77,0,0,0-1.15,3.73c-.26,1-.45,2-.64,3.08-.51-.08-1-.13-1.56-.16a4.78,4.78,0,0,0-2.37.64,7.62,7.62,0,0,0-.69.38,6.36,6.36,0,0,0-1.87-1.89,4.89,4.89,0,0,0-2.89-1,6.43,6.43,0,0,0-2.89.68,7.7,7.7,0,0,0-3.36,5.23,5,5,0,0,0,.48,3.6,4.67,4.67,0,0,0,2.79,2.15,4.87,4.87,0,0,0,1.61.15c.5,1.5,1,3,1.61,4.45a4.51,4.51,0,0,0,2.82,2.17,4.77,4.77,0,0,0,4.16-.83c.17.39.33.78.5,1.16s.62.82.94,1.22a4.56,4.56,0,0,0,2.08,1.21,4.65,4.65,0,0,0,2.51,0,9.21,9.21,0,0,0,1.31-.53,4.83,4.83,0,0,0,2.17-2.82,21.92,21.92,0,0,0,.51-3c.14-1,.21-2.08.29-3.12s.2-2.39.32-3.58c.18.54.36,1.08.55,1.61a110.19,110.19,0,0,0,4.43,11.85,4.49,4.49,0,0,0,2.78,2.13,4.58,4.58,0,0,0,4.52-1.19,6,6,0,0,0,1.5-2.41,14.73,14.73,0,0,0,.32-3c0-.77.11-1.54.16-2.3.1-1.34.2-2.69.31-4,0-.31,0-.62.07-.92.24.9.49,1.8.77,2.69s.56,1.75.87,2.62a11.77,11.77,0,0,0,.93,2.42,4.53,4.53,0,0,0,2.78,2.18,4.68,4.68,0,0,0,3.4-.45,4.22,4.22,0,0,0,2-2.63,9.6,9.6,0,0,0,.1-2.67l-.12-1.52c-.1-1.44-.2-2.88-.29-4.32-.14-2.05-.25-4.11-.38-6.17-.32-5.75-.62-11.51-1.43-17.22a4.07,4.07,0,0,0-2-2.55,4.23,4.23,0,0,0-2.16-.59,4,4,0,0,0-1.13.16Z"/><path class="cls-1" d="M233,212.18c-.19,4.89-.32,9.79-.42,14.68-.28-1.34-.56-2.68-.85-4-.12-.59-.27-1.19-.41-1.78a10.54,10.54,0,0,0-.34-1.13c-.22-.55-.46-1.1-.7-1.64a11.54,11.54,0,0,0-.92-1.17,4.36,4.36,0,0,0-3.14-1.3,4.55,4.55,0,0,0-3.14,1.3,13.36,13.36,0,0,0-3,5.14Q219,225.11,218,228c-.53,1.56-1,3.12-1.58,4.66-.76,2.07-1.53,4.12-2.34,6.17-.06-.39-.13-.77-.19-1.16a40.71,40.71,0,0,0-1.27-6.69,4.55,4.55,0,0,0-1.18-2,4.47,4.47,0,0,0-3.23-1.34,14.81,14.81,0,0,0-1.88.21l-.6.15a4.57,4.57,0,0,0-2,1.18,9.76,9.76,0,0,0-2.3,2.92c-.27.47-.52,1-.77,1.44a7.06,7.06,0,0,0-1.53-2.12,3.85,3.85,0,0,0-1.24-.88,4.75,4.75,0,0,0-2.39-.64,6,6,0,0,0-3.2.72,4.21,4.21,0,0,0-1.09-.72l-1.15-.49c-.52-.08-1-.15-1.56-.19a4.61,4.61,0,0,0-3.38,1.4,4.77,4.77,0,0,0,0,6.75l.53.41c.15,1.25.3,2.49.48,3.73a4.81,4.81,0,0,0,1.24,2.12,4.74,4.74,0,0,0,3.39,1.41,6,6,0,0,0,2.58-.59c.05.55.09,1.1.14,1.64a24.55,24.55,0,0,0,.31,2.58,10.67,10.67,0,0,0,1,2.6,4.62,4.62,0,0,0,4,2.3,4.76,4.76,0,0,0,4-2.3,32,32,0,0,0,2.43-5.44c.19-.45.37-.91.56-1.37a22.86,22.86,0,0,0,1.53,4.7,9.25,9.25,0,0,0,1.59,2.71,5.29,5.29,0,0,0,2.8,1.67,6.54,6.54,0,0,0,6.39-2.51,16.87,16.87,0,0,0,2.43-4.11c1.42-3.17,2.65-6.44,3.8-9.72.31-.85.6-1.7.89-2.55.11.52.22,1,.34,1.58,1.1,5,2.18,10.09,3.59,15.07.18.62.35,1.24.54,1.86a14.77,14.77,0,0,0,1.73,3.71,5.09,5.09,0,0,0,6.91,1.92,4.32,4.32,0,0,0,1.56-1.56,7.58,7.58,0,0,0,.62-1.36,77.68,77.68,0,0,0,.41-9.89q0-7.65.14-15.3.1-9.26.47-18.5a4.27,4.27,0,0,0-4.25-4.25,4.32,4.32,0,0,0-4.27,4.25Zm-47.74,24.66.18.22-.18-.22Zm6.73.55.06.08-.06-.08Zm-6.31.64s0,.09,0,.13V238Zm11.7.38-.26.2.26-.2Zm13.55,6.83a2.72,2.72,0,0,1-.38.29l.38-.29ZM203,247l.09.22L203,247Z"/><path class="cls-1" d="M226.74,287.44c-.58,1-1.16,2-1.73,3a4.61,4.61,0,0,0-2.07-2.65,4.6,4.6,0,0,0-5.5.7c-.76.71-1.5,1.4-2.2,2.16s-1.33,1.6-2,2.38l-2.1,2.33-.49.54a4.43,4.43,0,0,0-.43-1c-.34-.47-.71-.93-1.09-1.37a4.64,4.64,0,0,0-2.54-1.3c-1.71-.42-3.13.18-4.65.87-1.16.53-2.29,1.13-3.43,1.71l-.07,0a4.36,4.36,0,0,0,0-.51,6.41,6.41,0,0,0-.78-3.26,5.43,5.43,0,0,0-4.42-2.57c-2.41,0-4.32,1.45-6.11,2.86h0l-.49-.63a11.2,11.2,0,0,0-1.74-1.34,8.67,8.67,0,0,0-3.83-1,11.69,11.69,0,0,0-1.45,0,4.69,4.69,0,0,0,0,9.38H180a7,7,0,0,0,1.55,2.67A6.94,6.94,0,0,0,184,302a5.66,5.66,0,0,0,3.68.23,10,10,0,0,0,1-.37,6.14,6.14,0,0,0,2.78,4.11,5.24,5.24,0,0,0,3.92.47,19.8,19.8,0,0,0,2.63-1.06c.34-.16.68-.32,1-.5l-.76,1.89a12,12,0,0,0-.73,2,4.86,4.86,0,0,0,.11,2.8,4.63,4.63,0,0,0,6.79,2.76,13.35,13.35,0,0,0,2.94-2.25l.83-.77c-.13.72-.24,1.44-.34,2.16-.15,1-.3,2-.44,3.08s-.3,2.29-.41,3.44a9.67,9.67,0,0,0,.51,3.88,4.63,4.63,0,0,0,2.08,2.71,4.52,4.52,0,0,0,4.58,0c.61-.4,1.18-.86,1.75-1.32.39-.5.77-1,1.14-1.52s.48-.88.69-1.34c.31-.65.67-1.29,1-1.92l1.8-3.37c1.32-2.5,2.63-5,4-7.5,1.46-2.67,2.86-5.38,4.37-8,1.84-3.23,3.68-6.46,5.55-9.67a4.54,4.54,0,0,0-1.61-6.16,4.42,4.42,0,0,0-2.24-.61,4.56,4.56,0,0,0-3.93,2.22Zm-47.47,9a2.31,2.31,0,0,1,.31.39l-.31-.39Zm1.76,1.44.25.11-.25-.11ZM206.48,311h0v0Z"/><path class="cls-1" d="M33.86,216.73c-.29,6.53-.57,13.09-.54,19.64,0,2.83,0,5.66.1,8.49.08,1.67.13,3.34.24,5,.12,1.91.4,3.79.68,5.68a6,6,0,0,0,1.61,3.1A6.67,6.67,0,0,0,39,260.2a4.5,4.5,0,0,0,3.44-.46,4.71,4.71,0,0,0,2-2.66l.63-1.68.42.49a4.44,4.44,0,0,0,5.44.7,13.54,13.54,0,0,0,1.51-1.1,9.33,9.33,0,0,0,1.59-1.89,12.73,12.73,0,0,0,.75-1.64c.25-.62.48-1.24.7-1.86h0a3.62,3.62,0,0,0,.73.89,6.67,6.67,0,0,0,2.33,1.43,6.34,6.34,0,0,0,3,0,5.65,5.65,0,0,0,1.68-.61,11.76,11.76,0,0,0,2.1-1.46l.38-.45a13.35,13.35,0,0,0,1-1.42,4.12,4.12,0,0,0,.27-.45,4.82,4.82,0,0,0,3,1,6.73,6.73,0,0,0,5-2.35,11.91,11.91,0,0,0,1.2-1.62,4.72,4.72,0,0,0,6.06-.45,4.67,4.67,0,0,0,0-6.53,20.26,20.26,0,0,0-2.94-2.84,4.57,4.57,0,0,0-1-.62,4.52,4.52,0,0,0-2.32-.63,5.74,5.74,0,0,0-3.51.72l-.09,0c-.07-.64-.14-1.27-.24-1.91s-.42-1.06-.65-1.58a6.53,6.53,0,0,0-2-1.89A4.33,4.33,0,0,0,66,229a4.64,4.64,0,0,0-3.16,3.16c-.53,1.56-.93,3.16-1.4,4.74l-.27.87c-.06-.28-.13-.56-.2-.84-.19-.78-.36-1.56-.58-2.33A9.39,9.39,0,0,0,58.16,231a4.48,4.48,0,0,0-7,.9,14,14,0,0,0-1.39,3.23c-.18.66-.23,1.36-.36,2-.07.33-.13.67-.2,1-.09-.77-.18-1.53-.24-2.3l-.27-3.17a5.83,5.83,0,0,1,0-.59,8.09,8.09,0,0,0-.22-2.22c-.2-.49-.41-1-.62-1.48a5,5,0,0,0-1.92-1.77,4.36,4.36,0,0,0-3.47-.39q.13-4.74.35-9.48a4.47,4.47,0,0,0-8.94,0ZM58.79,244a3.5,3.5,0,0,1-.43.33l.43-.33Z"/><path class="cls-1" d="M108.82,298.53a6.61,6.61,0,0,0-3.07,3.19,37.55,37.55,0,0,0-1.31,4c-.32,1-.63,2-1,2.94-.4-.44-.77-.89-1.14-1.34l-.31-.44a4.71,4.71,0,0,0-1.66-1.66,5,5,0,0,0-4.11-.63,2.9,2.9,0,0,0-1.32.63L94,306a4.58,4.58,0,0,0-1.19,2,15.77,15.77,0,0,0-.38,3.34c0,.13,0,.26-.07.39-.25-.26-.5-.52-.74-.79a12.66,12.66,0,0,0-2.08-2.41,4.81,4.81,0,0,0-3.2-1.33,4.63,4.63,0,0,0-3.19,1.33c-2.37,2.13-1.66,5.36-1.33,8.15.16,1.37.33,2.73.46,4.1,0,.05,0,.11,0,.16l-3.16-2.83c-1-.9-1.95-1.88-2.92-2.83-.53-.51-1-1-1.55-1.56A9.09,9.09,0,0,0,72.42,312a6.09,6.09,0,0,0-3.17-.64,4.59,4.59,0,0,0-4,2.58c-2-3.32-4-6.64-5.95-10a4.43,4.43,0,1,0-7.65,4.47c2,3.51,4.12,7,6.22,10.46.57.94,1.09,1.94,1.73,2.84l2.51,3.6,2.73,3.9c.86,1.22,1.86,2.37,2.8,3.54l3.28,4.11c.48.61,1,1.2,1.47,1.78a23.92,23.92,0,0,0,1.78,2,5,5,0,0,0,6.47.66,4.54,4.54,0,0,0,2.07-5.09c-.47-1.49-1-2.92-1.61-4.37,0-.1-.09-.21-.13-.32.21.19.43.36.65.53l.91.71c.5.22,1,.43,1.51.62a5.23,5.23,0,0,0,4.49-.95,4.52,4.52,0,0,0,1.61-1.61,10,10,0,0,0,.88-2,12.63,12.63,0,0,0,.33-2.38c.08-.75.12-1.49.13-2.25s0-1.24,0-1.86l.13.06a9.13,9.13,0,0,0,2.55.3A6,6,0,0,0,98,321.05a8.57,8.57,0,0,0,2.14-3.05c.14.08.28.16.43.23a8.81,8.81,0,0,0,5.95.89c4-1.1,5.28-5.51,6.42-9,.17-.51.32-1,.47-1.54a4.48,4.48,0,0,0,1.34.19,4.73,4.73,0,0,0,4.73-4.73,4.59,4.59,0,0,0-1.39-3.35c-.38-.33-.75-.67-1.15-1a9,9,0,0,0-3.32-1.86,5,5,0,0,0-1.38-.19,7.94,7.94,0,0,0-3.39.88ZM94.67,313.71l.43.18a3.25,3.25,0,0,1-.43-.18ZM80.94,331.45l.19.14-.18-.14Z"/><path class="cls-1" d="M251.63,314.54c-1.12.07-2.24.15-3.36.29a23.27,23.27,0,0,0-2.61.43,4.89,4.89,0,0,0-4,3.69,4.36,4.36,0,0,0,1.11,4.2l.28.23a4.26,4.26,0,0,0,1.9,1.11c.38.14.77.26,1.16.38a32.53,32.53,0,0,0-3.46,2.31,4.37,4.37,0,0,0-1.12,4.26l.06.26a4.06,4.06,0,0,0,1.44,2.23c-.1.23-.19.47-.26.69-.72,2.08.69,4.46,2.46,5.49a7.11,7.11,0,0,0,3.45.79c1,0,2.06,0,3.08,0s1.88-.05,2.81-.06a5.25,5.25,0,0,0,.87.66,4.37,4.37,0,0,0,6-1.57,4.6,4.6,0,0,0,.45-3.37,8.58,8.58,0,0,0-.75-1.93,4.4,4.4,0,0,0-1.56-1.56,5.56,5.56,0,0,0-1.55-.75H258a4.31,4.31,0,0,0,1-2.71,4.25,4.25,0,0,0-.59-2.18,4.67,4.67,0,0,0-.55-.75,6.21,6.21,0,0,0,1-2.16,5.13,5.13,0,0,0-2.7-5.63l-.12-.06a4.35,4.35,0,0,0-4.07-4.27Z"/><path class="cls-1" d="M282.55,286.87l-.9.69a4.48,4.48,0,0,0-1.13,1.94c-.31.77-.63,1.53-.94,2.29-.78,1.84-1.57,3.68-2.41,5.49-.48,1-1,2.07-1.45,3.11-.22.48-.44,1-.65,1.44-.29.63-.55,1.28-.8,1.93a5.58,5.58,0,0,0-.08,3.11,4.27,4.27,0,0,0,2,2.65,4.46,4.46,0,0,0,4.47,0c1.56-.73,3.08-1.54,4.58-2.4a8.7,8.7,0,0,0,.23,1.13,4.48,4.48,0,0,0,4.32,3.28,6.37,6.37,0,0,0,1.23-.09A4.45,4.45,0,0,0,293,311a13.26,13.26,0,0,0,1.91-.89c-.09.31-.19.62-.29.94a4.6,4.6,0,0,0,8.87,2.44c.56-1.74,1-3.5,1.6-5.23s1.19-3.26,1.8-4.89a8,8,0,0,0,.94-3.1,5.13,5.13,0,0,0-1.67-4.08,4.54,4.54,0,0,0-5.45-.7l-.8.51a4.5,4.5,0,0,0-1.3-2.76,4.37,4.37,0,0,0-3.11-1.28l-.71,0a4.43,4.43,0,0,0-2.22.6c-.44.21-.85.46-1.27.7l-2.12,1.25-1.62,1c.5-1.22,1-2.43,1.48-3.64a4.28,4.28,0,0,0-.44-3.4,4.48,4.48,0,0,0-2.64-2,4.56,4.56,0,0,0-1.16-.15,4.4,4.4,0,0,0-2.24.6Zm-2.57,4-.18.42.18-.42Z"/><path class="cls-1" d="M289,248.38c.12,4,.31,8.07,1.65,11.88a16.85,16.85,0,0,0,1.27,2.76,17.38,17.38,0,0,0,1.75,2.34,6.6,6.6,0,0,0,3.07,2,5.87,5.87,0,0,0,4.47-.6,6.63,6.63,0,0,0,2.55-3.08,4.66,4.66,0,0,0,.47.3,4.37,4.37,0,0,0,3.42.45l.38-.12a4.42,4.42,0,0,0,2-1.14,8.48,8.48,0,0,0,2.29-3c.1-.18.19-.37.28-.56a4.32,4.32,0,0,0,3.4-2.15,4.67,4.67,0,0,0,.44-3.36c-.09-.55-.18-1.1-.28-1.65a7.83,7.83,0,0,0-1-2.43,4.43,4.43,0,0,0-2.63-2,4.33,4.33,0,0,0-4.26,1.12c-.28.32-.54.65-.8,1a4.87,4.87,0,0,0-7.9-.68l-.69.89c-.23.5-.43,1-.62,1.52l-.09.26c-.08-1.25-.12-2.51-.16-3.76a4.48,4.48,0,0,0-9,0Zm25.84,6.42-.16.21.16-.21Z"/><path class="cls-1" d="M292,196.55a4.78,4.78,0,0,0-2.34,1.52,11.53,11.53,0,0,0-1.39,2c-.45.72-.86,1.48-1.29,2.22-.56,1-1.11,1.95-1.66,2.93l-.87-5a4.4,4.4,0,0,0-2.08-2.71,4.52,4.52,0,0,0-6.2,1.63,4.86,4.86,0,0,0-.46,3.49c.92,5.23,1.76,10.47,2.71,15.7a5.89,5.89,0,0,0,.69,2.19,4.89,4.89,0,0,0,7.53,1,6.61,6.61,0,0,0,1.63-2.49c.8-1.73,1.77-3.41,2.65-5.1.14-.28.29-.55.43-.82a5.22,5.22,0,0,0,.67,1.81,6.3,6.3,0,0,0,2.09,2.14,5.74,5.74,0,0,0,6-.43,7.46,7.46,0,0,0,1.29-1.13,4.55,4.55,0,0,0,5.38-3.22,4.45,4.45,0,0,0-.21-2.91,24,24,0,0,1,.2-2.68,4.61,4.61,0,0,0,0-2.36,4.52,4.52,0,0,0-2.07-2.68,4.4,4.4,0,0,0-2.27-.62,4.32,4.32,0,0,0-3.18,1.32l-.16.19a8.83,8.83,0,0,0-1.35-3.92,4.78,4.78,0,0,0-2.66-2,7.18,7.18,0,0,0-1.54-.25c-.52.06-1,.13-1.56.22Z"/><path class="cls-1" d="M314,146.79a71.67,71.67,0,0,0-8.87,1.12c-1.14.19-2.3.36-3.44.61-.74.15-1.47.31-2.2.5a10.61,10.61,0,0,0-2.25.81,4.22,4.22,0,0,0-1.34.92,8.43,8.43,0,0,0-1,1.39,4.48,4.48,0,0,0,.7,5.44,11.32,11.32,0,0,0,1.26,1,3.77,3.77,0,0,0,1.46.72,13.35,13.35,0,0,0,3.08.61c.87.11,1.75.19,2.62.24a4.57,4.57,0,0,0,.58,1.62,3,3,0,0,0,.88,1.31,4.6,4.6,0,0,0,2,1.19,3.75,3.75,0,0,0,.65.2l-.87.3c-.62.24-1.24.49-1.85.76l-1.39,1.07a4.42,4.42,0,0,0-1.35,3.26,4.51,4.51,0,0,0,2.29,4c.48.23,1,.45,1.48.65a5,5,0,0,0,.74.19,5.1,5.1,0,0,0-.19.55,4.49,4.49,0,0,0,5.53,5.53l1.52-.37a4.12,4.12,0,0,0,.15.84,4.52,4.52,0,0,0,5.53,3.14c1-.32,2.05-.67,3.07-1a22.79,22.79,0,0,0,5.13-2.44,16.71,16.71,0,0,0,2.51-2.17,6.49,6.49,0,0,0,1.16-1.59,4.84,4.84,0,0,0,.45-3.38,5.15,5.15,0,0,0-2.51-3.47,4.84,4.84,0,0,0-.9-.4,4.61,4.61,0,0,0-.14-1.53,17,17,0,0,0,1.67-.66,9,9,0,0,0,2.1-1.54c.32-.43.65-.85,1-1.27a5.59,5.59,0,0,0,.75-2.64,5,5,0,0,0-1.77-3.72,4.46,4.46,0,0,0-2-1.16,9.56,9.56,0,0,0-1.49-.29c-.79-.12-1.59-.23-2.39-.33a4.39,4.39,0,0,0-.15-1.24,3.85,3.85,0,0,0-.76-1.48,4.49,4.49,0,0,0-2-5.18,19,19,0,0,0-4.48-1.71,14.74,14.74,0,0,0-3.63-.39c-.45,0-.89,0-1.33,0Z"/><path class="cls-1" d="M243.69,235.4a2.67,2.67,0,0,0-.51.55l-.68.88a9.26,9.26,0,0,0-.59,1.51c0,.17,0,.34-.07.51-.08.55-.15,1.11-.21,1.66s-.15,1.37-.21,2.05c-.09,1-.2,2-.27,2.95a4.31,4.31,0,0,0-4.35,2.11,4.13,4.13,0,0,0-.44,3.34c.52,1.23,1,2.47,1.55,3.7a23.8,23.8,0,0,0,1,2.62,6.35,6.35,0,0,0,1,1.46,17.39,17.39,0,0,0,1.67,1.3,4.35,4.35,0,0,0,6-1.56,15.05,15.05,0,0,0,1.35-3.31,24.1,24.1,0,0,0,.45-3.71,19.43,19.43,0,0,0,1.13,1.71,5.75,5.75,0,0,0,1.11,1.3,7,7,0,0,0,2.38,1.32,4.61,4.61,0,0,0,2.39,0,5.74,5.74,0,0,0,2.3-1.39,8,8,0,0,0,1.83-3.6,30.39,30.39,0,0,0,.62-3.8l.09-.78a3.68,3.68,0,0,0,.44-.23,4.45,4.45,0,0,0,1.59-6.05c-.64-1.1-1.2-2.25-1.91-3.3a4.54,4.54,0,0,0-3.81-2.18,4.32,4.32,0,0,0-3.8,2.18c-.07.18-.16.36-.24.54a3.83,3.83,0,0,0-.55,1.7c0,.17,0,.35-.07.52l-.55-1a14.28,14.28,0,0,0-2.48-3,4.31,4.31,0,0,0-3-1.25,4.5,4.5,0,0,0-3.11,1.25ZM246,251.76c.12.27.23.53.34.8-.11-.27-.22-.53-.34-.8Z"/><path class="cls-1" d="M10.58,229.91a4.33,4.33,0,0,0-2.08,2.71q-.69,5-1.35,9.93a19.12,19.12,0,0,0-.38,4.33A4.69,4.69,0,0,0,9,250.79a4.52,4.52,0,0,0,4.57,0,7.45,7.45,0,0,0,1.72-1.14,5.91,5.91,0,0,0,.85,2.09,5.54,5.54,0,0,0,3,2.33,6.32,6.32,0,0,0,2.77,0l.06.17a4.9,4.9,0,0,0,2.07,2.7,4.51,4.51,0,0,0,6.17-1.62,4.33,4.33,0,0,0,.46-3.47c-.7-1.72-1.23-3.49-2-5.18a7.81,7.81,0,0,0-1.4-2.12,4.47,4.47,0,0,0-3.41-1.3h-.3c-.08-.54-.17-1.09-.26-1.63a8.45,8.45,0,0,0-.84-2.28,5.6,5.6,0,0,0-1.9-1.91,6.36,6.36,0,0,0-2.63-.77,5.25,5.25,0,0,0-1,.09l.24-1.75c.06-.4.11-.8.17-1.2a4.56,4.56,0,0,0-3.33-4.37,4.38,4.38,0,0,0-1.19-.16,4.66,4.66,0,0,0-2.3.61Z"/><path class="cls-1" d="M86.92,383.67a4.46,4.46,0,0,0-2.61,2,4.75,4.75,0,0,0-.44,3.37c.6,3.75,1.22,7.51,2,11.23.34,1.64.68,3.29,1,4.93.2.9.4,1.81.61,2.72.13.6.22,1.21.36,1.81s.43,1.07.66,1.59a18.29,18.29,0,0,0,1.23,1.53,4.43,4.43,0,0,0,3.13,1.29A4.35,4.35,0,0,0,96.7,412c.39-.83.74-1.68,1.09-2.53a10.74,10.74,0,0,0,.5-2.16q.24-1.23.45-2.46c.1-.51.19-1,.28-1.55.42.61.88,1.19,1.34,1.79l.49.51,1.38,1.07a6.35,6.35,0,0,0,3,.73,6,6,0,0,0,2.75-.78,10.51,10.51,0,0,0,1.42-1,3,3,0,0,0,.4.21,4.73,4.73,0,0,0,3.45.46,6,6,0,0,0,2.67-1.69c.16-.17.31-.35.46-.54a4.43,4.43,0,0,0,3.06-5.41,5.06,5.06,0,0,0-1.45-2.52,4.47,4.47,0,0,0-4.31-1.14,10.56,10.56,0,0,0-1.59.74l-.28-.21a5.11,5.11,0,0,0-5.3-.26,4.41,4.41,0,0,0-1.24,1.11c-.16-.34-.31-.69-.47-1-.27-.74-.54-1.48-.79-2.24a16.84,16.84,0,0,0-1-2.5,6.29,6.29,0,0,0-2.48-2.68,5.68,5.68,0,0,0-4.26-.45A5.55,5.55,0,0,0,93.21,390a5.12,5.12,0,0,0-.3.57c-.21-1.27-.41-2.53-.61-3.79a4.18,4.18,0,0,0-2-2.62,4.41,4.41,0,0,0-2.21-.59,4.56,4.56,0,0,0-1.16.15Z"/><path class="cls-1" d="M192.88,376.05a5.91,5.91,0,0,0-1.53,3.28,8.9,8.9,0,0,0-2.63-.65,5.24,5.24,0,0,0-4.43,1.75,6,6,0,0,0-.85,1.19c-.13-.28-.26-.57-.38-.85a7.69,7.69,0,0,0-1.21-1.59,4.3,4.3,0,0,0-3.17-1.32,4.49,4.49,0,0,0-2.47.75,4.74,4.74,0,0,0-7.51,3.85c.2,3.42.38,6.84.61,10.26.1,1.39.18,2.79.33,4.18.1,1,.21,1.91.35,2.87.08.56.17,1.08.29,1.63s.44,1.09.67,1.62l1,1.23a4.67,4.67,0,0,0,2.08,1.22,4.59,4.59,0,0,0,3.62-.48,18.86,18.86,0,0,0,1.53-1.13,18.85,18.85,0,0,0,1.35-1.87,13.44,13.44,0,0,0,.93-2.08,5.68,5.68,0,0,0,1.83.27,4.54,4.54,0,0,0,2.31-.62,7,7,0,0,0,2.05-2c.24-.3.46-.6.67-.92a10.13,10.13,0,0,0,1-2.12,19.52,19.52,0,0,0,.86-3.3c.12-.58.24-1.16.35-1.74l.05.06c.45.37.92.73,1.4,1.06a4.48,4.48,0,0,0,5.48-.71l.23-.26c.36.3.74.58,1.13.87a6.67,6.67,0,0,0,3.54,1,4.6,4.6,0,0,0,3.25-7.85,4.39,4.39,0,0,0-2.11-1.16c-.56-.86-1-1.76-1.53-2.67l-.79-1.49a11.53,11.53,0,0,0-.59-1l-1-1.25a4.43,4.43,0,0,0-2-1.16,3.88,3.88,0,0,0-1.35-.24,4.84,4.84,0,0,0-3.33,1.37Zm10.09,6.2.25.2-.25-.2Z"/><path class="cls-1" d="M100.22,388.84c0,3.23,0,6.44,0,9.67v3.3c0,.59,0,1.18,0,1.78a20.65,20.65,0,0,0,.35,4.15,4.49,4.49,0,0,0,3.17,3.17,4.69,4.69,0,0,0,2.41,0,4.61,4.61,0,0,0,2-1.17,8.42,8.42,0,0,0,2.19-4l.16.1a4.43,4.43,0,0,0,6.08-1.6,4.26,4.26,0,0,0,.45-3.43,31.24,31.24,0,0,1-1.35-3.88c-.15-.56-.32-1.12-.5-1.67a12.82,12.82,0,0,0-.64-1.68,4,4,0,0,0-.9-1.34l-1.38-1a4.3,4.3,0,0,0-2.22-.6,4.53,4.53,0,0,0-.71.06c0-.62,0-1.23,0-1.85a4.55,4.55,0,0,0-9.09,0Zm13.32,8.74-.09.11.09-.11Z"/><path class="cls-1" d="M189.83,375.87a4.48,4.48,0,0,0-2.66,2.05,4.81,4.81,0,0,0-.45,3.43c.61,3.79,1.21,7.58,1.85,11.37.27,1.61.51,3.23.81,4.83.55,2.95,1,7.17,4.55,7.9a4.42,4.42,0,0,0,2.34,0,4.51,4.51,0,0,0,2.63-2,12.06,12.06,0,0,0,1.21-4.26l.51-2.47c.4-1.88.83-3.74,1.33-5.6a4.32,4.32,0,0,0-3-5.25,4.19,4.19,0,0,0-2.53.09q-.56-3.48-1.12-7a4.25,4.25,0,0,0-2.05-2.66,4.44,4.44,0,0,0-2.25-.61,4.36,4.36,0,0,0-1.18.16Z"/></g></g></svg>