<svg xmlns="http://www.w3.org/2000/svg" viewBox="0 0 293 389.91"><defs><style>.cls-1{fill:#f8f8f5;}.cls-2{fill:#110802;}.cls-3{fill:#d2cab6;}</style></defs><title>Asset 2</title><g id="Layer_2" data-name="Layer 2"><g id="Draw_Layer" data-name="Draw Layer"><path class="cls-1" d="M123,2.28a7.09,7.09,0,0,0-4.73,3.59A26,26,0,0,0,116,11.93a31.62,31.62,0,0,0-1.27,7.79c-.12,5,.06,10,.17,14.91a165.05,165.05,0,0,0,1.81,17.88c.06.46.13.92.19,1.38a5.18,5.18,0,0,0,1.34,2.31,5.23,5.23,0,0,0,7.39,0,5,5,0,0,0,1.53-3.69,140.84,140.84,0,0,1-1.61-18.32c0-2.7.07-5.39.1-8.08,0-2.45,0-4.92.19-7.36a32.1,32.1,0,0,1,.86-3.61c.14-.49.29-1,.44-1.48a19.43,19.43,0,0,1,2,.53c.73.39,1.44.81,2.16,1.19A27.93,27.93,0,0,1,134.05,17c1.3,1,2.59,2.08,3.9,3.11a38.44,38.44,0,0,1,3.19,3.55c.73.82,1.49,1.61,2.19,2.45a37.19,37.19,0,0,0,3,3.66c1.35,1.38,2.62,2.88,3.84,4.4,1.06,1.42,2.08,2.87,3.12,4.3.55.77,1.13,1.53,1.69,2.3a21.87,21.87,0,0,0,2.45,3.28,5.92,5.92,0,0,0,9.88-2.61,6.17,6.17,0,0,0-.6-4.55,23.91,23.91,0,0,0-2.62-3.79c-1.13-1.48-2.19-3-3.31-4.52-1.35-1.81-2.77-3.54-4.27-5.22-1.26-1.41-2.6-2.72-3.77-4.2l.31.41c-1.09-1.4-2.22-2.73-3.44-4.05-.69-.75-1.33-1.55-2-2.33a19.63,19.63,0,0,0-3.18-2.79,59,59,0,0,0-5.48-4.25c-.78-.49-1.63-.86-2.44-1.31a34.36,34.36,0,0,0-3.73-1.77,11.29,11.29,0,0,0-2.68-.6c-1.29-.18-2.57-.44-3.88-.5h-.29a19.79,19.79,0,0,0-2.9.32Z"/><path class="cls-1" d="M189.55,25.26h-1.18a36.23,36.23,0,0,0-6.66.66,47.32,47.32,0,0,0-4.82,1.24c-1,.29-1.94.59-2.9.91s-1.67.64-2.49,1a30.16,30.16,0,0,1-5.88,1.32l-4.3.54-1.34.18a5,5,0,0,0-2.21,8.39A4.81,4.81,0,0,0,161.32,41c2.53-.31,5.06-.58,7.58-.92a30.74,30.74,0,0,0,5.71-1.15c1.78-.6,3.58-1,5.42-1.47,1.57-.37,3.11-.74,4.69-1a37.76,37.76,0,0,1,4.39-.08c1.72,0,3.45.06,5.16.26l-.57-.08q2.82.38,5.65.59c1.59.13,3.18.23,4.77.43s3.36.43,5,.55c1.45.1,2.9.17,4.35.33s3.14.42,4.73.56c1.16.1,2.33.18,3.49.3,1.38.22,2.75.47,4.13.67a27.93,27.93,0,0,1,4.65.92c1.29.66,2.47,1.49,3.71,2.24a5.81,5.81,0,0,0,8.73-5,6,6,0,0,0-1.7-4.1,12.94,12.94,0,0,0-2.58-2c-.65-.41-1.3-.83-2-1.18a20.76,20.76,0,0,0-4.11-1.61,27.75,27.75,0,0,0-4.46-.67c-2.08-.3-4.15-.65-6.24-.9s-4.38-.25-6.56-.52l.87.12a55.43,55.43,0,0,0-5.6-.49c-1.72-.07-3.42-.19-5.12-.38-3.8-.42-7.61-.63-11.42-1-1.25-.12-2.51-.13-3.78-.13Z"/><path class="cls-1" d="M264.65,0c-2,0-3.78,1-5.49,1.94-1.05.55-2.09,1.1-3.09,1.73a49,49,0,0,0-6.51,5.18c-1.89,1.68-3.74,3.43-5.5,5.25s-3.55,3.71-5.36,5.52c-.83.83-1.66,1.65-2.49,2.49a35,35,0,0,0-4.1,5.54c-1.63,2.5-3.18,5-4.59,7.68a5.17,5.17,0,0,0,8.93,5.22,82.13,82.13,0,0,1,6.29-10.09c1.39-1.58,2.95-3,4.47-4.44s2.93-2.92,4.4-4.37a106,106,0,0,1,8.28-7.43,28.71,28.71,0,0,1,3.17-2c.08.42.16.83.23,1.25.68,5.61,1.12,11.24,1.89,16.84L265,28.76a139,139,0,0,1,.62,15.41,66.55,66.55,0,0,1-.34,7,18.92,18.92,0,0,0-.27,3.6,7,7,0,0,0,.9,3.24,6.61,6.61,0,0,0,2.25,2.24,6.16,6.16,0,0,0,6.45-.13l1.19-.92A12.64,12.64,0,0,0,277,57.63a14.19,14.19,0,0,0,1.1-2.6,18.34,18.34,0,0,0,.78-4.28c.17-1.44.32-2.88.42-4.33.18-2.52.19-5.06.22-7.59s0-5.16-.11-7.74-.34-5.34-.48-8c-.08-1.59-.14-3.2-.26-4.79a38.17,38.17,0,0,0-.95-5.82,32.57,32.57,0,0,0-1.24-4.68c-1-2.36-2-4.57-4.32-6a5.55,5.55,0,0,0-3-.79,9.44,9.44,0,0,0-4.41-1Z"/><path class="cls-1" d="M273,43.47c-2.65.73-4.65,3.79-3.7,6.52,1.79,5.15,3.92,10.16,5.7,15.31a41.09,41.09,0,0,1,1.7,6.83c.41,2.53.87,5,1.31,7.56.51,4.32.7,8.67,1.07,13,.22,2.54.55,5.06.74,7.6.16,2.19.35,4.39.5,6.58.36,4.94.52,9.9.84,14.84.16,2.41.28,4.82.29,7.24a53.65,53.65,0,0,1-.46,6.45c-.18,1.22-.38,2.43-.62,3.64a36.08,36.08,0,0,1-1.41,4.65c-.89,2.61-1.75,5.25-2.72,7.83a51.14,51.14,0,0,1-3.53,5.56c-.66,1-1.39,1.89-2.08,2.84s-1.18,2-1.75,2.93S267.69,165,267,166s-1.3,1.84-1.9,2.81c-.92,1.5-1.65,3.08-2.65,4.53-1.24,1.55-2.45,3.12-3.57,4.76a5.81,5.81,0,0,0-.6,4.59,6,6,0,0,0,7.33,4.17l1.43-.6a6,6,0,0,0,2.13-2.14c.1-.12.19-.25.28-.37l-.54.7c.6-.79,1.17-1.58,1.75-2.37a35.92,35.92,0,0,0,2.75-3.65c.94-1.53,1.66-3.19,2.67-4.67,1.15-1.68,2.16-3.4,3.16-5.17.49-.87,1-1.73,1.52-2.59s1.24-1.7,1.82-2.57c1.13-1.68,2.31-3.35,3.3-5.11a39,39,0,0,0,2.73-7c.72-2.21,1.52-4.4,2.2-6.63a47.13,47.13,0,0,0,1.48-7.33,75,75,0,0,0,.69-8.34c0-2.58-.17-5.17-.35-7.74-.36-5.18-.52-10.39-1-15.57-.22-2.59-.35-5.2-.62-7.79s-.62-5.23-.86-7.85-.37-5.21-.64-7.8c-.31-3.11-.82-6.16-1.41-9.22-.27-1.36-.52-2.71-.77-4.07a30,30,0,0,0-.93-4.1c-1-2.9-2.15-5.73-3.36-8.54-1.27-3-2.47-6.12-3.56-9.23A5.59,5.59,0,0,0,277.1,44a5.42,5.42,0,0,0-2.69-.72,5.14,5.14,0,0,0-1.4.19Zm19.3,93.95c0,.18-.05.37-.08.55l.21-1.54c0,.33-.09.66-.13,1Z"/><path class="cls-1" d="M118.7,42.53l-1.23.52a5.26,5.26,0,0,0-1.85,1.84,87.93,87.93,0,0,0-5.22,7.24c-1.44,2.37-2.83,4.75-4.16,7.19a62.73,62.73,0,0,0-3.63,7.58q-1.38,3.64-2.58,7.35c-1.72,5.26-2.28,10.82-3,16.29a130.21,130.21,0,0,0-.67,15.68,85.56,85.56,0,0,0,1,12.48c.35,2.72.69,5.44,1.23,8.13.29,1.45.59,2.9,1,4.32a39,39,0,0,0,2.82,6.54c1.27,2.55,2.42,5.15,3.72,7.68a20.54,20.54,0,0,0,1.52,2.56c.57.81,1.22,1.59,1.84,2.36q1.17,1.44,2.31,2.91c1.33,1.78,2.64,3.57,4,5.32,1,1.33,2.32,2.47,3.47,3.7,2.37,2.53,5,4.75,7.28,7.38a5.9,5.9,0,0,0,9.85-2.6,5.69,5.69,0,0,0-.59-4.54,27.53,27.53,0,0,0-2.8-3.28c-.72-.71-1.51-1.33-2.25-2-1.64-1.51-3.17-3.14-4.77-4.69a29.07,29.07,0,0,1-2.19-2.25c-.82-1-1.59-2-2.37-3-1.45-1.85-3-3.64-4.45-5.45a50.16,50.16,0,0,1-3.43-6.48c-1-2-2-3.93-3-5.92a61,61,0,0,1-2.22-10c-.17-1.3-.36-2.6-.55-3.9a109.53,109.53,0,0,1-.6-14c0-2.62,0-5.26.26-7.87.19-2.26.46-4.51.75-6.77a67.07,67.07,0,0,1,1.63-8.43c.82-2.87,1.77-5.69,2.8-8.5,1.41-3.19,3-6.25,4.76-9.29a95.32,95.32,0,0,1,7.14-10.48,5,5,0,0,0,.52-4,5.17,5.17,0,0,0-6.33-3.59Z"/><path class="cls-1" d="M123.36,158.75a5.21,5.21,0,0,0-3,2.3c-3.15,4.67-6.64,9.12-9.76,13.82-.66,1-1.3,2-1.92,3s-1.22,2.25-1.81,3.38c-1.11,2.18-2.48,4.22-3.6,6.39-.81,1.54-1.6,3.06-2.27,4.66s-1.13,3-1.66,4.55c-.79,2.27-1.56,4.55-2.42,6.79a65.77,65.77,0,0,0-2.17,6.58c-.62,2.29-1.23,4.58-1.79,6.88a136.24,136.24,0,0,0-3,13.68c-.37,2.62-.68,5.27-.92,7.92a61.74,61.74,0,0,0-.29,7.57,118.63,118.63,0,0,0,1.45,16A31.47,31.47,0,0,0,94.86,275c.46.67,1,1.32,1.46,1.95A9.86,9.86,0,0,0,98.9,279a12.36,12.36,0,0,0,1.32.64,9.25,9.25,0,0,0,6.19.93,11.34,11.34,0,0,0,2.8-1.13l.06.73c.33,4.21,1.16,8.38,1.82,12.55a28.57,28.57,0,0,0,.69,4.63,5.66,5.66,0,0,0,11.12-1.5,65.24,65.24,0,0,0-1.12-8q-.59-3.24-1.08-6.49a39.16,39.16,0,0,1-.31-5.3,58.82,58.82,0,0,1,.48-6.08,68.93,68.93,0,0,1,1.43-7.69c.49-1.91,1-3.83,1.61-5.7l0-.12a7.57,7.57,0,0,0,.63-1.7c.07-.51.14-1,.2-1.52a5.68,5.68,0,0,0-.78-2.9,5.76,5.76,0,0,0-10.42,1.09c-.37.82-.7,1.65-1,2.49-1,2.2-2,4.32-3.2,6.43a85.06,85.06,0,0,1-4.36,7.81c-.25.3-.5.59-.77.86a20.71,20.71,0,0,1-1.76-3,44.61,44.61,0,0,1-2.12-8.89,114.46,114.46,0,0,1-.88-12.14,98.22,98.22,0,0,1,.84-11.86c.45-3,1.11-6,1.83-9s1.43-6.14,2.23-9.19c.42-1.58.83-3.17,1.26-4.75s1.07-3.08,1.62-4.62,1.09-3.08,1.63-4.63c.59-1.74,1.12-3.5,1.77-5.22,1.14-2.39,2.39-4.71,3.7-7s2.56-5,4-7.38c3.28-5.3,7.14-10.19,10.62-15.35,1.53-2.26.44-5.53-1.79-6.84a5,5,0,0,0-2.53-.68,4.89,4.89,0,0,0-1.32.18ZM104.9,269.51h0Z"/><path class="cls-1" d="M24.41,154.52a30.76,30.76,0,0,0-4.47.69,22.92,22.92,0,0,0-3.62,1,26.18,26.18,0,0,0-4.13,2.08,21.79,21.79,0,0,0-3.49,2.77,30.66,30.66,0,0,0-4.48,6.34A26.83,26.83,0,0,0,.85,175a36,36,0,0,0-.76,6.3,52.34,52.34,0,0,0,0,5.74,30.79,30.79,0,0,0,1.53,8.17,17.22,17.22,0,0,0,3.57,6.1,26.63,26.63,0,0,0,3.38,3.16A15.31,15.31,0,0,0,16.1,208a24.06,24.06,0,0,0,6,.25c1.85-.2,3.7-.47,5.55-.75a21.28,21.28,0,0,1,2.65-.13l.57.17a12.1,12.1,0,0,1,1.1.64c.14.13.27.27.4.41q.36.57.66,1.17a23.17,23.17,0,0,1,.83,3.28c.51,4.81.86,9.65,1.6,14.44.35,2.3.74,4.6,1.07,6.9s.69,4.69,1.21,7,1,4.73,1.52,7.11.93,4.65,1.55,6.94,1.35,4.3,2,6.46c.71,2.47,1.34,4.95,2.08,7.41,1.34,4.5,2.95,8.89,4.61,13.28a87.41,87.41,0,0,0,3.43,8.25c1.13,2.29,2.43,4.49,3.76,6.67a128,128,0,0,0,8.95,13,31.88,31.88,0,0,0,5.44,5.2,48.36,48.36,0,0,0,6.08,4.39,65,65,0,0,0,6.7,3,43,43,0,0,0,6.74,2.07,49.81,49.81,0,0,0,8.6,1.16c2.46.16,4.91.42,7.38.42,2.65,0,5.3-.13,7.95-.09s5.34.24,8,.43c1.2.08,2.4.15,3.6.17a23.13,23.13,0,0,0,6.08-.81c1-.26,2-.55,2.93-.87a35.25,35.25,0,0,1,3.64-.92l.88-.17a5.79,5.79,0,0,0,3.52-2.72,5.89,5.89,0,0,0-2.11-8.07l-1.41-.59a6,6,0,0,0-3.14,0,26.75,26.75,0,0,0-4.94,1c-1.31.42-2.64.81-4,1.1a66.15,66.15,0,0,1-7.84-.34c-2.71-.21-5.42-.24-8.14-.19s-5.64.16-8.44-.06c-2.45-.19-4.9-.33-7.33-.59a43.45,43.45,0,0,1-8.75-2.47A42.73,42.73,0,0,1,83,309.66a22.84,22.84,0,0,1-2.34-1.58c-.63-.45-1.26-.91-1.88-1.38a38.8,38.8,0,0,1-5.25-5.24,115.09,115.09,0,0,1-11-17.72c-.79-2-1.55-4-2.26-6-.77-2.18-1.62-4.34-2.35-6.53s-1.43-4.51-2.07-6.78-1.24-4.8-1.93-7.19c-.65-2.22-1.39-4.41-1.92-6.67s-1-4.49-1.43-6.74c-.5-2.41-1.06-4.81-1.54-7.22s-.75-4.71-1.11-7.07c-.26-1.67-.53-3.35-.79-5-.33-2.74-.58-5.48-.87-8.22-.2-2-.38-3.94-.68-5.9a22.46,22.46,0,0,0-1.74-5.84,14.94,14.94,0,0,0-7.45-7.61c-.71-.31-1.41-.61-2.14-.88a11.71,11.71,0,0,0-3.1-.58,16.18,16.18,0,0,0-2.31,0,52.35,52.35,0,0,0-5.41.71,25.68,25.68,0,0,1-4.64.22,13.59,13.59,0,0,1-1.4-.34c-.32-.18-.62-.37-.92-.57a24.32,24.32,0,0,1-2.69-2.58c-.2-.3-.38-.62-.55-.94a25.87,25.87,0,0,1-1-4,48.33,48.33,0,0,1,.13-8.92,20.18,20.18,0,0,1,.79-2.86c.56-1.12,1.21-2.18,1.85-3.25s1.18-1.93,1.82-2.86A13.26,13.26,0,0,1,17.85,169a18.58,18.58,0,0,1,2.25-1.38,26.55,26.55,0,0,1,4.39-1.08,31,31,0,0,1,6.09-.26,24,24,0,0,1,4.84,1.34c1.73.69,3.52,1.25,5.25,1.92.65.29,1.29.6,1.92.94a18.38,18.38,0,0,1,2.09,1.43c1.71,1.41,3.19,3.08,4.78,4.62a56.71,56.71,0,0,1,4.77,5.39,63,63,0,0,1,6.49,11A65.62,65.62,0,0,1,63.37,202c.69,3.25,1.41,6.52,1.92,9.81.13,1,.26,2,.4,3l-.21-1.58c.44,3.25.76,6.51,1.19,9.76l-.1-.75c.42,3.68.82,7.36,1.31,11,.27,2.33.5,4.67.78,7,.35,2.82.54,5.67,1.12,8.46.52,2.54,1.22,5,1.75,7.58a66.45,66.45,0,0,0,1.86,6.52c.34,1.11.71,2.21,1.09,3.31a45.33,45.33,0,0,0,1.83,4.25,32,32,0,0,0,3.1,5.91c1.38,1.88,2.87,3.71,4.37,5.5a26.13,26.13,0,0,0,5,4.52,45.7,45.7,0,0,0,7.7,4.37,26.92,26.92,0,0,0,3.45,1.37,20,20,0,0,0,3.77.7c1.07.14,2.14.22,3.22.3a31.94,31.94,0,0,0,3.53.09,14.28,14.28,0,0,0,5.27-1.44,5.07,5.07,0,0,0,2.42-3.14,5.25,5.25,0,0,0-3.67-6.47l-1.4-.19a5.25,5.25,0,0,0-2.43.59l-.42.13a26.63,26.63,0,0,1-4.63-.25,16.91,16.91,0,0,1-3-.8,48.54,48.54,0,0,1-8-4.8A22.8,22.8,0,0,1,91.82,274l-.76-1-1.25-1.62a36,36,0,0,1-4-7.62c-.58-1.46-1-3-1.46-4.48s-.93-3-1.32-4.55-.61-3.07-1-4.59c-.41-1.72-.82-3.44-1.16-5.17-.55-4.68-.92-9.37-1.54-14l.06.43c-.43-3.43-.79-6.86-1.24-10.28-.62-4.85-.91-9.78-1.84-14.59-.46-2.34-.87-4.7-1.36-7.05s-1.14-4.61-1.83-6.91a57,57,0,0,0-6.3-13.41,55.5,55.5,0,0,0-4.27-5.83,57.25,57.25,0,0,0-4.22-4.85c-1.06-1.05-2.14-2.08-3.18-3.14a34.93,34.93,0,0,0-3.69-3.18l1.22.94c-1.13-.88-2.25-1.76-3.44-2.55a18.27,18.27,0,0,0-3-1.56c-2.45-1.06-5-1.9-7.45-2.85a24,24,0,0,0-2.85-1c-1.6-.38-3.24-.61-4.88-.83a15,15,0,0,0-1.89-.11c-1.61,0-3.2.21-4.82.34ZM44,171.31l.88.68-.88-.68Zm1.14.88,0,0,.65.5-.68-.52Z"/><path class="cls-1" d="M89.39,273a4.85,4.85,0,0,0-2.3,3,5,5,0,0,0,1.29,4.87A38.13,38.13,0,0,0,92.62,284c1.2.85,2.4,1.71,3.66,2.45.61.36,1.22.69,1.86,1a11.85,11.85,0,0,0,4.06,1.22,7.69,7.69,0,0,0,4.4-.93,9.07,9.07,0,0,0,.89-.58l1-.15a23.16,23.16,0,0,0,5.43-1.89l.1,0a5.1,5.1,0,0,0-1.36-10,7.53,7.53,0,0,0-1.58.23,4.89,4.89,0,0,0-6.21-1.06,4.88,4.88,0,0,0-2,2.34,29.58,29.58,0,0,1-3.39-1.07c-.88-.4-1.74-.84-2.59-1.31-.64-.34-1.26-.72-1.89-1.08a7.67,7.67,0,0,0-1.63-.72,4.59,4.59,0,0,0-1.24-.18,6.43,6.43,0,0,0-2.67.7Zm24.28,12.27-.06,0,.06,0Z"/><path class="cls-1" d="M115.76,312.77a5.08,5.08,0,0,0-1.54,3.7c.59,6,1.2,12.09,2.38,18.06.46,2.27,1.19,4.44,1.76,6.67s.93,4.77,1.51,7.13a58,58,0,0,0,2.09,6.38c.82,2.23,1.55,4.5,2.44,6.71A88.36,88.36,0,0,0,131,375.11c.56.92,1.28,1.75,1.9,2.62s1.23,1.83,1.84,2.74c.9,1.32,1.91,2.57,2.91,3.8a11.87,11.87,0,0,0,5.2,3.75,10.3,10.3,0,0,0,2,.48l1.58.21c.74-.07,1.46-.16,2.18-.27a18.32,18.32,0,0,0,2.72-.87,28.11,28.11,0,0,0,3-1.33,15,15,0,0,0,2-1.48,20.48,20.48,0,0,0,2-1.83,17.55,17.55,0,0,0,3.33-5.93,27.11,27.11,0,0,0,.9-3.2,58.82,58.82,0,0,0,1.47-8.12c.28-2.6.59-5.21.71-7.82s.26-5.35.38-8c.11-2.52.26-5.06.16-7.59a6,6,0,0,0-6-5.95,6,6,0,0,0-4.21,1.75,6.15,6.15,0,0,0-1.74,4.2c-.11,1.89-.1,3.79-.18,5.68-.08,2.05-.19,4.09-.29,6.12s-.17,3.95-.32,5.92c-.13,1.78-.31,3.54-.5,5.31-.22,1.41-.49,2.82-.82,4.22s-.66,2.84-1.13,4.22c-.21.39-.42.77-.66,1.14s-.61.59-.93.87a10.53,10.53,0,0,1-.93.52c-.32.12-.64.24-1,.34a19.29,19.29,0,0,1-1.33-1.52c-.69-.93-1.34-1.89-2-2.84s-1.37-1.83-2.09-2.72a68.8,68.8,0,0,1-6.32-11.94c-1-2.48-1.92-5-2.9-7.47a50.32,50.32,0,0,1-2.4-7.87c-.28-1.3-.57-2.59-.89-3.87s-.83-2.65-1.25-4a64.37,64.37,0,0,1-1.78-8.47c-.39-3.14-.7-6.28-1-9.43a5.6,5.6,0,0,0-1.53-3.7,5.21,5.21,0,0,0-7.38,0Zm29.9,63.92.45.06h-.05a2.57,2.57,0,0,1-.4-.07Zm1.32,0-.17,0h0l.18,0Z"/><path class="cls-1" d="M158.17,340.29a5.32,5.32,0,0,0,0,7.43,12.85,12.85,0,0,0,2.72,2.38,21.65,21.65,0,0,0,3.36,1.53,25.46,25.46,0,0,0,4.05,1c1.7.36,3.39.74,5.1,1,3.68.66,7.39.95,11.09,1.35,3.48.56,7,1.5,10.49,1.07s6.83-.58,10.25-.67a47.56,47.56,0,0,0,10-.9c1.46-.35,2.93-.57,4.41-.83,1-.16,2-.38,2.94-.56.79,0,1.59,0,2.37.05a5.76,5.76,0,0,0,5-8.67,5.59,5.59,0,0,0-3.45-2.66c-1.34-.21-2.68-.4-4-.57a10.62,10.62,0,0,0-2.86.3c-.94.14-1.88.38-2.82.56-1.11.2-2.24.38-3.35.61-.91.19-1.8.42-2.71.6-2.39.23-4.79.24-7.2.36-3.52.18-7,.52-10.5,1l1.55-.21a18.63,18.63,0,0,1-4.29-.08,56.79,56.79,0,0,0-7.36-.73c-2.21-.07-4.39-.17-6.59-.39-1.15-.16-2.3-.34-3.44-.55a39.84,39.84,0,0,1-6-1.35l-.23-.12c-.34-.31-.66-.64-1-1a5,5,0,0,0-3.66-1.52,5.34,5.34,0,0,0-3.76,1.52Zm9.1,1.33.3.12-.3-.12Zm9.84,1.79.5.07-.5-.07Zm11.84.84.4.05-.4-.05Z"/><path class="cls-1" d="M153.7,344.74a5,5,0,0,0,1.78,6.81l1.72,1a27.77,27.77,0,0,0,3.65,1.74,27.38,27.38,0,0,0,2.94,1,37.21,37.21,0,0,0,7.63,1.28c4.2.35,8.38.18,12.59.18q3.18,0,6.37,0c2,0,3.91,0,5.87-.09,2.2-.09,4.4-.11,6.6-.12a58.63,58.63,0,0,1,5.93.15,55.14,55.14,0,0,0,5.84.85c1.56.08,3.13.08,4.69.16a28,28,0,0,0,6.83-.45,44.39,44.39,0,0,0,5.77-1.48,6.27,6.27,0,0,0,3.54-2.73,5.92,5.92,0,0,0-2.13-8.11,6.24,6.24,0,0,0-4.56-.6c-1.06.21-2.07.55-3.11.82s-1.92.44-2.89.62a35.09,35.09,0,0,1-4.47,0c-1.5-.08-3,0-4.52-.12a43.33,43.33,0,0,0-5.89-.76c-2-.05-3.93,0-5.9.08-3.74.09-7.46.41-11.2.5s-7.58.16-11.36.41a67,67,0,0,1-11,0,29.36,29.36,0,0,1-5-1.28c-1-.49-2-1.09-2.95-1.65a5,5,0,0,0-6.82,1.79Z"/><path class="cls-1" d="M263.37,269.31a10.71,10.71,0,0,0-1,4.77c0,1-.14,2-.24,3-.17,1.17-.34,2.34-.5,3.51l.12-.9a95.55,95.55,0,0,1-2.49,10,60.07,60.07,0,0,0-1.83,9.77c-.33,3.14-.72,6.27-1,9.41-.15,1.38-.22,2.76-.32,4.14s-.15,3-.3,4.47-.41,2.73-.59,4.11c.07-.54.15-1.07.22-1.6-.52,3.8-1.15,7.58-1.66,11.38-.59,4.29-1.09,8.6-1.65,12.9l0,.19v0s0,.05,0,.07l-.24,1.57c-.47,3.21-1.52,6.29-2.25,9.44s-1.4,6.05-2.17,9.06a59.32,59.32,0,0,1-2.51,7.49,23.47,23.47,0,0,1-1.73,3.34,24.58,24.58,0,0,1-2.51,2.59l-.22.14-.1,0-.26-.08a21.64,21.64,0,0,1-2.11-1.16,12.36,12.36,0,0,1-.84-.93c-.79-1.09-1.55-2.21-2.26-3.35-.88-1.42-1.59-3-2.33-4.44-1.57-3.18-3.36-6.23-4.81-9.46a40.86,40.86,0,0,1-1.78-6c-.69-3-1.23-6-1.79-9a5,5,0,0,0-2.36-3.06,5.14,5.14,0,0,0-7,1.83,5.51,5.51,0,0,0-.52,4q.8,4.28,1.62,8.53a39.39,39.39,0,0,0,1.56,6.34c1,2.58,2,5.08,3.21,7.57.95,2,1.9,4,2.81,6a42,42,0,0,0,2.94,5.5,24,24,0,0,0,3.8,5,20.77,20.77,0,0,0,6.67,3.88,11.28,11.28,0,0,0,6.78.14,18.8,18.8,0,0,0,2.51-1,5.5,5.5,0,0,0,.92-.62c.63-.45,1.23-.94,1.84-1.42a22,22,0,0,0,3.2-3.41,18.35,18.35,0,0,0,2.58-4.15c.55-1.2,1.08-2.42,1.57-3.66.62-1.55,1.23-3.11,1.77-4.68s.95-3.51,1.4-5.26c.92-3.61,1.75-7.24,2.75-10.83a61.16,61.16,0,0,0,1.47-7.22,6.19,6.19,0,0,0,.19-1.35c.2-1.49.39-3,.58-4.47q.49-3.72.95-7.46c.62-4.42,1.33-8.82,1.92-13.25l-.21,1.6c.32-2.2.7-4.38.81-6.61.09-2,.28-4,.41-5.93.13-1.82.4-3.65.59-5.47.17-1.62.36-3.26.56-4.89a68.92,68.92,0,0,1,1.85-8.14c.43-1.54.86-3.07,1.24-4.61A52.08,52.08,0,0,0,273.6,281c0,.27-.07.54-.11.81.28-2,.6-4,.79-5.95.08-.83.12-1.66.15-2.49,0-.24,0-.47,0-.71a7.77,7.77,0,0,0-.86-3.34,5.92,5.92,0,0,0-10.22,0ZM252.3,342.85c-.06.45-.12.91-.19,1.36.06-.45.12-.91.19-1.36Z"/><path class="cls-1" d="M264.42,174.64a5.25,5.25,0,0,0-3.65,6.42c1.69,5,3.16,10.16,4.76,15.22.73,2.28,1.39,4.6,2,6.92s1.22,4.66,1.76,7,1,4.52,1.63,6.76c.65,2.43,1.46,4.81,2.05,7.26,1.08,4.53,1.79,9.13,2.66,13.71.09.45.16.9.23,1.34.36,3.26.76,6.49,1.24,9.73a34.5,34.5,0,0,1,.22,6,21.59,21.59,0,0,1-.95,3.41c-.21.42-.43.84-.68,1.24a4.27,4.27,0,0,1-.38.36c-.19.13-.38.24-.57.35-.36.11-.73.21-1.11.29-.23.06-.45.1-.69.14a6.77,6.77,0,0,0-3.41,1.82,10,10,0,0,0-2.53,5.31,24.81,24.81,0,0,0-.25,4.55c0,1.89.07,3.77.05,5.67s-.23,3.7-.16,5.57c.13,3.71.3,7.44.18,11.15,0,1.75-.19,3.5-.26,5.24-.06,1.55-.15,3.1-.32,4.64-.21,1.36-.46,2.71-.73,4.06-.34,1.71-.61,3.44-1,5.16q-1,5.05-2.2,10.09c-.38,1.59-.89,3.14-1.33,4.71-.48,1.78-.91,3.57-1.43,5.34s-1.05,3.3-1.54,5-1,3.23-1.62,4.81l-1.47,3.35.06-.13-.06.15c-.16.37-.33.75-.48,1.13l-.6,1.42.13-.33c-.57,1.33-1.24,2.6-1.89,3.9-.79,1.6-1.42,3.27-2.07,4.92-.2.49-.41,1-.61,1.46l-.15.35c-.32.7-.7,1.37-1,2.05-.44.86-.85,1.74-1.34,2.57a52.23,52.23,0,0,1-3.1,4.56c-.76,1-1.5,2-2.18,3a5.8,5.8,0,0,0,.9,7c2.13,2.12,6.09,2.36,8.18,0,1.46-1.65,2.82-3.39,4.16-5.13l-.18.23a35.43,35.43,0,0,0,3.18-4.75c1-1.9,1.93-3.82,2.76-5.81l-.6,1.43c.34-.81.7-1.62,1-2.44l-.6,1.43c.52-1.24,1-2.49,1.54-3.73.4-.89.83-1.75,1.28-2.61.73-1.43,1.34-2.91,1.95-4.39.15-.34.29-.68.44-1,1-2.38,2.12-4.74,3-7.19.81-2.22,1.38-4.53,2.12-6.78s1.27-4.58,1.9-6.87,1.28-4.49,1.78-6.78c.47-2.12,1-4.22,1.39-6.34s.83-4.51,1.27-6.76a72.6,72.6,0,0,0,1.25-8.43c.19-2.32.24-4.66.38-7,.14-2.14.07-4.3,0-6.45s-.11-4.45-.17-6.67c-.05-2.06.17-4.11.19-6.16,0-1.14,0-2.28,0-3.42,0-.66,0-1.34-.05-2A12.16,12.16,0,0,0,281,270.6c.81-.51,1.55-1.13,2.3-1.71,2.4-1.88,3.73-4.83,4.72-7.63a24.91,24.91,0,0,0,1.25-9.24,85.81,85.81,0,0,0-1.13-9c-.31-2.63-.52-5.28-1-7.87q-.64-3.3-1.26-6.6A117.91,117.91,0,0,0,282,214.22c-.73-2.26-1.3-4.57-1.89-6.87s-1.24-4.47-1.9-6.7c-1.38-4.71-3.13-9.29-4.68-13.94-.93-2.8-1.76-5.63-2.7-8.42a5.45,5.45,0,0,0-2.4-3.13,5.33,5.33,0,0,0-2.64-.71,5.4,5.4,0,0,0-1.38.19Z"/><path class="cls-2" d="M265.49,6.67a9.8,9.8,0,0,0-4.85,1.67,56.39,56.39,0,0,0-5.07,3.5c-2.25,1.71-4.49,3.42-6.63,5.27a71.23,71.23,0,0,0-9.69,10,117.27,117.27,0,0,0-8.32,12.72,5.38,5.38,0,0,0,.56,6.12h0a5.38,5.38,0,0,0,1.32,1.11,5.26,5.26,0,0,0,2.63.7,5.32,5.32,0,0,0,4.6-2.59,128.64,128.64,0,0,1,7.57-11.66,70.65,70.65,0,0,1,5-5.38c1.7-1.67,3.62-3.36,6.06-5.34.85-.65,1.71-1.29,2.57-1.92h0l0,0c.08,1.64.12,3.21.14,4.68q0,6.51,0,13c0,2.16-.12,4.4-.21,6.19l-.05.62,0,0a32.27,32.27,0,0,0-.15,4.39c0,.5.11,1,.19,1.44l.06.17a23.44,23.44,0,0,0,1.52,4.42c.55,1.28,1.18,2.54,1.79,3.76l.16.33a4,4,0,0,1,.16.45l0,.06.59-.79,1.11-1.54c2.08-2.84,4.17-5.68,6.29-8.48-.1-.3-.19-.6-.27-.91,0-.72,0-1.44,0-2.16.05-1.22.1-2.44.17-3.66.12-2.52.1-5,.11-7.58,0-4.78.14-9.59-.15-14.37a56.17,56.17,0,0,0-1-8.5,10.81,10.81,0,0,0-1.08-2.85,6.12,6.12,0,0,0-5.18-3Z"/><path class="cls-2" d="M223.29,346l1.17-.66c1.85-1.06,3.67-2.15,5.47-3.29a5.72,5.72,0,0,0-6.64,3.95Z"/><path class="cls-2" d="M192,34.92c-2.46,0-4.93.22-7.38.32s-5.13.31-7.68.59c-2.87.31-5.75.59-8.61,1a15.32,15.32,0,0,0-3.51,1c-.88.35-1.77.68-2.66,1a24.87,24.87,0,0,1-3.38,1.14,5.7,5.7,0,0,0-4.18,5.5,5.49,5.49,0,0,0,0,.7h0a5.7,5.7,0,0,0,1.61,3.3,5.83,5.83,0,0,0,4,1.66l.43,0A12,12,0,0,0,165,50.17l.45-.17c1.06-.4,2.18-.86,3.52-1.43a25.69,25.69,0,0,1,5.5-1.17l.54-.08c2.16-.28,4-.51,5.78-.67s3.66-.25,5.42-.35l1.58-.09.94-.05c1.75-.11,3.55-.22,5.34-.22l1.15,0c1.43,0,2.89.17,4.29.3h.16c.86.08,1.72.16,2.58.22.58,0,1.21.06,1.93.06,1.13,0,2.28-.06,3.39-.11h.1l1.62-.08c1.59,0,3.22-.07,4.79-.08h.36l1.86,0c5.5,0,10.47-.15,15.22-.28h0l.76,0a5.3,5.3,0,1,0,0-10.59c-5.73.18-11.47.23-17.22.23-2.44,0-4.89-.07-7.33,0a47.23,47.23,0,0,1-7.52-.23,63.25,63.25,0,0,0-7.78-.5Z"/><path class="cls-2" d="M126.43,10.59a6.6,6.6,0,0,0-2.5,2.42,15,15,0,0,0-1.12,3.39,54.84,54.84,0,0,0-.89,10.47c0,3.28,0,6.57.1,9.84a48.43,48.43,0,0,0,.78,6.23c.23,1.28.55,2.55.77,3.84a9.08,9.08,0,0,1,.05.91c0,.62-.1,1.23-.1,1.84A5.68,5.68,0,0,0,127.65,55a5.8,5.8,0,0,0,6.14-2.2v0a5,5,0,0,0,.75-1.68,17.33,17.33,0,0,0-.11-7.08c-.15-.92-.33-1.84-.53-2.75s-.35-1.73-.5-2.6c-.22-2.91-.22-5.73-.19-9.12V27.86c0-.86,0-1.73,0-2.6,0-.11,0-.21,0-.32h0v0c.7.47,1.41.92,2.12,1.37l.81.52.78.48c.46.29.92.57,1.37.88,1.51,1.29,2.9,2.74,4.25,4.14l.48.5c1.65,1.72,3.13,3.59,4.43,5.25q2.19,2.92,4.35,5.86a6.28,6.28,0,0,0,2.75,2.35h0a3.66,3.66,0,0,0,.5.16,5.46,5.46,0,0,0,6.71-3.81,5.23,5.23,0,0,0-.55-4.21c-2.34-3.17-4.69-6.34-7.12-9.45a78.37,78.37,0,0,0-5.66-6.29,34.28,34.28,0,0,0-3.05-2.85c-1.25-1-2.54-1.81-3.87-2.68-1.92-1.25-3.82-2.51-5.66-3.87-1.54-1.26-3-2.76-5-3.27a5.76,5.76,0,0,0-1.46-.2,7.09,7.09,0,0,0-3.07.78Z"/><path class="cls-2" d="M125.33,48.24c-2.12,2.22-4.12,4.51-6.08,6.87a50.77,50.77,0,0,0-7.08,11.53c-.64,1.4-1.34,2.81-1.86,4.26-.42,1.21-.82,2.41-1.15,3.64-.63,2.29-1,4.64-1.43,7-.49,2.84-1,5.69-1.39,8.53a85.83,85.83,0,0,0-1,8.59,113.35,113.35,0,0,0,.52,16.27,48.7,48.7,0,0,0,1.81,8.43c.7,2.43,1.43,4.86,2.12,7.3A74.52,74.52,0,0,0,115,144.31a86.45,86.45,0,0,0,7,10.87c1,1.35,1.92,2.71,3,4a20.28,20.28,0,0,0,2.54,2.62c.28.25.55.5.81.76a23.57,23.57,0,0,0,5.09,1.44c1.8.24,3.57.62,5.36,1v0l.79.14a5.87,5.87,0,0,0-.13-8.09l-.83-.87c-.56-.58-1.19-1.24-1.84-1.83l-.82-.7-.24-.2-.76-.64a14.78,14.78,0,0,1-1.5-1.54l.29.37c-.11-.13-.22-.27-.32-.41l-.39-.47c-2.07-2.71-4-5.4-5.76-8a50,50,0,0,1-4.34-7.91c-1.24-3.11-2.24-6.44-3.11-9.37l-.23-.77-.75-2.45-.24-.78c-.23-.77-.47-1.54-.69-2.32a52.13,52.13,0,0,1-1.25-5.29c-.4-3.67-.62-6.89-.66-9.86,0-2.22,0-4.19,0-6,0-1.55.23-3.16.39-4.57l0-.54c.54-3.77,1.1-7.3,1.7-10.8.3-1.72.6-3.4,1-5.09a33.34,33.34,0,0,1,1.51-4.57c.56-1.3,1-2.29,1.49-3.22a49.83,49.83,0,0,1,4.46-7.26c2-2.41,3.89-4.56,5.8-6.56a5.44,5.44,0,0,0,1.36-2.65l0,0a5,5,0,0,0-1.37-4.43,5.1,5.1,0,0,0-3.6-1.46,4.85,4.85,0,0,0-3.52,1.46Z"/><path class="cls-2" d="M131.77,156.94a5.15,5.15,0,0,0-2.91,2.25l-1.77,2.54.5.41c.23.15.45.29.69.42a23.93,23.93,0,0,0,5.11,1.45c1.2.16,2.38.38,3.56.6.11-.16.22-.33.34-.49a4.72,4.72,0,0,0,.49-3.76,4.89,4.89,0,0,0-2.24-2.93,5,5,0,0,0-2.47-.66,4.79,4.79,0,0,0-1.3.17Z"/><path class="cls-2" d="M125.71,254.57a105.46,105.46,0,0,1-7.34,9.86c-.18,5-.11,10,0,14.95s.17,10.06.56,15.07l.1,1.33h0l.55-.06c1.76-.21,3.52-.43,5.27-.66.59-.08,1.16-.18,1.8-.29l1.68-.31,0-.6-.05-.6c-.27-3.74-.39-7.57-.49-11,0-1.23-.08-2.46-.13-3.69-.17-5-.15-10.15-.09-14.91,0-2.5.17-5.05.41-7.79l.08-.73c.16-1.63.34-3.27.54-4.89-1,1.42-1.9,2.88-2.89,4.29Z"/><path class="cls-2" d="M123.78,306.76l-.15,0-1.39.16-1.06.13-1.18.12,0,.55q.18,1.75.42,3.51c.69,5,1.36,10,2.21,15s1.8,10.07,2.77,15.09c.48,2.48,1.2,4.87,1.91,7.29.66,2.27,1.31,4.55,2,6.8,1.55,4.76,3.25,9.48,5.2,14.09a2.14,2.14,0,0,0-.1-.22c.06.13.11.27.17.4l-.07-.18c.88,2,1.83,4,2.85,6a31.6,31.6,0,0,0,3,4.82,17.5,17.5,0,0,0,2.13,2.49c2,1.75,4.83,2.78,7.44,1.85a6.21,6.21,0,0,0,2.52-1.46,8.48,8.48,0,0,0,1.26-1.59,8.57,8.57,0,0,0,.61-1.3,10.56,10.56,0,0,1,.69-1.17,11.9,11.9,0,0,0,1.39-3.67c1.16-4.73,1.81-9.57,3-14.3A73.17,73.17,0,0,0,161,345.79c0-.27,0-.54,0-.8a5.21,5.21,0,0,0-8.35-4.16v0a4,4,0,0,0-.53.47,5.37,5.37,0,0,0-1.52,3.67c-.09,1-.17,2-.25,3.09-.16,2-.32,4.07-.54,6.11l0,.17-.18,1.42c-.13.78-.3,1.55-.47,2.32-.08.4-.17.8-.25,1.19-.22,1.07-.42,2.15-.61,3.23l-.1.51-.23,1.22c-.13.7-.26,1.39-.4,2.08-.2,1-.4,2.05-.58,3.08l-.13.77-.11.51-.06.34v0l-.52-.93-.33-.61c-.82-1.47-1.62-3.12-2.53-5.19-1.76-4.24-3.31-8.45-4.59-12.51-.78-2.48-1.55-5-2.3-7.47-.65-2.15-1.22-4.43-1.74-7-1.07-5.22-2.08-10.44-3-15.53-.82-4.55-1.45-9.05-2.14-14.05-.06-.6-.12-1.2-.16-1.77-1.84.33-3.75.55-5.59.77Z"/><path class="cls-2" d="M134.49,369.33c-.1-.25-.21-.49-.31-.74.1.25.21.49.31.74Z"/><path class="cls-2" d="M134.7,369.81l0-.08a.3.3,0,0,1,0,.08Z"/><path class="cls-2" d="M154.83,336.24a4.57,4.57,0,0,0-2.05,2.67,4.66,4.66,0,0,0-.08,1.94h0a4.34,4.34,0,0,0,3.21,3.56c2.55.57,5.1,1.09,7.65,1.66,1,.21,1.91.47,2.86.72a38,38,0,0,0,4.65.67c4.94.63,9.92,1.2,14.89,1.59,2.46.2,4.92.24,7.38.39s4.79.26,7.18.43a93.27,93.27,0,0,0,14,.38c.48,0,.95-.08,1.42-.13a3.64,3.64,0,0,1,.52-.35c1.25-.75,2.57-1.39,3.85-2.08s2.79-1.54,4.18-2.33c2.18-1.24,4.33-2.54,6.43-3.91A21.31,21.31,0,0,1,233,340c.21-.12.43-.23.65-.33a5.28,5.28,0,0,0-5.46-2.72l0,0-.44.1h0c-2.25.66-4.55,1.1-6.81,1.69-2,.52-4,1-6.07,1.39a52.57,52.57,0,0,1-6.4.18l0,0c-1.21,0-2.43-.08-3.66-.13-1.71-.07-3.41-.17-5.11-.27-2.1-.13-4.48-.26-6.76-.33q-1.31,0-2.61-.06l-.48,0c-1,0-1.91,0-2.87-.07-1.33-.05-2.66-.16-4-.26l-2.39-.17c-4.38-.27-7.92-.56-11.15-.91-.84-.16-1.68-.35-2.52-.54s-1.5-.34-2.25-.49q-3.12-.62-6.23-1.31a6,6,0,0,0-1.23-.14,4.39,4.39,0,0,0-2.22.59Z"/><path class="cls-2" d="M264.42,42.88a5.09,5.09,0,0,0-3.14,2.49v.05a5.54,5.54,0,0,0-.49,3.9c.13.57.28,1.14.43,1.71.05.14.09.29.14.43s0,.13,0,.19A17,17,0,0,0,263,54.87l2.1,3.46c.23.37.45.74.67,1.12v0a49.78,49.78,0,0,1,2.3,4.44,71.56,71.56,0,0,1,3.71,15.25l0-.24,0,.24c.06.35.11.71.17,1.08l.24,1.87c.68,5.38,1.41,11.63,1.59,17.81.06,2.49.07,5.06.07,7.69v1.56c0,1.18,0,2.36,0,3.54-.05,1.41-.19,2.79-.3,3.83-.53,3.57-1.16,7.78-1.95,12l0,.22a65,65,0,0,1-1.41,6.4c-.48,1.65-1.08,3.37-1.84,5.28-.4.86-.86,1.69-1.3,2.51l-.05.1-.46.84-.4.76-.06.1c-.52,1-1,2-1.6,2.92a87.41,87.41,0,0,1-5.12,7.95c-.48.6-1,1.25-1.46,2-.22.33-.42.68-.62,1l-.4.7c-.22.24-.43.46-.66.69a6.43,6.43,0,0,1-.52.47c-.19.17-.37.33-.54.51a7.45,7.45,0,0,0-1,1.31l0,0a5.52,5.52,0,0,0-.7,2.71,5.74,5.74,0,0,0,5.73,5.73,6,6,0,0,0,4-1.68,9.83,9.83,0,0,0,1-1.05,22.41,22.41,0,0,0,2.18-2.78c.5-.78.88-1.64,1.38-2.41s1.27-1.76,1.87-2.65c1.32-2,2.61-3.95,3.8-6,1.06-1.83,2-3.69,3-5.54a51,51,0,0,0,5.11-14.16c.94-4.73,1.67-9.48,2.41-14.25a64.3,64.3,0,0,0,.84-8.3c.05-2.47,0-4.93,0-7.38s0-4.77-.1-7.16c-.07-2.55-.36-5.1-.59-7.64-.5-5.32-1.19-10.63-2.13-15.89-.43-2.42-.9-4.83-1.54-7.2a53.53,53.53,0,0,0-2.79-7.56,52.71,52.71,0,0,0-3-5.35c-1.11-1.84-2.39-3.6-3.41-5.5-.16-.56-.31-1.13-.44-1.7a5.24,5.24,0,0,0-5.11-3.84,5.07,5.07,0,0,0-1.33.18ZM260,154.75c-.06.09-.13.17-.2.26l.2-.26Z"/><path class="cls-2" d="M255.63,161.56a5,5,0,0,0-1.44.67l0,0a5,5,0,0,0-2,5.38c.56,2.13,1.15,4.25,1.74,6.38l.12.43c1.17,4.18,2.38,8.51,3.3,12.82.13.66.27,1.3.41,2l.15.64,0,.23c.48,2.22,1,4.5,1.38,6.79.47,2.74.86,5.55,1.21,8l0,.34c.26,2.07.56,4.41.81,6.78.3,2.87.44,5.75.53,8.18,0,1.18.1,2.36.17,3.54l0,.53c.07,1.21.14,2.41.19,3.62.07,2.05.09,4.14.11,6.22v1.93c0,1.51.08,3,.16,4.71l0,.57c0,.78.07,1.55.09,2.32.07,2.19.08,4.42.09,6.6v1l0,2.27v.21c0,4.4.05,9-.11,13.42q-.07,2.07-.12,4.14v.15c-.12,4.35-.25,8.84-.73,13.24-.22,1.42-.52,2.85-.8,4.24l0,.12q-.25,1.2-.48,2.4c-.4,2.1-.76,4.2-1.12,6.31l-.22,1.26c-.79,4.58-1.74,9.37-3,15.08l-.34,1.5c-.43,2-.89,4-1.42,6s-1.17,4.33-1.88,6.75c-.74,2.58-1.64,5.23-2.44,7.56-.67,2-1.39,4.1-2,6.17-1.67,5.45-3.15,10-5,14.49l-.75,1.71c-.74,1.69-1.48,3.37-2.19,5.06-.18.42-.37.84-.59,1.26a1.86,1.86,0,0,1-.1.2h0v0c-.21-.66-.42-1.32-.64-2-.59-1.76-1.15-3.53-1.71-5.31l-.26-.84-.62-1.94c-.72-2.28-1.29-4.69-1.79-6.83l-.38-1.62c.62-.45,1.22-.93,1.8-1.41a5.5,5.5,0,0,0,1.42-2.42,5.49,5.49,0,0,0-3.84-6.74,5.35,5.35,0,0,0-1.36-.18,6.5,6.5,0,0,0-2.86.74,10.88,10.88,0,0,0-1.1.64h0l-.19.13-.16-.05h0a6,6,0,0,0-1.65-.22h-.15a13.68,13.68,0,0,0-1.36.15h0l.26,0h.12c-.7.09-1.39.19-2.1.3-1,.09-2,.15-3,.21h-.12a27.46,27.46,0,0,0-7.49,1.09,21,21,0,0,0-2.07.85l-.78.34a6.45,6.45,0,0,0-1,.56h0a6.22,6.22,0,0,0-2.69,4.94,5.78,5.78,0,0,0,1.67,4.16,12.85,12.85,0,0,0,1.25.95,6.53,6.53,0,0,0,3.15.8,26.93,26.93,0,0,0,3,0c1.74,0,3.47-.18,5.2-.29,1-.06,2-.13,3-.23l.18.77c.46,1.95,1,3.89,1.55,5.81,1.16,3.78,2.48,7.53,3.8,11.26.77,2.18,1.51,4.38,2.47,6.5a7.58,7.58,0,0,0,1.42,2.15,6.88,6.88,0,0,0,3.2,2,7.13,7.13,0,0,0,3.94-.11c.84-.31,1.67-.67,2.48-1.06a15.83,15.83,0,0,0,5.69-5.37,31.33,31.33,0,0,0,3-6.12c1-2.38,2.16-4.73,3.13-7.14.87-2.15,1.73-4.33,2.48-6.53,1.6-4.69,2.87-9.48,4.47-14.17.78-2.26,1.54-4.51,2.23-6.8s1.26-4.59,1.9-6.87,1.16-4.83,1.7-7.25,1.08-5,1.59-7.55,1-5.09,1.48-7.65.89-5.18,1.38-7.76,1.1-5,1.44-7.5a74.11,74.11,0,0,0,.82-8.54c.11-5.32.36-10.64.38-16s0-10.44-.16-15.66-.45-10.36-.57-15.55c-.07-2.68-.19-5.36-.38-8-.16-2.45-.23-4.9-.43-7.34-.45-5.59-1.27-11.15-2.13-16.68-.39-2.49-.84-5-1.3-7.45s-1.15-4.95-1.7-7.43c-1.47-6.6-3.52-13.06-5.23-19.61a5,5,0,0,0-4.81-3.63,5.06,5.06,0,0,0-1.28.17ZM241.35,370.45l.06.09-.06-.09Z"/><path class="cls-2" d="M263,197.57a4.36,4.36,0,0,0-2,2.62,4.63,4.63,0,0,0,.44,3.38c.56,1.18,1.12,2.36,1.67,3.55s.79,2.46,1.14,3.71c.44,1.56.87,3.11,1.33,4.66.9,3.09,2,6.12,3.08,9.15a72.73,72.73,0,0,1,2.54,9.42c.29,1.42.57,2.85.89,4.27s.68,2.74.9,4.12c.12,1.22.24,2.44.32,3.67a20.49,20.49,0,0,1,.07,2.48,8.79,8.79,0,0,1-.39,1.23l-.51,1.2a4.65,4.65,0,0,0-4.76,2.24,4.74,4.74,0,0,0,1.69,6.41,10.06,10.06,0,0,0,2.41,1,8.77,8.77,0,0,0,3.85,0,5.61,5.61,0,0,0,4.24-3c.68-1.44,1-3,1.55-4.52l-.13.33a13.25,13.25,0,0,0,1.19-4.84,45.8,45.8,0,0,0-.46-6.07,28.69,28.69,0,0,0-.7-4.11c-.26-1.06-.49-2.13-.75-3.2-.49-2.06-.87-4.15-1.36-6.2a67.32,67.32,0,0,0-2-6.89c-.76-2.16-1.53-4.31-2.27-6.48s-1.35-4.35-2-6.54c-.31-1.09-.6-2.18-.94-3.25a35.41,35.41,0,0,0-1.64-4l-1.37-2.9a4.3,4.3,0,0,0-2.62-2,4.56,4.56,0,0,0-1.16-.15,4.35,4.35,0,0,0-2.22.6Zm11.6,54.26.16.07-.16-.07Z"/><path class="cls-2" d="M131.76,158.06a88.8,88.8,0,0,0-6.74,8.25c-1.27,1.78-2.45,3.64-3.65,5.47-1.4,2.14-2.8,4.28-4.07,6.5a62.79,62.79,0,0,0-3.07,6.6c-1.14,2.63-2.21,5.28-3.27,7.94-.84,2-1.7,4-2.55,6,0,0,0,.08,0,.11l-.12.28c-2,4.83-3.64,9.8-5.31,14.75q-1.32,3.87-2.59,7.76c-.81,2.47-1.47,5-2.12,7.5s-1.27,4.8-1.8,7.23A76.68,76.68,0,0,0,95.2,245,62.66,62.66,0,0,0,95,260a23.52,23.52,0,0,0,.66,3.56,20.27,20.27,0,0,0,1.27,3.09c1.38,2.92,4.08,5.48,7.44,5.57,2.94.09,5.16-1.82,7.24-3.64a23.24,23.24,0,0,0,3.86-4.8c.93-1.4,1.81-2.83,2.78-4.21s1.93-2.87,2.86-4.33c1.84-2.88,3.71-5.77,5.73-8.54l2.27-2.77v0c1.42-1.73,2.92-3.59,4.36-5.48.71-.93,1.66-2.17,2.55-3.42l.61-.84.6-.85a12.75,12.75,0,0,0,1.42-2.78,5.66,5.66,0,0,0,0-2.89,5.56,5.56,0,0,0-2.51-3.27,5.29,5.29,0,0,0-2.68-.73,5.82,5.82,0,0,0-3.93,1.59,12.61,12.61,0,0,0-1.62,2l-.45.65L126.6,229l-.66.94q-1.25,1.71-2.52,3.39c-.62.78-1.26,1.56-1.89,2.34-1.39,1.7-2.82,3.45-4.14,5.24-1.17,1.59-2.27,3.28-3.34,4.91l-.07.11c-.42.64-.84,1.29-1.27,1.93s-.83,1.28-1.25,1.91l-.32.5c-.85,1.31-1.72,2.67-2.63,4-.59.86-1.15,1.74-1.73,2.67-.31.49-.62,1-1,1.46l-.26.39v0l0,0,0-.11,0-.11a79.76,79.76,0,0,1,.5-16.24c.59-3.68,1.51-7.3,2.4-10.81l.38-1.5c1.06-4.22,2.47-8.49,3.72-12.26l.66-2,.72-2.24c1.22-3.72,2.48-7.56,4-11.23.31-.78.63-1.55,1-2.32l.14-.34c.58-1.36,1.18-2.77,1.72-4.19.83-2.16,1.65-4.28,2.52-6.38a64.63,64.63,0,0,1,4.08-8.22c.6-1,1.23-2,1.86-3l.18-.28.31-.48.16-.25c1.53-2.38,3.11-4.84,4.84-7.15,1.29-1.6,2.68-3.21,4.13-4.79h0a5,5,0,0,0-.07-6.88,5,5,0,0,0-3.56-1.43,4.53,4.53,0,0,0-3.39,1.43Z"/><path class="cls-2" d="M122.55,238.61a4.36,4.36,0,0,0-2.08,2.69c-.59,3.23-1.07,6.47-1.51,9.72l0-.14c-.4,2.92-.74,5.82-.9,8.76-.08,1.36-.06,2.72,0,4.09s0,2.51.12,3.77a4.78,4.78,0,0,0,2.3,4,4.63,4.63,0,0,0,5.62-.72,4.74,4.74,0,0,0,1.23-2.09,9,9,0,0,0,.19-2.09c0-.54,0-1.07,0-1.61,0-1.21,0-2.42,0-3.63,0-1.61.19-3.21.36-4.81l.06-.65.1-.9c.15-.93.31-1.92.53-2.9l.13-.57c.08-.31.15-.62.2-.92s.07-.38.1-.57a6.47,6.47,0,0,0,0-2.77,5.85,5.85,0,0,0-.38-.93c.14-.83.28-1.66.44-2.5l0,0,0-.11a4.84,4.84,0,0,0-.46-3.48,4.58,4.58,0,0,0-2.69-2.07,4.38,4.38,0,0,0-1.19-.16,4.46,4.46,0,0,0-2.28.62Z"/><path class="cls-2" d="M201.57,117.33c-1.15.09-2.27.22-3.43.4a8.88,8.88,0,0,0-1.5.37,7.81,7.81,0,0,0-3.86,3.13,13.85,13.85,0,0,0-1.45,2.88,8.27,8.27,0,0,0-.19,4.75,5.2,5.2,0,0,0,1.51,2.47,11.5,11.5,0,0,0,1.79,1.37,9.21,9.21,0,0,0,4.17,1.35A8.34,8.34,0,0,0,205,131.4a8.55,8.55,0,0,0,.76-.93v0a7.77,7.77,0,0,0,.29-8.46v-.16a4.54,4.54,0,0,0-1.32-3.19,4.46,4.46,0,0,0-2.95-1.32Zm-1.31,9.5.05.36c0-.12,0-.24-.05-.36Z"/><path class="cls-2" d="M198.53,125.2l-1.12.48a4.83,4.83,0,0,0-1.7,1.69q-1.52,2-3,4h0l-1.62,2.11c-1.12,1.4-2.25,2.81-3.39,4.2l-.75.91-.74.91-.15.17-.15.18c-.18.21-.35.43-.53.65l-.32.4a5.33,5.33,0,0,0-1.13,1.88l-.09.22a4.73,4.73,0,0,0,0,2.42,4.53,4.53,0,0,0,4.4,3.33,4.5,4.5,0,0,0,2.36-.64,5.52,5.52,0,0,0,1.56-1.35l.25-.28c.4-.43.78-.87,1.21-1.36l.28-.33c.74-.85,1.44-1.73,2.15-2.61l.58-.73c.42-.51.83-1,1.24-1.54l.69-.84c1.8-2.29,3.56-4.62,5.32-6.94a4.53,4.53,0,0,0,.47-3.63,4.72,4.72,0,0,0-2.16-2.81,4.66,4.66,0,0,0-2.38-.65,4.83,4.83,0,0,0-1.25.17Z"/><path class="cls-2" d="M199.35,126a4.91,4.91,0,0,0-2.91,2.24A4.69,4.69,0,0,0,196,132c.8,2,1.61,4,2.46,6l.36.82v0a16.89,16.89,0,0,0,3,4.83,4.47,4.47,0,0,0,3.32,1.39,4.85,4.85,0,0,0,3.42-1.39,4.78,4.78,0,0,0,1.39-3.36l-.08-.64-.08-.63a4.83,4.83,0,0,0-1-1.9,25.86,25.86,0,0,1-1.47-2.93c-.51-1.22-1-2.43-1.49-3.67h0c-.15-.35-.29-.71-.43-1.06s-.33-.78-.49-1.17a5.06,5.06,0,0,0-1.75-1.75,4.9,4.9,0,0,0-2.47-.67,4.8,4.8,0,0,0-1.3.18Z"/><path class="cls-2" d="M216.2,73.51A4.11,4.11,0,0,0,215,76.65l.1,1.7,0,.42c.21,3.38.44,6.87.75,10.29.16,1.7.32,3.4.49,5.1.06.56.13,1.11.2,1.67l0,.4c.08.66.18,1.32.29,2l.1.6a7.51,7.51,0,0,0,.64,1.87l.19.42a4.55,4.55,0,0,0,2.86,2.2,4.88,4.88,0,0,0,4.65-1.23,6,6,0,0,0,1.49-2.39,14.81,14.81,0,0,0,.48-2.71l.08-.62a23.77,23.77,0,0,0,.12-2.87v-.64c0-1.33,0-2.65,0-4v-.8c0-.63,0-1.27,0-1.91v-.48c0-.53,0-1.06,0-1.59a35.18,35.18,0,0,0-.39-5.91,4.69,4.69,0,0,0-1.2-2A4.62,4.62,0,0,0,224.16,75a4.52,4.52,0,0,0-1.07-1.69,4.76,4.76,0,0,0-3.35-1.38,5,5,0,0,0-3.54,1.59Z"/><path class="cls-2" d="M169,75.93a4.47,4.47,0,0,0-1.3,3.29c.06,1.61.13,3.23.2,4.85,0,.37,0,.73,0,1.15,0,.8.07,1.63.15,2.45l.07.76c.1,1.1.2,2.19.33,3.28a17.36,17.36,0,0,0,1.24,5.17,7.32,7.32,0,0,0,1.39,2.06,15.67,15.67,0,0,0,1.89,1.58,6.28,6.28,0,0,0,1.19.59l.9.38.25.11a14.62,14.62,0,0,0,1.93.21h.2a4.64,4.64,0,0,0,2.62-.94l.68-.52.3-.23,1-1.37.25-.58.24-.57a3.66,3.66,0,0,0,.39-1.36,17.07,17.07,0,0,0,.26-2.71,9.77,9.77,0,0,0-.1-1.64l-.06-.51c-.07-.73-.17-1.46-.27-2.19l-.1-.71a58.41,58.41,0,0,0-1.65-7.79,4.76,4.76,0,0,0-4.18-3.43,4.77,4.77,0,0,0-4.39-2.88A4.93,4.93,0,0,0,169,75.93Zm9.49,16.86c.08.09.16.2.23.29a3.25,3.25,0,0,1-.23-.29Z"/><path class="cls-2" d="M247.8,46.26c-1.4,2.53-2.81,5.07-4.2,7.61a4.61,4.61,0,0,0,4,7,4.57,4.57,0,0,0,4-2.28l2.18-3.94.63-1.12L255.85,51a4.69,4.69,0,0,0-1.67-6.37,4.64,4.64,0,0,0-2.33-.62,4.58,4.58,0,0,0-4,2.29Z"/><path class="cls-2" d="M141.26,41.11a4.71,4.71,0,0,0-2.12,2.77,5,5,0,0,0,.46,3.56l2.69,5.87a4.57,4.57,0,0,0,2.76,2.12,4.92,4.92,0,0,0,1.22.16,4.64,4.64,0,0,0,2.34-.63,4.69,4.69,0,0,0,2.12-2.76,5,5,0,0,0-.46-3.56L149,45.76l-1.36-3a4.52,4.52,0,0,0-2.77-2.12,4.59,4.59,0,0,0-1.22-.16,4.69,4.69,0,0,0-2.35.62Z"/><path class="cls-2" d="M24.35,161a33.12,33.12,0,0,0-4.28,2.18c-1.11.59-2.2,1.22-3.26,1.89a48.65,48.65,0,0,0-4.72,3.36,17.48,17.48,0,0,0-3.37,4,18.52,18.52,0,0,0-2.4,6.48,16.46,16.46,0,0,0-.09,7.83,23,23,0,0,0,1.23,3.06,11.25,11.25,0,0,0,2,3.38,13.16,13.16,0,0,0,4,2.67c.72.33,1.43.68,2.14,1A11.15,11.15,0,0,0,18.92,198a20.21,20.21,0,0,0,3.47.2,43.06,43.06,0,0,0,5.2-.57,34.16,34.16,0,0,1,6-.39,15.28,15.28,0,0,1,2.11.57l.45.24a18,18,0,0,1,1.08,2.09c.56,1.39,1.1,2.78,1.54,4.21A51.46,51.46,0,0,1,40,209.65c.32,1.67.64,3.34,1,5,.44,1.95,1,3.88,1.41,5.83.76,3.53,1.43,7.09,2.11,10.63s1.3,7,1.87,10.56c.23,2.19.35,4.4.52,6.61.21,2.75.58,5.49,1,8.23.67,4.62,1.69,9.17,2.68,13.73.47,2.2,1,4.38,1.56,6.54A44.44,44.44,0,0,0,55,284.16c.91,2,1.73,4,2.8,5.85s2.15,3.53,3.24,5.28a125.41,125.41,0,0,0,8.44,11.77,23.14,23.14,0,0,0,4.06,3.66c1.07.83,2.11,1.71,3.25,2.43a22.78,22.78,0,0,0,4.38,1.93c2,.74,3.94,1.62,6,2.26a59.11,59.11,0,0,0,6.95,1.81c2.73.5,5.43,1,8.2,1.31a36.31,36.31,0,0,0,7.07.31c2.34-.17,4.67-.74,7-1.09,1.95-.29,3.89-.71,5.85-1l.51-.07a5.54,5.54,0,0,0-1.48-10.88c-.4,0-.81,0-1.21.06v0c-1.26.11-2.6.36-3.67.56l-.27.05c-.64.11-1.28.23-1.93.33-1.63.22-3.25.48-4.87.75-.65.05-1.31.08-2,.08a52,52,0,0,1-5.64-.4l-2.81-.49-.48-.08-1-.19c-1.81-.31-3.56-.75-5.34-1.22a39.72,39.72,0,0,1-4.63-1.5l-2.19-.82c-.57-.21-1.14-.41-1.71-.63a16.54,16.54,0,0,1-2.55-1.55l-.39-.31-.18-.13L80,302A19.53,19.53,0,0,1,78,300.3,14.68,14.68,0,0,1,77,299.08l-.16-.21-.12-.16c-1.22-1.61-2.49-3.28-3.69-4.95-.92-1.28-1.78-2.65-2.54-3.86l-1.06-1.68A51.43,51.43,0,0,1,66.28,283c-1-1.94-1.85-3.93-2.68-5.8A44.63,44.63,0,0,1,62,271.69c-.62-2.56-1.1-4.65-1.49-6.58-.16-.73-.32-1.46-.49-2.19l-.08-.39c-.29-1.28-.58-2.59-.82-3.9-.38-2.11-.72-4.2-1-6.4-.24-2-.4-4-.55-5.83a85,85,0,0,0-1.1-9.3c-.34-1.78-.65-3.57-1-5.36l-.12-.63-.07-.41c-.43-2.46-.89-5-1.4-7.5-.18-.92-.36-1.83-.55-2.83-.26-1.34-.52-2.68-.81-4-.23-1.08-.5-2.14-.76-3.2l0-.13c-.3-1.21-.61-2.46-.86-3.69l-.33-1.65,0-.18c-.29-1.46-.59-3-.93-4.45a40.67,40.67,0,0,0-2.06-6l-.21-.51c-.48-1.18-.87-2.07-1.27-2.89A14.27,14.27,0,0,0,44.23,191c-1.55-2-3.87-3-6.15-3.76a11,11,0,0,0-2-.46l-.15,0a27.18,27.18,0,0,0-3.21-.3h-.15A29.74,29.74,0,0,0,28,187l.22,0-.26,0h-.13l-.28,0,.67-.07q-2.16.28-4.32.63a25.13,25.13,0,0,1-2.65.18,3.54,3.54,0,0,1-.46,0l-.45-.13-1.14-.53-.12-.05a21.62,21.62,0,0,1-2-1c-.25-.46-.48-.94-.7-1.41s-.22-.66-.32-1,0-.77,0-1.16a22.49,22.49,0,0,1,.89-3.54,13.24,13.24,0,0,1,.87-1.53,13.33,13.33,0,0,1,1.51-1.5,57.33,57.33,0,0,1,8.3-4.89l.31-.09c.33,0,.67,0,1,0a32.51,32.51,0,0,1,4.17.32c1.35.24,2.37.45,3.31.69a21.48,21.48,0,0,1,2.5.83A59.4,59.4,0,0,1,47.73,178c1.36,1.15,2.51,2.16,3.6,3.19,1.38,1.3,2.61,2.66,3.74,3.93a33.22,33.22,0,0,1,2.82,4.21c.93,1.73,1.82,3.59,2.89,6,.69,1.76,1.25,3.39,1.71,5a40.52,40.52,0,0,1,1.12,5.49,142.78,142.78,0,0,1,1,14.65c0,2.83.13,5.67.21,8.5q.12,3.67.2,7.35L65,239c0,1.76.06,3.51.1,5.26v.41c.06,2.4.11,4.88.36,7.29.28,2.91.62,6,1.14,9.14a79.69,79.69,0,0,0,2,9.32,42.63,42.63,0,0,0,6.18,12.7l.29.41A41.51,41.51,0,0,0,79,288.44a44.71,44.71,0,0,0,3.66,3.48,21.86,21.86,0,0,0,3.94,2.64c1.49.76,3.1,1.39,4.66,2,1.72.68,3.54,1.2,5.33,1.71l.74.21a67.57,67.57,0,0,0,8.13,1.62c1.19.19,2.37.37,3.52.6a5.76,5.76,0,0,1,4.07-4.17l.77-.11.76-.1,3.22-.38,1.27-.16.55-.06c1.76-.21,3.52-.43,5.27-.66.59-.08,1.16-.18,1.8-.29l.25,0a5.11,5.11,0,0,0-1.36-2.48,4.84,4.84,0,0,0-3.59-1.49,40.2,40.2,0,0,1-9.1.26c-3.13-.6-6.27-1.16-9.41-1.73A43,43,0,0,1,98.64,288c-1.62-.49-3.22-1-4.79-1.65a26.08,26.08,0,0,1-3.75-2,37.53,37.53,0,0,1-4.48-4.61c-.61-.83-1.2-1.65-1.79-2.5a37.79,37.79,0,0,1-3.46-6.14,49.79,49.79,0,0,1-2.64-9.67q-.51-3.1-1-6.22c-.5-5.28-.69-10.57-.77-15.89s-.29-10.52-.41-15.79c0-2.48-.06-5-.21-7.43-.16-2.8-.38-5.59-.63-8.38-.14-1.46-.34-2.93-.57-4.37s-.37-2.68-.69-4a56.93,56.93,0,0,0-2.4-7.43,80.81,80.81,0,0,0-3.85-8.22,30.83,30.83,0,0,0-2-3,42.61,42.61,0,0,0-3-3.91,48.36,48.36,0,0,0-5.49-5.41c-1.29-1-2.56-2.1-3.92-3.06s-2.47-1.65-3.75-2.43a40.31,40.31,0,0,0-7.64-3.73,38.85,38.85,0,0,0-8.55-1.73c-1.12-.14-2.25-.2-3.39-.23h-.37a14.49,14.49,0,0,0-4.78.74Z"/><path class="cls-3" d="M261.32,20.89h0c-.86.63-1.72,1.27-2.57,1.92-2.44,2-4.36,3.68-6.05,5.34a70.61,70.61,0,0,0-5,5.38,130.84,130.84,0,0,0-7.58,11.66,5.31,5.31,0,0,1-7.22,1.89A5.17,5.17,0,0,1,231.52,46c-4.75.13-9.72.23-15.22.29h-2.22c-1.57,0-3.2,0-4.79.08l-1.62.08h-.1c-1.11.06-2.26.11-3.39.11-.72,0-1.35,0-1.93-.06-.86-.06-1.72-.14-2.58-.22h-.16c-1.4-.13-2.86-.25-4.29-.3l-1.15,0c-1.78,0-3.59.11-5.34.22l-.94.05-1.58.09c-1.76.1-3.62.2-5.42.35s-3.62.39-5.78.67l-.54.08a25.69,25.69,0,0,0-5.5,1.17c-1.34.57-2.46,1-3.52,1.43l-.45.17a12,12,0,0,1-4.29,1.08,3.17,3.17,0,0,1-.43,0,5.86,5.86,0,0,1-4-1.66,5.7,5.7,0,0,1-1.61-3.3,6.28,6.28,0,0,1-2.75-2.35q-2.16-2.94-4.35-5.86a66.85,66.85,0,0,0-4.43-5.25l-.49-.5c-1.34-1.4-2.73-2.85-4.24-4.14-.45-.31-.91-.59-1.37-.88l-.78-.48-.81-.52c-.71-.45-1.42-.9-2.12-1.37-.05,1-.06,2-.07,2.94v1.61c0,3.39,0,6.21.19,9.12.15.87.33,1.73.5,2.6s.38,1.83.54,2.75a17.51,17.51,0,0,1,.1,7.08,5.19,5.19,0,0,1-.75,1.68,5.44,5.44,0,0,1-1.36,2.65c-1.91,2-3.81,4.15-5.8,6.56a49.83,49.83,0,0,0-4.46,7.26c-.47.93-.93,1.92-1.5,3.22a34.64,34.64,0,0,0-1.5,4.57c-.42,1.69-.72,3.37-1,5.09-.6,3.5-1.16,7-1.69,10.79l-.06.55c-.16,1.41-.34,3-.39,4.57-.06,1.83-.07,3.8,0,6,0,3,.26,6.19.66,9.86.31,1.57.69,3.43,1.24,5.29.23.78.47,1.55.7,2.32l.24.78c.25.81.5,1.63.74,2.45l.23.77c.89,2.93,1.88,6.26,3.12,9.37a50,50,0,0,0,4.34,7.91c1.75,2.57,3.69,5.26,5.76,8a15.63,15.63,0,0,0,1.92,2.05l.76.64.24.2.82.7c.65.59,1.28,1.25,1.84,1.83l.83.87a5.87,5.87,0,0,1,.13,8.09l-.78-.14c-1.46,1.58-2.85,3.2-4.14,4.79-1.73,2.31-3.31,4.77-4.84,7.15l-.16.25-.32.48-.17.28c-.63,1-1.26,2-1.86,3a64.63,64.63,0,0,0-4.08,8.22c-.86,2.1-1.69,4.22-2.52,6.38-.55,1.42-1.14,2.83-1.72,4.19l-.14.34c-.32.77-.65,1.54-1,2.32-1.49,3.67-2.75,7.51-4,11.23l-.73,2.24-.66,2c-1.25,3.77-2.67,8-3.72,12.27l-.38,1.5c-.89,3.5-1.81,7.12-2.4,10.8a79.76,79.76,0,0,0-.5,16.24l0,.11,0,.11c.45-.6.84-1.23,1.23-1.85.58-.93,1.14-1.82,1.73-2.66.9-1.3,1.78-2.66,2.63-4l.33-.5,1.24-1.91c.43-.64.85-1.28,1.27-1.93l.07-.11c1.07-1.63,2.17-3.32,3.34-4.91,1.32-1.79,2.75-3.54,4.14-5.24.63-.78,1.27-1.56,1.89-2.34.85-1.13,1.69-2.25,2.52-3.39l.66-.93.87-1.2.45-.65a12.61,12.61,0,0,1,1.62-2,5.82,5.82,0,0,1,3.93-1.59,5.29,5.29,0,0,1,2.68.73,5.61,5.61,0,0,1,2.51,3.26,5.7,5.7,0,0,1,0,2.9,12.75,12.75,0,0,1-1.42,2.78l-.6.84-.61.85c-.9,1.25-1.84,2.49-2.55,3.43-1.44,1.88-2.94,3.74-4.36,5.47-.15.84-.3,1.66-.44,2.5a5.85,5.85,0,0,1,.38.93,6.47,6.47,0,0,1,0,2.77l-.09.57c-.06.3-.14.61-.21.91l-.13.58c-.22,1-.38,2-.52,2.9l-.11.9c-.24,2.74-.37,5.29-.41,7.79,0,4.76-.08,9.87.09,14.91,0,1.23.09,2.46.13,3.69.1,3.4.22,7.23.49,11l.05.6,0,.6c-.54.11-1.11.22-1.68.31s-1.22.21-1.8.3c-1.76.23-3.51.44-5.28.65l-.54.06-1.27.16-3.22.38-.77.11-.76.1A5.76,5.76,0,0,0,109,300.7c-1.15-.22-2.33-.41-3.51-.59a69.37,69.37,0,0,1-8.14-1.63l-.74-.21c-1.79-.51-3.61-1-5.33-1.71-1.56-.61-3.17-1.24-4.66-2a22.27,22.27,0,0,1-3.95-2.64A44.57,44.57,0,0,1,79,288.44a40.42,40.42,0,0,1-3.91-4.93l-.3-.41a42.7,42.7,0,0,1-6.18-12.69,80,80,0,0,1-2-9.34c-.52-3.11-.86-6.22-1.15-9.13-.23-2.41-.29-4.89-.35-7.29v-.41c0-1.75-.07-3.5-.1-5.26l0-2.61q-.07-3.68-.2-7.35c-.08-2.83-.17-5.67-.21-8.5a142.78,142.78,0,0,0-1-14.65,42.18,42.18,0,0,0-1.11-5.49c-.47-1.62-1-3.25-1.71-5-1.08-2.44-2-4.3-2.9-6a32.4,32.4,0,0,0-2.82-4.2c-1.13-1.28-2.36-2.64-3.74-3.94-1.09-1-2.24-2-3.61-3.19a59.63,59.63,0,0,0-8.78-5.28,23.4,23.4,0,0,0-2.5-.82c-.94-.24-2-.45-3.31-.69A32.65,32.65,0,0,0,29,170.9l-1,0-.31.08a58.21,58.21,0,0,0-8.3,4.9,13.33,13.33,0,0,0-1.51,1.5,11.92,11.92,0,0,0-.87,1.53,22.63,22.63,0,0,0-.89,3.53c0,.4,0,.78,0,1.17s.2.68.32,1c.22.48.44,1,.69,1.41.65.37,1.31.67,2,1l.12.05,1.13.53.46.14h.46a22.71,22.71,0,0,0,2.65-.18c1.44-.22,2.88-.43,4.32-.62l-1.41.14,1.08-.12a31.36,31.36,0,0,1,4.65-.48h.15a25.22,25.22,0,0,1,3.21.3l.14,0a10.88,10.88,0,0,1,2.06.46c2.28.78,4.6,1.77,6.15,3.76A14.27,14.27,0,0,1,46,193.71c.4.82.79,1.71,1.27,2.89l.21.51a40.67,40.67,0,0,1,2.06,6c.34,1.47.64,3,.93,4.45l0,.18.32,1.65c.25,1.23.56,2.48.86,3.69l0,.13c.26,1.06.52,2.12.76,3.2.29,1.32.55,2.66.81,4,.19,1,.37,1.91.55,2.83.51,2.49,1,5,1.4,7.5l.07.41.12.63c.32,1.79.63,3.58,1,5.36a84.74,84.74,0,0,1,1.1,9.3c.15,1.82.31,3.84.55,5.83.31,2.2.65,4.29,1,6.4.24,1.3.53,2.62.81,3.9l.09.38c.16.73.33,1.47.48,2.2.41,1.93.88,4,1.5,6.58a44.63,44.63,0,0,0,1.63,5.48c.83,1.87,1.73,3.86,2.68,5.8a54.61,54.61,0,0,0,3.1,5.26c.36.55.72,1.11,1.07,1.68.76,1.2,1.62,2.57,2.54,3.85,1.2,1.67,2.47,3.33,3.69,4.95l.12.16.16.2A13.48,13.48,0,0,0,78,300.3,19.92,19.92,0,0,0,80,302l.34.28.18.13.39.31a16.54,16.54,0,0,0,2.55,1.55q.85.33,1.71.63l2.2.82A38.53,38.53,0,0,0,92,307.2c1.77.47,3.52.91,5.32,1.22l1.06.19.48.08,2.8.49a52.16,52.16,0,0,0,5.65.4c.71,0,1.37,0,2-.08,1.62-.27,3.24-.53,4.87-.75l1.93-.33.28-.05c1.06-.2,2.4-.45,3.66-.56l0-.62,1.18-.12,1.07-.13,1.38-.16.15,0c1.84-.22,3.75-.44,5.59-.78,0,.59.1,1.18.16,1.78.69,5,1.32,9.5,2.15,14.05.92,5.09,1.93,10.31,3,15.53.52,2.55,1.09,4.83,1.74,7,.75,2.49,1.51,5,2.3,7.47,1.28,4.06,2.83,8.27,4.59,12.51.91,2.07,1.71,3.72,2.53,5.19l.33.61.52.93.19-.85.13-.77c.18-1,.38-2.05.58-3.08.14-.69.27-1.38.4-2.08l.23-1.22.09-.51c.2-1.08.4-2.16.62-3.23.08-.4.16-.79.25-1.19.17-.77.34-1.54.47-2.32l.18-1.42,0-.17c.22-2,.38-4.1.54-6.1.08-1.1.16-2.1.25-3.1a5.35,5.35,0,0,1,1.52-3.67,4,4,0,0,1,.53-.47,4.66,4.66,0,0,1,.08-1.94,4.55,4.55,0,0,1,2.06-2.67,4.33,4.33,0,0,1,2.21-.59,6,6,0,0,1,1.23.14c2.07.46,4.15.89,6.23,1.31.75.15,1.5.32,2.25.49s1.68.38,2.52.54c3.23.35,6.77.64,11.15.91l2.39.17c1.38.1,2.71.2,4,.26,1,0,1.91.06,2.87.07h.48l2.6.07c2.29.06,4.67.2,6.77.33,1.7.1,3.4.19,5.11.27,1.24,0,2.45.1,3.66.13a6.45,6.45,0,0,1,1-.56l.78-.34a21,21,0,0,1,2.07-.85,27.86,27.86,0,0,1,7.49-1.1h.12c1-.06,2-.12,3-.21l2.1-.3h-.11l-.29,0c.53-.07,1-.14,1.39-.15h.15a6,6,0,0,1,1.65.22l.44-.1a10.88,10.88,0,0,1,1.1-.64,6.5,6.5,0,0,1,2.86-.74,5.35,5.35,0,0,1,1.36.18,5.48,5.48,0,0,1,3.83,6.74,5.44,5.44,0,0,1-1.41,2.42c-.58.48-1.18,1-1.79,1.41l.37,1.62c.5,2.13,1.06,4.55,1.79,6.83.21.64.41,1.29.62,1.94l.26.84c.56,1.77,1.12,3.55,1.71,5.31.22.66.43,1.32.64,2a14.09,14.09,0,0,0,.7-1.47c.71-1.69,1.45-3.37,2.19-5.06l.75-1.71c1.83-4.49,3.31-9,5-14.49.64-2.07,1.35-4.18,2-6.17.8-2.33,1.7-5,2.44-7.56.71-2.42,1.32-4.63,1.88-6.76s1-4.05,1.42-6l.34-1.51c1.26-5.7,2.22-10.49,3-15.07l.22-1.26c.36-2.1.72-4.21,1.11-6.31l.48-2.4,0-.12c.28-1.39.58-2.82.8-4.24.48-4.39.61-8.89.73-13.24v-.15q0-2.07.12-4.14c.16-4.46.13-9,.1-13.42v-3.47c0-2.18,0-4.41-.08-6.6,0-.77-.06-1.54-.09-2.32l0-.57c-.08-1.68-.15-3.2-.16-4.71v-1.93c0-2.08,0-4.17-.11-6.22-.05-1.21-.12-2.41-.19-3.62l0-.53c-.07-1.18-.13-2.36-.17-3.54-.09-2.43-.23-5.3-.53-8.18-.25-2.37-.55-4.71-.81-6.78l0-.34c-.35-2.48-.74-5.29-1.21-8-.4-2.28-.9-4.57-1.38-6.78l-.05-.22-.14-.65-.42-2c-.91-4.31-2.12-8.64-3.29-12.82l-.12-.43c-.59-2.12-1.18-4.25-1.74-6.38a5,5,0,0,1,2-5.38,8,8,0,0,1,1-1.31c.17-.18.35-.34.54-.51s.37-.32.52-.47l.66-.69.41-.7c.2-.35.39-.7.61-1,.47-.71,1-1.36,1.46-2a91.9,91.9,0,0,0,5.13-7.95c.55-1,1.07-1.94,1.59-2.92l.06-.1.4-.76L267,143l.05-.1c.44-.81.9-1.66,1.3-2.51.76-1.91,1.36-3.63,1.84-5.28a65,65,0,0,0,1.41-6.4l0-.22c.79-4.24,1.42-8.45,1.94-12,.12-1,.25-2.41.31-3.83,0-1.18,0-2.36,0-3.54v-1.56c0-2.63,0-5.2-.08-7.69-.17-6.17-.91-12.43-1.58-17.81L272,80.2a74.82,74.82,0,0,0-3.88-16.33,49.78,49.78,0,0,0-2.3-4.44l-.8,1.06a2.11,2.11,0,0,0-.17-.52l-.16-.33c-.61-1.22-1.24-2.48-1.78-3.76a22.16,22.16,0,0,1-1.53-4.42c-.05-.14-.09-.29-.13-.43-.16-.57-.31-1.14-.44-1.71a5.53,5.53,0,0,1,.49-3.9l0-.62c.1-1.79.22-4,.22-6.19q0-6.51,0-13c0-1.47-.06-3-.14-4.68l0,0Zm-115,34.7a4.92,4.92,0,0,1-1.22-.16,4.57,4.57,0,0,1-2.76-2.12l-2.68-5.87a5,5,0,0,1-.47-3.56,4.63,4.63,0,0,1,4.47-3.39,4.59,4.59,0,0,1,1.22.16,4.52,4.52,0,0,1,2.77,2.12l1.35,3,1.32,2.88a5,5,0,0,1,.46,3.56,4.61,4.61,0,0,1-4.46,3.39Zm101.32,5.26a4.62,4.62,0,0,1-2.32-.61,4.69,4.69,0,0,1-1.67-6.37l4.2-7.61a4.58,4.58,0,0,1,4-2.29,4.64,4.64,0,0,1,2.33.62A4.69,4.69,0,0,1,255.85,51l-1.41,2.54-.63,1.14-2.18,3.93a4.57,4.57,0,0,1-4,2.28ZM222,103.46a4.71,4.71,0,0,1-1.25-.16,4.55,4.55,0,0,1-2.86-2.2l-.19-.42a7.51,7.51,0,0,1-.64-1.87l-.1-.6c-.11-.66-.21-1.32-.29-2l0-.41c-.07-.55-.14-1.1-.2-1.66-.17-1.7-.34-3.4-.49-5.1-.31-3.42-.54-6.92-.75-10.29l0-.42-.11-1.7a4.24,4.24,0,0,1,1.2-3.15,5,5,0,0,1,3.54-1.59,4.75,4.75,0,0,1,3.35,1.39A4.44,4.44,0,0,1,224.16,75a4.63,4.63,0,0,1,3,3.17,33.34,33.34,0,0,1,.4,5.92c0,.53,0,1.06,0,1.59v.48c0,.64,0,1.28,0,1.91v.8c0,1.33,0,2.65,0,4v.64a21.73,21.73,0,0,1-.13,2.86l-.07.63a15.73,15.73,0,0,1-.49,2.71,6,6,0,0,1-1.49,2.39,4.63,4.63,0,0,1-3.4,1.39Zm-44.51-1.64h-.2a14.62,14.62,0,0,1-1.93-.21l-.25-.11-.9-.38a6.28,6.28,0,0,1-1.19-.59,15.67,15.67,0,0,1-1.89-1.58,7.11,7.11,0,0,1-1.39-2.06,17.36,17.36,0,0,1-1.24-5.17c-.13-1.09-.24-2.19-.33-3.28l-.07-.77c-.08-.81-.12-1.64-.15-2.44,0-.42,0-.79,0-1.15-.08-1.62-.15-3.24-.2-4.85a4.45,4.45,0,0,1,1.3-3.29,4.93,4.93,0,0,1,3.52-1.54,4.77,4.77,0,0,1,4.39,2.88,4.76,4.76,0,0,1,4.18,3.43,59.86,59.86,0,0,1,1.66,7.79l.09.71c.1.73.21,1.46.27,2.19l.06.52a10.71,10.71,0,0,1,.11,1.63,18.36,18.36,0,0,1-.27,2.71,3.66,3.66,0,0,1-.39,1.36l-.24.57-.25.58-1,1.37-.3.23-.68.52a4.72,4.72,0,0,1-2.62.94Zm10.76,46.93a4.56,4.56,0,0,1-4.4-3.34,4.73,4.73,0,0,1,0-2.42l.09-.22a5.33,5.33,0,0,1,1.13-1.88l.32-.4c.17-.22.35-.44.53-.65l.15-.18.15-.18.74-.9.75-.91q1.71-2.1,3.39-4.2l1.62-2.11a5.16,5.16,0,0,1-1.54-2.5,8.19,8.19,0,0,1,.2-4.75,13.36,13.36,0,0,1,1.44-2.88,7.85,7.85,0,0,1,3.86-3.13,8.88,8.88,0,0,1,1.5-.37c1.16-.18,2.28-.31,3.43-.41h.23a4.46,4.46,0,0,1,2.95,1.32,4.54,4.54,0,0,1,1.32,3.19V122a7.72,7.72,0,0,1-.29,8.46c.49,1.24,1,2.45,1.49,3.67a24.29,24.29,0,0,0,1.47,2.93,4.9,4.9,0,0,1,1,1.9l.08.63.08.64a4.72,4.72,0,0,1-1.39,3.36,4.85,4.85,0,0,1-3.42,1.39,4.47,4.47,0,0,1-3.32-1.39,16.89,16.89,0,0,1-3-4.83l-.94,1.15c-.41.52-.82,1-1.24,1.54l-.58.73c-.71.88-1.41,1.76-2.15,2.61l-.28.33c-.43.49-.81.93-1.21,1.37l-.25.27a5.69,5.69,0,0,1-1.56,1.35,4.6,4.6,0,0,1-2.36.65Z"/><path class="cls-2" d="M265.5,6.67a9.8,9.8,0,0,0-4.86,1.67,56.39,56.39,0,0,0-5.07,3.5c-2.25,1.71-4.49,3.42-6.63,5.27a71.23,71.23,0,0,0-9.69,10,117.27,117.27,0,0,0-8.32,12.72,5.3,5.3,0,0,0,9.15,5.35,130,130,0,0,1,7.58-11.66,70.85,70.85,0,0,1,5-5.37c1.91-1.89,4-3.65,6.05-5.34.85-.65,1.71-1.29,2.58-1.93.07,1.56.12,3.12.14,4.68q0,6.51.05,13c0,2.06-.1,4.12-.22,6.18a40.61,40.61,0,0,0-.19,5.05,18.09,18.09,0,0,0,1.76,6c.59,1.39,1.27,2.73,1.95,4.08.07.18.13.36.2.53.56-.78,1.12-1.57,1.69-2.35q3.1-4.26,6.29-8.48c-.1-.3-.19-.6-.27-.91,0-.71,0-1.44,0-2.16.05-1.22.1-2.44.17-3.66.12-2.52.1-5,.11-7.57,0-4.79.14-9.6-.15-14.38a56.17,56.17,0,0,0-1-8.5,10.81,10.81,0,0,0-1.08-2.85,6.12,6.12,0,0,0-5.18-3Z"/><path class="cls-2" d="M223.29,346l1.17-.66c1.85-1.06,3.67-2.15,5.47-3.29a5.72,5.72,0,0,0-6.64,3.95Z"/><path class="cls-2" d="M192,34.92c-2.46,0-4.93.22-7.38.32s-5.13.31-7.68.59c-2.88.31-5.75.59-8.61,1a15.74,15.74,0,0,0-3.54,1.06l.08,0c-.89.36-1.8.69-2.71,1a24.87,24.87,0,0,1-3.38,1.14,5.7,5.7,0,0,0-4.18,5.5,5.76,5.76,0,0,0,1.67,4,5.93,5.93,0,0,0,4,1.66A12,12,0,0,0,165.46,50c1.18-.45,2.35-.93,3.51-1.42a29.47,29.47,0,0,1,6-1.25c1.92-.25,3.85-.5,5.78-.67,2.33-.2,4.67-.3,7-.43,2.48-.15,4.94-.33,7.43-.26s4.68.36,7,.53a66.16,66.16,0,0,0,7-.13c2.33-.08,4.67-.07,7-.09q8-.09,16-.32a5.3,5.3,0,1,0,0-10.59c-5.74.18-11.47.23-17.22.23-2.44,0-4.89-.07-7.33,0a46.21,46.21,0,0,1-7.53-.24,65,65,0,0,0-7.77-.49Z"/><path class="cls-2" d="M126.43,10.59a6.6,6.6,0,0,0-2.5,2.42,15,15,0,0,0-1.12,3.39,54.84,54.84,0,0,0-.89,10.47c0,3.28,0,6.57.1,9.84a48.43,48.43,0,0,0,.78,6.23c.22,1.28.55,2.55.77,3.84a9.08,9.08,0,0,1,.05.91c0,.62-.1,1.23-.1,1.84a5.63,5.63,0,0,0,11,1.5,17.64,17.64,0,0,0-.1-7.09c-.3-1.79-.73-3.56-1-5.35-.23-3-.21-6.07-.18-9.12,0-1.51,0-3,.05-4.53,1,.65,2,1.26,2.93,1.89.72.45,1.45.87,2.15,1.35,1.67,1.44,3.19,3.06,4.72,4.65a67.15,67.15,0,0,1,4.44,5.24c1.45,2,2.9,3.91,4.34,5.87a5.88,5.88,0,0,0,3.27,2.5,5.45,5.45,0,0,0,6.71-3.81,5.23,5.23,0,0,0-.55-4.21c-2.34-3.17-4.69-6.34-7.12-9.44a75,75,0,0,0-5.66-6.3,34.28,34.28,0,0,0-3.05-2.85c-1.25-1-2.53-1.81-3.87-2.68-1.92-1.25-3.82-2.51-5.66-3.87-1.54-1.26-3-2.76-5-3.27a5.74,5.74,0,0,0-1.46-.19,7.08,7.08,0,0,0-3.07.77Z"/><path class="cls-2" d="M125.34,48.24c-2.12,2.22-4.13,4.51-6.09,6.87a50.77,50.77,0,0,0-7.08,11.53c-.63,1.41-1.34,2.81-1.86,4.26-.42,1.21-.82,2.41-1.15,3.65-.63,2.28-1,4.63-1.43,7-.49,2.84-1,5.69-1.39,8.54a82.47,82.47,0,0,0-1,8.58,111.88,111.88,0,0,0,.52,16.27,47.76,47.76,0,0,0,1.8,8.43c.7,2.43,1.43,4.86,2.12,7.3A75.25,75.25,0,0,0,115,144.31a86.45,86.45,0,0,0,7,10.87c1,1.35,1.92,2.71,3,4a21,21,0,0,0,2.54,2.62c.28.25.55.5.81.76a23.65,23.65,0,0,0,5.1,1.44c2.07.28,4.1.74,6.16,1.09a5.91,5.91,0,0,0-.12-8.13c-.89-.9-1.73-1.85-2.67-2.69-.6-.53-1.22-1-1.82-1.55a14.24,14.24,0,0,1-1.92-2q-3-3.91-5.76-8a49.38,49.38,0,0,1-4.34-7.91c-1.32-3.32-2.32-6.71-3.35-10.14-.55-1.84-1.13-3.69-1.68-5.54s-.89-3.51-1.24-5.29c-.36-3.28-.61-6.56-.66-9.86,0-2,0-4,0-6,0-1.71.26-3.41.45-5.11q.77-5.41,1.69-10.8c.3-1.7.6-3.4,1-5.08a34.4,34.4,0,0,1,1.5-4.57c.48-1.09,1-2.16,1.5-3.23a50.32,50.32,0,0,1,4.45-7.25c1.87-2.25,3.78-4.44,5.8-6.56a5,5,0,0,0-3.6-8.58,4.81,4.81,0,0,0-3.51,1.46ZM133.29,151c.14.18.28.37.43.55-.15-.18-.29-.37-.43-.55Z"/><path class="cls-2" d="M131.77,156.94a5.15,5.15,0,0,0-2.91,2.25l-1.77,2.54.5.41c.23.15.45.29.69.42a23.93,23.93,0,0,0,5.11,1.45c1.2.16,2.38.38,3.56.6.11-.16.22-.33.34-.49a4.72,4.72,0,0,0,.49-3.76,4.89,4.89,0,0,0-2.24-2.93,5,5,0,0,0-2.47-.66,4.79,4.79,0,0,0-1.3.17Z"/><path class="cls-2" d="M125.71,254.57a105.46,105.46,0,0,1-7.34,9.86c-.18,5-.11,10,0,14.95s.17,10.05.56,15.07c.43,5.61.72,11.22,1.49,16.8.69,5,1.36,10,2.21,15s1.8,10.07,2.77,15.09c.48,2.47,1.2,4.87,1.91,7.29.66,2.27,1.31,4.55,2,6.8,1.55,4.76,3.25,9.47,5.2,14.09a2.14,2.14,0,0,0-.1-.22c.06.13.12.27.17.4l-.07-.18c.88,2,1.83,4,2.85,6a31.6,31.6,0,0,0,3,4.82,17.5,17.5,0,0,0,2.13,2.49A7.64,7.64,0,0,0,150,384.7a6.33,6.33,0,0,0,2.52-1.46,8.48,8.48,0,0,0,1.26-1.59,9,9,0,0,0,.61-1.3,10.56,10.56,0,0,1,.69-1.17,11.86,11.86,0,0,0,1.39-3.68c1.16-4.72,1.81-9.56,3-14.29A73.17,73.17,0,0,0,161,345.79c0-.27,0-.54,0-.8a5.21,5.21,0,0,0-8.89-3.69,5.51,5.51,0,0,0-1.53,3.69c-.26,3.07-.45,6.13-.79,9.2l-.21,1.59c-.19,1.18-.47,2.33-.71,3.51-.33,1.65-.63,3.3-.94,5s-.68,3.43-1,5.16c-.1.54-.19,1.08-.28,1.61l-.86-1.54c-.93-1.69-1.75-3.42-2.52-5.19-1.7-4.09-3.26-8.29-4.59-12.51-.79-2.48-1.55-5-2.3-7.47-.7-2.31-1.26-4.62-1.74-7q-1.59-7.75-3-15.52c-.85-4.66-1.5-9.36-2.15-14.05s-.9-9.67-1.25-14.5-.44-9.77-.61-14.66-.16-9.94-.09-14.91a120.8,120.8,0,0,1,1-13.42c-1,1.44-1.9,2.89-2.89,4.3Z"/><path class="cls-2" d="M134.49,369.33c-.1-.25-.21-.49-.31-.74.1.25.21.49.31.74Z"/><path class="cls-2" d="M134.7,369.81l0-.08a.3.3,0,0,1,0,.08Z"/><path class="cls-2" d="M154.83,336.22a4.49,4.49,0,0,0,1.07,8.2c2.55.57,5.1,1.09,7.65,1.66,1,.21,1.91.47,2.86.72a38.29,38.29,0,0,0,4.65.67c4.94.63,9.92,1.2,14.89,1.59,2.46.2,4.93.24,7.39.39s4.78.26,7.17.43a93.4,93.4,0,0,0,14,.38c.47,0,.94-.08,1.41-.13a4.8,4.8,0,0,1,.52-.36c1.25-.75,2.57-1.38,3.85-2.07s2.79-1.54,4.18-2.33c2.18-1.24,4.33-2.54,6.43-3.91A19.73,19.73,0,0,1,233,340c.21-.12.42-.23.64-.33a5.23,5.23,0,0,0-6-2.6c-2.25.66-4.55,1.1-6.81,1.69-2,.52-4,1-6.06,1.39a72.44,72.44,0,0,1-10.1.05c-4-.17-7.91-.48-11.87-.61-2-.06-4-.07-6-.14-2.15-.09-4.29-.3-6.43-.43-3.71-.23-7.44-.5-11.14-.91-1.6-.3-3.18-.71-4.77-1-2.09-.42-4.16-.86-6.23-1.31a5.89,5.89,0,0,0-1.24-.14,4.37,4.37,0,0,0-2.22.59Z"/><path class="cls-2" d="M264.42,42.88a5.31,5.31,0,0,0-3.66,6.44c.14.58.28,1.15.44,1.71A15,15,0,0,0,263,54.87l2.1,3.45a52.82,52.82,0,0,1,3,5.56,75.32,75.32,0,0,1,3.87,16.32c.09.62.17,1.24.25,1.87.74,5.91,1.41,11.84,1.58,17.81.08,2.8.08,5.62.08,8.42,0,1.46,0,2.92,0,4.37-.05,1.28-.17,2.55-.31,3.83-.59,4-1.2,8-1.94,12-.41,2.21-.82,4.45-1.45,6.61-.52,1.78-1.15,3.55-1.84,5.28-.55,1.18-1.19,2.31-1.81,3.45s-1.33,2.53-2.05,3.78a89.71,89.71,0,0,1-5.13,8c-.5.64-1,1.28-1.45,2s-.68,1.15-1,1.72c-.21.24-.43.47-.66.7s-.73.62-1.05,1a5.84,5.84,0,0,0-1.68,4.05,5.74,5.74,0,0,0,5.73,5.73,6,6,0,0,0,4-1.68,10.89,10.89,0,0,0,1-1.05,22.41,22.41,0,0,0,2.18-2.78c.5-.79.88-1.64,1.38-2.42s1.27-1.75,1.87-2.64c1.32-2,2.61-3.95,3.8-6,1.06-1.82,2-3.68,3-5.53a50.64,50.64,0,0,0,5.1-14.16c.95-4.73,1.68-9.48,2.41-14.25a60.93,60.93,0,0,0,.84-8.31c.05-2.46,0-4.92,0-7.37s0-4.77-.1-7.16c-.07-2.56-.36-5.1-.59-7.65-.5-5.31-1.19-10.62-2.13-15.88-.43-2.42-.9-4.83-1.54-7.2a53.53,53.53,0,0,0-2.79-7.56,50.92,50.92,0,0,0-3-5.35c-1.09-1.85-2.38-3.6-3.4-5.5-.16-.56-.3-1.13-.44-1.7a5.24,5.24,0,0,0-5.11-3.84,5.07,5.07,0,0,0-1.33.18Zm7.35,36c0,.25.07.5.1.75,0-.25-.07-.5-.1-.75Zm.51,3.86.07.47c0-.16-.05-.32-.07-.47Zm-12.32,72c-.06.09-.13.17-.2.26.07-.09.14-.17.2-.26Z"/><path class="cls-2" d="M255.63,161.56a5,5,0,0,0-3.45,6.09c1.7,6.55,3.74,13,5.14,19.64.68,3.2,1.42,6.38,2,9.61.49,2.77.88,5.57,1.26,8.37.3,2.26.58,4.52.82,6.78.28,2.72.42,5.45.53,8.18.09,2.56.27,5.13.37,7.69.11,2.71.1,5.44.13,8.15,0,2.53.2,5.07.28,7.6s.08,5.06.09,7.59c0,5.3.1,10.61-.09,15.9-.21,5.84-.22,11.71-.86,17.52-.36,2.27-.88,4.52-1.31,6.77-.47,2.52-.9,5-1.33,7.57-.86,5.05-1.89,10.07-3,15.07-.57,2.52-1.1,5.05-1.76,7.55-.59,2.25-1.22,4.51-1.87,6.75-1.34,4.63-3.06,9.13-4.47,13.73-1.5,4.89-3.06,9.75-5,14.49-1,2.26-2,4.5-2.93,6.78-.22.49-.44,1-.67,1.46-.21-.66-.43-1.32-.65-2-.89-2.69-1.72-5.4-2.58-8.1s-1.49-5.6-2.17-8.42c.62-.46,1.21-.93,1.8-1.41a5.51,5.51,0,0,0-2.43-9.2,5.86,5.86,0,0,0-4.24.56,11.16,11.16,0,0,0-1.33.8,5.91,5.91,0,0,0-2-.28,16,16,0,0,0-2,.27l1-.13-2.1.29c-3.52.36-7.24.17-10.6,1.32-1,.33-1.91.78-2.85,1.19a6.21,6.21,0,0,0-3.73,5.52,5.78,5.78,0,0,0,1.67,4.16,11.34,11.34,0,0,0,1.25.94,6.43,6.43,0,0,0,3.15.81,26.93,26.93,0,0,0,3,0c1.74,0,3.47-.18,5.2-.29,1-.07,2-.13,3-.23l.18.77c.46,1.95,1,3.89,1.55,5.81,1.16,3.78,2.48,7.53,3.8,11.26.77,2.18,1.52,4.38,2.47,6.5a7.72,7.72,0,0,0,1.42,2.15,6.88,6.88,0,0,0,3.2,2,7.22,7.22,0,0,0,3.94-.11c.84-.31,1.67-.67,2.49-1.06a15.88,15.88,0,0,0,5.68-5.37,31.33,31.33,0,0,0,3-6.12c1-2.38,2.16-4.73,3.13-7.14.87-2.15,1.73-4.33,2.48-6.53,1.6-4.69,2.87-9.48,4.47-14.17.78-2.26,1.54-4.51,2.23-6.8s1.26-4.59,1.9-6.88,1.16-4.82,1.7-7.24,1.08-5,1.59-7.55,1-5.09,1.48-7.65.89-5.18,1.38-7.77,1.1-5,1.45-7.49a76.38,76.38,0,0,0,.81-8.54c.11-5.32.36-10.64.38-16s0-10.44-.16-15.66-.45-10.36-.57-15.55c-.07-2.68-.19-5.36-.38-8-.16-2.45-.23-4.9-.42-7.35-.46-5.58-1.28-11.14-2.14-16.67-.39-2.49-.84-5-1.3-7.45s-1.15-4.95-1.7-7.43c-1.47-6.6-3.52-13.06-5.23-19.61a5,5,0,0,0-4.81-3.63,5.06,5.06,0,0,0-1.28.17Zm-14.28,208.9.06.08-.06-.08Z"/><path class="cls-2" d="M263,197.57a4.36,4.36,0,0,0-2,2.62,4.63,4.63,0,0,0,.44,3.38c.56,1.18,1.12,2.36,1.67,3.55s.79,2.46,1.14,3.71c.44,1.56.87,3.11,1.33,4.66.9,3.09,2,6.12,3.08,9.15a72.73,72.73,0,0,1,2.54,9.42c.29,1.42.57,2.85.89,4.27s.68,2.74.9,4.12c.12,1.22.24,2.44.32,3.67a20.49,20.49,0,0,1,.07,2.48,8.79,8.79,0,0,1-.39,1.23l-.51,1.2a4.65,4.65,0,0,0-4.76,2.24,4.74,4.74,0,0,0,1.69,6.41,10.06,10.06,0,0,0,2.41,1,8.77,8.77,0,0,0,3.85,0,5.61,5.61,0,0,0,4.24-3c.68-1.44,1-3,1.55-4.52l-.13.33a13.25,13.25,0,0,0,1.19-4.84,45.8,45.8,0,0,0-.46-6.07,28.69,28.69,0,0,0-.7-4.11c-.26-1.06-.49-2.13-.75-3.2-.49-2.06-.87-4.15-1.36-6.2a67.32,67.32,0,0,0-2-6.89c-.76-2.16-1.53-4.31-2.27-6.48s-1.35-4.35-2-6.54c-.31-1.09-.6-2.18-.94-3.25a35.41,35.41,0,0,0-1.64-4l-1.37-2.9a4.3,4.3,0,0,0-2.62-2,4.56,4.56,0,0,0-1.16-.15,4.35,4.35,0,0,0-2.22.6Zm11.6,54.26.16.07-.16-.07Z"/><path class="cls-2" d="M131.75,158.06a90.34,90.34,0,0,0-6.73,8.25c-1.27,1.78-2.46,3.64-3.65,5.47-1.4,2.14-2.81,4.28-4.08,6.5a64.88,64.88,0,0,0-3.07,6.6c-1.13,2.63-2.2,5.28-3.26,7.94-.85,2-1.72,4-2.57,6,.06-.15.13-.31.19-.47l-.21.52-.3.7c.1-.23.19-.46.29-.68-2,4.91-3.72,10-5.43,15q-1.31,3.87-2.58,7.76c-.81,2.47-1.47,5-2.13,7.5S97,234,96.43,236.42A76.68,76.68,0,0,0,95.2,245a63.27,63.27,0,0,0-.2,15,25,25,0,0,0,.67,3.55,20.27,20.27,0,0,0,1.27,3.09c1.38,2.92,4.08,5.48,7.44,5.57,2.93.09,5.16-1.82,7.23-3.64a23.28,23.28,0,0,0,3.87-4.8c.93-1.4,1.81-2.83,2.78-4.21s1.93-2.87,2.86-4.33c1.84-2.88,3.71-5.78,5.74-8.54,2.22-2.74,4.49-5.46,6.63-8.27.87-1.13,1.73-2.27,2.55-3.43.41-.56.81-1.13,1.21-1.69a12.35,12.35,0,0,0,1.42-2.78,5.47,5.47,0,0,0-9.15-5.32,17.85,17.85,0,0,0-2.07,2.64c-.52.71-1,1.43-1.53,2.13-.82,1.15-1.66,2.27-2.51,3.39-2,2.53-4.12,5-6,7.59-1.66,2.25-3.14,4.63-4.68,7-1.41,2.12-2.75,4.29-4.21,6.38-1,1.47-1.93,3-2.92,4.52a1.43,1.43,0,0,0,0-.22,80.2,80.2,0,0,1,.5-16.24c.67-4.15,1.75-8.22,2.77-12.3,1.21-4.81,2.83-9.52,4.38-14.24,1.49-4.5,2.91-9.06,4.69-13.46.93-2.29,1.94-4.55,2.83-6.85.82-2.14,1.64-4.27,2.52-6.39a65.27,65.27,0,0,1,4.07-8.21c.76-1.25,1.56-2.48,2.36-3.71,1.61-2.5,3.21-5,5-7.39q2-2.43,4.07-4.74a5,5,0,0,0,0-6.95,5,5,0,0,0-3.56-1.43,4.57,4.57,0,0,0-3.4,1.43Z"/><path class="cls-2" d="M122.54,238.61a4.38,4.38,0,0,0-2.07,2.69c-.63,3.43-1.12,6.87-1.59,10.33,0-.25.07-.5.1-.75-.39,2.92-.74,5.82-.9,8.76-.08,1.36-.06,2.72,0,4.09s0,2.51.12,3.77a4.78,4.78,0,0,0,2.3,4,4.63,4.63,0,0,0,5.62-.72,4.84,4.84,0,0,0,1.23-2.09,9.09,9.09,0,0,0,.19-2.09c0-.54,0-1.08,0-1.61,0-1.21,0-2.42,0-3.63.06-2.14.29-4.25.55-6.36.14-1,.3-1.93.51-2.89.12-.5.25-1,.35-1.5l.09-.57a6.36,6.36,0,0,0,0-2.78,4.12,4.12,0,0,0-.37-.92c.15-.89.3-1.76.47-2.64a4.84,4.84,0,0,0-.46-3.48,4.58,4.58,0,0,0-2.69-2.07,4.38,4.38,0,0,0-1.19-.16,4.53,4.53,0,0,0-2.29.62Z"/><path class="cls-2" d="M201.57,117.3c-1.15.1-2.29.23-3.43.41a7.67,7.67,0,0,0-1.5.38,7.82,7.82,0,0,0-3.88,3.14,13.3,13.3,0,0,0-1.44,2.87,8.25,8.25,0,0,0-.2,4.77c.4,1.71,1.92,2.94,3.32,3.83a9.21,9.21,0,0,0,4.17,1.35,8.33,8.33,0,0,0,6.42-2.64,7.84,7.84,0,0,0,2.17-5,7.64,7.64,0,0,0-1.11-4.46v-.16a4.55,4.55,0,0,0-4.29-4.54Zm-1.3,9.53c0,.12,0,.24,0,.36a2.2,2.2,0,0,1,0-.36Z"/><path class="cls-2" d="M198.53,125.2l-1.13.48a4.8,4.8,0,0,0-1.69,1.69q-2.31,3-4.67,6.08-1.68,2.12-3.39,4.21l-1.49,1.81c-.28.33-.56.66-.83,1l-.32.4a5.87,5.87,0,0,0-1.22,2.11,4.77,4.77,0,0,0,0,2.43,4.61,4.61,0,0,0,2.11,2.74,4.68,4.68,0,0,0,4.68,0,6.84,6.84,0,0,0,1.81-1.63c.51-.56,1-1.13,1.49-1.7,1-1.08,1.84-2.22,2.74-3.33,2.47-3.06,4.85-6.21,7.23-9.34a4.53,4.53,0,0,0,.47-3.63,4.72,4.72,0,0,0-2.16-2.81,4.66,4.66,0,0,0-2.38-.65,4.83,4.83,0,0,0-1.25.17Z"/><path class="cls-2" d="M199.35,126a4.88,4.88,0,0,0-2.91,2.24A4.69,4.69,0,0,0,196,132c.8,2,1.61,4,2.46,6a18.32,18.32,0,0,0,3.37,5.65,4.8,4.8,0,0,0,8.18-3.38c-.06-.43-.12-.85-.17-1.28a4.91,4.91,0,0,0-1-1.89,25.19,25.19,0,0,1-1.47-2.94q-1-2.36-1.93-4.73c-.17-.39-.33-.78-.49-1.17a5.06,5.06,0,0,0-1.75-1.75,4.92,4.92,0,0,0-2.47-.66,4.79,4.79,0,0,0-1.3.17Z"/><path class="cls-2" d="M215,76.65c.27,4.14.51,8.28.89,12.41.15,1.7.32,3.4.49,5.1.07.69.16,1.38.25,2.07s.17,1.32.28,2c0,.2.07.4.1.6a10.39,10.39,0,0,0,.84,2.3,4.64,4.64,0,0,0,2.87,2.21,4.8,4.8,0,0,0,4.67-1.24,6.06,6.06,0,0,0,1.5-2.39,18.75,18.75,0,0,0,.56-3.35,29.18,29.18,0,0,0,.13-3.5c0-1.59,0-3.18,0-4.78,0-1.33,0-2.65.05-4a34.52,34.52,0,0,0-.4-5.92,4.67,4.67,0,0,0-1.19-2A4.72,4.72,0,0,0,224.18,75a4.4,4.4,0,0,0-1.08-1.69,4.7,4.7,0,0,0-3.36-1.4A4.78,4.78,0,0,0,215,76.65Z"/><path class="cls-2" d="M167.65,79.22c0,1.61.12,3.23.2,4.84.06,1.2.07,2.41.19,3.6.12,1.35.23,2.7.4,4a17.43,17.43,0,0,0,1.24,5.18A7.45,7.45,0,0,0,171.07,99a16.66,16.66,0,0,0,1.9,1.57,7,7,0,0,0,1.19.6l1.16.49a15.6,15.6,0,0,0,1.93.21,4.69,4.69,0,0,0,2.84-.93l1-.76c.36-.45.71-.91,1.06-1.37.16-.39.33-.77.49-1.15a3.91,3.91,0,0,0,.39-1.37,17.65,17.65,0,0,0,.27-2.71,17.14,17.14,0,0,0-.16-2.15c-.09-1-.24-1.94-.37-2.9a60.77,60.77,0,0,0-1.66-7.8,4.75,4.75,0,0,0-4.18-3.43,4.79,4.79,0,0,0-4.4-2.89,4.87,4.87,0,0,0-4.85,4.85Zm10.81,13.57.23.29a3.25,3.25,0,0,1-.23-.29Z"/><path class="cls-2" d="M247.79,46.25l-4.21,7.61a4.67,4.67,0,0,0,8.07,4.72c1.41-2.53,2.81-5.07,4.22-7.61a4.74,4.74,0,0,0-1.68-6.4,4.73,4.73,0,0,0-6.4,1.68Z"/><path class="cls-2" d="M141.26,41.1a4.6,4.6,0,0,0-2.13,2.77,5,5,0,0,0,.46,3.58c.89,2,1.79,3.91,2.68,5.86a4.46,4.46,0,0,0,2.78,2.13,4.62,4.62,0,0,0,5.7-3.24,5,5,0,0,0-.46-3.57c-.89-2-1.79-3.91-2.68-5.87a4.44,4.44,0,0,0-2.77-2.13,4.6,4.6,0,0,0-3.58.47Z"/><path class="cls-2" d="M24.35,161a33.12,33.12,0,0,0-4.28,2.18c-1.11.59-2.2,1.22-3.26,1.9a47,47,0,0,0-4.72,3.36,17.06,17.06,0,0,0-3.37,4,18.47,18.47,0,0,0-2.4,6.47,16.46,16.46,0,0,0-.09,7.83,22.47,22.47,0,0,0,1.23,3.06,11.25,11.25,0,0,0,2,3.38,13.16,13.16,0,0,0,4,2.67c.72.33,1.43.68,2.15,1A11.29,11.29,0,0,0,18.92,198a21.25,21.25,0,0,0,3.47.19,43.27,43.27,0,0,0,5.2-.56,33.23,33.23,0,0,1,6-.4,15.28,15.28,0,0,1,2.11.57l.45.24a18,18,0,0,1,1.08,2.09c.56,1.39,1.1,2.78,1.54,4.21A51.46,51.46,0,0,1,40,209.65c.32,1.67.64,3.35,1,5,.44,1.94,1,3.87,1.41,5.82.76,3.53,1.43,7.09,2.11,10.64s1.29,7,1.86,10.55c.24,2.2.36,4.4.53,6.61.21,2.75.58,5.49,1,8.23.67,4.62,1.69,9.17,2.68,13.74.47,2.19,1,4.37,1.56,6.53A44.44,44.44,0,0,0,55,284.16c.91,2,1.73,4,2.8,5.86s2.15,3.52,3.24,5.28a126.73,126.73,0,0,0,8.44,11.77,23.49,23.49,0,0,0,4.06,3.65c1.07.83,2.11,1.71,3.25,2.44a24.09,24.09,0,0,0,4.38,1.93c2,.73,3.94,1.61,6,2.25a57.21,57.21,0,0,0,6.95,1.81c2.73.5,5.43,1,8.2,1.31a36.31,36.31,0,0,0,7.07.31c2.34-.17,4.67-.74,7-1.09,2-.29,3.92-.71,5.9-1l-.31,0,.77-.11a5.54,5.54,0,0,0-1.48-10.88,55,55,0,0,0-7.08,1c-1.63.23-3.25.49-4.87.76a39.25,39.25,0,0,1-7.66-.33c-1.46-.22-2.9-.5-4.34-.75-1.81-.31-3.56-.75-5.33-1.21a41.65,41.65,0,0,1-4.63-1.5c-1.29-.51-2.6-1-3.9-1.45a15.06,15.06,0,0,1-2.54-1.56l-.57-.44-.63-.48L80,302a20.49,20.49,0,0,1-2-1.73A15.71,15.71,0,0,1,77,299.06c-1.34-1.76-2.67-3.52-4-5.31s-2.41-3.68-3.61-5.53A53.32,53.32,0,0,1,66.3,283c-.94-1.9-1.82-3.85-2.68-5.8A43.48,43.48,0,0,1,62,271.69c-.53-2.19-1-4.39-1.5-6.58s-1-4.31-1.37-6.48-.74-4.26-1-6.4c-.62-5-.68-10.13-1.64-15.13-.89-4.63-1.62-9.29-2.57-13.91-.46-2.27-.87-4.56-1.36-6.83s-1.17-4.66-1.65-7c-.42-2.09-.81-4.2-1.29-6.28a45.55,45.55,0,0,0-2.27-6.47c-.4-1-.81-1.94-1.27-2.88A14.93,14.93,0,0,0,44.25,191c-1.55-2-3.85-3-6.16-3.75A10.42,10.42,0,0,0,36,186.8a27.11,27.11,0,0,0-3.36-.33,37.52,37.52,0,0,0-5.88.65l1.41-.19c-1.44.19-2.88.4-4.32.62a21.41,21.41,0,0,1-3.1.18l-.45-.13-1.14-.53c-.72-.33-1.43-.64-2.11-1-.25-.46-.47-.93-.69-1.41-.12-.33-.23-.66-.32-1s0-.77,0-1.16a22.52,22.52,0,0,1,.89-3.53,12.75,12.75,0,0,1,.86-1.53,16.45,16.45,0,0,1,1.51-1.5,60,60,0,0,1,8.3-4.89L28,171a28.14,28.14,0,0,1,5.18.29c1.12.2,2.2.42,3.31.69a25,25,0,0,1,2.49.82A59.25,59.25,0,0,1,47.71,178c1.23,1,2.43,2.07,3.61,3.18s2.53,2.58,3.73,3.94a31.76,31.76,0,0,1,2.82,4.2c1.06,2,2,4,2.9,6,.64,1.65,1.21,3.3,1.71,5a40.89,40.89,0,0,1,1.1,5.48,140.77,140.77,0,0,1,1,14.65c.08,5.29.3,10.57.41,15.85,0,2.63.07,5.25.14,7.87s.11,5.16.36,7.7c.3,3.06.64,6.11,1.15,9.14a80.14,80.14,0,0,0,2,9.33,42.51,42.51,0,0,0,6.17,12.7,45.75,45.75,0,0,0,4.13,5.26,45.06,45.06,0,0,0,3.74,3.57,22.62,22.62,0,0,0,4,2.63c1.5.77,3.09,1.39,4.66,2,2,.77,4,1.33,6.07,1.92A118.6,118.6,0,0,0,109,300.71a43.74,43.74,0,0,0,6.35.7,43.31,43.31,0,0,0,6.63-.48l1.35-.19a5,5,0,0,0,2.24-1.3,5.08,5.08,0,0,0,0-7.19,4.79,4.79,0,0,0-3.59-1.48,40.2,40.2,0,0,1-9.1.25c-3.13-.6-6.27-1.15-9.41-1.72A45.33,45.33,0,0,1,98.64,288c-1.62-.49-3.22-1-4.79-1.65a25.45,25.45,0,0,1-3.74-2,36.23,36.23,0,0,1-4.49-4.61c-.61-.83-1.2-1.65-1.78-2.5a37.43,37.43,0,0,1-3.47-6.13,49.88,49.88,0,0,1-2.64-9.68q-.51-3.1-1-6.21c-.5-5.29-.69-10.58-.77-15.89s-.29-10.53-.41-15.8c0-2.48-.06-4.95-.21-7.43-.16-2.8-.38-5.59-.63-8.38-.14-1.46-.34-2.93-.57-4.37s-.37-2.68-.69-4a57.43,57.43,0,0,0-2.4-7.43,80.81,80.81,0,0,0-3.85-8.22,30.83,30.83,0,0,0-2-3,42.61,42.61,0,0,0-3-3.91,48.36,48.36,0,0,0-5.49-5.41c-1.29-1-2.56-2.1-3.92-3.06s-2.47-1.65-3.74-2.43a41.32,41.32,0,0,0-7.65-3.73,38.85,38.85,0,0,0-8.55-1.73c-1.12-.14-2.25-.2-3.39-.23h-.37a14.49,14.49,0,0,0-4.78.74ZM76.73,298.76l0,0,0,0Z"/><path class="cls-2" d="M182.23,37.42a4.61,4.61,0,0,0,0,9.22c1.39-.06,2.78-.09,4.17-.1a5.7,5.7,0,0,0-1.66,1.79,4.63,4.63,0,0,0,1.64,6.26,6.29,6.29,0,0,0,1.51.7,18.43,18.43,0,0,0,2.58.37c1.34.11,2.69.12,4,.12A4.77,4.77,0,0,0,193,58.17a4.84,4.84,0,0,0,0,2.45,4.69,4.69,0,0,0,1.19,2,3.83,3.83,0,0,0,1.52,1.16l-.14.16a9.66,9.66,0,0,0-2.05,3.46,4.69,4.69,0,0,0,8.91,2.88c.51-.81,1.15-1.55,1.7-2.32,1.45-2,3.06-4,3.25-6.6a4.43,4.43,0,0,0-.11-1.81,4.28,4.28,0,0,0-.28-.72l1.42-1.12a4.26,4.26,0,0,0,.8-.84,6.83,6.83,0,0,0,1.52-2.65,14.86,14.86,0,0,0,.29-1.89,5.59,5.59,0,0,0-1.32-3.49c.76-.13,1.51-.27,2.27-.39a11,11,0,0,0,2.51-.42,4.65,4.65,0,0,0,3.34-4.4,4.56,4.56,0,0,0-3.34-4.38,36.72,36.72,0,0,0-4.68-.59l-3.34-.33c-2.31-.22-4.62-.45-6.93-.62s-4.6-.41-6.91-.42h-4c-2.12,0-4.24,0-6.37.1Z"/><path class="cls-2" d="M110.47,102.94a75.75,75.75,0,0,0,1.42,16.18c.49,2.59,1.14,5.14,1.75,7.69.36,1.51.8,3,1.26,4.5.35,1.15.7,2.31,1.07,3.46a9.62,9.62,0,0,0,1.88,3.58,4.5,4.5,0,0,0,3.79,1.77,4.31,4.31,0,0,0,3.09-1.28,4.67,4.67,0,0,0,1.28-3.1,24.58,24.58,0,0,0,.11-3l.3.72a9.67,9.67,0,0,0,1.91,3.11,5.12,5.12,0,0,0,3.54,1.46,11,11,0,0,0,1.5-.18,5.27,5.27,0,0,0,2.37-1.53,8.07,8.07,0,0,0,1.63-3.09l0-.06a3.45,3.45,0,0,0,.42.14,6.28,6.28,0,0,0,1.72.17,4.58,4.58,0,0,0,2.37-.64,6.47,6.47,0,0,0,2.84-2.78c0-.05,0-.11.08-.16l.17.11a5.58,5.58,0,0,0,6-.54l.08.12a5,5,0,0,0,2.81,2.16,4.69,4.69,0,0,0,5.78-3.28,4.57,4.57,0,0,0-.47-3.63,20.94,20.94,0,0,1-1.74-3.44c-.32-.68-.7-1.32-1-2a10.26,10.26,0,0,0-1.31-1.82,6.49,6.49,0,0,0-2.84-1.55A3.93,3.93,0,0,0,150,116a30.81,30.81,0,0,0-.69-3.52,4.66,4.66,0,0,0-8.52-1.11,12.7,12.7,0,0,0-.95,2.14c-.18.61-.32,1.22-.45,1.84a13,13,0,0,0-.81-2.12,4.57,4.57,0,0,0-5.18-2.11,4.4,4.4,0,0,0-2.87,2.45c-.28-1.3-.56-2.61-.83-3.91-.22-1-.42-2-.64-3.07-.14-.64-.33-1.28-.49-1.92a6.63,6.63,0,0,0-.74-2,5.43,5.43,0,0,0-1.84-1.94,5.34,5.34,0,0,0-2.41-.7,4.44,4.44,0,0,0-2.41.6,5.88,5.88,0,0,0-1.8,1.88l-.3.64v-.15a4.31,4.31,0,0,0-8.62,0Z"/><path class="cls-2" d="M272.67,103.87c0,1.9,0,3.8,0,5.69,0,1.22,0,2.45-.07,3.66,0,.55-.09,1.11-.13,1.66a4.43,4.43,0,0,0-2.21-1.4,4.63,4.63,0,0,0-5.14,2.1c-1.3,2-2.49,4.07-3.62,6.17a4.93,4.93,0,0,0-.91-1.21,4.76,4.76,0,0,0-5.65-.72,5.63,5.63,0,0,0-1.37,1l-.33-.71a4.53,4.53,0,0,0-2.84-2.18,4.78,4.78,0,0,0-3.66.48,7,7,0,0,0-2.09,1.73l-.34.43a5.38,5.38,0,0,0-2.41-.61,5.14,5.14,0,0,0-2.69.66,10.44,10.44,0,0,0-1.93,1.57,47,47,0,0,0-3.41,4.2,4.58,4.58,0,0,0-.48,3.7,4.77,4.77,0,0,0,2.2,2.87,4.69,4.69,0,0,0,1.88.62c.05.29.11.58.19.87a4.75,4.75,0,0,0,1.24,2.12c.41.33.84.66,1.26,1a4.82,4.82,0,0,0,5.84-.75l.1-.12c.11.27.23.53.34.8a4.57,4.57,0,0,0,2.85,2.19,4.75,4.75,0,0,0,3.89-.62,7.81,7.81,0,0,0,.92,3.29,4.69,4.69,0,0,0,4,2.32,4.6,4.6,0,0,0,4-2.32,34.9,34.9,0,0,0,1.22-3.28c.32-.9.7-1.78,1.07-2.66l-.46,1.11c.44-1,.88-1.95,1.33-2.92.14,1.16.3,2.32.53,3.46a9.57,9.57,0,0,0,.73,2,6,6,0,0,0,1.21,1.88,5.25,5.25,0,0,0,2.26,1.41,4.92,4.92,0,0,0,3.66-.48c1.84-1.08,2.58-3.11,3.2-5,.34-1.06.6-2.14.88-3.21.56-2.14,1.19-4.3,1.61-6.48.5-2.65.86-5.31,1.18-8,.3-2.45.45-4.89.63-7.34.09-1.22,0-2.47.05-3.7,0-1.75,0-3.5,0-5.26a4.3,4.3,0,0,0-8.59,0Z"/><path class="cls-2" d="M118.18,180.92c-.8,1.44-1.49,2.9-2.2,4.39s-1.35,2.78-1.92,4.21a110.82,110.82,0,0,0-4.21,11.37,4.38,4.38,0,0,0,.44,3.36,4.46,4.46,0,0,0,2.6,2,3.84,3.84,0,0,0,1.5.27,4.33,4.33,0,0,0,2.53-.56,9,9,0,0,0,2.85-2.57l.83-1c-.2.74-.39,1.49-.56,2.25a14.77,14.77,0,0,0-.34,2.49,5.49,5.49,0,0,0,.82,2.66,5.73,5.73,0,0,0,1.93,1.86,4.56,4.56,0,0,0,2.68.58,8,8,0,0,0,4.21-1.8,22.12,22.12,0,0,0,2.94-2.62l.64-.66a3.17,3.17,0,0,0,.27.47,5,5,0,0,0,2.88,2.33,5.83,5.83,0,0,0,3.18-.07,8.24,8.24,0,0,0,3-1.86,20,20,0,0,0,2-2l.21-.23a4.89,4.89,0,0,0,2.43.69,5.3,5.3,0,0,0,.69,0,4.48,4.48,0,0,0,3.68,1.89,4.63,4.63,0,0,0,4.61-4.61c-.05-1.07-.09-2.13-.13-3.19a14.75,14.75,0,0,0-.27-3.18,6.51,6.51,0,0,0-.57-1.46,6.06,6.06,0,0,0-1.86-1.81,4.58,4.58,0,0,0-1.37-.53c0-.08-.09-.15-.14-.23a4.51,4.51,0,0,0-3.93-2.25c-.49,0-1,.1-1.47.18a6.72,6.72,0,0,0-2.38,1.46,8.13,8.13,0,0,0-1.07,1.12l-.8.9a5.27,5.27,0,0,0-3.43-2.77c-3-.79-5.14,1.68-7,3.68.23-.95.44-1.9.63-2.86.31-1.56.86-3.35.36-4.94a6,6,0,0,0-1.28-2.44,6.65,6.65,0,0,0-1.59-1.25,5.76,5.76,0,0,0-2.6-.66,3.7,3.7,0,0,0-.76.07,4.29,4.29,0,0,0-4.27-4.84,4.29,4.29,0,0,0-3.77,2.14Z"/><path class="cls-2" d="M256.83,178.1a4.38,4.38,0,0,0-2.62,2,4.7,4.7,0,0,0-.44,3.37c0,.29.1.58.14.87.13,1,.26,1.94.38,2.91a5.53,5.53,0,0,0-3.39-.17,6.5,6.5,0,0,0-3.8,3.56,17.16,17.16,0,0,0-1.44,4.85,5.37,5.37,0,0,0-1.29.22,5.57,5.57,0,0,0-2.87,2.07l-.25-.32a5.26,5.26,0,0,0-2.69-1.83l-.47-.1a4.67,4.67,0,0,0-2.46,0,5.14,5.14,0,0,0-2.9,1.53,16.35,16.35,0,0,0-1.37,1.79,7.87,7.87,0,0,0-1.9-.88,8.09,8.09,0,0,0-1.54-.18,4.56,4.56,0,0,0-2.34.63,5.08,5.08,0,0,0-1.81,1.41,4.88,4.88,0,0,0-1.36,3.29,4.64,4.64,0,0,0,4,4.61,22.68,22.68,0,0,0,.82,2.78,4.68,4.68,0,0,0,3.25,3.26,4.72,4.72,0,0,0,4.54-1.2,5.35,5.35,0,0,0,.92-1.14,9.51,9.51,0,0,0,.72-1.84c.12-.36.24-.71.37-1.07a7.33,7.33,0,0,0,2.61,2.36,4.63,4.63,0,0,0,2.35.63,6.35,6.35,0,0,0,2.7-.79,6.23,6.23,0,0,0,.78-.57,4.78,4.78,0,0,0,.47.54,4.67,4.67,0,0,0,2.05,1.19l1.23.17a4.74,4.74,0,0,0,2.35-.64,4.33,4.33,0,0,0,2.21-2.8,11.41,11.41,0,0,0,.17-2.46c0-.84,0-1.67,0-2.5,0-.63,0-1.26.07-1.89.53,1.08,1,2.18,1.55,3.27.31.77.6,1.55.84,2.34a5.82,5.82,0,0,0,1.35,2.66,4.51,4.51,0,0,0,5.47.71,4.58,4.58,0,0,0,2.08-5.1c-.12-.45-.25-.9-.4-1.34s-.18-1.05-.26-1.57c-.9-7.18-1.24-14.44-2.44-21.58a4.18,4.18,0,0,0-2-2.62,4.32,4.32,0,0,0-2.21-.6,4.16,4.16,0,0,0-1.16.16Zm7.9,25.33c0,.11,0,.21,0,.32,0-.11,0-.21,0-.32Z"/><path class="cls-2" d="M123,261.42c.28,5.68.54,11.37.84,17.05a36.33,36.33,0,0,1,.1,4,6.33,6.33,0,0,0,1.6,4.86,5.15,5.15,0,0,0,4.94,1.22,5.28,5.28,0,0,0,3.23-2.85c.46-1,.66-2,1-3,.18-.42.35-.84.52-1.27a5.08,5.08,0,0,0,3.39,1.49,6.71,6.71,0,0,0,2.06-.19,5.29,5.29,0,0,0,1.9-1,6.67,6.67,0,0,0,.85,2.08,4.86,4.86,0,0,0,3.18,2.2,6.69,6.69,0,0,0,2.92-.08,3.85,3.85,0,0,0,1.61-.85,4.63,4.63,0,0,0,1.64-1.65,17.11,17.11,0,0,0,2-3.55,6,6,0,0,0,3,0,4.38,4.38,0,0,0,1.52-.7,5.29,5.29,0,0,0,2,1,5.91,5.91,0,0,0,5.9-2.15,5.07,5.07,0,0,0,1.4-3.4,4.82,4.82,0,0,0-1.4-3.39,4.74,4.74,0,0,0-1.43-1l-.09-.47c-.15-.84-.31-1.66-.52-2.49-.6-2.38-2.61-4.58-5.2-4.58a5,5,0,0,0-4.94,3.82c-.14.36-.26.73-.37,1.1q-.73-.12-1.47-.21a4.5,4.5,0,0,0-3.25,1.35l-.09.1-.09-.3a4.52,4.52,0,0,0-1.16-2,4.37,4.37,0,0,0-3.19-1.32,10.12,10.12,0,0,0-1.83.29l-.18.06,0-.67a6.36,6.36,0,0,0-.73-2.87,6.56,6.56,0,0,0-2-1.86,4.58,4.58,0,0,0-2.25-.61,4.43,4.43,0,0,0-3.15,1.31,11.12,11.12,0,0,0-1.68,2.18c-.28.48-.47,1-.71,1.53l-.75,1.59-.24-4.88a4.5,4.5,0,0,0-9,0Zm37.4,10h0Z"/><path class="cls-2" d="M259.87,260c0,2.39.07,4.77.14,7.16a7.16,7.16,0,0,0-1.93,1.18l-.39.36a4.48,4.48,0,0,0-.32-.66,6.38,6.38,0,0,0-2.24-2.11,4.55,4.55,0,0,0-2.33-.63,4.42,4.42,0,0,0-3.28,1.35l-.36.46a7.12,7.12,0,0,0-2.24-.34,7,7,0,0,0-4.73,2.27l-.09.09a5.35,5.35,0,0,0-3.17-2.56,5.4,5.4,0,0,0-1.77-.19c-.11-.28-.24-.56-.36-.85a5.84,5.84,0,0,0-1.89-1.94,6.37,6.37,0,0,0-3.39-.78c-2.24,0-4.08,1.5-5.7,2.86a8.51,8.51,0,0,0-2.85,4.22,4.75,4.75,0,0,0,3.29,5.79,3.21,3.21,0,0,0,.52.11,4.75,4.75,0,0,0,8.39,3.81,6.91,6.91,0,0,0,.64,1.31,6.36,6.36,0,0,0,1.91,1.85,4.53,4.53,0,0,0,1.36.53,4.77,4.77,0,0,0,3.6-.47,7.29,7.29,0,0,0,2.16-2.16l.07.11a4.69,4.69,0,0,0,1.67,1.67,4.89,4.89,0,0,0,1.24.5,4.68,4.68,0,0,0,1.36,3.15l.94.73a4.73,4.73,0,0,0,2.35.63,4.45,4.45,0,0,0,3.62-1.32,16.13,16.13,0,0,0,1.46-1.94c.55-.77,1.08-1.55,1.62-2.33l.78-1.12a15.84,15.84,0,0,0,.77,1.67,4.52,4.52,0,0,0,3.93,2.25,4.63,4.63,0,0,0,2.29-.62,4.84,4.84,0,0,0,2.08-2.72,9.11,9.11,0,0,0,.31-3.64c0-.83-.06-1.67-.09-2.51-.06-1.44-.12-2.89-.17-4.34-.13-3.61-.23-7.22-.27-10.83a4.47,4.47,0,1,0-8.93,0Z"/><path class="cls-2" d="M166.4,302.05A6.89,6.89,0,0,0,162,306l-.3.7,0-.09a7.63,7.63,0,0,0-1.57-2.7,4.4,4.4,0,0,0-4.39-1.16,5.08,5.08,0,0,0-2.23,1.24,5.32,5.32,0,0,0-1.35,2.51c-.17.69-.35,1.37-.55,2a19,19,0,0,0-.88-2,4.45,4.45,0,0,0-6.09-1.6,4.46,4.46,0,0,0-1.6,1.6A7.06,7.06,0,0,0,141.9,310c-.16,1-.37,2-.57,3,0-.13-.07-.26-.11-.39-.27-.9-.51-1.81-.81-2.7s-.76-1.81-1.15-2.7a4.3,4.3,0,0,0-3.78-2.16,4.15,4.15,0,0,0-2.39.74,4.56,4.56,0,0,0-4.88-1.84,4.41,4.41,0,0,0-2.61,2,4.55,4.55,0,0,0-.44,3.37c.59,2.8,1.29,5.58,2,8.36.27,1.14.65,2.26,1,3.38A59.34,59.34,0,0,0,130,326.8a4.37,4.37,0,0,0,3.06,3.06,4.3,4.3,0,0,0,4.27-1.13,13.47,13.47,0,0,0,1.06-1.36c.23.19.48.38.73.55a5.25,5.25,0,0,0,1.58.71,4.37,4.37,0,0,0,2.38,0,5.66,5.66,0,0,0,2.35-1.35,16.71,16.71,0,0,0,3.31-6.43c0-.14.08-.29.13-.43l.11.08,1.61.68a4.43,4.43,0,0,0,1.77.12,4.54,4.54,0,0,0,2.3-.62,6.06,6.06,0,0,0,2.22-1.7,10.71,10.71,0,0,0,1-1.41,10.12,10.12,0,0,0,.88.52,6.72,6.72,0,0,0,3.16.84,9.86,9.86,0,0,0,2-.3,6.66,6.66,0,0,0,2.87-1.95,11.48,11.48,0,0,0,2-3.06c.2-.43.39-.87.58-1.32a4.81,4.81,0,0,0,2.88.11,4.66,4.66,0,0,0,2.77-2.13,4.73,4.73,0,0,0,.47-3.57,4.44,4.44,0,0,0-1.49-2.26l.08.06a15,15,0,0,0-2.18-1.7,6.3,6.3,0,0,0-2.14-.76,13.43,13.43,0,0,0-1.91-.19,4.67,4.67,0,0,0-1.39.19Zm-3.47,7.8.16,0h-.16Zm7.38.12-.08,0h0a.18.18,0,0,1,.07,0Zm-7,.14.06,0-.06,0Z"/><path class="cls-2" d="M256.59,300.05a4.2,4.2,0,0,0-2.61,2c-.57,1.22-1.12,2.44-1.59,3.71-.1.28-.19.57-.26.85l-.49.11a10.36,10.36,0,0,0-4.49,3.22,24.17,24.17,0,0,0-2.07,2.73l-1.41,2c-.1-.24-.21-.48-.32-.72a9.33,9.33,0,0,0-.43-.83,6.57,6.57,0,0,0-2.16-2.1,12.31,12.31,0,0,0-1.69-.77,14.59,14.59,0,0,0-2.72-.28,12.26,12.26,0,0,0-2.82.43.69.69,0,0,0-.05-.13,4.55,4.55,0,0,0-1.18-2A13.09,13.09,0,0,0,231,307.2a5.82,5.82,0,0,0-3.28-.8h-.14a5.41,5.41,0,0,0-2.79-1.87,5.69,5.69,0,0,0-4.25.61,4.64,4.64,0,0,0-1.65,6.32,5.25,5.25,0,0,0,.71.92,5.27,5.27,0,0,0,1.57,3.41,4.9,4.9,0,0,0,3.37,1.37,4.27,4.27,0,0,0,.74,2.15,4.76,4.76,0,0,0,2.73,2.09,4.49,4.49,0,0,0,3.51-.46,17.68,17.68,0,0,1,1.88-1,24.45,24.45,0,0,1,2.38-.77,29.81,29.81,0,0,0,1.73,4,6.88,6.88,0,0,0,2.39,2.55,11.15,11.15,0,0,0,1.54.69,4.52,4.52,0,0,0,2.42,0,7.3,7.3,0,0,0,3.93-2.54,38.47,38.47,0,0,0,2.8-3.59,4.41,4.41,0,0,0,3.92,2.42,4.46,4.46,0,0,0,4.28-3.26,21.86,21.86,0,0,0,.44-3.26c.15-1,.32-2.06.49-3.09a31.83,31.83,0,0,1,1.29-5.56l.51-1.12a4.66,4.66,0,0,0,.45-3.37,4.4,4.4,0,0,0-5.37-3.05Zm-32.16,13.39h0Zm11.31,5.66h0l-.15,0,.15,0Z"/><path class="cls-2" d="M90.72,289.14a6.84,6.84,0,0,0-5.57,3.24,5.86,5.86,0,0,0-.78,2.73l.23,1.65c.13.35.27.69.43,1a9,9,0,0,0-1,.84,5.69,5.69,0,0,0-1.52,5.4c0,.13.07.26.11.39a4.83,4.83,0,0,0,1.23,2.12c.1.12.2.24.3.34a4.79,4.79,0,0,0,1,5.39,4.61,4.61,0,0,0,3.4,1.41c.77-.07,1.52-.17,2.27-.27a7.27,7.27,0,0,0,2.92-.9A6.56,6.56,0,0,0,96,310.17a6.13,6.13,0,0,0,.42-1A11.84,11.84,0,0,0,98,309a4.54,4.54,0,0,0,2.9-2.23c.25-.53.47-1.07.69-1.61a4.91,4.91,0,0,0,0-2.58,7.29,7.29,0,0,0-1-2.58,4.67,4.67,0,0,0,1.21-1.37,4.91,4.91,0,0,0,.49-3.73,4.68,4.68,0,0,0-2.22-2.9,52.37,52.37,0,0,0-5.09-2.1,12.65,12.65,0,0,0-4-.73Zm-2,17.08h0l-.45.06a3.18,3.18,0,0,1,.43-.06Z"/><path class="cls-2" d="M60.73,258.26l0,0a4,4,0,0,0-1.81,1.86,4.85,4.85,0,0,0-4.27.28,4.9,4.9,0,0,0-1.75,6.64c1.18,2,2.39,3.94,3.53,5.94.5.88,1,1.75,1.43,2.65a21.61,21.61,0,0,0,1.86,3.49l.76,1a4.93,4.93,0,0,0,2.15,1.25,5,5,0,0,0,3.75-.5,5.57,5.57,0,0,0,2.76-3.24,12,12,0,0,0,.4-4.73c0-.31,0-.63-.07-.94a6.28,6.28,0,0,0,1.15-.19,4.85,4.85,0,0,0,2.11-1.23A5.68,5.68,0,0,0,74.29,268c.1-.58.18-1.15.24-1.73a15.35,15.35,0,0,0-.25-2.24,14.82,14.82,0,0,0-.49-1.85,4.9,4.9,0,0,0-2.15-2.8,4.74,4.74,0,0,0-3.61-.47,4.54,4.54,0,0,0-1.23.55,4.65,4.65,0,0,0-2.47-1.67l-1.24-.17a4.66,4.66,0,0,0-2.36.63Z"/><path class="cls-2" d="M49.08,210.72a4.59,4.59,0,0,0-1.42,3.43c.27,2.44.54,4.89.84,7.33.44,3.72.89,7.55,3.56,10.42A5.55,5.55,0,0,0,56,233.44a6.94,6.94,0,0,0,4.46-2.09,7.85,7.85,0,0,0,.8-.93A10.71,10.71,0,0,0,62.77,228c.31-.7.57-1.39.83-2.1l.1-.3.27.06a7.92,7.92,0,0,0,3.59-.09,4.83,4.83,0,0,0,1.15-8.83,4.51,4.51,0,0,0-2.48-.62q-.18-.16-.36-.36l-.33-.5a6.46,6.46,0,0,0-1.93-2,5.2,5.2,0,0,0-4.3-.59,4.71,4.71,0,0,0-2,1.15l-.12-.91a4.85,4.85,0,0,0-8.11-2.14ZM65.74,216l.12.05h0l-.11-.05Zm.13.06h0Z"/><path class="cls-2" d="M47.84,172a4.6,4.6,0,0,0-2.78,2.14,4.48,4.48,0,0,0-.59,2.73,6.87,6.87,0,0,0-2.62-.6A5.46,5.46,0,0,0,37.19,179c-1.06,1.8-1,4-.89,6.06.11,2.54.3,5.08.48,7.61A4.88,4.88,0,0,0,38.14,196a4.71,4.71,0,0,0,3.29,1.36c2.4,0,4.82-2.12,4.64-4.65-.12-1.77-.25-3.54-.35-5.31a1.55,1.55,0,0,1,0-.22c.59.18,1.2.34,1.8.5.4.11.81.18,1.21.25.69.11,1.38.19,2.07.25a6.47,6.47,0,0,0,1.64-.27,5.86,5.86,0,0,0,2.37-1.41A6.49,6.49,0,0,0,56.18,184a6.34,6.34,0,0,0,0-3,9.9,9.9,0,0,0-.34-1.18,4.32,4.32,0,0,0,.52-1.2,4.68,4.68,0,0,0-3.25-5.73c-.73-.17-1.44-.35-2.15-.58l-.46-.19a3.59,3.59,0,0,0-1.26-.21,5.94,5.94,0,0,0-1.42.19Zm-.05,8.91L48,181h0l-.18-.07Zm.39.16,0,0,0,0Z"/><path class="cls-2" d="M19.65,166.78a6.52,6.52,0,0,0-2.82.82,21.12,21.12,0,0,0-2.4,1.83,9.34,9.34,0,0,0-1.19,1.32,14.35,14.35,0,0,0-1.64,2.45,11.73,11.73,0,0,0-.85,2.27,4.45,4.45,0,0,0,0,2.4,4.14,4.14,0,0,0,.57,1.8,8.88,8.88,0,0,0,1.26,1.6,8.86,8.86,0,0,0,3.3,1.76,15.88,15.88,0,0,0,2.82.59c.32.06.63.11.95.15a15.44,15.44,0,0,0-1.31,2.75,4.16,4.16,0,0,0,.44,3.37,3.72,3.72,0,0,0,.43.61,4.5,4.5,0,0,0,2.21,3.5,5.05,5.05,0,0,0,2.37.66,4.69,4.69,0,0,0,2.45-.71A6.4,6.4,0,0,0,29,189.72a26.74,26.74,0,0,0,.53-4.38,21.39,21.39,0,0,0-.3-4.59,7.67,7.67,0,0,0-2.06-4.19A4.49,4.49,0,0,0,25,175.32a4.24,4.24,0,0,0,1.13-1.26,4.5,4.5,0,0,0,.45-3.46,4.7,4.7,0,0,0-2.06-2.69,7.18,7.18,0,0,0-4-1.17,7,7,0,0,0-.8,0Z"/><path class="cls-2" d="M17.33,177.28c-1.1,0-2.19.05-3.29.17l-1.25.17a4.86,4.86,0,0,0-2.09,1.22,4.72,4.72,0,0,0,0,6.69A4.55,4.55,0,0,0,14,186.92a30.22,30.22,0,0,1,3.29-.18,4.73,4.73,0,0,0,.05-9.46Z"/></g></g></svg>