<svg xmlns="http://www.w3.org/2000/svg" viewBox="0 0 313.71 416.16"><defs><style>.cls-1{fill:#110802;}.cls-2{fill:#d2cab6;}</style></defs><title>Asset 3</title><g id="Layer_2" data-name="Layer 2"><g id="Draw_Layer" data-name="Draw Layer"><path class="cls-1" d="M234.41,37.4a4.35,4.35,0,0,0,7.21,3.3l0-.07a4.43,4.43,0,0,0,1.29-2l0-.06a4.3,4.3,0,0,0,.16-1.14,4.37,4.37,0,0,0-8.74,0Z"/><path class="cls-1" d="M262.68,0a7,7,0,0,0-3.87,1.47c-1.25.86-2.43,1.81-3.59,2.77a27.22,27.22,0,0,0-3.67,3.61c-1.6,1.91-3,4-4.38,6.05-1.54,2.21-3.09,4.41-4.59,6.65-3.4,5.06-6.81,10.12-10.05,15.28a5.2,5.2,0,0,0,1.85,7.05l.39.21h0a4.86,4.86,0,0,0,2.12.47A5.4,5.4,0,0,0,241.42,41l.14-.23.1-.16.06-.05,1.21-1.92,0-.06c2.65-4.13,5.32-8.09,7.82-11.75,1.49-2.2,3-4.34,4.42-6.34l.94-1.33.05-.09c.77-1.08,1.53-2.16,2.33-3.23.57-.67,1.18-1.34,1.82-2h0l0,0c.15,1.31.33,2.88.46,4.51.2,2.8.29,5.59.35,7.94.08,3.36.08,6.77.08,10.07V42l0,4.2v.13a8.11,8.11,0,0,0,.92,4.55,8,8,0,0,0,2.6,2.53l1,.56a16.39,16.39,0,0,1,1.83,1.17l.52.36A32.72,32.72,0,0,0,271,57.18c1,.53,2.12,1.16,3.26,1.89l.44.27h0a7,7,0,0,0-2.77,2.51,6.79,6.79,0,0,0,.21,7.19,17.87,17.87,0,0,0,3.32,3.59c.38.34.76.68,1.13,1,1.65,1.56,3,2.83,4.36,4,1,.9,2.08,1.79,3.14,2.67l.26.22.15.13c1.45,1.22,2.95,2.48,4.38,3.77l.06.08.07.06h0l-.09.06a8.83,8.83,0,0,0-2,1.59,5.75,5.75,0,0,0-1.46,2.5,4.44,4.44,0,0,0-.34,1.91,9.13,9.13,0,0,0,.48,3.52,24.31,24.31,0,0,0,1,2.63l.21.47A41.26,41.26,0,0,0,289,101.7c.7,1.21,1.45,2.42,2.2,3.63s1.76,2.81,2.58,4.3c.55,1,1.09,2,1.62,3,.09.18.19.36.29.54h0l0,0a6.65,6.65,0,0,0-4.55,1.84,6.11,6.11,0,0,0-1.65,2.71,7,7,0,0,0,.1,3.46,9.48,9.48,0,0,0,1.66,3.17l.35.49c.22.32.43.64.64,1l.11.19.35.53c.73,1.1,1.37,2.23,1.91,3.19.92,1.64,1.78,3.26,2.61,4.94.18.34.34.67.51,1h0l0,0-.19-.07-.19-.07-.32-.11-1.19-.45-.85-.3a8.57,8.57,0,0,0-1.78-.43,5.72,5.72,0,0,0-1.52-.2,5.87,5.87,0,0,0-1.54.2,7.45,7.45,0,0,0-2.92,1.2l-.59.45-.58.45a10.9,10.9,0,0,0-1.3,1.81c-1.17,1.91-.88,4.28-.39,6.56a19.87,19.87,0,0,0,1.12,3.25l.05.12.34.84.9,2.29c.35.88.75,1.89,1.1,3l.12.33h0v0c-.81,0-1.61-.09-2.42-.16l-.57-.1c-1.21-.21-2.47-.43-3.72-.56h-.26a7.91,7.91,0,0,0-3.25.92,7.08,7.08,0,0,0-2.31,2.34,7.31,7.31,0,0,0-.93,3.26,15.23,15.23,0,0,0,.51,4,24.08,24.08,0,0,0,1.17,3.48l.16.41.22.59.65,1.74.18.47.21.56c.2.52.39,1,.57,1.58l-.22.06h-.18c-.32,0-.63,0-.95,0h-.35a8.1,8.1,0,0,0-3.86,1.05,7.3,7.3,0,0,0-3.87,6.14,8.31,8.31,0,0,0,.45,2.8l-.24.38a5.72,5.72,0,0,0-.57,4.34,6.39,6.39,0,0,0,1.09,2.1h0a5.6,5.6,0,0,0,1.5,1.28,5.53,5.53,0,0,0,4.35.57,16.75,16.75,0,0,0,2.16-.86,10.64,10.64,0,0,0,2.35-1.66,7.26,7.26,0,0,0,1.66-2.95,7.84,7.84,0,0,0,.2-2.32l.47-.16a13.8,13.8,0,0,0,4-2.31,10.93,10.93,0,0,0,3.09-3.73,7.71,7.71,0,0,0,.87-3.46,10.85,10.85,0,0,0-.54-3.2c-.39-1.16-.8-2.32-1.23-3.47l-.61-1.59,2.33.08a22.34,22.34,0,0,0,4.39-.47,17,17,0,0,0,2-.79,14.36,14.36,0,0,0,2.08-1.57,7.28,7.28,0,0,0,1.79-3,11.08,11.08,0,0,0,.26-2.63,28.9,28.9,0,0,0-2-7.51c-.23-.67-.48-1.32-.75-2l.78.3,3.85,1.51c1.64.64,3.46,1.59,5.27,1.41a5.84,5.84,0,0,0,5-2.89l.72-1.7a7.48,7.48,0,0,0-.08-3.52,11.61,11.61,0,0,0-.39-1.43c-.36-1.11-.8-2.18-1.25-3.26-1.09-2.6-2.28-5.13-3.52-7.66-1-2.08-2.08-4.16-3.21-6.19l-.54-1,1.06-.5a9.53,9.53,0,0,0,1.91-1.45c.39-.48.77-1,1.13-1.49a5.71,5.71,0,0,0,.78-2.88,9.46,9.46,0,0,0-.32-2.7,16.19,16.19,0,0,0-1-2.38c-.33-.7-.71-1.38-1.06-2.07-.64-1.25-1.3-2.49-2-3.73-1.21-2.25-2.51-4.45-3.86-6.62-1.12-1.83-2.22-3.66-3.24-5.54l1,0c.52,0,1,0,1.57-.08a5.63,5.63,0,0,0,2.86-.77,12.24,12.24,0,0,0,1.28-1,5.69,5.69,0,0,0,1.45-2.5l.21-1.5a5.78,5.78,0,0,0-.78-2.87,10.33,10.33,0,0,0-1.82-2.37c-.39-.46-.78-.91-1.19-1.34-.9-1-1.84-1.85-2.78-2.75-2-1.92-4.13-3.75-6.25-5.57s-4.2-3.52-6.27-5.33c-.45-.39-.89-.8-1.33-1.21.26-.11.51-.23.76-.36a6.67,6.67,0,0,0,3.56-5.81c0-2.69-2.1-4.78-3.9-6.56A40.3,40.3,0,0,0,282.24,51,56.38,56.38,0,0,0,275.53,47c-1-.58-2-1.25-3-1.89l-.3-.19V42.64c0-2.27,0-4.55,0-6.82,0-5-.07-10-.37-14.92-.16-2.85-.47-5.69-.88-8.51-.46-3.17-.81-6.46-2.51-9.26A7.78,7.78,0,0,0,266,.74,6.38,6.38,0,0,0,262.75,0Zm33.78,90.82a.8.8,0,0,1,0-.15l0,.16Zm-2.13,3.9-.13.1.13-.1ZM292,154.28l-.15.06.15-.06Zm-12.64,17.64-.09.21.09-.21Z"/><path class="cls-1" d="M188,29.09c-2.57.15-5.14.45-7.71.69s-5,.39-7.47.51-5.18.2-7.75.5a30.45,30.45,0,0,0-4.27.72,22.42,22.42,0,0,0-3.44,1.24,51.58,51.58,0,0,1-5.29,1.68c-.79.21-1.59.41-2.36.66-1,.34-2,.75-3,1.17a36.17,36.17,0,0,1-6.19,2c-1.09.23-2.16.47-3.24.73a14.5,14.5,0,0,0-2.46.9,4.9,4.9,0,0,0-2.84,2.24,5,5,0,0,0-.67,2.16v0c0,.13,0,.26,0,.39A5.16,5.16,0,0,0,132,47.2l.21.28a4.78,4.78,0,0,0,1.65,1.6,5.49,5.49,0,0,0,2.62.72h.29a9.05,9.05,0,0,0,2.38-.46,34.28,34.28,0,0,1,3.39-.94l.11,0c1.53-.37,2.71-.68,3.87-1.06,1.49-.5,2.88-1.08,4.07-1.58a46.05,46.05,0,0,1,4.83-1.56,56.16,56.16,0,0,0,5.37-1.83,22.1,22.1,0,0,1,4.7-1.4c2.3-.25,4.74-.37,6.71-.48,1.67-.09,3.56-.19,5.37-.35l4.23-.39h.11c3-.28,6.4-.6,9.75-.82,1.56-.1,3.16-.14,4.7-.19h.13l1.57,0h1.06c1.85,0,3.67.14,5.52.3.85.07,1.7.16,2.54.25l.54,0c1,.11,2,.21,3,.29l.44,0c1.86.17,3.93.35,5.94.57,2.91.46,5.85,1,8.78,1.57,2.33.44,4.73.9,7.11,1.29a7.65,7.65,0,0,0,1.35.13l.57,0,0,0a4.25,4.25,0,0,0,1.7-.58,4.73,4.73,0,0,0,1.7-6.48,4.63,4.63,0,0,0-2.83-2.18c-5.53-.92-11-2.15-16.51-3.05-2.84-.46-5.71-.7-8.56-1-2.35-.25-4.69-.58-7.05-.83a52.58,52.58,0,0,0-5.75-.28c-3.19,0-6.38.21-9.55.39ZM135.08,39.73l.21,0-.37.09.16-.06Z"/><path class="cls-1" d="M102.31,11.74a21.38,21.38,0,0,0-1.81,5.37,70.9,70.9,0,0,0-2.12,16.48,67.35,67.35,0,0,0,.16,10.63c.25,2,.61,4,1,6a40.62,40.62,0,0,0,1.41,5,5.48,5.48,0,0,0,2.41,3.12A5.24,5.24,0,0,0,109.2,58v0a5.22,5.22,0,0,0,1.3-1.47l.26-.62.26-.63a5.21,5.21,0,0,0,0-2.77,24.48,24.48,0,0,0-.74-2.95c-.18-.61-.36-1.22-.51-1.84-.36-1.44-.61-2.95-.84-4.29l0-.12a68.67,68.67,0,0,1-.18-9c.11-3.67.3-6.67.61-9.43.46-2.59.88-4.55,1.38-6.35l.12,0a11.65,11.65,0,0,1,1.23.8,38.61,38.61,0,0,1,4,3.55,47.37,47.37,0,0,1,3,3.66c1.16,1.53,2.39,3.2,3.51,5,.49.77,1,1.56,1.43,2.34s.94,1.57,1.43,2.34c1,1.63,2.11,3.22,3,4.58a40.51,40.51,0,0,0,2.75,3.52v0c.58.68,1.17,1.34,1.74,2,1.69,2,5,1.74,6.73,0a4.75,4.75,0,0,0,1.39-3.36,5,5,0,0,0-1.39-3.37c-.91-1-1.81-2.1-2.68-3.17-1.23-1.72-2.39-3.51-3.47-5.33-1.33-2.22-2.6-4.47-4.07-6.61-1.6-2.31-3.31-4.57-5.08-6.76a25.24,25.24,0,0,0-2.09-2.41c-.93-.88-1.91-1.73-2.9-2.55-.46-.38-.91-.75-1.38-1.12s-.95-.74-1.44-1.09a10.67,10.67,0,0,0-2.33-1.19A20.22,20.22,0,0,0,109.12,8a6.81,6.81,0,0,0-.78,0,7.25,7.25,0,0,0-6,3.84Z"/><path class="cls-1" d="M102.56,56.13A72.75,72.75,0,0,0,94.85,62a74.83,74.83,0,0,0-7.5,8.21c-1.77,2.08-3.44,4.23-5.16,6.35-1.35,1.66-2.67,3.34-4,5-.92,1.18-1.84,2.36-2.74,3.55-.39.52-.79,1-1.17,1.55l-.63.86a7.55,7.55,0,0,0-.9,1.85,4.87,4.87,0,0,0,8.13,4.73c.37-.34.72-.69,1.07-1-1.42,1.85-2.84,3.71-4.23,5.6Q75,102.28,72.45,106c-.82,1.17-1.6,2.38-2.38,3.59-.65,1-1.3,2-1.92,3a14,14,0,0,0-1.28,2.84,8.18,8.18,0,0,0-.29,1.77,2.2,2.2,0,0,0,0,1.11,4.78,4.78,0,0,0,.67,2.47l.77,1A4.92,4.92,0,0,0,70.15,123a4.84,4.84,0,0,0,3,.16,12.29,12.29,0,0,0,2.19-.82c.74-.32,1.47-.67,2.2-1l-1.83,3.05c-.78,1.3-1.6,2.61-2.27,4a30.88,30.88,0,0,0-1.8,4.33,31.78,31.78,0,0,0-.73,3.62c-.38,2-.8,4.06-.09,6a5.25,5.25,0,0,0,2.87,3.27,5,5,0,0,0,2.56.69,4.76,4.76,0,0,0,2-.13,12.92,12.92,0,0,0,3.13-1l-1,1.66c-1.43,2.36-2.91,4.7-4.3,7.09a7.62,7.62,0,0,0-.81,5.62,6.48,6.48,0,0,0,1.5,2.62,2.32,2.32,0,0,1,.25.21,5.29,5.29,0,0,0,2.32,1.35c2.43.88,5.07,0,7.47-.52,1-.24,2-.46,3-.67a9,9,0,0,0-.84,3.35,7,7,0,0,0,2.51,5.63l1.08.84a11.23,11.23,0,0,0,1.77.7,12,12,0,0,0,2.54.35c.71.08,1.44.09,2.15.14l1.62.08a11.28,11.28,0,0,0,1.08,3.76,7.68,7.68,0,0,0,2.83,2.83,8.51,8.51,0,0,0,4.77.71,5.39,5.39,0,0,0,3.71-1.54,5.21,5.21,0,0,0-.73-8h0a6.14,6.14,0,0,0-1-.56,8.38,8.38,0,0,0-.9-3.53,5.41,5.41,0,0,0-1.12-1.65,7.87,7.87,0,0,0-2.83-1.74,12.8,12.8,0,0,0-4-.8h-.14l-.48,0h-.05a13.4,13.4,0,0,0,1.41-3.19,7.07,7.07,0,0,0-3.24-7.74,7.67,7.67,0,0,0-4-.92,19.34,19.34,0,0,0-2,.11c-1.19.08-2.48.24-3.93.45l-.58.1v0h0l.77-1.28.3-.5A77,77,0,0,0,94.89,142,9.75,9.75,0,0,0,96,137a7.6,7.6,0,0,0-.92-3.17,6.42,6.42,0,0,0-2-1.95l-.18-.13a6.34,6.34,0,0,0-3.05-.85,9.64,9.64,0,0,0-2.36.31,14.76,14.76,0,0,0-2.54,1l-.6.29-2.09,1-.09,0-.13.06v0h0c1.18-2.4,2.58-4.74,4-7l.75-1.25q1.61-2.65,3.22-5.3l1.1-1.78.42-.67.13-.21c.93-1.49,2-3.18,1.79-5a4.92,4.92,0,0,0-.67-2.49,5,5,0,0,0-3-2.27,6.42,6.42,0,0,0-1.83-.25,16,16,0,0,0-4.85,1l-.13,0-.12,0-.29.08,0,0h0c1.43-2,2.62-3.66,3.73-5.14l2.1-2.77c2.85-3.78,5.69-7.56,8.56-11.32l1-1.26a8.07,8.07,0,0,0,1.56-2.88,6.28,6.28,0,0,0,.12-3.12A5.84,5.84,0,0,0,97.1,79a7.71,7.71,0,0,0-2.86-1.25l-.56-.11h0c.36-.45.73-.88,1.1-1.32l.36-.42c1.12-1.32,2.52-3,3.92-4.51A41.28,41.28,0,0,1,103.77,67c1.32-1,2.51-1.83,3.65-2.58a4.81,4.81,0,0,0,1.77-6.51h0a.25.25,0,0,0,0-.07,5,5,0,0,0-4.27-2.41,4.13,4.13,0,0,0-2.32.68ZM92,87.23h0l.16.13L92,87.23ZM85.81,137a2.51,2.51,0,0,1,0,.27h0a2.51,2.51,0,0,0,0-.27ZM111.24,173v0c.05.15.12.29.18.43a2.87,2.87,0,0,1-.18-.4Z"/><path class="cls-1" d="M108.42,172.69a4.77,4.77,0,0,0-1.33,3.22c-.27,3.74-.62,7.49-.67,11.25a12.17,12.17,0,0,0,.25,2.83,5.27,5.27,0,0,0,.6,1.75l1.1,1.41a8.42,8.42,0,0,0,1.51,1.07,4.51,4.51,0,0,0,2.3.62,8,8,0,0,0,4.19-1,13.94,13.94,0,0,0,1.95-1.28,4.58,4.58,0,0,0,5.82-.54,4.71,4.71,0,0,0,1.34-3.23c0-.24,0-.47,0-.71h0a7.65,7.65,0,0,0-.38-3.39c-.52-1.29-1.22-2.67-2.38-3.18l-.22-.09a6.86,6.86,0,0,0-2.65-.75,2.91,2.91,0,0,0-1,.19c-.51.2-1,.4-1.52.63a9.48,9.48,0,0,0-1.37,1l-.1.07-.06,0,0,0v0l0,0,0-.45c.09-1.57.21-3.15.33-4.73l.11-1.56a4.39,4.39,0,0,0-1.32-3.21,4.64,4.64,0,0,0-2.55-1.28l0,0a4.44,4.44,0,0,0-.63,0,4.57,4.57,0,0,0-3.22,1.33Zm3.32,13.21-.19,0,.19,0Zm4.65,1.2a1,1,0,0,1,.07.15h0c0-.06,0-.11-.07-.16Z"/><path class="cls-1" d="M117,184.22a4.72,4.72,0,0,0-2.25,2.92q-.66,4.22-1.33,8.43l1.08-.28a18.06,18.06,0,0,1,4.61-.88,5.69,5.69,0,0,1,2.9.79,5.44,5.44,0,0,1,1.17.9c.34-2.12.67-4.23,1-6.35a5.31,5.31,0,0,0-.49-3.77,4.91,4.91,0,0,0-2.93-2.25,4.73,4.73,0,0,0-1.29-.18,4.91,4.91,0,0,0-2.48.67Z"/><path class="cls-1" d="M269.52,189.82l0,0a5.86,5.86,0,0,0-1.55,3.85,54,54,0,0,0,.49,7.92c.12,1,.23,2.07.34,3.11.15,1.34.29,2.69.46,4s.33,2.6.51,3.91c.5,3.84,1,7.82,1.29,11.79.31,5,.57,10,.84,15.6l0,.82c.1,2.06.16,4.06.19,6.13.83.48,1.66,1,2.48,1.46l1,.6c1.8,1.08,3.43,2,5.1,2.9l.77.38.4.2.16.08c.51.25,1,.51,1.51.79l.22.11c0-3.73,0-9.33-.3-14.88-.06-.89-.11-1.79-.13-2.69q-.25-4.41-.43-8.83c-.17-3.87-.6-7.73-1.11-11.57q-.72-5.43-1.33-10.86c-.42-3.67-.75-7.35-1.2-11l-.21-1.51a5.64,5.64,0,0,0-1.45-2.5,5.71,5.71,0,0,0-4-1.66,5.57,5.57,0,0,0-4.11,1.8Z"/><path class="cls-1" d="M271.79,274.62c-.3,5.14-.92,10.35-1.52,15.38v.12l-.12,1.06c-1.15,7-2.73,14.2-4.83,22.08-.62,2.33-1.4,4.66-2.16,6.92l-.07.19-.22.67-.75,2.24-.93,2.94c-.75,2.41-1.53,4.9-2.48,7.32s-2.28,4.78-3.5,7.13c-.49,1-1,1.93-1.62,2.9l-.32.56-.62,1.05c-1.08,1.86-2.19,3.79-3.45,5.59-.58.69-1.22,1.35-1.83,2l-.1.11-.17.17c-.23.23-.45.46-.67.7l-.15.15c.08.34.17.68.25,1a80.6,80.6,0,0,1,1.52,9.2l0,.21c0,.13,0,.25,0,.38,1.54-.48,3.06-1,4.58-1.54.78-.83,1.58-1.66,2.39-2.47,3.3-3.3,5.66-7.28,7.95-11.3,1.33-2.34,2.61-4.69,3.82-7.1a60.31,60.31,0,0,0,3.32-7.71c.88-2.63,1.7-5.27,2.57-7.89.77-2.35,1.62-4.68,2.36-7,1.66-5.27,2.92-10.66,4.15-16,.61-2.69,1.17-5.38,1.63-8.1.49-2.91.85-5.85,1.17-8.79.37-3.28.76-6.56,1.05-9.85l0,0c.19-2.18.32-4.1.38-5.89l.05-1.25.05-1.28a6,6,0,0,1-.64-.86c-.15-.25-.31-.49-.47-.72a17.41,17.41,0,0,0-1.58-1.63,48.89,48.89,0,0,0-5.27-3c-.88-.45-2-1-3-1.62l-.39-.22h0c0,3.93-.11,9.09-.39,14.23Z"/><path class="cls-1" d="M231.21,369l-.17.12c1.5-.25,3-.62,4.46-1l1.35-.29c-.1-1.18-.22-2.37-.37-3.6-1.69,1.65-3.46,3.23-5.27,4.73Z"/><path class="cls-1" d="M125.79,303.79c-1.89,2.75-3.74,5.53-5.82,8.14l-.48.59c.57,1.83,1.18,3.65,1.8,5.46s1.2,3.36,1.83,5c2.35-.78,4.63-1.49,6.6-2.09l.58-.18.17-.06c.78-.23,1.58-.47,2.37-.66l.13,0c-.27-.72-.54-1.45-.8-2.19v0c-1.88-5.23-3.54-10.53-5.06-15.86l-1.32,1.89Z"/><path class="cls-1" d="M136.08,331.11c-1.14.31-2.29.61-3.43,1q-2.57.78-5.11,1.61a.2.2,0,0,0,0,.08c1,2.37,2.07,4.78,3.25,7.08a36.28,36.28,0,0,0,4.47,6.39c1.62,1.94,3.3,3.83,5.06,5.65,1.9,2,3.75,4.05,5.76,5.91l1.76,1.62h0c1.48,1.35,2.9,2.6,4.34,3.82l.17.15a4,4,0,0,1,.66-.05h.07v0h.23c1.12.11,2.23.23,3.35.37.18-.73.37-1.44.58-2.14.5-1.76,1.1-3.69,1.75-5.75l0-.1,0-.15c-1.06-.89-2.18-1.86-3.3-2.88l-.26-.27c-.65-.59-1.29-1.2-1.93-1.81l-.34-.3c-.55-.54-1.1-1.07-1.64-1.62-2.89-2.94-6.27-6.44-9.42-10.18-.65-.88-1.16-1.62-1.61-2.33a33.46,33.46,0,0,1-1.92-3.69c-.42-.92-.83-1.83-1.22-2.74l0,0-1.43.38Z"/><path class="cls-1" d="M168.26,366.35l5.94.89c1.81.28,3.63.54,5.45.8l-.38-.19c-2-1.08-4.18-2-6.3-2.93-1.28-.57-2.53-1.18-3.77-1.82-.39,1.25-.67,2.26-.94,3.25Z"/><path class="cls-1" d="M194.83,140.34l-.78.07-.79.08-.27,0a17.3,17.3,0,0,0-1.75.23,10.54,10.54,0,0,0-2.39.92,4.64,4.64,0,0,0-2.21,2.86,4.86,4.86,0,0,0,.49,3.69,5,5,0,0,0,1.34,1.48,5.53,5.53,0,0,0,.69,2.27,5.67,5.67,0,0,0,1.27,1.44h0a7.08,7.08,0,0,0,2.38,1.14,19,19,0,0,0,2.32.32c.73.09,1.45.14,2.17.18.93,0,1.85.06,2.79.06a8.84,8.84,0,0,0,3.83-.77v0l.16-.08a5.61,5.61,0,0,0,3-4.88,10.49,10.49,0,0,0-3.49-7.24,7.2,7.2,0,0,0-3.78-1.79,13.67,13.67,0,0,0-2.17-.16,26.31,26.31,0,0,0-2.76.17Z"/><path class="cls-1" d="M192.7,149.27c-.76,1.38-1.51,2.76-2.28,4.12v0c-.91,1.6-1.66,2.88-2.37,4l-.22.36c-.57.92-1.14,1.85-1.72,2.76l-.33.54-.2.32c-.34.56-.68,1.11-1.05,1.65a5.87,5.87,0,0,0-.51.73,4.8,4.8,0,0,0,0,4.82,4.7,4.7,0,0,0,4.07,2.36,5.54,5.54,0,0,0,2.47-.64,6,6,0,0,0,2.09-2.17l.21-.29c.27-.39.52-.81.75-1.22l.15-.25c.52-.77,1-1.55,1.55-2.34s1.17-1.84,1.73-2.77l.06-.1.08-.1c.34.18.68.36,1,.57.49.47,1,1,1.56,1.69.62.84,1.23,1.68,1.84,2.53l.2.28.61.85a5.25,5.25,0,0,0,2.94,2.26,5.19,5.19,0,0,0,1.29.17,4.92,4.92,0,0,0,2.49-.67,5,5,0,0,0,2.25-2.93,4.71,4.71,0,0,0-.49-3.78c-1.5-2-2.86-3.63-4.17-5.11a19.55,19.55,0,0,0-1.87-1.88l-.35-.28-.49-.4-.7-.51a9.65,9.65,0,0,0-1.77-.86l-.16-.07a4.71,4.71,0,0,0-4.55-6,4.69,4.69,0,0,0-4.13,2.34Z"/><path class="cls-1" d="M223.75,83.9a4.82,4.82,0,0,0-1.36,3.29l-.24,3.61-.23,3.61a49.2,49.2,0,0,0,.38,8.48,22.8,22.8,0,0,0,1.1,5.59,20.76,20.76,0,0,0,1.39,3.09c.87,1.51,2.36,3.36,4.5,3.66a4.63,4.63,0,0,0,4.52-1.2,6.62,6.62,0,0,0,1.8-2.73,16.62,16.62,0,0,0,1.08-6.6,33,33,0,0,0-.33-3.46l-.05-.43c-.14-1.09-.29-2.24-.5-3.36-.29-1.62-.62-3.19-1-4.8l-.14-.57a29,29,0,0,0-1.38-4.81l-.23-.54-.22-.54a4.74,4.74,0,0,0-1.62-1.62,4.83,4.83,0,0,0-.56-.27A4.87,4.87,0,0,0,227,82.54a4.69,4.69,0,0,0-3.29,1.36Z"/><path class="cls-1" d="M149.92,88.17c0,3.16-.07,6.27,0,9.53v.93c0,1.71,0,3.48.12,5.22.15,2.51.28,4.54.45,6.58.05.68.14,1.37.22,2.06l.08.68c.32,2.78.84,5.61,3.33,7.07a4.54,4.54,0,0,0,2.34.63l.31,0a4.4,4.4,0,0,0,2.31-.62c.42-.31.83-.62,1.23-1a6.49,6.49,0,0,0,1.46-2.51,33.18,33.18,0,0,0,1.65-7.43,49.52,49.52,0,0,0,.48-6.07c0-2.31-.06-4.24-.17-6.08-.07-1.07-.24-2.18-.39-3.16l-.07-.41a11.49,11.49,0,0,0-2.82-5.76,3.93,3.93,0,0,0-1.44-1,4.62,4.62,0,0,0-9,1.34Z"/><path class="cls-1" d="M276.78,208.61a4.47,4.47,0,0,0-2.06,2.68,4.77,4.77,0,0,0,.45,3.47c1,2.09,1.92,4.2,2.87,6.3,1.14,2.82,2.23,5.65,3.28,8.51.71,1.93,1.4,3.89,2,5.85v-.07c.34,1.05.66,2.1,1,3.16A139.18,139.18,0,0,1,288,256.23a15,15,0,0,1,2.3,2.08,28.91,28.91,0,0,1,2.57,3.45,5.45,5.45,0,0,1,.62,4.25,5.82,5.82,0,0,1-2.69,3.64,4.6,4.6,0,0,1-1.21.53c0,.82.11,1.63.17,2.45l0,.36a48.06,48.06,0,0,1,.22,7.4c0,.18-.09.36-.15.55l-.79,0a20.54,20.54,0,0,1-3-.78c-.25-.12-.5-.26-.75-.41a13,13,0,0,1-1.11-1.2c-.23-.32-.46-.65-.68-1l-.15-.22-.31-.46v0l0-.06a4.92,4.92,0,0,0-2.81-2.17,4.71,4.71,0,0,0-5.31,6.92,28.1,28.1,0,0,0,3.49,4.65,12.12,12.12,0,0,0,4.51,2.75,13.77,13.77,0,0,0,2.4.72,23.67,23.67,0,0,0,5,.59,9,9,0,0,0,3.67-.93,7.86,7.86,0,0,0,2.68-1.92,9.49,9.49,0,0,0,2.33-4.63,20,20,0,0,0,.34-3.45c0-3.41-.42-6.79-.65-10.18-.15-2.21-.32-4.41-.66-6.6-.23-1.49-.44-3-.64-4.47q-.78-5.9-1.85-11.75a84.37,84.37,0,0,0-2.73-11.07c-1.3-4-2.71-7.91-4.16-11.84-1.65-4.48-3.67-8.84-5.68-13.18a4.5,4.5,0,0,0-3.87-2.22,4.55,4.55,0,0,0-2.28.61Zm13,72.38a4.82,4.82,0,0,1-.75.1l.75-.1Zm-.23.15-.31.13.31-.13Z"/><path class="cls-1" d="M119.69,188.61a31.79,31.79,0,0,0-2.83,4.07,41.67,41.67,0,0,0-2.23,5.07c-.54,1.35-1,2.74-1.48,4.11-.42,1.17-.77,2.38-1.15,3.56s-.67,2.09-.94,3.15c-1.28,5.1-2.37,10.25-3.81,15.31-1.4,4.91-2.61,9.87-3.94,14.8s-2.39,9.94-3.25,15A123.89,123.89,0,0,0,98.21,269c-.12,2.63-.24,5.25-.29,7.88a41.67,41.67,0,0,0,.78,7.87c.2,1.18.46,2.36.73,3.52a17.9,17.9,0,0,0,2.25,5.84,19.28,19.28,0,0,0,2.91,3.21,10.25,10.25,0,0,0,6.93,2.84c1,0,2-.08,3-.16a14,14,0,0,0,4.34-.9,22.05,22.05,0,0,0,3.56-1.81,20.62,20.62,0,0,0,3.62-3l.48-.5v0c1.22-1.32,2.34-2.78,3.42-4.19l.22-.29A42.44,42.44,0,0,0,133,285a48.85,48.85,0,0,0,3.08-6.68c.65-1.64,1.24-3.33,1.76-5,.23-.75.45-1.51.7-2.36.32-1.13.65-2.25,1-3.37.46-1.42,1-2.83,1.57-4.38l.39-1c.43-1.18.8-2.4,1.16-3.58l.05-.19c.15-.48.29-1,.45-1.46l.14-.45c.42-1.33.84-2.66,1.24-4a5.15,5.15,0,0,0-2.35-5.78,5,5,0,0,0-2.54-.68,5.18,5.18,0,0,0-4.46,2.52,14.54,14.54,0,0,0-1.14,2.72l-.23.67c-.43,1.2-.78,2.38-1,3.28-.64,2.17-1.44,4.39-2.14,6.35l-.32.87c-.62,1.74-1.15,3.61-1.59,5.12-.21.73-.42,1.47-.64,2.2-.74,2.52-1.5,4.75-2.32,6.82a41.72,41.72,0,0,1-4.58,7.89,28.86,28.86,0,0,1-3.63,4,16,16,0,0,1-2.09,1.28,11.56,11.56,0,0,1-1.54.38c-.73.07-1.55.15-2.36.15h-.13a21.55,21.55,0,0,1-1.59-1.59c-.06-.1-.12-.2-.17-.3a40.39,40.39,0,0,1-1.76-7.59,67.25,67.25,0,0,1-.08-9.73c.16-3.65.46-7.36.89-11,.78-5.09,1.52-9.66,2.59-14.16.84-3.52,1.75-7.08,2.62-10.53l0-.15.55-2.2.58-2.31c.35-1.4.73-2.79,1.12-4.19l.07-.28c.25-.89.49-1.78.73-2.67.47-1.83.88-3.73,1.28-5.57l0-.17.24-1.15c.57-2.57,1.2-5.33,2-8.16.75-2.62,1.68-5.22,2.49-7.52.21-.59.44-1.17.67-1.76a26,26,0,0,1,2.34-4.16,4.86,4.86,0,0,0,1.29-3.17,4.55,4.55,0,0,0-1.33-3.21,4.16,4.16,0,0,0-.64-.54v0a4.58,4.58,0,0,0-2.57-.79,4.38,4.38,0,0,0-3.23,1.33Z"/><path class="cls-1" d="M119.07,292a4.86,4.86,0,0,0-3.36,5.92c.33,1.16.67,2.33,1,3.49a13,13,0,0,0,0,2.16,14,14,0,0,0,.73,3.75,26.88,26.88,0,0,0,1.31,2.89c.65,1.17,1.28,2.34,1.94,3.5.21.36.41.73.6,1.1s.22.53.34.79a25.45,25.45,0,0,0,1.68,3.44,5,5,0,0,0,4.73,2.38l1.67-.52.06,0a4.82,4.82,0,0,0,2.4-3.08v0a5.38,5.38,0,0,0,0-2.46,7.32,7.32,0,0,0-.52-1.35,3.45,3.45,0,0,0-.14-.42,4.26,4.26,0,0,0-.16-1.86c-.2-.63-.43-1.25-.65-1.88s-.53-1.47-.77-2.22c-.51-1.65-.88-3-1.16-4.42-.11-.55-.2-1.1-.31-1.66-.12-.75-.26-1.5-.42-2.24a12.67,12.67,0,0,0-.62-2,4.73,4.73,0,0,0,0-.52,4.93,4.93,0,0,0-1-2.92h0a4.92,4.92,0,0,0-2.6-1.79,4.66,4.66,0,0,0-2.4,0,4.8,4.8,0,0,0-1.19-.16,4.89,4.89,0,0,0-1.25.17Z"/><path class="cls-1" d="M252.9,348.51a80.18,80.18,0,0,0-6.57,5.65c.07.25.13.51.19.76a80.6,80.6,0,0,1,1.52,9.2l0,.21c.07.67.14,1.33.18,2v.17c.62-.37,1.23-.76,1.84-1.16l.32-.23c.21-.14.42-.28.64-.41a39.72,39.72,0,0,0,4.52-3.66q1-1,2-1.89a26.2,26.2,0,0,0,2.05-1.9,5.49,5.49,0,0,0,1.43-2.45,5.57,5.57,0,0,0-3.88-6.85,6,6,0,0,0-1.54-.2,4.9,4.9,0,0,0-2.75.77Z"/><path class="cls-1" d="M146.56,351.16a4.68,4.68,0,0,0,0,6.61,43.28,43.28,0,0,1,3.43,3.34c.84.92,1.74,1.77,2.61,2.66.18.18.36.37.53.56h0c.32.36.62.74.93,1.11l.09.11.16.19c.18.23.37.46.57.68a7.86,7.86,0,0,0,1,.95l.25.2c.35-1.79.75-3.42,1.21-5,.5-1.76,1.1-3.69,1.75-5.75h0l-.93-.85c-.73-.64-1.38-1.36-2.06-2.07h0l-.22-.2c-.83-.86-1.71-1.65-2.53-2.38l-.28-.27a4.76,4.76,0,0,0-3.2-1.27,4.65,4.65,0,0,0-3.3,1.37Z"/><path class="cls-1" d="M235.75,360.17c-1.56.6-3.18,1.1-4.8,1.59l-1.22.37a58.46,58.46,0,0,1-7.91,1.83l-1.47.19-3.49.46c-1.8.19-3.62.32-5.46.46l-.56,0c-2.06.15-4.18.19-6.05.22l-1.3,0-1.09,0c-1.56,0-3.13.07-4.7.07h-1.47a53,53,0,0,1-5.69-.49l-4-.6-.7-.09h0l.43.06-.38-.05.38.07c-2.41-.32-4.85-.58-7.22-.84h-.12c-1.57-.17-3.14-.34-4.71-.53l-2.34-.38c-.71-.12-1.43-.24-2.14-.34l-.14,0-.11,0-.07.24-.08.25-.14.43c-.39,1.26-.68,2.26-.94,3.26-.51,2-.95,3.95-1.32,5.92l.86.2h0l2.12.45c3.39.75,6.85,1.15,10.29,1.59l1.27.17c3.19.49,6.38,1,9.58,1.46l-1.48-.2a60.84,60.84,0,0,0,8.42.75c2.56,0,5.13,0,7.69,0s5-.17,7.48-.33,5-.54,7.44-.92c2-.26,3.95-.53,5.9-.92,1.25-.25,2.49-.53,3.71-.84v0c.83-.22,1.66-.44,2.49-.68l.21-.07c1.31-.38,2.79-.81,4.19-1.27-.14-2.73-.38-5.49-.75-8.44l0-.26c-.14-1-.27-1.91-.44-2.84l-.13.08Z"/><path class="cls-1" d="M143.69,356.06a4.41,4.41,0,0,0,2.27,3.82v0a4.47,4.47,0,0,0,2,.55v0h.13a4.37,4.37,0,1,0-4.37-4.37Z"/><path class="cls-1" d="M138.54,343.6a4.68,4.68,0,0,0-2.77,2.14,5,5,0,0,0-.47,3.57q.47,2.87.87,5.74c.34,3.19.53,6.37.62,9.57s0,6.15.36,9.19c.22,1.79.6,3.56.94,5.33.29,1.52.52,3,.8,4.56a40.2,40.2,0,0,0,1,4.32,35.44,35.44,0,0,0,1.72,4.14c.58,1.54,1,3.12,1.6,4.67a64.54,64.54,0,0,0,2.74,6.81,34.27,34.27,0,0,0,2.93,4.77,18.81,18.81,0,0,0,6.14,5.8,17.37,17.37,0,0,0,2.91,1.13c.52.17,1.06.29,1.59.41a14.72,14.72,0,0,0,5.91.19c2.8-.51,5-2.49,6.62-4.67a15,15,0,0,0,2.49-6.16c.48-2.45.87-4.92,1.19-7.39.28-2.24.47-4.48.7-6.72.18-1.15.37-2.3.57-3.44.32-1.94.53-3.88.76-5.83.17-1.42.35-2.83.47-4.26s.15-3,.27-4.5a5.36,5.36,0,0,0-3.94-5.18,5.44,5.44,0,0,0-4.14.54,5.18,5.18,0,0,0-2.47,3.21c0,.31-.1.62-.14.93h0c-.18,1.25-.29,2.49-.4,3.86l0,.46-.12,1.5c-.15,1.5-.33,3-.52,4.5l-.08.72c-.12.8-.26,1.6-.39,2.4l-.05.27c-.23,1.46-.48,3-.63,4.47q-.13,1.24-.24,2.49c-.14,1.43-.28,2.85-.44,4.28-.15,1-.3,1.94-.47,2.91l-.13.72a29.94,29.94,0,0,1-.76,3.52q-.17.33-.36.66l-.32.32c-.24,0-.49,0-.73,0a17.38,17.38,0,0,1-2.31-.6c-.26-.14-.5-.29-.75-.45a18.84,18.84,0,0,1-1.68-1.75,35.83,35.83,0,0,1-3.64-6.22c-.59-1.5-1.14-3-1.7-4.61l-.07-.2c-.63-1.78-1.45-3.57-2.16-5.14l-.27-.61a36.74,36.74,0,0,1-1.57-6.3l-.07-.37c-.18-.93-.37-1.86-.56-2.79l0-.17c-.26-1.25-.53-2.54-.74-3.82-.26-2.52-.34-5.1-.4-7.39,0-1.4-.09-2.8-.17-4.19v-.34c0-.2,0-.39,0-.6-.29-4.41-1-8.78-1.7-13.14a4.48,4.48,0,0,0-2.14-2.77,4.6,4.6,0,0,0-3.58-.47ZM163,405.52l.36-.27-.36.28Z"/><path class="cls-1" d="M254.92,350.65a5.22,5.22,0,0,0-2.52,3.27c-.56,3.5-.77,7-1,10.57h0c-.12,2-.26,4.19-.47,6.35-.45,2.83-.94,5.72-1.45,8.57l.1.47a6,6,0,0,1-.59,4.45,5.31,5.31,0,0,1-.61.85c-.36,1.69-.81,3.37-1.32,5.24l-.22.8a44.05,44.05,0,0,1-1.68,5.06,32.56,32.56,0,0,1-2.62,4.79,29.52,29.52,0,0,1-3.56,3.69l-.15.09a24.39,24.39,0,0,1-3.15.7l-.85,0h-.43a12.85,12.85,0,0,1-1.53-.45,13.73,13.73,0,0,1-1.64-1c-.37-.3-.72-.61-1.06-.94l-.05-.1a1.82,1.82,0,0,0-.06-.18c-.2-2.23-.18-4.51-.17-6.7,0-2.76.08-5.52.13-8.27.07-3.95.16-9.15.16-14.25h0c0-.84,0-1.68,0-2.51a4.73,4.73,0,1,0-9.45,0c0,5.88,0,11.76-.18,17.64q-.1,4.34-.18,8.68c0,1.1,0,2.2,0,3.3,0,.78,0,1.55.07,2.33a11.34,11.34,0,0,0,1.75,5.65,12.29,12.29,0,0,0,2.56,2.73,22.46,22.46,0,0,0,2.59,2,9.44,9.44,0,0,0,1.5.73,23.85,23.85,0,0,0,2.91,1.11,12.38,12.38,0,0,0,4.77.32,38.16,38.16,0,0,0,4-.58,17,17,0,0,0,3.5-1.26,11.77,11.77,0,0,0,2.22-1.63c.57-.49,1.12-1,1.65-1.54a31.4,31.4,0,0,0,5-6.25,45.17,45.17,0,0,0,3.33-7.45A129.31,129.31,0,0,0,260.88,377c.35-2,.72-4,.95-6s.35-3.69.48-5.54c.1-1.58.18-3.16.32-4.73.14-1.8.4-3.59.54-5.38a5.48,5.48,0,0,0-8.25-4.73ZM238.2,405.16l-.1,0,.1,0Z"/><path class="cls-1" d="M27.66,160.28a26.93,26.93,0,0,0-5.48,1.12,37.31,37.31,0,0,0-6.51,2.84,32.78,32.78,0,0,0-4.5,3.37c-.63.52-1.23,1.1-1.83,1.65A19.31,19.31,0,0,0,7.1,172a36.07,36.07,0,0,0-4.22,8.1,46.32,46.32,0,0,0-2.09,6.39,38,38,0,0,0-.16,14.61,15.43,15.43,0,0,0,1.31,4.38,8.86,8.86,0,0,0,1.28,1.91c.46.58.95,1.12,1.46,1.65a17.52,17.52,0,0,0,3.66,3.16,15.8,15.8,0,0,0,5.72,1.71,47,47,0,0,0,7.4.57,49.17,49.17,0,0,1,5.95.1,25.47,25.47,0,0,1,4.32,1.06A21.51,21.51,0,0,1,34,216.9a30.83,30.83,0,0,1,3.5,3.89A19.59,19.59,0,0,1,39,223.35a34.2,34.2,0,0,1,1.35,5c.22,2.11.35,4.22.42,6.35a48.8,48.8,0,0,1-.09,6.4c-.44,2.66-.92,5.32-1.15,8s-.36,5.16-.64,7.73-.44,5.15-.63,7.73c-.1,1.3-.18,2.61-.26,3.92s-.18,2.48-.15,3.7c.09,4.84.34,9.69.82,14.5a102.92,102.92,0,0,0,2.39,15.64c.52,2,1,4,1.71,6,.87,2.36,1.86,4.66,2.95,6.92a32.25,32.25,0,0,0,4.05,6,35.28,35.28,0,0,0,5,5.19,75.81,75.81,0,0,0,11.76,8.48c1,.52,2,.92,3,1.36s2.08.92,3.1,1.42c2.19,1.06,4.44,2,6.69,2.92A42.61,42.61,0,0,0,85,342.68a40,40,0,0,0,7.46,1.12c4.44.31,8.9.34,13.35.31,2.17,0,4.34-.12,6.51-.19s4.16-.12,6.24-.36a35.59,35.59,0,0,0,7.28-1.6c1.75-.58,3.52-1.14,5.3-1.62a5.41,5.41,0,0,0,2.15-.71,5.49,5.49,0,0,0,2.49-3.23,5.67,5.67,0,0,0-1.07-4.93c-.7.19-1.41.39-2.1.6q-2.57.78-5.11,1.61l-2.7.9a4.8,4.8,0,0,1-1.55.26,5.9,5.9,0,0,1-4.54-2.34l-.29.06-.29.05-.1,0c-1.66.16-3.36.21-5.08.27l-1.11,0-1.28.05c-1.73.06-3.69.14-5.62.14h-2.15a125.27,125.27,0,0,1-12.67-.5,30,30,0,0,1-6-1.82h0l0,0h0l0,0,0,0H84l-3.49-1.44c-.93-.4-1.85-.83-2.78-1.26s-2.17-1-3.27-1.47a33.69,33.69,0,0,1-4-1.94,50.73,50.73,0,0,1-4.4-2.92l-1.92-1.53c-.21-.17-.42-.34-.64-.5l-.29-.23c-.67-.52-1.37-1.05-2-1.64a41.42,41.42,0,0,1-4.33-4.76,31.87,31.87,0,0,1-3.08-5.71A65.82,65.82,0,0,1,50,292.51c-.5-4.17-.82-7.35-1-10.32l-.1-1.37a101.06,101.06,0,0,1-.42-10.18c.12-3.94.41-8,.69-11.73.08-1,.17-1.92.26-2.88l0-.37c.08-.83.16-1.65.22-2.48l.09-1.26c.11-1.4.22-2.81.35-4.21l.21-1.28.12-.69a54.87,54.87,0,0,0,.75-5.54,65,65,0,0,0-.07-7.79c-.27-5.08-1-10.93-4-15.78a41,41,0,0,0-4.1-5.18l-.48-.54a18.8,18.8,0,0,0-7.36-4.9,29.84,29.84,0,0,0-7.79-1.64,24.23,24.23,0,0,0-2.57-.11l-2.09,0c-.69,0-1.39,0-2.09,0h-.37c-1.18,0-2.4-.11-3.49-.22l.58.08-.66-.09-.56-.06-.58-.09-.56-.08.53.07a16.89,16.89,0,0,1-2.25-.59,23.85,23.85,0,0,1-2.35-2.43,20.34,20.34,0,0,1-.66-2.84,42.5,42.5,0,0,1-.13-7.28,30.15,30.15,0,0,1,1.18-4.72c.48-1.42,1.07-2.85,1.62-4.19a36.08,36.08,0,0,1,2.81-4.67A25.41,25.41,0,0,1,19,174.27a23.5,23.5,0,0,1,3.92-2.33,30.29,30.29,0,0,1,5.52-1.53c.8-.07,1.62-.11,2.59-.11.67,0,1.33,0,2,0h.35c2,.07,3.62.13,5.3.29a38.93,38.93,0,0,1,8.11,2.26,48,48,0,0,1,7.31,4.36A50.63,50.63,0,0,1,58,180.62a44.14,44.14,0,0,1,3.61,4.15l.48.6a48.62,48.62,0,0,1,4.1,6.08c1.36,2.51,2.48,5.06,3.22,6.75l.38,1.05a74.64,74.64,0,0,1,3.88,13,71.59,71.59,0,0,1,.25,9.76c-.06,2.55-.19,4.92-.39,7.22l0,.22-.06.5,0,.07c0,.27-.07.53-.12.8l-.06.41c0-.13,0-.25,0-.37,0,.12,0,.24-.07.37l.11-.68,0-.11v0c-.83,4.75-1.69,9.67-2.89,14.48L70,246.87c-.46,1.85-.91,3.65-1.32,5.49-.54,2.36-1,4.91-1.57,8l-.17.94a86.06,86.06,0,0,0-1.66,15.24c0,3,.15,5.56.37,7.91v.14a49.28,49.28,0,0,0,1.28,8.45c.37,1.32.68,2.34,1,3.31.41,1.14.92,2.3,1.37,3.32l.35.83.2.45c.54,1.27,1.1,2.58,1.76,3.82a24.06,24.06,0,0,0,2.43,3.46c.22.27.44.54.65.82.5.65,1.06,1.26,1.63,1.89q.32.33.63.69l.35.39c.52.59,1.18,1.34,1.83,2a64.58,64.58,0,0,0,5.51,5.09,45.47,45.47,0,0,0,5.91,4.12,27.33,27.33,0,0,0,5.3,2.18,31.06,31.06,0,0,0,5.55,1l.25,0a38,38,0,0,0,4,.19h1.47c1.15,0,2.3.06,3.45.11,1.34.07,2.67.16,4,.25l3.18.22a5,5,0,0,1,.52-1.15,5.94,5.94,0,0,1,3.44-2.65c2.81-1,5.6-1.83,8-2.55l.57-.18a3.93,3.93,0,0,0-2.32-1.54,31.87,31.87,0,0,0-4.87-.67c-.83,0-1.67-.07-2.5-.1-1.87-.08-3.75-.24-5.62-.42s-3.72-.3-5.58-.37c-2.59-.11-5.21-.12-7.79-.39A27.92,27.92,0,0,1,96.94,316a31.09,31.09,0,0,1-5-3c-.7-.56-1.42-1.11-2.07-1.72-1.1-1-2.18-2.06-3.23-3.14-1.7-1.75-3.3-3.59-4.89-5.45-.52-.72-1-1.45-1.52-2.2A29.15,29.15,0,0,1,78,295.7l.48,1.14a46.59,46.59,0,0,1-2-5.62,41.89,41.89,0,0,1-1-4.82c-.23-2.59-.48-5.18-.5-7.77s.07-5.41.3-8.12c.69-4.77,1.43-9.58,2.5-14.27,1.16-5.07,2.56-10.08,3.56-15.19q.74-3.81,1.44-7.63a69,69,0,0,0,.93-8.72c.13-2.52.15-5,.18-7.55A46.87,46.87,0,0,0,82.72,207a35.4,35.4,0,0,0-1.1-4.07,108.77,108.77,0,0,0-6.34-15.78,50,50,0,0,0-4.2-6.5c-2.49-3.37-5.13-6.88-8.45-9.49A86.52,86.52,0,0,0,55.49,166a39.21,39.21,0,0,0-6.92-3.3,39.79,39.79,0,0,0-11.3-2.4c-1.69-.12-3.38-.13-5.07-.18l-1.14,0a26,26,0,0,0-3.4.21Zm-17,40.08.09.2-.09-.2Z"/><path class="cls-2" d="M260.35,13.89h0c-.64.64-1.25,1.3-1.82,2-.8,1.07-1.56,2.15-2.33,3.24l-.05.08-.94,1.33c-1.42,2-2.93,4.14-4.42,6.34-2.49,3.66-5.17,7.62-7.82,11.75a4.43,4.43,0,0,1-1.29,2l-.1.16-.15.23a5.37,5.37,0,0,1-4.48,2.53,5,5,0,0,1-2.12-.47l-.57,0a7.65,7.65,0,0,1-1.35-.13c-2.38-.39-4.78-.85-7.11-1.29-2.93-.56-5.87-1.11-8.78-1.57-2-.22-4.08-.4-5.94-.57l-.44,0c-1-.08-2-.18-3-.29l-.54,0c-.84-.09-1.69-.18-2.54-.25-1.85-.16-3.67-.3-5.52-.3l-1.06,0-1.57,0h-.13c-1.54.05-3.14.09-4.7.19-3.35.22-6.75.54-9.75.82h-.11l-4.23.39c-1.81.16-3.7.26-5.37.35-2,.11-4.41.24-6.71.48a22.1,22.1,0,0,0-4.7,1.4,56.16,56.16,0,0,1-5.37,1.83,46.05,46.05,0,0,0-4.83,1.56c-1.19.5-2.58,1.08-4.07,1.58-1.16.38-2.34.69-3.87,1.06l-.1,0c-1.18.28-2.32.56-3.4.93a8.67,8.67,0,0,1-2.38.47h-.29a5.49,5.49,0,0,1-2.62-.72,4.87,4.87,0,0,1-1.65-1.6L132,47.2a5.16,5.16,0,0,1-.69-2.55c0-.13,0-.26,0-.39a40.51,40.51,0,0,1-2.75-3.52c-.92-1.37-2-3-3-4.58-.49-.77-1-1.56-1.43-2.34s-.94-1.57-1.43-2.34c-1.12-1.77-2.35-3.43-3.51-5a45.38,45.38,0,0,0-3-3.65,37.6,37.6,0,0,0-4-3.56,11.65,11.65,0,0,0-1.23-.8l-.12,0h0a64.82,64.82,0,0,0-1.37,6.35c-.32,2.76-.51,5.76-.61,9.43a67,67,0,0,0,.17,9l0,.13c.23,1.33.48,2.84.84,4.28.15.62.33,1.23.51,1.84a24.48,24.48,0,0,1,.74,2.95,5.21,5.21,0,0,1,0,2.77l-.26.63-.27.62a5,5,0,0,1-1.29,1.47,4.83,4.83,0,0,1-1.78,6.51c-1.13.75-2.32,1.59-3.64,2.58a41.28,41.28,0,0,0-4.72,4.31c-1.4,1.53-2.8,3.19-3.92,4.51l-.36.42-1.1,1.32A8.25,8.25,0,0,1,97.1,79a5.85,5.85,0,0,1,2.43,3.14,6.28,6.28,0,0,1-.12,3.12,7.87,7.87,0,0,1-1.57,2.88q-.47.63-1,1.26c-2.87,3.76-5.71,7.54-8.56,11.32l-2.1,2.77c-1.11,1.48-2.3,3.11-3.73,5.14a1.9,1.9,0,0,0,.36-.09l.12,0,.12,0a16.17,16.17,0,0,1,4.86-1,6.42,6.42,0,0,1,1.83.26,5,5,0,0,1,3,2.27,4.92,4.92,0,0,1,.67,2.49c.19,1.8-.86,3.49-1.79,5l-.13.21-.42.67c-.37.59-.74,1.18-1.1,1.78q-1.62,2.64-3.22,5.3L86,126.57c-1.38,2.3-2.78,4.63-4,7l.23-.09,2.09-1,.6-.29a14.76,14.76,0,0,1,2.54-1,9.64,9.64,0,0,1,2.36-.31,6.34,6.34,0,0,1,3.05.85l.18.13a6.42,6.42,0,0,1,2,1.95A7.56,7.56,0,0,1,96,137,9.75,9.75,0,0,1,94.89,142a79.15,79.15,0,0,1-4.48,8.13l-.3.49-.77,1.28c1.7-.26,3.18-.44,4.53-.55.55,0,1.28-.1,2-.1a7.67,7.67,0,0,1,4,.92,7.05,7.05,0,0,1,3.23,7.74,12.81,12.81,0,0,1-1.41,3.19l.54.06h.14a13.09,13.09,0,0,1,4,.8,7.87,7.87,0,0,1,2.83,1.74,5.54,5.54,0,0,1,1.12,1.65,8.38,8.38,0,0,1,.9,3.53,6.57,6.57,0,0,1,1,.56,4.64,4.64,0,0,1,2.55,1.28,4.39,4.39,0,0,1,1.32,3.21l-.11,1.56c-.12,1.58-.24,3.16-.33,4.73l0,.44.12-.06.09-.07a10.73,10.73,0,0,1,1.39-1c.49-.22,1-.43,1.51-.63a2.91,2.91,0,0,1,1-.19,6.81,6.81,0,0,1,2.65.75l.22.1c1.16.5,1.86,1.88,2.38,3.17a7.8,7.8,0,0,1,.39,3.39,4.61,4.61,0,0,1,.63.54,4.55,4.55,0,0,1,1.33,3.21,4.86,4.86,0,0,1-1.29,3.17,26,26,0,0,0-2.34,4.16c-.23.59-.46,1.17-.67,1.76-.82,2.3-1.74,4.9-2.49,7.53-.82,2.82-1.45,5.58-2,8.15l-.25,1.15,0,.17c-.4,1.84-.81,3.73-1.28,5.57-.24.89-.48,1.78-.73,2.67l-.08.28c-.38,1.4-.76,2.79-1.11,4.19l-.58,2.31-.56,2.2,0,.15c-.87,3.45-1.77,7-2.62,10.53-1.08,4.5-1.81,9.07-2.58,14.15-.44,3.68-.74,7.39-.89,11a65.85,65.85,0,0,0,.07,9.73,41.19,41.19,0,0,0,1.75,7.59l.18.3a21.55,21.55,0,0,0,1.59,1.59h.13c.81,0,1.64-.07,2.36-.14a11.56,11.56,0,0,0,1.54-.38,16,16,0,0,0,2.09-1.28,28.86,28.86,0,0,0,3.63-4,41.72,41.72,0,0,0,4.58-7.89c.82-2.07,1.58-4.3,2.32-6.82.22-.73.43-1.47.64-2.2.44-1.51,1-3.39,1.6-5.12l.31-.87c.7-2,1.51-4.18,2.14-6.36.26-.89.61-2.07,1-3.27l.23-.67a14.54,14.54,0,0,1,1.14-2.72,5.18,5.18,0,0,1,4.46-2.52,5,5,0,0,1,2.54.68,5.15,5.15,0,0,1,2.35,5.78c-.41,1.34-.82,2.66-1.24,4l-.15.44c-.15.49-.29,1-.44,1.46l-.06.19c-.35,1.18-.72,2.4-1.15,3.58l-.39,1c-.59,1.56-1.11,3-1.57,4.38-.37,1.11-.7,2.24-1,3.37-.25.85-.47,1.61-.7,2.36-.52,1.71-1.11,3.4-1.76,5A48.85,48.85,0,0,1,133,285a42.44,42.44,0,0,1-2.89,4.37l-.22.29c-1.08,1.41-2.2,2.87-3.42,4.19a4.93,4.93,0,0,1,1,2.92,3.12,3.12,0,0,1,0,.52,12.67,12.67,0,0,1,.62,2c.16.74.3,1.49.43,2.24.09.56.19,1.11.3,1.66.28,1.37.65,2.77,1.16,4.42.24.75.5,1.48.77,2.22s.45,1.25.65,1.88a4.26,4.26,0,0,1,.16,1.86,4,4,0,0,1,.14.41,7.69,7.69,0,0,1,.52,1.36,5.24,5.24,0,0,1,0,2.46c.27.74.53,1.47.81,2.2-.83.19-1.68.45-2.5.69l-.17.06-.58.18c-2.35.72-5.14,1.59-8,2.55a6,6,0,0,0-3.45,2.65,5.92,5.92,0,0,0-.51,1.15l-3.18-.22c-1.36-.09-2.69-.18-4-.25-1.15-.05-2.3-.08-3.45-.11h-1.46a38.05,38.05,0,0,1-4-.19l-.25,0a30.22,30.22,0,0,1-5.55-1,27,27,0,0,1-5.3-2.17,44.52,44.52,0,0,1-5.91-4.12,64.58,64.58,0,0,1-5.51-5.09c-.65-.67-1.31-1.4-1.83-2l-.35-.39-.63-.69c-.57-.63-1.13-1.25-1.63-1.89l-.65-.82a24.14,24.14,0,0,1-2.43-3.47c-.66-1.23-1.22-2.54-1.76-3.81l-.2-.45-.35-.83c-.45-1-1-2.18-1.37-3.32-.34-1-.66-2-1-3.31a49.28,49.28,0,0,1-1.28-8.45v-.14c-.22-2.35-.34-4.87-.37-7.91a85.15,85.15,0,0,1,1.67-15.24l.16-.94c.53-3.13,1-5.68,1.56-8,.42-1.82.87-3.63,1.34-5.48l.46-1.88c1.2-4.81,2.06-9.73,2.89-14.48l.1-.55-.22,1.31c.12-.59.2-1.19.28-1.78l0-.22c.21-2.31.33-4.67.39-7.22a71.59,71.59,0,0,0-.25-9.76,74.64,74.64,0,0,0-3.88-13l-.38-1.05c-.73-1.69-1.86-4.24-3.22-6.75a48.62,48.62,0,0,0-4.1-6.08l-.48-.59A41.8,41.8,0,0,0,58,180.62a48.75,48.75,0,0,0-3.93-3.37,48.51,48.51,0,0,0-7.31-4.36,38.76,38.76,0,0,0-8.11-2.26c-1.68-.16-3.32-.22-5.3-.28H33c-.67,0-1.33,0-2,0-1,0-1.79,0-2.59.11a30.29,30.29,0,0,0-5.52,1.53A24.2,24.2,0,0,0,19,174.27a25.41,25.41,0,0,0-3.23,2.95,36.08,36.08,0,0,0-2.81,4.67c-.55,1.34-1.14,2.77-1.62,4.19a30.43,30.43,0,0,0-1.18,4.72,42.5,42.5,0,0,0,.13,7.28,22.26,22.26,0,0,0,.66,2.84,22.87,22.87,0,0,0,2.36,2.43,16.7,16.7,0,0,0,2.85.69c1.26.13,2.72.27,4.13.29h.37c.7,0,1.4,0,2.09,0s1.4,0,2.09,0a24,24,0,0,1,2.57.12A30.26,30.26,0,0,1,35.17,206a18.91,18.91,0,0,1,7.36,4.9l.48.54a41,41,0,0,1,4.1,5.18c3,4.85,3.68,10.7,4,15.78a65,65,0,0,1,.07,7.79,54.48,54.48,0,0,1-.75,5.54l-.12.69-.21,1.28c-.13,1.4-.24,2.81-.34,4.21l-.1,1.26c-.06.82-.14,1.65-.22,2.48l0,.37c-.09,1-.18,1.92-.26,2.88-.28,3.77-.56,7.79-.68,11.73a98.1,98.1,0,0,0,.41,10.18l.1,1.37c.23,3,.55,6.15,1,10.32a65.82,65.82,0,0,0,3.84,14.85,31.87,31.87,0,0,0,3.08,5.71,41.42,41.42,0,0,0,4.33,4.76c.64.59,1.34,1.13,2,1.65l.29.22.64.5,1.92,1.53a50.73,50.73,0,0,0,4.4,2.92,33.69,33.69,0,0,0,4,1.94c1.1.47,2.19,1,3.27,1.47s1.85.86,2.78,1.26L84,330.76l.1,0h0a30,30,0,0,0,6,1.81,117,117,0,0,0,12.67.5l1.68,0H105c1.93,0,3.89-.08,5.62-.14l1.28-.05,1.11,0c1.72-.05,3.42-.1,5.08-.26l.1,0,.29-.05.29-.06a5.9,5.9,0,0,0,4.54,2.34,4.8,4.8,0,0,0,1.55-.26l2.7-.89c1.69-.56,3.4-1.09,5.11-1.62,1.14-.34,2.29-.65,3.43-1l1.43-.38c.39.92.81,1.85,1.24,2.78a33.46,33.46,0,0,0,1.92,3.69c.45.71,1,1.45,1.61,2.33,3.15,3.74,6.53,7.24,9.42,10.18l1.64,1.62c.82.73,1.7,1.52,2.53,2.38,1.12,1,2.24,2,3.3,2.88l0,.15,0,.11c-.65,2-1.25,4-1.76,5.74-.46,1.57-.85,3.2-1.2,5a9.15,9.15,0,0,1-1.21-1.16c-.2-.22-.38-.45-.57-.68l-.16-.19-.09-.11c-.31-.37-.61-.75-.93-1.11h-.07a4,4,0,0,0-.66.05l-.17-.15c-1.44-1.22-2.86-2.47-4.35-3.82a4.47,4.47,0,0,1-1.95-.55c0,.25,0,.49,0,.72l0,.34c.07,1.39.12,2.79.16,4.18.07,2.3.14,4.88.4,7.4.21,1.28.48,2.57.74,3.82l0,.17c.19.93.39,1.86.56,2.79l.07.38a38.8,38.8,0,0,0,1.56,6.29l.28.61c.71,1.57,1.53,3.35,2.16,5.14l.06.19c.57,1.58,1.12,3.12,1.71,4.62a35.21,35.21,0,0,0,3.64,6.22,18.84,18.84,0,0,0,1.68,1.75c.24.16.49.31.74.45a17.94,17.94,0,0,0,2.32.6c.24,0,.49,0,.73,0l.32-.32q.2-.33.36-.66a28,28,0,0,0,.75-3.52l.13-.72c.18-1,.33-1.94.48-2.91.16-1.43.3-2.85.43-4.28.08-.83.16-1.66.25-2.49.15-1.5.4-3,.64-4.47l0-.27c.13-.8.27-1.6.39-2.39l.08-.73c.19-1.5.37-3,.51-4.5.05-.5.09-1,.13-1.5l0-.46c.11-1.37.22-2.61.4-3.86l-.86-.2c.37-2,.81-4,1.32-5.92.26-1,.55-2,.94-3.26l.14-.43.08-.25.07-.24.11,0,.14,0,2.14.35,2.34.38c1.57.18,3.14.36,4.71.52l.12,0c2.37.25,4.81.52,7.22.84l-.85-.16c1.7.27,3.41.52,5.12.77a53,53,0,0,0,5.69.49h1.47c1.57,0,3.14,0,4.7-.07l1.09,0,1.3,0c1.87,0,4-.07,6.05-.22l.56,0c1.84-.14,3.66-.27,5.46-.46,1.16-.17,2.33-.31,3.49-.46l1.47-.19a60.06,60.06,0,0,0,7.91-1.82l1.22-.38c1.62-.49,3.24-1,4.8-1.59l.13-.08c.17.93.31,1.87.44,2.85l0,.25c.37,2.95.61,5.71.75,8.44-1.4.46-2.88.89-4.19,1.27l-.21.06c-.82.25-1.66.47-2.48.69,0,5.1-.1,10.29-.17,14.25-.05,2.75-.1,5.51-.12,8.26,0,2.21,0,4.48.16,6.71a1.82,1.82,0,0,1,.06.18l.05.1c.34.33.69.64,1.06.94a6.54,6.54,0,0,0,3.17,1.47h.43c.28,0,.57,0,.85,0a24.39,24.39,0,0,0,3.15-.7l.16-.09a28.79,28.79,0,0,0,3.55-3.7,32,32,0,0,0,2.62-4.78,46.91,46.91,0,0,0,1.69-5.06l.21-.8c.51-1.87,1-3.55,1.32-5.24a5.8,5.8,0,0,0,.61-.85,6,6,0,0,0,.59-4.45l-.1-.47c.51-2.85,1-5.74,1.44-8.57.22-2.16.36-4.39.48-6.35a9.92,9.92,0,0,0-1,.62l-.32.22c-.61.41-1.22.8-1.85,1.17,0-.71-.11-1.43-.18-2.16l0-.21a82.88,82.88,0,0,0-1.52-9.2c-.08-.34-.17-.68-.25-1l.15-.15c.22-.24.44-.47.67-.7l.16-.17.11-.11c.61-.65,1.25-1.31,1.83-2,1.26-1.8,2.38-3.73,3.45-5.58l.62-1.06.32-.56c.57-1,1.13-1.93,1.63-2.9,1.21-2.35,2.4-4.67,3.49-7.13s1.73-4.91,2.48-7.32c.31-1,.62-2,.94-2.94.24-.75.49-1.49.74-2.24l.23-.67.06-.19c.76-2.26,1.54-4.59,2.16-6.92,2.1-7.88,3.68-15.11,4.83-22.08l.12-1.06,0-.12c.59-5,1.21-10.24,1.5-15.38s.36-10.32.4-14.24c1.17.71,2.42,1.35,3.42,1.86a48.89,48.89,0,0,1,5.27,3,17.41,17.41,0,0,1,1.58,1.63c.16.23.32.47.47.72a6,6,0,0,0,.64.86l-.05,1.28-.05,1.25c-.06,1.78-.19,3.71-.37,5.89l.3.46.15.22.68,1a14.27,14.27,0,0,0,1.11,1.19,7.83,7.83,0,0,0,.75.41,19.34,19.34,0,0,0,3,.78c.26,0,.52,0,.79,0a4.12,4.12,0,0,0,.15-.55,48.06,48.06,0,0,0-.22-7.4l0-.36-.18-2.45a4.87,4.87,0,0,0,1.23-.53A5.83,5.83,0,0,0,293.5,266a5.39,5.39,0,0,0-.62-4.24,28.91,28.91,0,0,0-2.57-3.45,14.61,14.61,0,0,0-2.31-2.08,139.31,139.31,0,0,0-3.68-17.72c-.29-1-.62-2.11-1-3.16,0,1.11.08,2.21.15,3.3.34,5.56.33,11.16.3,14.89-.55-.32-1.14-.62-1.73-.91l-.16-.08-.4-.2-.77-.39c-1.67-.85-3.3-1.81-5.1-2.89l-1-.6q-1.25-.75-2.49-1.47c0-2.06-.09-4.06-.19-6.12l0-.82c-.27-5.57-.53-10.6-.84-15.6-.26-4-.79-8-1.3-11.8-.17-1.3-.34-2.6-.5-3.91s-.31-2.69-.46-4c-.11-1-.22-2.08-.34-3.11a56.89,56.89,0,0,1-.5-7.92,5.87,5.87,0,0,1,1.56-3.85,6.09,6.09,0,0,1-1.08-2.1,5.64,5.64,0,0,1,.57-4.34,3.32,3.32,0,0,1,.23-.37,8.69,8.69,0,0,1-.46-2.81,7.32,7.32,0,0,1,3.88-6.14,8.1,8.1,0,0,1,3.86-1.05h.35c.32,0,.63,0,.95,0H278l.21-.06c-.16-.55-.36-1.06-.56-1.58l-.21-.56-.18-.47-.64-1.74-.23-.59-.16-.41a22.81,22.81,0,0,1-1.18-3.47,15.8,15.8,0,0,1-.5-4,7.18,7.18,0,0,1,.93-3.26,7.08,7.08,0,0,1,2.31-2.34,7.91,7.91,0,0,1,3.25-.92h.26c1.25.13,2.51.35,3.72.56l.57.1c.8.07,1.61.12,2.42.15-.39-1.19-.83-2.33-1.22-3.31l-.9-2.29c-.11-.28-.22-.56-.34-.84l-.05-.12a19,19,0,0,1-1.12-3.25c-.49-2.28-.78-4.65.39-6.55a10.06,10.06,0,0,1,1.3-1.82l.58-.45.58-.45a7.56,7.56,0,0,1,2.93-1.2,5.87,5.87,0,0,1,1.54-.2,5.72,5.72,0,0,1,1.52.2,8.42,8.42,0,0,1,1.78.43l.85.31c.41.14.8.29,1.19.44l.32.11.19.07.19.07c-1-2-2-4-3.12-6-.54-1-1.18-2.09-1.91-3.19l-.35-.54-.11-.18c-.21-.33-.42-.65-.64-1l-.35-.49a9.3,9.3,0,0,1-1.66-3.17,6.87,6.87,0,0,1-.09-3.46,6,6,0,0,1,1.64-2.71,6.65,6.65,0,0,1,4.55-1.84c-.62-1.2-1.26-2.36-1.91-3.51-.82-1.49-1.76-3-2.58-4.3s-1.5-2.42-2.2-3.63a42.22,42.22,0,0,1-2.21-4.41l-.2-.47a21.82,21.82,0,0,1-1-2.63,9.33,9.33,0,0,1-.49-3.52,4.57,4.57,0,0,1,.35-1.91,5.94,5.94,0,0,1,1.46-2.51,9.1,9.1,0,0,1,2-1.58l.09-.06-.12-.16c-1.43-1.29-2.93-2.55-4.38-3.77l-.16-.13-.25-.22C283,79.45,282,78.56,281,77.66c-1.33-1.15-2.71-2.42-4.36-4-.37-.35-.75-.69-1.13-1a17.87,17.87,0,0,1-3.32-3.59,6.79,6.79,0,0,1-.21-7.19,6.88,6.88,0,0,1,2.77-2.51c-1.29-.86-2.6-1.58-3.71-2.18a31.19,31.19,0,0,1-2.78-1.71l-.53-.36a16.39,16.39,0,0,0-1.83-1.17l-1-.56a7.92,7.92,0,0,1-2.6-2.53,8.11,8.11,0,0,1-.92-4.55v-.13c0-1.4,0-2.8,0-4.2V36.43c0-3.3,0-6.71-.08-10.07-.06-2.35-.15-5.14-.35-7.95-.12-1.62-.3-3.19-.46-4.5l0,0Zm-29.83,101.5a4.72,4.72,0,0,1-1.23-.16c-2.14-.3-3.63-2.16-4.5-3.66a20.76,20.76,0,0,1-1.39-3.09,22.8,22.8,0,0,1-1.1-5.59,49.2,49.2,0,0,1-.38-8.48l.23-3.61.24-3.61a4.82,4.82,0,0,1,1.36-3.29A4.69,4.69,0,0,1,227,82.54a4.9,4.9,0,0,1,3.65,1.76,5.6,5.6,0,0,1,.55.27,4.74,4.74,0,0,1,1.62,1.62l.22.54.23.54a28.21,28.21,0,0,1,1.38,4.8l.13.57c.37,1.62.7,3.19,1,4.81.21,1.12.35,2.27.49,3.36l.06.43c.14,1.13.29,2.29.32,3.46a16.62,16.62,0,0,1-1.08,6.6,6.63,6.63,0,0,1-1.79,2.73,4.83,4.83,0,0,1-2.06,1.2,4.74,4.74,0,0,1-1.24.16Zm-74.11,5.48a4.54,4.54,0,0,1-2.34-.63c-2.49-1.46-3-4.29-3.33-7.07l-.08-.68c-.09-.69-.17-1.38-.22-2.06-.17-2-.3-4.07-.45-6.58-.1-1.74-.11-3.51-.12-5.22V97.7c0-3.26,0-6.37,0-9.53a4.62,4.62,0,0,1,9-1.35,4.08,4.08,0,0,1,1.44,1,11.49,11.49,0,0,1,2.83,5.77l.06.4c.15,1,.32,2.09.39,3.16.12,1.85.17,3.78.17,6.08a49.52,49.52,0,0,1-.48,6.07,32.64,32.64,0,0,1-1.65,7.43,6.62,6.62,0,0,1-1.46,2.52c-.4.32-.81.63-1.23.94a4.47,4.47,0,0,1-2.31.63l-.31,0ZM188.09,171a4.47,4.47,0,0,1-1.21-.16,4.85,4.85,0,0,1-2.86-2.2,4.8,4.8,0,0,1,0-4.82,5.87,5.87,0,0,1,.51-.73c.37-.53.71-1.09,1.05-1.64l.2-.33.33-.54c.58-.91,1.15-1.84,1.72-2.76l.22-.36c.71-1.16,1.46-2.44,2.37-4a5.39,5.39,0,0,1-1.27-1.45,5.6,5.6,0,0,1-.7-2.26,5.19,5.19,0,0,1-1.33-1.48,4.81,4.81,0,0,1-.49-3.69,4.64,4.64,0,0,1,2.21-2.86,10.54,10.54,0,0,1,2.39-.92,17.3,17.3,0,0,1,1.75-.23l.27,0,.79-.08.78-.07a26.31,26.31,0,0,1,2.76-.17,14.75,14.75,0,0,1,2.16.15,7.35,7.35,0,0,1,3.8,1.8,10.5,10.5,0,0,1,3.48,7.24,5.58,5.58,0,0,1-3,4.87l-.16.09a6.66,6.66,0,0,0,.59.49l.35.28a18.46,18.46,0,0,1,1.87,1.88c1.31,1.48,2.67,3.15,4.17,5.11a4.71,4.71,0,0,1,.49,3.78,5,5,0,0,1-2.25,2.93,4.92,4.92,0,0,1-2.49.67,4.85,4.85,0,0,1-4.23-2.43l-.61-.85-.2-.28c-.61-.85-1.22-1.69-1.84-2.53a21,21,0,0,0-1.56-1.69c-.34-.21-.67-.39-1-.57l-.09.1-.06.1c-.56.93-1.14,1.86-1.73,2.77s-1,1.57-1.56,2.34l-.14.25c-.23.4-.48.83-.75,1.22l-.21.29a6,6,0,0,1-2.09,2.17,5.54,5.54,0,0,1-2.47.64Z"/><path class="cls-1" d="M234.41,37.4A4.37,4.37,0,1,0,238.78,33a4.41,4.41,0,0,0-4.37,4.37Z"/><path class="cls-1" d="M258.81,1.47c-1.25.85-2.43,1.81-3.59,2.76a27.9,27.9,0,0,0-3.67,3.62c-1.6,1.91-3,4-4.38,6.05-1.54,2.21-3.09,4.41-4.59,6.65-3.4,5.06-6.8,10.12-10.05,15.28a5.15,5.15,0,1,0,8.9,5.2c3-4.8,6.17-9.49,9.36-14.17,1.45-2.14,2.93-4.24,4.42-6.34,1.1-1.55,2.18-3.12,3.31-4.64.58-.69,1.19-1.35,1.82-2,.19,1.49.36,3,.47,4.5.19,2.65.29,5.3.35,8,.1,4.74.07,9.48.09,14.21,0,1.87,0,3.73,0,5.59,0,1.57,0,3.35.92,4.7a8,8,0,0,0,2.61,2.53c.34.2.68.38,1,.57a26.45,26.45,0,0,1,2.36,1.53,30.37,30.37,0,0,0,2.78,1.7c1.26.69,2.5,1.39,3.71,2.16a6.92,6.92,0,0,0-2.78,2.51,6.78,6.78,0,0,0,.22,7.21,25.55,25.55,0,0,0,4.44,4.62c1.44,1.36,2.87,2.69,4.36,4,2.62,2.3,5.35,4.46,7.94,6.8a.86.86,0,0,1,.14.13l-.11.05a8.87,8.87,0,0,0-2,1.59,5.86,5.86,0,0,0-1.47,2.51,4.65,4.65,0,0,0-.35,1.92,9.47,9.47,0,0,0,.49,3.53,26.59,26.59,0,0,0,1.22,3.1,40.27,40.27,0,0,0,2.2,4.41c1.54,2.67,3.28,5.23,4.79,7.92.64,1.16,1.29,2.32,1.91,3.49a6.62,6.62,0,0,0-4.55,1.85,6,6,0,0,0-1.65,2.71,7.07,7.07,0,0,0,.09,3.48,11.51,11.51,0,0,0,2,3.66c.38.56.74,1.12,1.1,1.68.69,1,1.3,2.1,1.91,3.2,1.1,2,2.14,3.93,3.14,5.94l-.37-.14-1.51-.56-.85-.3a7.86,7.86,0,0,0-1.78-.44,5.92,5.92,0,0,0-3.07,0,7.5,7.5,0,0,0-2.94,1.2c-.39.3-.78.6-1.16.91a9.9,9.9,0,0,0-1.31,1.82c-1.21,2-.84,4.44-.39,6.57a28.82,28.82,0,0,0,1.51,4.2l.9,2.3c.43,1.08.86,2.17,1.24,3.28-.81,0-1.61-.09-2.42-.15-1.43-.25-2.84-.51-4.29-.66a7.47,7.47,0,0,0-3.52.91,7.11,7.11,0,0,0-2.31,2.35,7,7,0,0,0-.94,3.27,15.32,15.32,0,0,0,.51,4,32.55,32.55,0,0,0,1.56,4.48c.28.73.55,1.47.82,2.21s.54,1.4.79,2.11l-.21.06-1.13,0a8,8,0,0,0-4.22,1,7.35,7.35,0,0,0-3.89,6.16,8.44,8.44,0,0,0,.47,2.8,2.35,2.35,0,0,0-.24.37,5.65,5.65,0,0,0,2,7.73,5.53,5.53,0,0,0,4.35.57,18.33,18.33,0,0,0,2.16-.86,10.64,10.64,0,0,0,2.35-1.66,7.26,7.26,0,0,0,1.66-2.95,7.54,7.54,0,0,0,.19-2.32,4.59,4.59,0,0,0,.48-.17,13.55,13.55,0,0,0,4-2.3,11,11,0,0,0,3.09-3.73,7.62,7.62,0,0,0,.87-3.47,10.83,10.83,0,0,0-.54-3.19c-.39-1.16-.8-2.32-1.23-3.47l-.61-1.59,2.33.08a22.34,22.34,0,0,0,4.39-.47,17,17,0,0,0,2-.79,14.36,14.36,0,0,0,2.08-1.57,7.28,7.28,0,0,0,1.79-3,11.13,11.13,0,0,0,.26-2.63,28.9,28.9,0,0,0-2-7.51c-.23-.66-.48-1.32-.75-2l.78.3,3.85,1.51c1.64.63,3.46,1.59,5.27,1.41a5.84,5.84,0,0,0,5-2.89l.72-1.7a7.48,7.48,0,0,0-.08-3.52,11.15,11.15,0,0,0-.39-1.43c-.36-1.11-.8-2.18-1.25-3.26-1.09-2.6-2.28-5.14-3.52-7.66-1-2.08-2.08-4.16-3.21-6.19-.19-.32-.36-.64-.54-1l1.06-.5a9.12,9.12,0,0,0,1.91-1.44c.39-.48.77-1,1.13-1.49a5.72,5.72,0,0,0,.78-2.89,9.44,9.44,0,0,0-.32-2.69,16.19,16.19,0,0,0-1-2.38c-.33-.7-.71-1.38-1.06-2.07-.64-1.25-1.3-2.49-2-3.73-1.21-2.25-2.51-4.45-3.85-6.63-1.13-1.82-2.23-3.65-3.25-5.53l1,0c.52,0,1,0,1.57-.08a5.63,5.63,0,0,0,2.86-.77,12.24,12.24,0,0,0,1.28-1,5.69,5.69,0,0,0,1.45-2.5l.21-1.5a5.67,5.67,0,0,0-.78-2.87,10.6,10.6,0,0,0-1.82-2.38c-.39-.45-.78-.9-1.19-1.34-.9-.94-1.84-1.84-2.78-2.74-2-1.92-4.13-3.75-6.25-5.57s-4.2-3.52-6.27-5.33c-.45-.39-.89-.8-1.33-1.21.26-.11.51-.23.76-.36a6.67,6.67,0,0,0,3.56-5.81c0-2.69-2.1-4.78-3.9-6.56A39,39,0,0,0,282.24,51,56.38,56.38,0,0,0,275.53,47c-1-.58-2-1.25-3-1.9l-.3-.18c0-.75,0-1.5,0-2.25,0-2.27,0-4.55,0-6.82,0-5-.07-10-.37-14.92-.16-2.85-.47-5.69-.88-8.51-.46-3.17-.81-6.46-2.51-9.26A7.78,7.78,0,0,0,266,.74,6.38,6.38,0,0,0,262.75,0h-.07a7,7,0,0,0-3.87,1.47Zm37.68,89.2,0,.16h0l0-.15Zm-2.16,4-.13.1.13-.1ZM292,154.28l-.15.06.15-.06Zm-12.64,17.64-.09.21.09-.21Z"/><path class="cls-1" d="M188,29.09c-2.57.14-5.14.45-7.71.69s-5,.38-7.46.51-5.19.2-7.76.5a32.23,32.23,0,0,0-4.27.71,23.58,23.58,0,0,0-3.44,1.25,51.58,51.58,0,0,1-5.29,1.68c-.79.21-1.58.41-2.36.66-1,.34-2,.75-3,1.17a36.17,36.17,0,0,1-6.19,2c-1.08.23-2.16.47-3.24.73a13.69,13.69,0,0,0-2.46.9,4.87,4.87,0,0,0-2.83,2.23,5.09,5.09,0,0,0-.7,2.57,5,5,0,0,0,.7,2.57,5.24,5.24,0,0,0,4.78,2.6,8.82,8.82,0,0,0,2.38-.47c1.15-.39,2.33-.68,3.51-1s2.6-.65,3.87-1.07,2.73-1,4.06-1.57a47.12,47.12,0,0,1,4.84-1.57,51.69,51.69,0,0,0,6-2.1l-.65.27A22.57,22.57,0,0,1,165.44,41c4-.43,8.06-.47,12.08-.83,4.7-.41,9.38-.92,14.09-1.22,2.13-.13,4.27-.17,6.4-.24a55.62,55.62,0,0,1,6.58.28c2,.17,4,.42,6,.6s4.26.37,6.38.61c5.32.82,10.58,2,15.89,2.85a5.09,5.09,0,0,0,3.65-.48,4.73,4.73,0,0,0,1.7-6.48,4.59,4.59,0,0,0-2.83-2.18c-5.52-.92-11-2.15-16.51-3.05-2.84-.46-5.71-.7-8.56-1-2.35-.25-4.69-.57-7-.82a52.89,52.89,0,0,0-5.76-.28c-3.19,0-6.38.21-9.55.39ZM135.29,39.7l-.37.1.16-.07.21,0Z"/><path class="cls-1" d="M102.3,11.74a21.76,21.76,0,0,0-1.8,5.37,71.45,71.45,0,0,0-2.13,16.48,68.57,68.57,0,0,0,.17,10.63c.24,2,.61,4,1,6a38.91,38.91,0,0,0,1.41,5,5.48,5.48,0,0,0,2.41,3.12,5.24,5.24,0,0,0,7.14-1.87c.18-.42.35-.84.53-1.25a5.25,5.25,0,0,0,0-2.78c-.26-1.62-.87-3.2-1.26-4.79s-.6-2.93-.85-4.41a67.1,67.1,0,0,1-.17-9c.08-3.15.25-6.3.61-9.43.37-2.12.8-4.26,1.36-6.35l.11,0c.42.24.82.51,1.22.79a36.9,36.9,0,0,1,4,3.56c1.08,1.15,2.06,2.4,3,3.65,1.22,1.62,2.42,3.25,3.5,5,1,1.54,1.88,3.14,2.86,4.68s2,3.06,3,4.58A61.12,61.12,0,0,0,133,46.28c1.69,2,5,1.74,6.73,0a4.75,4.75,0,0,0,1.39-3.36,5,5,0,0,0-1.39-3.37c-.9-1-1.8-2.1-2.68-3.17-1.23-1.72-2.39-3.51-3.47-5.33-1.33-2.22-2.6-4.47-4.07-6.61-1.6-2.31-3.31-4.57-5.08-6.76a24,24,0,0,0-2.09-2.4c-.94-.89-1.91-1.74-2.9-2.56l-1.38-1.12c-.48-.37-.95-.74-1.44-1.09a10.67,10.67,0,0,0-2.33-1.19A20.22,20.22,0,0,0,109.12,8a7,7,0,0,0-.78,0,7.28,7.28,0,0,0-6,3.84Z"/><path class="cls-1" d="M102.56,56.13A72.75,72.75,0,0,0,94.85,62a74.83,74.83,0,0,0-7.5,8.21c-1.77,2.07-3.44,4.23-5.16,6.34-1.35,1.66-2.67,3.35-4,5-.92,1.19-1.84,2.37-2.74,3.56-.39.52-.79,1-1.17,1.55l-.63.86a7.55,7.55,0,0,0-.9,1.85,4.87,4.87,0,0,0,8.13,4.73c.37-.34.72-.69,1.07-1-1.42,1.86-2.84,3.71-4.23,5.59-1.8,2.44-3.56,4.88-5.29,7.36-.82,1.18-1.6,2.39-2.38,3.59-.65,1-1.3,2-1.92,3a14,14,0,0,0-1.28,2.84,8.18,8.18,0,0,0-.29,1.77,2.16,2.16,0,0,0,0,1.1,4.78,4.78,0,0,0,.67,2.48l.77,1A5,5,0,0,0,70.15,123a4.84,4.84,0,0,0,3,.16,12.33,12.33,0,0,0,2.19-.83c.74-.31,1.47-.66,2.2-1l-1.83,3c-.78,1.31-1.6,2.61-2.27,4a30.88,30.88,0,0,0-1.8,4.33,31.35,31.35,0,0,0-.73,3.62c-.38,2-.8,4.06-.09,6a5.25,5.25,0,0,0,2.87,3.27,5,5,0,0,0,2.56.69,4.76,4.76,0,0,0,2-.13,12.92,12.92,0,0,0,3.13-1c-.34.55-.68,1.1-1,1.65-1.43,2.37-2.91,4.71-4.3,7.1a7.61,7.61,0,0,0-.81,5.62,6.48,6.48,0,0,0,1.5,2.62l.25.2a5.22,5.22,0,0,0,2.32,1.36c2.43.88,5.07,0,7.47-.52,1-.24,2-.46,3-.67a9,9,0,0,0-.84,3.35,7,7,0,0,0,2.51,5.63l1.08.84a12.29,12.29,0,0,0,1.77.7,12,12,0,0,0,2.54.35c.71.08,1.44.09,2.15.14l1.63.07a6.38,6.38,0,0,0,.17,1.15,7.55,7.55,0,0,0,.9,2.62,7.76,7.76,0,0,0,2.83,2.83,8.51,8.51,0,0,0,4.77.71,5.39,5.39,0,0,0,3.71-1.54,5.22,5.22,0,0,0-1.76-8.56,8.64,8.64,0,0,0-.91-3.55,5.49,5.49,0,0,0-1.13-1.66,7.73,7.73,0,0,0-2.83-1.73,12.92,12.92,0,0,0-4-.82l-.66,0a12.86,12.86,0,0,0,1.41-3.19,7.05,7.05,0,0,0-3.24-7.76c-1.84-1.07-4-1-6-.82-1.49.12-3,.32-4.51.58A98,98,0,0,0,94.9,142,9.66,9.66,0,0,0,96,137a7.45,7.45,0,0,0-.93-3.18,6.91,6.91,0,0,0-2.18-2.09,6.43,6.43,0,0,0-3-.86,9.64,9.64,0,0,0-2.4.32,19.32,19.32,0,0,0-3.15,1.3c-.77.35-1.54.72-2.3,1.1,1.41-2.85,3.09-5.55,4.72-8.27q1.59-2.66,3.21-5.3l1.53-2.45c1-1.54,2.12-3.31,1.92-5.2a4.86,4.86,0,0,0-.67-2.5,5.09,5.09,0,0,0-3-2.28c-2.26-.68-4.66.12-6.83.83l-.45.15c1.21-1.73,2.45-3.45,3.73-5.13q5.31-7,10.66-14.1.48-.61,1-1.26a8.19,8.19,0,0,0,1.57-2.88,6.3,6.3,0,0,0,.11-3.14,5.85,5.85,0,0,0-2.42-3.15,8.08,8.08,0,0,0-3.44-1.34c.37-.44.73-.88,1.1-1.31,1.41-1.66,2.81-3.33,4.29-4.93A41,41,0,0,1,103.78,67q1.78-1.34,3.64-2.57a5.06,5.06,0,0,0,2.22-2.89,4.82,4.82,0,0,0-.49-3.71,5,5,0,0,0-4.27-2.41,4.13,4.13,0,0,0-2.32.68ZM92,87.23h0l.16.12L92,87.23Zm4.5,2.62c-.12.14-.23.29-.34.43.11-.14.22-.29.34-.43ZM85.81,137a2.51,2.51,0,0,1,0,.27h0a2.51,2.51,0,0,0,0-.27Zm25.43,35.9.18.43a2.87,2.87,0,0,1-.18-.4v0Z"/><path class="cls-1" d="M108.42,172.69a4.82,4.82,0,0,0-1.33,3.22c-.27,3.74-.61,7.5-.67,11.25a12.74,12.74,0,0,0,.25,2.83,5.08,5.08,0,0,0,.61,1.75l1.09,1.41a8.42,8.42,0,0,0,1.51,1.07,4.51,4.51,0,0,0,2.3.62,8,8,0,0,0,4.19-1,14.55,14.55,0,0,0,1.95-1.28,4.56,4.56,0,0,0,5.82-.53,4.74,4.74,0,0,0,1.34-3.24,9.27,9.27,0,0,0-.35-4.12c-.47-1.14-1.16-2.65-2.39-3.18s-2.57-1.18-3.94-.65c-.51.19-1,.4-1.51.62a9.93,9.93,0,0,0-1.39,1l-.17.14c0-.14,0-.29,0-.43.12-2.11.29-4.2.44-6.3a4.39,4.39,0,0,0-1.33-3.22,4.56,4.56,0,0,0-6.44,0Zm3.32,13.21-.19,0,.19,0Zm4.65,1.2a1,1,0,0,1,.07.15h0l-.07-.16Z"/><path class="cls-1" d="M117,184.22a4.72,4.72,0,0,0-2.25,2.92q-.66,4.22-1.33,8.43l1.08-.28a18.06,18.06,0,0,1,4.61-.88,5.69,5.69,0,0,1,2.9.79,5.44,5.44,0,0,1,1.17.9c.34-2.12.67-4.23,1-6.35a5.31,5.31,0,0,0-.49-3.77,4.91,4.91,0,0,0-2.93-2.25,4.73,4.73,0,0,0-1.29-.18,4.91,4.91,0,0,0-2.48.67Z"/><path class="cls-1" d="M268,193.69a55.24,55.24,0,0,0,.5,7.92c.27,2.38.5,4.76.79,7.14.66,5.23,1.47,10.45,1.8,15.71.35,5.47.62,10.95.89,16.42s.25,10.72.23,16.09c0,5.88-.08,11.78-.41,17.65-.31,5.54-1,11.06-1.65,16.56-1.22,7.44-2.88,14.79-4.82,22.07-.9,3.39-2.11,6.69-3.19,10s-2.11,6.9-3.42,10.25c-1.07,2.43-2.27,4.78-3.49,7.14-.6,1.17-1.29,2.31-1.95,3.45-1.31,2.24-2.58,4.51-4.06,6.63-.88,1-1.84,2-2.77,3L244.33,356l-4.62,5a89.58,89.58,0,0,1-8.5,8l-.17.12c1.5-.24,3-.62,4.46-1s3.34-.67,5-1.15l6.88-2c1.8-.53,3.58-1.14,5.35-1.76.79-.84,1.58-1.67,2.39-2.48,3.3-3.29,5.66-7.27,7.95-11.3,1.33-2.34,2.61-4.69,3.81-7.1a59,59,0,0,0,3.33-7.71c.88-2.63,1.7-5.27,2.57-7.89.77-2.35,1.62-4.67,2.36-7,1.66-5.27,2.92-10.66,4.15-16,.61-2.7,1.16-5.39,1.63-8.11.49-2.91.85-5.85,1.17-8.78.59-5.25,1.24-10.49,1.43-15.77.21-5.47.29-10.94.34-16.42.06-5.31,0-10.6-.29-15.91q-.34-5.75-.58-11.52c-.17-3.88-.61-7.73-1.11-11.58q-.72-5.42-1.34-10.86c-.41-3.66-.74-7.34-1.2-11-.06-.51-.13-1-.2-1.51a5.56,5.56,0,0,0-1.46-2.5,5.68,5.68,0,0,0-4-1.67,5.75,5.75,0,0,0-5.67,5.68Z"/><path class="cls-1" d="M125.79,303.8c-1.89,2.75-3.74,5.52-5.82,8.13l-.48.6q.87,2.73,1.81,5.45,2.79,8,6.28,15.78c1.06,2.37,2.07,4.78,3.26,7.08a35.71,35.71,0,0,0,4.46,6.39c1.62,1.94,3.31,3.84,5.06,5.66,1.9,2,3.76,4,5.77,5.91s4,3.66,6.09,5.42l.22.18a3.86,3.86,0,0,1,1,0c3.67.34,7.31.89,10.95,1.42,3.28.48,6.57,1,9.85,1.46,1.81.28,3.63.54,5.45.81l-.37-.2c-2.05-1.08-4.19-2-6.3-2.92s-4.18-2-6.2-3.15c-1.83-1-3.6-2.2-5.35-3.37a107.08,107.08,0,0,1-9.71-8.72c-3.25-3.29-6.44-6.63-9.42-10.18-.56-.75-1.1-1.52-1.61-2.32a32.28,32.28,0,0,1-1.92-3.69q-1.92-4.2-3.78-8.43a215.6,215.6,0,0,1-7.87-23.17c-.45.63-.89,1.26-1.33,1.9Z"/><path class="cls-1" d="M194.83,140.31l-1.57.16a18.75,18.75,0,0,0-2,.26,10.36,10.36,0,0,0-2.39.92,4.59,4.59,0,0,0-2.21,2.87,4.81,4.81,0,0,0,.48,3.71,4.93,4.93,0,0,0,1.33,1.47,5.68,5.68,0,0,0,.7,2.27,5.92,5.92,0,0,0,3.67,2.58,19,19,0,0,0,2.32.32c.73.09,1.44.14,2.17.18.93,0,1.85.06,2.79,0a8.26,8.26,0,0,0,4-.85,5.66,5.66,0,0,0,3-4.89,10.58,10.58,0,0,0-3.49-7.26,7.31,7.31,0,0,0-3.81-1.8,14.44,14.44,0,0,0-2.16-.15c-.91,0-1.82.07-2.76.16Z"/><path class="cls-1" d="M192.7,149.27c-1.51,2.75-3,5.5-4.66,8.17-.64,1-1.28,2.09-1.93,3.12-.53.83-1,1.7-1.58,2.51a4.3,4.3,0,0,0-.47.65l-.06.07h0a4.78,4.78,0,0,0,2.86,7,5,5,0,0,0,3.7-.48,6.82,6.82,0,0,0,2.3-2.47c.33-.46.61-1,.9-1.46.52-.77,1-1.55,1.56-2.34s1.16-1.84,1.73-2.77l.12-.2c.34.18.67.37,1,.57a19.4,19.4,0,0,1,1.56,1.7c.9,1.2,1.77,2.43,2.65,3.65a5.21,5.21,0,0,0,3,2.26,4.88,4.88,0,0,0,3.79-.49,4.94,4.94,0,0,0,2.27-2.95,4.67,4.67,0,0,0-.5-3.79c-1.34-1.76-2.7-3.46-4.16-5.12a19.62,19.62,0,0,0-1.88-1.88c-.5-.4-1-.79-1.55-1.18a10.29,10.29,0,0,0-1.77-.85l-.16-.07a4.71,4.71,0,0,0-4.55-6,4.69,4.69,0,0,0-4.13,2.34Z"/><path class="cls-1" d="M223.73,83.89a4.89,4.89,0,0,0-1.37,3.3c-.15,2.41-.31,4.81-.46,7.22a48.09,48.09,0,0,0,.38,8.48,22.78,22.78,0,0,0,1.1,5.6,20.86,20.86,0,0,0,1.39,3.09c1,1.69,2.48,3.39,4.51,3.67a4.65,4.65,0,0,0,4.55-1.21,6.41,6.41,0,0,0,1.79-2.73,16.6,16.6,0,0,0,1.09-6.61c0-1.3-.22-2.6-.38-3.89-.14-1.13-.29-2.25-.49-3.36-.3-1.62-.63-3.21-1-4.81a31.4,31.4,0,0,0-1.52-5.38l-.45-1.08a4.57,4.57,0,0,0-1.62-1.62,3.11,3.11,0,0,0-.55-.27A4.89,4.89,0,0,0,227,82.52a4.68,4.68,0,0,0-3.31,1.37Z"/><path class="cls-1" d="M149.9,88.17c-.05,3.18-.06,6.35-.05,9.53,0,2.06,0,4.1.12,6.15s.27,4.39.45,6.58c.07.92.19,1.83.3,2.74.31,2.66.81,5.61,3.34,7.09a4.74,4.74,0,0,0,2.35.64,5.16,5.16,0,0,0,2.64-.67c.41-.3.82-.62,1.23-.94a6.65,6.65,0,0,0,1.46-2.52,33.12,33.12,0,0,0,1.66-7.44,51.51,51.51,0,0,0,.47-6.07c0-2,0-4.05-.17-6.08-.08-1.19-.27-2.38-.45-3.57a11.48,11.48,0,0,0-2.84-5.77,3.85,3.85,0,0,0-1.43-1,4.64,4.64,0,0,0-9.08,1.35Z"/><path class="cls-1" d="M276.78,208.61a4.56,4.56,0,0,0-2.06,2.69,4.84,4.84,0,0,0,.45,3.46c1,2.09,1.92,4.2,2.87,6.3,1.14,2.83,2.24,5.65,3.28,8.51s2.14,5.94,3,9A142.13,142.13,0,0,1,288,256.33c.35,2.69.69,5.38,1.08,8.07s.45,5.49.67,8.23a51.45,51.45,0,0,1,.26,7.75c0,.18-.09.36-.14.54l-.78,0a20.63,20.63,0,0,1-3-.77q-.37-.19-.75-.42a13.84,13.84,0,0,1-1.1-1.19c-.41-.57-.8-1.15-1.19-1.73a4.92,4.92,0,0,0-2.82-2.16,4.68,4.68,0,0,0-3.62.47,4.74,4.74,0,0,0-1.69,6.44,27.83,27.83,0,0,0,3.49,4.65,12.31,12.31,0,0,0,4.52,2.76,14.29,14.29,0,0,0,2.39.72,25.26,25.26,0,0,0,5,.59,9.14,9.14,0,0,0,3.67-.93,8,8,0,0,0,2.68-1.93,9.6,9.6,0,0,0,2.34-4.63,21,21,0,0,0,.33-3.45c0-3.41-.41-6.79-.65-10.18-.15-2.21-.32-4.41-.66-6.6-.23-1.49-.44-3-.64-4.47q-.78-5.9-1.85-11.75a84.37,84.37,0,0,0-2.73-11.07c-1.29-4-2.7-7.91-4.15-11.84-1.65-4.48-3.67-8.84-5.69-13.17a4.46,4.46,0,0,0-3.87-2.23,4.55,4.55,0,0,0-2.28.61Zm11.08,46.62.09.69-.09-.69ZM289.79,281a3.66,3.66,0,0,1-.75.1l.75-.1Zm-.23.15-.31.13.31-.13Z"/><path class="cls-1" d="M119.69,188.61a31.79,31.79,0,0,0-2.83,4.07,41.67,41.67,0,0,0-2.23,5.07c-.54,1.35-1,2.74-1.48,4.11-.42,1.17-.77,2.37-1.15,3.56s-.68,2.09-.94,3.15c-1.28,5.1-2.37,10.25-3.81,15.31-1.4,4.91-2.61,9.87-3.94,14.8s-2.39,9.94-3.25,15A123.89,123.89,0,0,0,98.21,269c-.12,2.63-.24,5.25-.3,7.88a42.52,42.52,0,0,0,.79,7.87c.2,1.18.46,2.36.73,3.52a17.9,17.9,0,0,0,2.25,5.84,19.28,19.28,0,0,0,2.91,3.21,10.25,10.25,0,0,0,6.93,2.84c1,0,2-.08,3-.16a14.29,14.29,0,0,0,4.34-.9,22.05,22.05,0,0,0,3.56-1.81,20.62,20.62,0,0,0,3.62-3,56.22,56.22,0,0,0,4.13-5,42.38,42.38,0,0,0,2.88-4.38,48.12,48.12,0,0,0,3.09-6.68q1-2.49,1.76-5c.58-1.91,1.1-3.84,1.71-5.73s1.29-3.62,2-5.42,1.11-3.49,1.66-5.23c.47-1.48.94-3,1.39-4.44a5.14,5.14,0,0,0-9.39-4,19.24,19.24,0,0,0-1.37,3.39c-.38,1.08-.72,2.18-1,3.28-.71,2.45-1.59,4.82-2.45,7.22s-1.5,4.88-2.24,7.32-1.44,4.59-2.32,6.83a41.54,41.54,0,0,1-4.58,7.87,29.27,29.27,0,0,1-3.61,4,18.12,18.12,0,0,1-2.1,1.28,12.38,12.38,0,0,1-1.45.38c-.85.07-1.7.15-2.55.14a19.88,19.88,0,0,1-1.6-1.58l-.17-.3a41.69,41.69,0,0,1-1.75-7.58,65.83,65.83,0,0,1-.07-9.73c.15-3.7.45-7.36.89-11,.72-4.73,1.46-9.48,2.58-14.15,1.22-5.07,2.52-10.13,3.79-15.18.6-2.4,1.29-4.76,1.91-7.15s1.08-4.59,1.58-6.89c.59-2.74,1.23-5.45,2-8.15.73-2.54,1.61-5,2.5-7.52.21-.59.43-1.18.67-1.76a25.26,25.26,0,0,1,2.34-4.15,4.9,4.9,0,0,0,1.3-3.19,4.56,4.56,0,0,0-4.57-4.56,4.38,4.38,0,0,0-3.23,1.33Z"/><path class="cls-1" d="M119.07,292a4.86,4.86,0,0,0-3.36,5.92c.33,1.16.67,2.33,1,3.49a12,12,0,0,0,0,2.16,14,14,0,0,0,.73,3.75,25.06,25.06,0,0,0,1.31,2.89c.65,1.17,1.28,2.34,1.94,3.5.21.36.41.73.6,1.1s.22.53.34.79a25.45,25.45,0,0,0,1.68,3.44,4.86,4.86,0,0,0,8.88-3.74,7.43,7.43,0,0,0-.51-1.33l0,0c0-.14-.08-.28-.12-.41a4.38,4.38,0,0,0-.17-1.87c-.45-1.37-1-2.72-1.42-4.1a44.87,44.87,0,0,1-1.16-4.42c-.26-1.29-.44-2.61-.74-3.9a11.71,11.71,0,0,0-.61-2,3.12,3.12,0,0,0,0-.52,4.9,4.9,0,0,0-3.58-4.71,4.82,4.82,0,0,0-2.41-.05,5.15,5.15,0,0,0-1.18-.15,4.83,4.83,0,0,0-1.25.17Z"/><path class="cls-1" d="M252.9,348.51c-2.52,1.73-4.56,3.95-6.87,5.91a53.77,53.77,0,0,1-9.45,5.37,6.24,6.24,0,0,0-.84.36c-2,.76-4,1.34-6,2a59.48,59.48,0,0,1-7.9,1.82c-1.66.21-3.31.42-5,.65-2,.21-4,.35-6,.5-2.45.18-4.89.2-7.35.25s-4.84.12-7.26.08a51.58,51.58,0,0,1-5.69-.49c-1.71-.25-3.42-.5-5.13-.73l.86.12c-4-.54-8-.9-12.05-1.38-1.5-.23-3-.5-4.48-.73a33.2,33.2,0,0,1-5.25-1,30.21,30.21,0,0,1-2.72-1.54c-.58-.56-1.11-1.18-1.66-1.76s-1.27-1.27-2-1.87-1.38-1.36-2.06-2.07c-.92-1-1.92-1.87-2.93-2.76a4.83,4.83,0,0,0-3.31-1.37,4.68,4.68,0,0,0-3.31,8,43.23,43.23,0,0,1,3.44,3.33c.84.92,1.74,1.77,2.61,2.66s1.53,1.78,2.29,2.67a12.24,12.24,0,0,0,2.58,2.06c.64.42,1.29.83,1.92,1.26a18.3,18.3,0,0,0,5.92,2.16c1.53.37,3.07.68,4.6,1,3.39.74,6.86,1.14,10.3,1.58l1.27.17c3.19.49,6.37,1,9.58,1.46l-1.49-.2a61.12,61.12,0,0,0,8.43.75c2.56,0,5.12,0,7.69,0s5-.17,7.48-.33,5-.54,7.44-.92c2-.26,3.94-.53,5.9-.92s4.15-.93,6.2-1.53c1.85-.54,3.71-1.07,5.51-1.74.46-.16.92-.34,1.37-.53s.95-.37,1.35-.56l1-.44c.86-.38,1.74-.75,2.58-1.17a50.46,50.46,0,0,0,5.57-3.2,40.58,40.58,0,0,0,5.46-4.31c.67-.64,1.34-1.27,2-1.89a26.2,26.2,0,0,0,2.05-1.9,5.49,5.49,0,0,0,1.43-2.45,5.6,5.6,0,0,0-.56-4.29,5.68,5.68,0,0,0-3.32-2.56,6,6,0,0,0-1.54-.2,4.9,4.9,0,0,0-2.75.77ZM179,374.35l.36,0-.36,0Z"/><path class="cls-1" d="M143.69,356.06a4.37,4.37,0,1,0,4.37-4.36,4.41,4.41,0,0,0-4.37,4.36Z"/><path class="cls-1" d="M138.54,343.6a4.68,4.68,0,0,0-2.77,2.14,5,5,0,0,0-.47,3.57c.32,1.91.6,3.82.87,5.74.34,3.19.53,6.36.62,9.57s0,6.15.36,9.19c.22,1.79.6,3.56.94,5.33.29,1.52.53,3,.8,4.56a38,38,0,0,0,1,4.32,33.73,33.73,0,0,0,1.71,4.14c.58,1.54,1,3.12,1.6,4.67a64.54,64.54,0,0,0,2.74,6.81,34.27,34.27,0,0,0,2.93,4.77,18.91,18.91,0,0,0,6.14,5.8,17.37,17.37,0,0,0,2.91,1.13c.52.17,1.06.29,1.59.41a14.72,14.72,0,0,0,5.91.19c2.8-.51,5-2.49,6.62-4.67a15,15,0,0,0,2.49-6.16c.48-2.45.87-4.92,1.19-7.39.28-2.24.47-4.48.7-6.72.18-1.15.37-2.3.57-3.44.32-1.94.53-3.88.76-5.83.17-1.42.35-2.83.47-4.26s.15-3,.27-4.5a5.36,5.36,0,0,0-3.94-5.18,5.44,5.44,0,0,0-4.14.54,5.18,5.18,0,0,0-2.47,3.21c-.39,2.24-.49,4.5-.71,6.76-.17,1.74-.39,3.48-.59,5.22-.36,2.38-.83,4.75-1.08,7.14s-.41,4.51-.67,6.77q-.23,1.45-.48,2.91a38.22,38.22,0,0,1-.87,4.23c-.12.22-.24.44-.37.65l-.3.32-.73,0a18.67,18.67,0,0,1-2.31-.6c-.25-.14-.49-.29-.73-.45a17.22,17.22,0,0,1-1.68-1.74,35.26,35.26,0,0,1-3.64-6.22c-.63-1.59-1.2-3.19-1.77-4.8-.7-2-1.58-3.86-2.44-5.75a41.09,41.09,0,0,1-1.63-6.67c-.42-2.26-1-4.51-1.34-6.78-.4-3.84-.35-7.73-.56-11.58a131.11,131.11,0,0,0-1.76-14.08,4.48,4.48,0,0,0-2.14-2.77,4.73,4.73,0,0,0-3.58-.47Zm24.81,61.65-.36.28h0l.36-.27Z"/><path class="cls-1" d="M254.92,350.64a5.3,5.3,0,0,0-2.52,3.28c-.89,5.6-.89,11.27-1.46,16.91-.72,4.56-1.51,9.12-2.4,13.65-.44,2.26-1.07,4.5-1.67,6.72a47.82,47.82,0,0,1-1.69,5.07,32,32,0,0,1-2.62,4.77,30.2,30.2,0,0,1-3.49,3.66l-.21.12a25.88,25.88,0,0,1-3.14.7c-.43,0-.84,0-1.27,0a13.43,13.43,0,0,1-1.53-.45,12.32,12.32,0,0,1-1.63-1c-.37-.31-.72-.61-1.06-.95l-.06-.09c0-.06,0-.12,0-.17-.2-2.23-.19-4.48-.17-6.71,0-2.75.07-5.51.12-8.26.1-5.59.18-11.17.14-16.76a4.73,4.73,0,1,0-9.45,0c0,5.88,0,11.75-.18,17.64q-.1,4.34-.18,8.68c0,1.1,0,2.2,0,3.3,0,.78,0,1.55.07,2.33a11.34,11.34,0,0,0,1.75,5.65,12.29,12.29,0,0,0,2.56,2.73,22.46,22.46,0,0,0,2.59,2,10.39,10.39,0,0,0,1.5.73,25.61,25.61,0,0,0,2.91,1.11,12.39,12.39,0,0,0,4.77.32,38.16,38.16,0,0,0,4-.58,16.82,16.82,0,0,0,3.5-1.26,11.77,11.77,0,0,0,2.22-1.63c.57-.5,1.12-1,1.65-1.54a31.4,31.4,0,0,0,5-6.25,45.17,45.17,0,0,0,3.33-7.45A130.52,130.52,0,0,0,260.89,377c.34-2,.71-4,.94-6s.36-3.69.48-5.54c.1-1.58.18-3.16.32-4.74.15-1.79.4-3.58.54-5.38a5.49,5.49,0,0,0-5.47-5.48,5.57,5.57,0,0,0-2.78.75ZM238.2,405.16l-.1,0,.1,0Z"/><path class="cls-1" d="M27.66,160.28a26.93,26.93,0,0,0-5.48,1.12,37.31,37.31,0,0,0-6.51,2.84,32.71,32.71,0,0,0-4.5,3.36c-.63.53-1.23,1.11-1.83,1.66A18.23,18.23,0,0,0,7.1,172a36.21,36.21,0,0,0-4.22,8.09,46.45,46.45,0,0,0-2.09,6.4,38,38,0,0,0-.16,14.6A15,15,0,0,0,1.35,204c.17.48.37,1,.59,1.43a8.63,8.63,0,0,0,1.28,1.91c.46.59.95,1.12,1.46,1.66a17.52,17.52,0,0,0,3.66,3.16,15.8,15.8,0,0,0,5.72,1.71,47,47,0,0,0,7.4.56,49.16,49.16,0,0,1,5.95.11,25.47,25.47,0,0,1,4.32,1.06A21.51,21.51,0,0,1,34,216.9a30.83,30.83,0,0,1,3.5,3.89A19.59,19.59,0,0,1,39,223.35a35.53,35.53,0,0,1,1.35,5c.22,2.11.35,4.22.42,6.34a48.93,48.93,0,0,1-.09,6.41c-.44,2.66-.92,5.32-1.15,8s-.36,5.16-.64,7.74-.44,5.15-.63,7.73c-.1,1.3-.18,2.61-.26,3.92s-.18,2.48-.15,3.7c.09,4.84.34,9.68.82,14.5a103.11,103.11,0,0,0,2.39,15.64c.52,2,1,4,1.71,6,.87,2.35,1.86,4.66,2.95,6.92a32.59,32.59,0,0,0,4.05,6,34.72,34.72,0,0,0,5,5.18,74.51,74.51,0,0,0,11.76,8.48c1,.52,2,.93,3,1.36s2.08.93,3.1,1.43c2.19,1.06,4.44,2,6.68,2.92A42.69,42.69,0,0,0,85,342.67a39.21,39.21,0,0,0,7.46,1.13c4.44.3,8.9.34,13.35.3,2.17,0,4.34-.11,6.51-.19s4.16-.11,6.24-.35a35.59,35.59,0,0,0,7.28-1.6c1.75-.59,3.52-1.15,5.3-1.62a5.41,5.41,0,0,0,2.15-.71,5.42,5.42,0,0,0-1.29-9.9,10.86,10.86,0,0,0-1.8-.27,15.81,15.81,0,0,0-2.28.3,15,15,0,0,0-1.5.4c-.92.26-1.83.56-2.74.87a39.82,39.82,0,0,1-5.65,1.58c-2.06.19-4.13.23-6.19.3-2.45.08-4.91.2-7.37.18a140.24,140.24,0,0,1-14.35-.51,31.74,31.74,0,0,1-6.3-1.9l.25.11-3.58-1.49c-2-.88-4-1.86-6.06-2.73l.59.25a38.33,38.33,0,0,1-4.57-2.19,51.6,51.6,0,0,1-4.4-2.92l-1.92-1.53c-1-.78-2-1.52-2.93-2.37a41.59,41.59,0,0,1-4.34-4.75,32.7,32.7,0,0,1-3.08-5.71A66.64,66.64,0,0,1,50,292.51c-.42-3.44-.79-6.87-1-10.32a108.86,108.86,0,0,1-.52-11.55c.11-3.92.39-7.83.68-11.74.15-1.91.38-3.82.52-5.73s.27-3.64.44-5.47c.39-2.49.92-5,1.08-7.51a63.12,63.12,0,0,0-.07-7.78c-.29-5.43-1-11.08-4-15.79a43.25,43.25,0,0,0-4.58-5.73,18.94,18.94,0,0,0-7.36-4.9,29.63,29.63,0,0,0-7.8-1.64,34.55,34.55,0,0,0-4.66-.08c-.82,0-1.64,0-2.46,0-1.38,0-2.76-.14-4.13-.28a16.2,16.2,0,0,1-2.83-.68h0a24.62,24.62,0,0,1-2.36-2.43,20.88,20.88,0,0,1-.65-2.84,42,42,0,0,1-.13-7.27,29.24,29.24,0,0,1,1.18-4.71c.48-1.42,1-2.81,1.62-4.2a35.84,35.84,0,0,1,2.8-4.65,25.21,25.21,0,0,1,3.23-3A23.83,23.83,0,0,1,22.9,172a30.93,30.93,0,0,1,5.5-1.52,40.88,40.88,0,0,1,5-.06c1.77,0,3.54.11,5.3.28a39.44,39.44,0,0,1,8.1,2.25,49.4,49.4,0,0,1,7.3,4.36A50.4,50.4,0,0,1,58,180.63a51.53,51.53,0,0,1,4.1,4.75,50.38,50.38,0,0,1,4.09,6.07c1.19,2.21,2.23,4.46,3.22,6.76,1.68,4.62,3.44,9.21,4.25,14.08a70.68,70.68,0,0,1,.26,9.76c-.06,2.41-.18,4.81-.39,7.22l-.27,2,.18-1.3c-.89,5-1.76,10.07-3,15-.61,2.45-1.25,4.9-1.81,7.37-.6,2.66-1.11,5.35-1.56,8-.91,5.35-1.89,10.74-1.83,16.18,0,2.65.12,5.28.36,7.92a49.8,49.8,0,0,0,1.31,8.59c.3,1.13.63,2.22,1,3.31.51,1.41,1.14,2.78,1.73,4.15s1.21,2.88,2,4.27a31.6,31.6,0,0,0,3.07,4.29c.7.9,1.51,1.73,2.27,2.58s1.42,1.62,2.18,2.39a66.28,66.28,0,0,0,5.5,5.1,45,45,0,0,0,5.93,4.11,26.63,26.63,0,0,0,5.3,2.18,32.48,32.48,0,0,0,5.8,1c1.79.21,3.66.16,5.47.21,1.15,0,2.3.06,3.45.11,2.41.11,4.81.33,7.22.46,2.13.12,4.27.08,6.4.25l1.37.28a4.59,4.59,0,0,0,3.44-.45,4.47,4.47,0,0,0-1.06-8.16,30.67,30.67,0,0,0-4.87-.67c-.83,0-1.67-.07-2.5-.11-1.87-.07-3.75-.23-5.62-.41s-3.72-.3-5.58-.38c-2.59-.1-5.21-.11-7.8-.38A28.07,28.07,0,0,1,96.94,316a30.24,30.24,0,0,1-5-3c-.7-.56-1.42-1.11-2.07-1.73-1.1-1-2.18-2.06-3.23-3.13-1.7-1.75-3.3-3.59-4.89-5.45-.52-.72-1-1.45-1.52-2.2A29.25,29.25,0,0,1,78,295.69l.48,1.15a47.22,47.22,0,0,1-2-5.62,42.31,42.31,0,0,1-1-4.82c-.23-2.59-.48-5.18-.5-7.78s.07-5.4.3-8.12c.69-4.76,1.42-9.57,2.5-14.26,1.16-5.07,2.56-10.09,3.56-15.19.49-2.54,1-5.09,1.44-7.63a69.15,69.15,0,0,0,.93-8.72c.13-2.52.15-5,.18-7.56A46.94,46.94,0,0,0,82.72,207a35.24,35.24,0,0,0-1.1-4.06,108.77,108.77,0,0,0-6.34-15.78,50,50,0,0,0-4.2-6.5c-2.49-3.37-5.13-6.89-8.45-9.49A84.25,84.25,0,0,0,55.49,166a40.53,40.53,0,0,0-18.22-5.7c-1.69-.13-3.38-.13-5.07-.18l-1.14,0a25.86,25.86,0,0,0-3.4.21Zm-17,40.07.09.21-.09-.21ZM15,203.87l1.08.14h0L15,203.87Zm1.4.19,1,.13-1-.13Z"/><path class="cls-1" d="M90.94,316.49a32.29,32.29,0,0,0-3.8.33A5.55,5.55,0,0,0,84,318.35a4.78,4.78,0,0,0-.78,5.76,10.63,10.63,0,0,0,.86,1.14c.44.39.9.73,1.37,1.09.17.13.35.26.54.38a4.87,4.87,0,0,0-.53.73,4.62,4.62,0,0,0-.64,2.38c0,.54.12,1.09.2,1.62a4.77,4.77,0,0,0,2.17,2.82,8.49,8.49,0,0,0,1.4.66,4.47,4.47,0,0,0,.61,2.84,4.69,4.69,0,0,0,6.4,1.68,10.86,10.86,0,0,0,3.66-3.69,5.61,5.61,0,0,0,.72-3.37l.19-.09a6.85,6.85,0,0,0,1.93-2,4.62,4.62,0,0,0-.64-5.54,4.65,4.65,0,0,0-3-8.25c-1.65,0-3.31,0-5,0-.86,0-1.71,0-2.57,0Z"/><path class="cls-1" d="M64.52,293.17a4.83,4.83,0,0,0-2.36,4.12,21.86,21.86,0,0,0,.61,4.08l.27,1.55a32.81,32.81,0,0,1-3.83-2.4l-1.28-.92a6,6,0,0,0-5-1.1,4.89,4.89,0,0,0-2.58,1.77,4.54,4.54,0,0,0-.82.14,4.65,4.65,0,0,0-2.74,2.11c-.16.36-.31.73-.46,1.09a4.59,4.59,0,0,0,0,2.44c0,.16,0,.32.07.47q.09.64.21,1.29a11.53,11.53,0,0,0,1.08,2.6,10.61,10.61,0,0,0,1.1,1.66,27.16,27.16,0,0,0,2,2.34,38.43,38.43,0,0,0,4.43,3.72c1,.73,1.95,1.42,3,2.07,1.45.93,3.15,2.07,4.93,1.95a4.9,4.9,0,0,0,4.07-2.34,4.82,4.82,0,0,0,0-4.75,8.93,8.93,0,0,0-1-1.47A5.93,5.93,0,0,0,70.18,312a7.11,7.11,0,0,0,1.26-1.48,10.47,10.47,0,0,0,.91-1.53h.21a5.82,5.82,0,0,0,4.24-1.89,6.15,6.15,0,0,0,1.41-2.45,9.5,9.5,0,0,0,.3-1.91A4.88,4.88,0,0,0,73,297.87c-.23-.34-.45-.68-.66-1-.84-1.37-1.49-2.85-3-3.67a5.12,5.12,0,0,0-2.45-.64,4.72,4.72,0,0,0-2.37.64Zm-9.23,11.6v.1s0-.07,0-.1Zm7.92.8-.06.07.06-.07Z"/><path class="cls-1" d="M42.74,244.17c0,3,0,6-.24,9.05-.22,3.18-.59,6.36-.87,9.54-.09,1-.17,1.95-.2,2.93a9.83,9.83,0,0,0,.4,3,6,6,0,0,0,2.41,3.16,4.33,4.33,0,0,0,3.8.67c.44-.17.89-.35,1.32-.55a12.53,12.53,0,0,0,1.14-.9c.37-.44.72-.88,1.06-1.34a10.54,10.54,0,0,0,.64-1.13c.25-.48.47-1,.67-1.48a3.63,3.63,0,0,0,.85.65c.55.27,1.11.52,1.69.74a14.35,14.35,0,0,0,1.85.21,3.4,3.4,0,0,0,1.75-.38,3.72,3.72,0,0,0,1.61-.84,11.88,11.88,0,0,0,1.12-.95c.3.25.61.48.87.66a10.77,10.77,0,0,0,2,1,6.83,6.83,0,0,0,3.21,0,10.28,10.28,0,0,0,2-.51,13.61,13.61,0,0,0,2-.92,2.42,2.42,0,0,0,.35.12,4.77,4.77,0,0,0,3.64-.48A4.49,4.49,0,0,0,78,263.63a17.07,17.07,0,0,0,.3-3.84,5,5,0,0,0-1.41-3.4,4.73,4.73,0,0,0-2.12-1.23,4.8,4.8,0,0,0-2.55,0c-1.47.22-2.32,1.21-3.34,2.1l-.53.35a2.51,2.51,0,0,0,0-.27c-.07-.66-.15-1.33-.23-2a14.76,14.76,0,0,0-.23-2.74,8.85,8.85,0,0,0-.65-1.71,5.78,5.78,0,0,0-1.85-1.8,4.48,4.48,0,0,0-3.59-.47,4.65,4.65,0,0,0-3.25,3.25c-.27,1-.6,2.06-1,3.06a9.65,9.65,0,0,0-1.35-2.75,4.55,4.55,0,0,0-1.63-1.63,4.61,4.61,0,0,0-2.54-.78,6.08,6.08,0,0,0-.61,0c0-1.88,0-3.76.06-5.64a4.38,4.38,0,0,0-8.76,0Z"/><path class="cls-1" d="M64.38,204.86a4.66,4.66,0,0,0-1.66,1.67c-.16.34-.31.69-.45,1A4.32,4.32,0,0,0,59.93,206a4.66,4.66,0,0,0-4.51,1.19,5.41,5.41,0,0,0-1,1.19L54,209.49l0,.17c-.32-.26-.67-.5-1-.75a4.62,4.62,0,0,0-3.65-.48,4.69,4.69,0,0,0-2.83,2.22,5,5,0,0,0-7.29,6.56c1.16,2,2.26,4,3.38,6,.55,1,1.1,1.95,1.66,2.92.26.46.54.9.78,1.37a6.27,6.27,0,0,0,2,2.1,5.77,5.77,0,0,0,3,.69A5.19,5.19,0,0,0,54.21,228a6.14,6.14,0,0,0,2.71.53,5.2,5.2,0,0,0,3.68-1.68,3.73,3.73,0,0,0,.57-.67,6.15,6.15,0,0,0,2.6.64c.56-.06,1.12-.14,1.67-.25a5,5,0,0,0,2.43-1.55,9.45,9.45,0,0,0,1.95-3.74,7.15,7.15,0,0,0,.23-.79l.18.19A4.76,4.76,0,1,0,77,214c-.35-.37-.67-.75-1-1.13a80.24,80.24,0,0,0-5.28-7.24,4.8,4.8,0,0,0-3.56-1.5,5.43,5.43,0,0,0-2.75.74Z"/><path class="cls-1" d="M19.22,162.59a4.61,4.61,0,0,0-1.66,6.33,2.49,2.49,0,0,0,.19.3l-1.46.73c-.73.39-1.47.78-2.16,1.24a35.23,35.23,0,0,0-2.89,2.13,8.46,8.46,0,0,0-2.38,2.74,5,5,0,0,0-.48,3.68,2.24,2.24,0,0,0,.11.34,4.7,4.7,0,0,0-1.41,1.53,4.84,4.84,0,0,0-.69,1.62,5,5,0,0,0,0,2.59A4.84,4.84,0,0,0,7.64,188a6.7,6.7,0,0,0,3,1.91,7.15,7.15,0,0,0-.5.84,4.81,4.81,0,0,0-.65,2.43,4.67,4.67,0,0,0,1.41,3.4,7.23,7.23,0,0,0,2.89,1.81c.42.1.84.17,1.26.23a6.48,6.48,0,0,0-2.38,1.53,4.88,4.88,0,0,0-1.43,3.44,5,5,0,0,0,2.41,4.19,5.43,5.43,0,0,0,5,.29,23.5,23.5,0,0,0,3.09-1.35c2.94-1.52,5.94-3,8.39-5.24A12.33,12.33,0,0,0,32.05,199a6.66,6.66,0,0,0,.84-3.55,6.05,6.05,0,0,0-1.61-3.92,5.46,5.46,0,0,0-.45-.39c1.11-.41,2.2-.86,3.27-1.38a4.75,4.75,0,0,0,2.18-5.35,5.39,5.39,0,0,0-.34-.93,6.18,6.18,0,0,0,2-1.61l.74-1a4.7,4.7,0,0,0,.65-2.4,4.86,4.86,0,0,0-1.39-3.36,5.38,5.38,0,0,0-.55-.52,11.3,11.3,0,0,0,3.72-.43,4.69,4.69,0,0,0,2-1.19,4.64,4.64,0,0,0-2-7.75c-6.08-1.15-12.21-2.09-18.31-3.12a7.77,7.77,0,0,0-1.33-.13,4.22,4.22,0,0,0-2.24.6Zm-.29,44.8-.17.13a1.09,1.09,0,0,1,.17-.13Z"/><path class="cls-1" d="M12.05,190.45a49.16,49.16,0,0,0-5.53,1.1,4.53,4.53,0,1,0,2.41,8.74,55,55,0,0,1,5.53-1.07,4.41,4.41,0,0,0,2.72-2.09,4.54,4.54,0,0,0-1.63-6.22,4.28,4.28,0,0,0-2.21-.58,8.37,8.37,0,0,0-1.29.12Z"/><path class="cls-1" d="M116.71,38.66a4.65,4.65,0,0,0-3.23,5.69c.41,1.27.84,2.54,1.3,3.8a19,19,0,0,0,2,4.39,4.87,4.87,0,0,0,2.75,2.11,4.59,4.59,0,0,0,5.19-6.75c-.27-.45-.5-.91-.72-1.37-.59-1.53-1.11-3.08-1.62-4.64a4.76,4.76,0,0,0-4.46-3.39,4.7,4.7,0,0,0-1.22.16Z"/><path class="cls-1" d="M249.7,32.46a4.25,4.25,0,0,0-2,2.64,49.66,49.66,0,0,0-.92,7.27,4.42,4.42,0,1,0,8.84,0,15.4,15.4,0,0,1,.12-1.8c.15-1,.31-2.09.47-3.13.06-.39.11-.78.16-1.17a4.33,4.33,0,0,0-.6-2.22,4.49,4.49,0,0,0-2.64-2,4.56,4.56,0,0,0-1.16-.15,4.43,4.43,0,0,0-2.24.6Z"/><path class="cls-1" d="M95.65,107.67l-1,.44a4.21,4.21,0,0,0-1.54,1.54A94.66,94.66,0,0,0,82.35,128.5c-.74,1.62-1.41,3.27-2.08,4.92a12,12,0,0,0-.61,1.84c-.09.56-.16,1.13-.21,1.7a12.83,12.83,0,0,0,.25,1.63,4.65,4.65,0,0,0,2.23,2.8,4.94,4.94,0,0,0,4.16.35,6.14,6.14,0,0,0,1.33-.67c-.27.79-.54,1.58-.79,2.38a13,13,0,0,0-.68,3.08,4.82,4.82,0,0,0,.12,1.77,14.46,14.46,0,0,0,.81,1.9,4.42,4.42,0,0,0,6,1.58,18.89,18.89,0,0,0,1.89-1.27,6.12,6.12,0,0,0,.13,2.25,6.67,6.67,0,0,0,1.76,2.74,4.5,4.5,0,0,0,5.43.69c.55-.32,1.1-.63,1.65-1a12.78,12.78,0,0,0,2-1.61,13.76,13.76,0,0,0,1.4-1.64,4.86,4.86,0,0,0,3,2.59,6.49,6.49,0,0,0,5.26-1.17,13.89,13.89,0,0,0,3.52-3.69c.37-.55.72-1.1,1-1.66a7.44,7.44,0,0,0,1.84.38,6.67,6.67,0,0,0,3.66-.77,19.41,19.41,0,0,0,4.45-3.32,4.3,4.3,0,0,0,1.32.88l1.1.47a9.23,9.23,0,0,0,2,.18,8.23,8.23,0,0,0,3.64-1.08c.36-.22.71-.47,1.05-.72.51-.38,1-.76,1.47-1.17a12.61,12.61,0,0,0,1.38,1.35,5,5,0,0,0,3.29,1.36,4.66,4.66,0,0,0,4.65-4.65,4.74,4.74,0,0,0-.64-2.35,4.68,4.68,0,0,0-1.46-1.54,6.92,6.92,0,0,1-.61-.6c-.28-.46-.52-.92-.76-1.4a10.79,10.79,0,0,0-1.28-1.77,5.55,5.55,0,0,0-2.35-1.32,13.75,13.75,0,0,0-1.57-.2,4.66,4.66,0,0,0-2.31.63,11.55,11.55,0,0,0-3.06,2.33l-.1.09c-.09-.21-.19-.41-.29-.62a4.71,4.71,0,0,0-4.46-2.4,4.57,4.57,0,0,0-3.23,1.34l-.64.78c-.5.62-1,1.23-1.59,1.81a13,13,0,0,0-.3-1.51,4.6,4.6,0,0,0-6.74-2.74l-.26.2-.34-.76a4.38,4.38,0,0,0-1.6-1.6,4.32,4.32,0,0,0-2.25-.61,4.43,4.43,0,0,0-3.84,2.21c-1.19,1.67-2.22,3.44-3.28,5.2.06-.22.12-.44.17-.66a14.21,14.21,0,0,0,.7-3.15,5.82,5.82,0,0,0-.15-1.81c-.21-.54-.44-1.08-.69-1.6a4.32,4.32,0,0,0-3.81-2.19,4.59,4.59,0,0,0-1.06.13l.39-.95a26.6,26.6,0,0,0,1.12-3.62,4.26,4.26,0,0,0-5.2-5.23c.71-1,1.44-2,2.21-3a4.18,4.18,0,0,0,.43-3.33,4.34,4.34,0,0,0-4.17-3.16,4.46,4.46,0,0,0-1.14.15Zm51.5,29,.2.16-.2-.16Z"/><path class="cls-1" d="M289.76,112.05a4.67,4.67,0,0,0-2.75,2.11,4.81,4.81,0,0,0-.46,3.54c.29,1.47.59,2.94.88,4.41-.12.32-.23.64-.33,1a14.78,14.78,0,0,0-.33,2l0,.13-.39-.13a4.46,4.46,0,0,0-5,2,29.76,29.76,0,0,0-1.69,3.51,1.64,1.64,0,0,0-.22-.14,5,5,0,0,0-3.71-.5,5.38,5.38,0,0,0-3.18,2.39c-.16-.07-.33-.12-.48-.17a4.64,4.64,0,0,0-3.53.46L268,133a16.16,16.16,0,0,0-1.43-1.13,4.41,4.41,0,0,0-4.63,0c-.64.48-1.28,1-1.88,1.49l-.72.93a9.58,9.58,0,0,0-.85,1.32c-.28.48-.55,1-.85,1.43l-.22.22a4.69,4.69,0,0,0,0,6.58,4.75,4.75,0,0,0,4.68,1.14,5.59,5.59,0,0,0,.39.65,4.92,4.92,0,0,0,2.76,2.12,4.43,4.43,0,0,0,2.77-.13c.07.36.15.71.24,1.06a4.66,4.66,0,0,0,3.21,3.2,4.77,4.77,0,0,0,2.43,0,4.47,4.47,0,0,0,2-1.24,4.42,4.42,0,0,0,2.64,2,4.69,4.69,0,0,0,2.41,0,4.9,4.9,0,0,0,2.71-2.08,7.47,7.47,0,0,0,1.14-3.16A4.77,4.77,0,0,0,287,148a4.46,4.46,0,0,0,3.88-2.23,9.72,9.72,0,0,0,1.38-3.19,5,5,0,0,0,2.33.61,4.64,4.64,0,0,0,2.3-.62,4.71,4.71,0,0,0,1.63-1.63c.9-1.23.82-2.95.64-4.39-.13-1.09-.27-2.18-.44-3.27q-.43-2.72-.91-5.42c-.74-4.2-1.61-8.39-2.44-12.57a4.48,4.48,0,0,0-2.11-2.74,4.58,4.58,0,0,0-2.33-.63,4.47,4.47,0,0,0-1.21.16Z"/><path class="cls-1" d="M199.55,33.33c-1.38,0-2.75.07-4.12.12-5.34.19-10.67.73-16,1.26A4.71,4.71,0,0,0,176.32,36a4.42,4.42,0,0,0,0,6.24,4.61,4.61,0,0,0,1,.76,4.46,4.46,0,0,0,1.33,3.07A6.2,6.2,0,0,0,181,47.56a4.31,4.31,0,0,0,.59.16l-.42.19a6.18,6.18,0,0,0-1.9,1.84,5.22,5.22,0,0,0-.44,4,6.11,6.11,0,0,0,1.39,2.42A9.17,9.17,0,0,0,183.48,58a4.76,4.76,0,0,0,1,.3l-.08.06a7.15,7.15,0,0,0-2,2.16,4.59,4.59,0,0,0-.47,3.64,4.69,4.69,0,0,0,3.3,3.3,11.3,11.3,0,0,0,4.37.39l-1,.93-.73,1a3.79,3.79,0,0,0-.84,1.6,18,18,0,0,0-.27,1.79,6.36,6.36,0,0,0,.73,2.9,6.27,6.27,0,0,0,2.88,2.47,1.3,1.3,0,0,0-.08.17c-.16.38-.31.75-.47,1.12a4.58,4.58,0,0,0,0,2.49A4.68,4.68,0,0,0,191.88,85a4.74,4.74,0,0,0,3.61.47,4.52,4.52,0,0,0,2.81-2.15,3.85,3.85,0,0,1,.39-.69l.93-1.14c.46-.59.92-1.19,1.37-1.79A8.85,8.85,0,0,0,202.46,77a4.63,4.63,0,0,0,0-2.45,6.09,6.09,0,0,0-1.36-2.43,5,5,0,0,0-1.4-1l.57-.57a13.3,13.3,0,0,0,3.2-5,4.78,4.78,0,0,0,0-2.49,3.52,3.52,0,0,0-.55-1.62c-.32-.45-.65-.89-1-1.32L201.8,60a10.4,10.4,0,0,0,2.62-2.94,6.26,6.26,0,0,0,.75-2.9A5.84,5.84,0,0,0,204,50.94q.44-.16.87-.36c.46-.32.92-.67,1.36-1a3.85,3.85,0,0,0,.95-1.45,4.78,4.78,0,0,0,.45-3.49,4.48,4.48,0,0,0-2-2.64c1.1,0,2.19-.07,3.29-.12a4.43,4.43,0,0,0,3.13-7.55A4.74,4.74,0,0,0,208.92,33c-.94-.09-1.88-.12-2.82-.12a62.44,62.44,0,0,0-6.55.43Z"/><path class="cls-1" d="M100.81,251.39l-.06,5.77c0,.6,0,1.2,0,1.8s0,1-.06,1.44a7,7,0,0,0,.16,1.89,3.62,3.62,0,0,0,.54,1.74,5.53,5.53,0,0,0,.51,1,4.48,4.48,0,0,0,2.64,2,4.57,4.57,0,0,0,3.39-.45q.43-.21.84-.45c0,.19,0,.37-.05.56,0,.49-.08,1-.14,1.45a5.67,5.67,0,0,0,.94,3.5,4.46,4.46,0,0,0,6.06,1.59,12,12,0,0,0,1.89-1.4c.25-.26.49-.53.72-.8a3.72,3.72,0,0,0,1.17,2l.28.23a4.43,4.43,0,0,0,2,1.16,5.66,5.66,0,0,0,3.26.1,10.36,10.36,0,0,0,1.34-.41,12.9,12.9,0,0,0,1.77-.82,16.2,16.2,0,0,0,1.34-1l.69-.54a4.45,4.45,0,0,0,8.62-1.57,14.34,14.34,0,0,0-.1-1.85,8.83,8.83,0,0,0-1.29-4,9.22,9.22,0,0,0-2.87-2.69,5.77,5.77,0,0,0-2.62-.74,5,5,0,0,0-2.64.58,13.2,13.2,0,0,0-1.94,1.09c0-.39,0-.77,0-1.16a11.41,11.41,0,0,0-.28-2.91,5.48,5.48,0,0,0-1.64-2.51,4.39,4.39,0,0,0-2-1.14,4.27,4.27,0,0,0-3.4.45c-.6.42-1.17.87-1.75,1.33l-.3.27c0-.1,0-.2,0-.3l-.15-1.14a3.33,3.33,0,0,0-.52-1.54c-1-2.39-4.34-3.85-6.67-2.36a9.21,9.21,0,0,0-.9.68c0-.28,0-.57,0-.85a4.42,4.42,0,0,0-8.83,0Zm28.64,16.93c0,.09.08.17.11.25l-.11-.25Z"/><path class="cls-1" d="M141.32,270.45a3.93,3.93,0,0,0-1-.87,4.28,4.28,0,0,0-2.2-.6,4.63,4.63,0,0,0-3.1,1.28,4.57,4.57,0,0,0-1.42,2.38,4.29,4.29,0,0,0-.65.31,4.13,4.13,0,0,0-2,2.56c-.41,2.6-.77,5.19-1.11,7.79-.09.12-.17.25-.25.37a8.61,8.61,0,0,0-1.06,2.4,4.54,4.54,0,0,0-1.42,1.19l-.25.13a7.36,7.36,0,0,0-1.82,1.25,7.78,7.78,0,0,0-1.6,2.88,19.18,19.18,0,0,0-.73,2.67c-.12.52-.23,1.05-.35,1.57-.28,1.28-.54,2.55-.7,3.85-.25,2.11-.14,4.51,1.64,6a4.73,4.73,0,0,0,3.12,1.29,4.22,4.22,0,0,0,1.13-.15c0,.08,0,.17,0,.25,0,.75.17,1.5.28,2.23a5.44,5.44,0,0,0,1.46,2.65,5.29,5.29,0,0,0,3.49,1.52,5,5,0,0,0,3.63-1.49,8.25,8.25,0,0,0,1.79-3.46,13.24,13.24,0,0,0,.4-1.87,4.49,4.49,0,0,0,1.95.44,4.53,4.53,0,0,0,3.86-2.21,9.15,9.15,0,0,0,1.1-2.57,11.11,11.11,0,0,0,.33-2.09,5,5,0,0,0,3.57,1.64,7.11,7.11,0,0,0,5.65-3.33,23.66,23.66,0,0,0,2.67-5.74,4.75,4.75,0,0,0,4.56.21l.53.37a4.35,4.35,0,0,0,3.49.46,4.54,4.54,0,0,0,3.16-5.57,4.74,4.74,0,0,0-2.06-2.69,16.48,16.48,0,0,0-2.85-2.36,4.8,4.8,0,0,0-1.5-.53l-.09-.65c-.09-.62-.15-1.26-.29-1.87s-.21-1-.32-1.52a5.81,5.81,0,0,0-1.7-2.84,4.43,4.43,0,0,0-3.12-1.3,4.34,4.34,0,0,0-3.81,2.19,72.73,72.73,0,0,0-2.79,8v0l-.45-4.06a51.86,51.86,0,0,0-1.33-8.78,4.37,4.37,0,0,0-7.83-1.31Z"/><path class="cls-1" d="M183.07,328.84a6.21,6.21,0,0,0-1.67,1.72,3.58,3.58,0,0,0-.55-.38,4.45,4.45,0,0,0-6.69,3.84,8.09,8.09,0,0,0,.3,1.77c0,.17,0,.35,0,.53a9.32,9.32,0,0,0-1.07-.59,4.68,4.68,0,0,0-3.4-.44,4.48,4.48,0,0,0-3.09,3.08,5.59,5.59,0,0,0-.38,1.9,17.32,17.32,0,0,0,.34,2.59c.12.54.23,1.08.32,1.62.15.78.29,1.56.43,2.34l-1.11-1c-2.74-2.47-5.16-5.42-8.39-7.28a5.54,5.54,0,0,0-5.46,0,5.79,5.79,0,0,0-1.91,1.87,4.13,4.13,0,0,0-.49,1.36c-.26-.38-.51-.75-.76-1.14q-3-4.67-6-9.38a4.45,4.45,0,1,0-7.69,4.49c1.9,3.05,3.84,6.08,5.79,9.1,1.25,2,2.64,3.79,4,5.66.9,1.23,2,2.37,2.93,3.54.78.91,1.61,1.74,2.45,2.59s1.86,1.82,2.82,2.71c.52.48,1,1,1.52,1.45a9.2,9.2,0,0,0,1.76,1.32,6.43,6.43,0,0,0,3,.68,4.51,4.51,0,0,0,4.32-5.66c-.18-.59-.36-1.16-.57-1.73l1.19,1.05c1,.82,1.94,1.59,2.94,2.35l.61.27a4.32,4.32,0,0,0,2.25.61,6.85,6.85,0,0,0,2.81-.66,5.53,5.53,0,0,0,2.81-3.36,16,16,0,0,0,.53-4.41,31,31,0,0,0-.42-4.08c0-.16,0-.32-.07-.48a4.06,4.06,0,0,0,.76-.14,7.77,7.77,0,0,0,2.26-.82,6,6,0,0,0,2.24-2.5,8.55,8.55,0,0,0,.71-1.68l.54,0a5.18,5.18,0,0,0,3-1,4.53,4.53,0,0,0,1.25-1.09l.33-.4a15.13,15.13,0,0,0,1.67.63,4.53,4.53,0,1,0,2.41-8.74l-.26-.08c-.53-.28-1-.59-1.55-.91a13.27,13.27,0,0,0-1.84-1.21l-1.07-.45-1.49-.2h-.25a4.19,4.19,0,0,0-2.21.76Z"/><path class="cls-1" d="M270.55,250.62c-.11,2.49-.2,5-.3,7.46a6.47,6.47,0,0,0-2.83.35c-3,1.07-4.37,3.88-5.39,6.74a4.57,4.57,0,0,0-5.09-.36,5.92,5.92,0,0,0-2.06,1.89,10.05,10.05,0,0,0-.75,1.41,6.16,6.16,0,0,0-5.13,1c-2,1.39-3.87,3.09-5.77,4.67l-2.3,1.91a4.34,4.34,0,0,0-.82.38,4.5,4.5,0,0,0-1.64,1.63,4.35,4.35,0,0,0-.78,2.62,4.6,4.6,0,0,0,2.25,3.92,4.52,4.52,0,0,0,4.59,0,47.64,47.64,0,0,0,4.39-3.52l1.92-1.62c0,.11.09.23.14.34a6.15,6.15,0,0,0,1,1.44,4.58,4.58,0,0,0,4.43,1.18,4.28,4.28,0,0,0,2-1,4.68,4.68,0,0,0,3.09,1.21,4.88,4.88,0,0,0,3.25-1.35,8.66,8.66,0,0,0,2.27-3.45c.41-1,.82-1.91,1.21-2.87.06.28.13.57.2.85a5.63,5.63,0,0,0,1.37,2.33,4.65,4.65,0,0,0,3.53,1.33,4.77,4.77,0,0,0,3.25-1.35,5.47,5.47,0,0,0,1.37-2.49,29.69,29.69,0,0,0,.74-5.06c.55-6.52.77-13.06,1.06-19.59a4.61,4.61,0,1,0-9.22,0Zm-29.47,25-.07.06h0l.08-.06Z"/><path class="cls-1" d="M260.33,319.9a4.32,4.32,0,0,0-2,2.65c-.08.43-.16.87-.25,1.31a9.2,9.2,0,0,0-1.14.12,3.74,3.74,0,0,0-1,.24,4.53,4.53,0,0,0-2,1.15,15.13,15.13,0,0,0-2.53,3l.52-.68-1.59,2.11a4.06,4.06,0,0,0-2.14-1.39,7.51,7.51,0,0,0-2.35-.22,5.25,5.25,0,0,0-1.84.37c-1.27-1.65-3.59-2.24-5.6-2.22-.68.09-1.36.18-2,.3a9.52,9.52,0,0,0-1.18.25,10.85,10.85,0,0,0-3.32,1.56,11.71,11.71,0,0,0-3.26,3.32,4.54,4.54,0,0,0,3.93,6.84,4.36,4.36,0,0,0,3.22-1.33c.14-.18.29-.36.43-.55a1.8,1.8,0,0,1,.19-.2,5.85,5.85,0,0,0,1.42,2.41l.92.71a4.61,4.61,0,0,0,2.31.63,4.4,4.4,0,0,0,.89,0c0,.24-.06.48-.08.72.06.57.15,1.15.25,1.72a4.42,4.42,0,0,0,2.1,2.72,4.58,4.58,0,0,0,4.6,0,12.25,12.25,0,0,0,3.18-3.08c.55-.68,1.08-1.37,1.6-2.06-.09.93-.2,1.86-.32,2.78a1,1,0,0,1,0,.17,4.61,4.61,0,0,0,0,2.39,4.5,4.5,0,0,0,8.21,1.07,13.7,13.7,0,0,0,1.26-3.45c.26-.89.51-1.79.76-2.68q.66-2.38,1.23-4.78c.85-3.6,1.46-7.27,2.17-10.9a4.7,4.7,0,0,0-.45-3.41,4.44,4.44,0,0,0-2.64-2,4.29,4.29,0,0,0-1.17-.16,4.43,4.43,0,0,0-2.24.6Zm-21.74,15.51.29.13-.29-.12Zm14.7,7.22,0,.2,0-.2Zm-.09.63c0,.19,0,.38-.07.56,0-.18,0-.37.07-.56Z"/><path class="cls-1" d="M245,264.43c-.39.15-.77.32-1.16.49a5.27,5.27,0,0,0-1.69,1.76,12,12,0,0,0-.75,1.53,4.46,4.46,0,0,0-.43,3.28,4.15,4.15,0,0,0,.46,1.06l-.27,1.23-1.11,5.3a4.49,4.49,0,0,0,.43,3.31,4.29,4.29,0,0,0,7.84-1c.43-2,.85-4,1.27-6,.21-1,.43-2,.63-3,.4-2,.71-4.16-.37-6a4.34,4.34,0,0,0-1.54-1.53,4.59,4.59,0,0,0-2.25-.62,2.88,2.88,0,0,0-1.06.18Z"/><path class="cls-1" d="M125.08,190.1a4.52,4.52,0,0,0-1.92,2.5c-1.48,3.78-2.87,7.59-4.28,11.41-.53,1.45-.95,2.94-1.42,4.41-.22.67-.44,1.35-.68,2a9.64,9.64,0,0,0-.81,3,5.41,5.41,0,0,0,.83,3.24,4.35,4.35,0,0,0,2.5,1.93,4.16,4.16,0,0,0,4.08-1.08c1.14-1.38,2.25-2.79,3.36-4.2a2.82,2.82,0,0,0,0,.41,5.17,5.17,0,0,0,.6,2.65,6.45,6.45,0,0,0,1.19,1.46,4.85,4.85,0,0,0,3.78,1.31l1.13-.15c.49-.2,1-.41,1.47-.63a9.28,9.28,0,0,0,1.78-1.35c1.29-1,2.51-2.12,3.69-3.25,0,.09,0,.18-.05.26-.2,1-.34,2.08-.45,3.13,0,.16,0,.31,0,.47a4.37,4.37,0,0,0,.59,2.18,5.7,5.7,0,0,0,1.73,1.83,3.1,3.1,0,0,0,1.28.61,5.78,5.78,0,0,0,2.68-.06,4.77,4.77,0,0,0,1.87-1c.62-.47,1.22-.95,1.82-1.44a13.07,13.07,0,0,0,1.22-1.14,4.37,4.37,0,0,0,2.18,1.4,5.71,5.71,0,0,0,1.59.28c.57,0,1.13-.12,1.7-.21a13.18,13.18,0,0,0,2.05-.88,18.3,18.3,0,0,0,1.59-1.06c.58-.4,1.15-.84,1.71-1.29a5.25,5.25,0,0,0,2.89,2.19c2.42.75,4.87-.38,7-1.47a4.21,4.21,0,0,0,2.48-1.2,4.36,4.36,0,0,0-3.08-7.45,10.27,10.27,0,0,0-1.74.18l-.66.26a8.36,8.36,0,0,0-.48-1,5.21,5.21,0,0,0-3.4-2.49,4.36,4.36,0,0,0-2.6.13,6.29,6.29,0,0,0-1.67.88c-.41.29-.81.59-1.2.89a4.29,4.29,0,0,0-5.42-3.7,5.69,5.69,0,0,0-1.69.6,8.45,8.45,0,0,0-1.31,1.08,4.43,4.43,0,0,1-.43.54c.11-.6.17-1.22.23-1.83,0-.21-.05-.41-.08-.62a4.28,4.28,0,0,0-.58-2.15,12,12,0,0,0-1.37-1.73,4.29,4.29,0,0,0-5.16-.67,16.14,16.14,0,0,0-3.29,2.46l-.33.32.37-.88c.34-.82.57-1.69.83-2.55a6.68,6.68,0,0,0,.19-3.32,5.4,5.4,0,0,0-2.36-3.34c-.48-.21-1-.41-1.45-.59-1.24-.48-2.46.08-3.57.57a7.63,7.63,0,0,0-1.91,1.73c-.32.33-.62.67-.92,1a4,4,0,0,0-.45-3.15,4.21,4.21,0,0,0-2.49-1.92,4.11,4.11,0,0,0-1.1-.15,4.26,4.26,0,0,0-2.12.57Zm5.31,21.05-.26.11.26-.11Z"/><path class="cls-1" d="M265.3,194.89c0,1.41.08,2.81.15,4.21-2.57.06-4.36,2.4-5.07,4.66-.52,1.64-.82,3.34-1.2,5-.1.47-.21.93-.33,1.4a3.79,3.79,0,0,0-.86-.68,4.72,4.72,0,0,0-5.66.56h0a5.42,5.42,0,0,0-2.9.6,11.45,11.45,0,0,0-1.73,1.09c-.63.47-1.25.95-1.9,1.39a4.5,4.5,0,0,0-2,2.58,4.38,4.38,0,0,0,.43,3.34,4.44,4.44,0,0,0,2.59,2,4.24,4.24,0,0,0,3.34-.44l.34-.24a7.51,7.51,0,0,0,.78.58,4.23,4.23,0,0,0,5.42-1,11.28,11.28,0,0,0,1.5.68,5.62,5.62,0,0,0,5.71-1,8.19,8.19,0,0,0,2.22-3.91c.16-.53.32-1.06.47-1.6.08.15.17.28.26.42a4.26,4.26,0,0,0,1.54,1.53c.4.19.81.35,1.22.51a4.16,4.16,0,0,0,3.3-.43,4.34,4.34,0,0,0,2.12-3.69,38,38,0,0,0-.31-4.27c-.11-1.16-.24-2.32-.35-3.48-.32-3.3-.53-6.6-.6-9.92a4.25,4.25,0,0,0-8.49,0Z"/><path class="cls-1" d="M144.59,375a4.45,4.45,0,0,0-3.08,5.43c1.52,5.16,3,10.36,4.66,15.46a4.59,4.59,0,0,0,2,2.64,4.38,4.38,0,0,0,4.46,0,6.69,6.69,0,0,0,1.86-1.23,7.69,7.69,0,0,0,1.34-1.95c.24-.48.46-1,.66-1.49a5,5,0,0,0,1.55.3,10.31,10.31,0,0,0,6.65-2.62c.45.45.91.89,1.39,1.32a4.55,4.55,0,0,0,3.08,1.27,4.35,4.35,0,0,0,3.08-7.43c-1.29-1.16-2.51-2.37-3.74-3.59a13.6,13.6,0,0,0-1.81-1.5,2.69,2.69,0,0,0-1.27-.47l-1.13-.15a4.34,4.34,0,0,0-2.17.59,6.41,6.41,0,0,0-2.11,2.16l-.42.69a5.9,5.9,0,0,0-1.65-3.07,4.31,4.31,0,0,0-1.9-1.11,4.45,4.45,0,0,0-2.29,0,4.31,4.31,0,0,0-1.9,1.11,4.13,4.13,0,0,0-.66.85c-.4-1.38-.8-2.75-1.21-4.13a4.49,4.49,0,0,0-4.27-3.23,4.6,4.6,0,0,0-1.15.15Zm15.92,11.41.21.16-.21-.16Z"/><path class="cls-1" d="M227.61,377.39a4.75,4.75,0,0,0-1.3,3.13,26.06,26.06,0,0,0,.69,7.25c.44,2.41,1.58,5.06,4.17,5.77a5.88,5.88,0,0,0,4.49-.8,7.84,7.84,0,0,0,2.4-2.43,9.72,9.72,0,0,0,2.47,1.34,7.35,7.35,0,0,0,3.05.4,13.2,13.2,0,0,0,5.76-2.09l.11-.07.84.78a4.38,4.38,0,1,0,6.19-6.19c-1.16-1-2.28-2.12-3.4-3.2a6.85,6.85,0,0,0-2.51-1.41l-1.49-.2a4.33,4.33,0,0,0-2.19.59,6.52,6.52,0,0,0-2.44,2.45l-.07.08a1.71,1.71,0,0,0-.23.13l-.76.25c-.23-.6-.48-1.2-.77-1.79a6.61,6.61,0,0,0-2.19-2.3,7,7,0,0,0-1.31-.52,4.31,4.31,0,0,0-2.31,0,5.2,5.2,0,0,0-1.75.86,5,5,0,0,0-1.19-2,4.47,4.47,0,0,0-3.13-1.29,4.41,4.41,0,0,0-3.13,1.29Zm17.26,4.82-.18.23.18-.23Zm-1.06.87-.2.09.2-.09Zm-1.52.2.31,0-.31,0Zm1.29,0-.14,0h0l.14,0Zm.2.71.09.11-.09-.11Zm-13.28,1.6-.22.18.22-.18Zm16.73,2.21.07,0h0l-.08,0Z"/></g></g></svg>