<svg xmlns="http://www.w3.org/2000/svg" viewBox="0 0 279.05 378.38"><defs><style>.cls-1{fill:#110802;}.cls-2{fill:#d2cab6;}</style></defs><title>Asset 1</title><g id="Layer_2" data-name="Layer 2"><g id="Draw_Layer" data-name="Draw Layer"><path class="cls-1" d="M259.7,0a9.67,9.67,0,0,0-4.85,1.67,55,55,0,0,0-5.07,3.5c-2.25,1.71-4.49,3.41-6.63,5.27a70.69,70.69,0,0,0-9.69,10,113.93,113.93,0,0,0-8.32,12.72,5.39,5.39,0,0,0,.56,6.12h0a5.42,5.42,0,0,0,1.32,1.12,5.23,5.23,0,0,0,2.63.7,5.31,5.31,0,0,0,4.59-2.6,133.8,133.8,0,0,1,7.58-11.66,72.4,72.4,0,0,1,5-5.37c1.69-1.67,3.62-3.37,6.05-5.34l2.58-1.93h0l0,0c.08,1.64.12,3.21.14,4.67q0,6.51.05,13c0,2.16-.12,4.39-.22,6.18l0,.63,0,0a32.12,32.12,0,0,0-.15,4.38,12.72,12.72,0,0,0,.19,1.45l.06.17a22.75,22.75,0,0,0,1.52,4.42c.55,1.28,1.18,2.54,1.79,3.75l.16.33c.06.16.12.31.16.46l0,.06.59-.79,1.11-1.54c2.08-2.85,4.16-5.68,6.29-8.48-.1-.3-.19-.61-.27-.91,0-.72,0-1.44.05-2.16,0-1.22.1-2.44.17-3.66.12-2.52.1-5.05.1-7.58,0-4.78.15-9.6-.14-14.37a56.45,56.45,0,0,0-1-8.51A10.88,10.88,0,0,0,265,3a6.09,6.09,0,0,0-5.18-3Z"/><path class="cls-1" d="M217.5,339.36l1.17-.67c1.84-1.05,3.67-2.14,5.47-3.28a5.66,5.66,0,0,0-6.64,3.95Z"/><path class="cls-1" d="M186.19,28.25c-2.46,0-4.93.21-7.38.32s-5.13.31-7.68.59c-2.88.31-5.75.59-8.61,1a14.84,14.84,0,0,0-3.51,1c-.88.35-1.77.68-2.66,1A24.87,24.87,0,0,1,153,33.39a5.69,5.69,0,0,0-4.18,5.49,5.53,5.53,0,0,0,0,.71h0a5.7,5.7,0,0,0,1.61,3.3,5.9,5.9,0,0,0,4,1.66h.42a12,12,0,0,0,4.3-1.07l.45-.18c1.06-.4,2.18-.85,3.52-1.42a26.34,26.34,0,0,1,5.5-1.18l.54-.08c2.16-.28,4-.51,5.78-.66s3.66-.26,5.41-.35l1.59-.09.93-.06c1.75-.1,3.56-.21,5.35-.21l1.15,0c1.43,0,2.89.17,4.29.3h.16l2.58.21c.58,0,1.21.07,1.93.07,1.13,0,2.27-.06,3.38-.11h.11l1.62-.07c1.59-.06,3.22-.07,4.79-.08h.36l1.86,0c5.49-.05,10.47-.15,15.22-.29v0l.77,0a5.3,5.3,0,1,0,0-10.59c-5.74.17-11.47.23-17.22.23-2.44,0-4.89-.07-7.33,0a45.11,45.11,0,0,1-7.53-.23,65.11,65.11,0,0,0-7.77-.5Z"/><path class="cls-1" d="M120.64,3.92a6.53,6.53,0,0,0-2.5,2.42A15,15,0,0,0,117,9.73a54.77,54.77,0,0,0-.89,10.47c0,3.28-.06,6.56.1,9.84a48.25,48.25,0,0,0,.77,6.22c.24,1.29.56,2.56.78,3.85,0,.3,0,.6,0,.9,0,.62-.1,1.23-.1,1.85a5.68,5.68,0,0,0,4.13,5.42,5.82,5.82,0,0,0,6.14-2.2v0a5,5,0,0,0,.76-1.68,17.5,17.5,0,0,0-.11-7.08c-.15-.93-.33-1.84-.53-2.76s-.35-1.72-.5-2.6c-.22-2.9-.22-5.73-.19-9.12v-1.6c0-.87,0-1.73,0-2.61,0-.1,0-.21,0-.31h0v0l2.12,1.37.81.52.78.48c.46.28.92.57,1.37.87,1.51,1.3,2.9,2.75,4.24,4.15l.48.5a66.64,66.64,0,0,1,4.44,5.24c1.46,2,2.9,3.91,4.35,5.87a6.28,6.28,0,0,0,2.75,2.35h0l.5.16A5.46,5.46,0,0,0,156.07,36a5.22,5.22,0,0,0-.55-4.21c-2.34-3.18-4.69-6.35-7.12-9.45A76.69,76.69,0,0,0,142.74,16a32.86,32.86,0,0,0-3.05-2.85c-1.25-1-2.54-1.82-3.87-2.69C133.9,9.23,132,8,130.16,6.6c-1.54-1.26-3-2.76-5-3.27a5.67,5.67,0,0,0-1.45-.19,7,7,0,0,0-3.07.78Z"/><path class="cls-1" d="M119.54,41.57c-2.12,2.22-4.12,4.51-6.08,6.87A50.77,50.77,0,0,0,106.38,60c-.64,1.4-1.34,2.81-1.86,4.26-.43,1.2-.82,2.41-1.16,3.64-.62,2.29-1,4.63-1.42,7-.49,2.84-1,5.68-1.39,8.53a85.17,85.17,0,0,0-1,8.59,113.21,113.21,0,0,0,.52,16.26,48.81,48.81,0,0,0,1.81,8.44c.7,2.43,1.43,4.86,2.11,7.3a74.19,74.19,0,0,0,5.17,13.67,85.85,85.85,0,0,0,7,10.88c1,1.35,1.92,2.7,3,4a20.28,20.28,0,0,0,2.54,2.62c.28.24.55.5.81.75a23.57,23.57,0,0,0,5.09,1.44c1.8.25,3.57.63,5.36.95v0l.78.15a5.87,5.87,0,0,0-.12-8.1l-.83-.86c-.56-.58-1.19-1.24-1.84-1.83l-.82-.71-.24-.2-.76-.64a13.85,13.85,0,0,1-1.5-1.54c.09.13.19.25.29.38-.11-.14-.22-.27-.32-.41l-.39-.47c-2.07-2.72-4-5.4-5.76-8a49.16,49.16,0,0,1-4.34-7.91c-1.24-3.1-2.24-6.43-3.12-9.37l-.23-.76c-.24-.82-.49-1.64-.74-2.46l-.24-.77c-.23-.78-.47-1.55-.7-2.32-.55-1.86-.94-3.72-1.24-5.3-.4-3.66-.62-6.89-.67-9.86,0-2.22,0-4.19,0-6,0-1.56.23-3.16.38-4.58l.06-.54c.54-3.76,1.1-7.29,1.69-10.79.3-1.72.61-3.4,1-5.09a33.9,33.9,0,0,1,1.51-4.58c.56-1.29,1-2.29,1.49-3.22a49.75,49.75,0,0,1,4.45-7.26c2-2.41,3.9-4.55,5.81-6.56A5.27,5.27,0,0,0,128,46l0,0a5,5,0,0,0-1.37-4.43,5.1,5.1,0,0,0-3.6-1.46,4.85,4.85,0,0,0-3.52,1.46Z"/><path class="cls-1" d="M126,150.27a5.23,5.23,0,0,0-2.92,2.24l-1.76,2.55.5.41c.23.15.45.29.69.42a23.33,23.33,0,0,0,5.11,1.44c1.2.16,2.38.38,3.55.61l.35-.5a4.76,4.76,0,0,0,.49-3.76,4.94,4.94,0,0,0-2.24-2.92,4.89,4.89,0,0,0-2.47-.66,4.74,4.74,0,0,0-1.3.17Z"/><path class="cls-1" d="M119.92,247.89a103,103,0,0,1-7.35,9.86c-.17,5-.1,10,.05,15s.17,10.05.56,15.06l.1,1.34h0l.54-.06c1.77-.21,3.52-.43,5.28-.66l1.8-.29,1.68-.31,0-.6-.05-.6c-.27-3.75-.39-7.58-.49-11,0-1.23-.08-2.45-.13-3.68-.17-5.05-.15-10.15-.09-14.91,0-2.5.17-5,.41-7.79l.08-.73c.15-1.64.34-3.27.54-4.9-1,1.43-1.9,2.88-2.89,4.29Z"/><path class="cls-1" d="M118,300.09l-.15,0-1.39.16-1.06.13-1.18.12,0,.55q.18,1.76.42,3.51c.69,5,1.36,10,2.21,15s1.8,10.07,2.77,15.09c.48,2.47,1.19,4.87,1.91,7.28s1.31,4.56,2,6.81c1.55,4.76,3.25,9.47,5.2,14.09a1.47,1.47,0,0,0-.1-.22c.06.13.11.27.17.4,0-.06-.05-.13-.07-.18.88,2,1.83,4,2.85,6a31.51,31.51,0,0,0,3,4.81,17.58,17.58,0,0,0,2.13,2.5c2,1.75,4.82,2.78,7.44,1.84a6.19,6.19,0,0,0,2.52-1.45A8.81,8.81,0,0,0,148,375a10.26,10.26,0,0,0,.61-1.3,10.69,10.69,0,0,1,.69-1.18,11.81,11.81,0,0,0,1.39-3.67c1.16-4.72,1.81-9.56,3-14.29a73.17,73.17,0,0,0,1.57-15.42c0-.27,0-.54,0-.81a5.21,5.21,0,0,0-8.35-4.15v0a4.73,4.73,0,0,0-.53.46,5.37,5.37,0,0,0-1.52,3.67c-.09,1-.17,2-.25,3.1-.16,2-.32,4.07-.54,6.11l0,.16-.18,1.43c-.13.78-.3,1.55-.47,2.32-.08.39-.17.79-.25,1.19-.22,1.07-.42,2.15-.62,3.22l-.09.52-.23,1.22c-.13.69-.26,1.38-.4,2.08-.2,1-.4,2-.58,3.08l-.13.76L141,364c0,.11,0,.23-.07.34v0l-.52-.93-.33-.61c-.82-1.48-1.62-3.12-2.53-5.19-1.77-4.25-3.31-8.45-4.59-12.51q-1.17-3.74-2.3-7.47c-.65-2.15-1.22-4.44-1.74-7-1.07-5.21-2.08-10.43-3-15.53-.82-4.54-1.45-9.05-2.14-14-.06-.6-.13-1.2-.16-1.78-1.84.33-3.75.56-5.59.78Z"/><path class="cls-1" d="M128.7,362.66c-.1-.25-.21-.5-.31-.74.1.24.21.49.31.74Z"/><path class="cls-1" d="M128.91,363.13l0-.07,0,.07Z"/><path class="cls-1" d="M149,329.57a4.51,4.51,0,0,0-2,2.67,4.66,4.66,0,0,0-.08,1.94h0a4.36,4.36,0,0,0,3.21,3.56c2.55.56,5.1,1.08,7.65,1.66,1,.21,1.91.47,2.86.71a36.16,36.16,0,0,0,4.65.67c4.94.64,9.92,1.21,14.89,1.6,2.45.2,4.92.23,7.38.38s4.79.27,7.18.44a93.23,93.23,0,0,0,14,.38c.48,0,1-.08,1.42-.14.16-.12.34-.24.52-.35,1.25-.75,2.57-1.38,3.85-2.08s2.79-1.53,4.18-2.32c2.17-1.25,4.33-2.54,6.43-3.91a18.76,18.76,0,0,1,2.1-1.46,4.87,4.87,0,0,1,.64-.33,5.26,5.26,0,0,0-5.45-2.73l0,0-.43.1h0c-2.24.66-4.54,1.1-6.8,1.69-2,.53-4,1-6.07,1.39a52.57,52.57,0,0,1-6.4.18l0,0c-1.22,0-2.43-.08-3.66-.13-1.71-.08-3.41-.17-5.11-.28-2.1-.12-4.48-.26-6.77-.32l-2.6-.07h-.48l-2.87-.07c-1.33-.06-2.66-.16-4-.26-.8-.06-1.59-.13-2.39-.17-4.38-.27-7.92-.56-11.15-.91-.84-.16-1.68-.35-2.52-.55s-1.5-.33-2.25-.48q-3.12-.63-6.23-1.31a6,6,0,0,0-1.23-.14,4.39,4.39,0,0,0-2.22.59Z"/><path class="cls-1" d="M258.63,36.21a5.1,5.1,0,0,0-3.15,2.49v0a5.46,5.46,0,0,0-.49,3.89c.13.58.28,1.15.43,1.71l.14.44c0,.06,0,.13,0,.19a16.46,16.46,0,0,0,1.62,3.22l2.1,3.45c.23.37.45.75.67,1.12h0a49.78,49.78,0,0,1,2.3,4.44A71.61,71.61,0,0,1,266,72.44l0-.23,0,.24c.06.35.11.71.17,1.07l.24,1.87c.67,5.38,1.4,11.64,1.58,17.81.07,2.5.08,5.07.08,7.7v1.56c0,1.18,0,2.36,0,3.54-.06,1.41-.19,2.79-.31,3.83-.52,3.56-1.16,7.78-1.94,12l0,.23c-.37,2-.79,4.28-1.41,6.4-.48,1.64-1.08,3.37-1.84,5.27-.4.86-.86,1.7-1.3,2.52l-.06.09-.45.85-.4.75-.06.11c-.52,1-1,2-1.6,2.92a91.11,91.11,0,0,1-5.12,8c-.48.6-1,1.25-1.46,1.95-.22.34-.42.69-.62,1s-.26.47-.4.7l-.66.7c-.15.15-.32.29-.53.47s-.36.33-.53.51a7.45,7.45,0,0,0-1,1.31l0,0a5.49,5.49,0,0,0-.7,2.71,5.74,5.74,0,0,0,5.73,5.73,6,6,0,0,0,4.05-1.68,9.94,9.94,0,0,0,1-1.06,22.31,22.31,0,0,0,2.18-2.77c.5-.79.88-1.64,1.38-2.42s1.27-1.75,1.87-2.65c1.32-2,2.61-3.94,3.8-6,1.06-1.82,2-3.68,3-5.53a50.75,50.75,0,0,0,5.1-14.16c1-4.73,1.68-9.48,2.41-14.25a61.09,61.09,0,0,0,.84-8.31c.05-2.46,0-4.92,0-7.38s0-4.77-.1-7.15c-.07-2.56-.36-5.1-.59-7.65-.5-5.31-1.19-10.63-2.13-15.88-.43-2.42-.9-4.83-1.54-7.2a54.11,54.11,0,0,0-2.79-7.57,50.78,50.78,0,0,0-3-5.34c-1.1-1.85-2.39-3.61-3.4-5.5-.16-.56-.31-1.13-.44-1.7A5.25,5.25,0,0,0,260,36a5.07,5.07,0,0,0-1.33.18Zm-4.46,111.87-.2.26c.07-.09.13-.18.2-.26Z"/><path class="cls-1" d="M249.84,154.89a5.06,5.06,0,0,0-1.45.67l0,0a5,5,0,0,0-2,5.37c.56,2.14,1.15,4.26,1.74,6.39l.12.43c1.17,4.18,2.38,8.5,3.3,12.82.13.65.27,1.3.41,1.95l.14.65,0,.22c.48,2.22,1,4.51,1.38,6.79.47,2.74.86,5.56,1.21,8l.05.34c.26,2.06.56,4.4.81,6.78.3,2.87.44,5.74.53,8.18,0,1.18.1,2.36.17,3.54l0,.53c.07,1.21.14,2.41.19,3.62.07,2.05.09,4.14.11,6.22v1.93c0,1.51.08,3,.16,4.71l0,.57c0,.77.08,1.55.1,2.32.07,2.18.08,4.41.08,6.6v3.47c0,4.4.06,8.95-.1,13.42-.05,1.38-.09,2.76-.12,4.13v.16c-.12,4.34-.25,8.84-.73,13.23-.22,1.42-.52,2.86-.8,4.24l0,.13c-.17.8-.33,1.6-.49,2.4-.39,2.1-.75,4.2-1.11,6.31l-.22,1.26c-.79,4.58-1.74,9.37-3,15.07l-.34,1.51c-.43,2-.89,4-1.42,6s-1.17,4.33-1.88,6.76-1.64,5.22-2.44,7.56c-.68,2-1.39,4.1-2,6.17-1.67,5.45-3.15,10-5,14.49l-.75,1.71c-.73,1.68-1.47,3.36-2.18,5.06-.18.42-.37.84-.59,1.25a2,2,0,0,1-.1.21h0v0c-.21-.66-.42-1.32-.64-2-.59-1.76-1.15-3.54-1.71-5.31l-.27-.84c-.2-.65-.4-1.3-.61-1.95-.72-2.27-1.3-4.69-1.79-6.82l-.38-1.62c.62-.46,1.22-.94,1.8-1.41a5.44,5.44,0,0,0,1.41-2.42,5.48,5.48,0,0,0-3.83-6.74,5,5,0,0,0-1.36-.19,6.6,6.6,0,0,0-2.86.74,12.37,12.37,0,0,0-1.11.65h0l-.19.13-.16-.05h0a6,6,0,0,0-1.65-.22h-.15a13.09,13.09,0,0,0-1.36.14h0l.26,0,.12,0-.11,0h.11l-2.1.29c-1,.1-2,.16-3,.21h-.12a28.2,28.2,0,0,0-7.49,1.09c-.69.24-1.37.54-2.07.85-.27.12-.52.24-.79.34a6.93,6.93,0,0,0-1,.57h0a6.21,6.21,0,0,0-2.69,4.94,5.75,5.75,0,0,0,1.67,4.15,10.29,10.29,0,0,0,1.25,1,6.43,6.43,0,0,0,3.15.81,26.94,26.94,0,0,0,3,0c1.74,0,3.47-.17,5.2-.29,1-.06,2-.12,3-.22l.18.76c.46,2,1,3.89,1.55,5.82,1.16,3.78,2.48,7.53,3.8,11.26.77,2.18,1.51,4.38,2.47,6.49a7.77,7.77,0,0,0,1.42,2.16,7,7,0,0,0,3.2,2,7.23,7.23,0,0,0,3.94-.11c.84-.31,1.67-.67,2.48-1.06a15.83,15.83,0,0,0,5.69-5.37,31.33,31.33,0,0,0,3-6.12c1-2.38,2.16-4.73,3.13-7.14.87-2.15,1.72-4.33,2.48-6.53,1.6-4.69,2.87-9.48,4.47-14.17.78-2.26,1.54-4.51,2.23-6.81s1.26-4.58,1.9-6.87,1.16-4.82,1.7-7.24,1.08-5,1.59-7.55,1-5.09,1.48-7.65.89-5.19,1.37-7.77,1.11-5,1.45-7.49a74.11,74.11,0,0,0,.82-8.54c.11-5.32.36-10.64.38-16s0-10.45-.16-15.66-.45-10.36-.58-15.55c-.06-2.69-.18-5.36-.37-8-.16-2.45-.23-4.9-.43-7.35-.45-5.58-1.27-11.14-2.13-16.67-.39-2.5-.84-5-1.3-7.46s-1.15-4.95-1.7-7.42c-1.48-6.6-3.52-13.07-5.23-19.61a5,5,0,0,0-4.81-3.63,4.64,4.64,0,0,0-1.28.17ZM235.56,363.78l.06.09-.06-.09Z"/><path class="cls-1" d="M257.19,190.9a4.38,4.38,0,0,0-2,2.62,4.63,4.63,0,0,0,.44,3.38c.56,1.18,1.12,2.36,1.67,3.55s.79,2.46,1.14,3.71c.44,1.55.87,3.11,1.33,4.66.9,3.09,2,6.11,3.08,9.15a74.37,74.37,0,0,1,2.54,9.42c.29,1.42.57,2.85.89,4.26s.68,2.74.9,4.13c.12,1.22.24,2.44.32,3.67a20.49,20.49,0,0,1,.07,2.48,9.1,9.1,0,0,1-.39,1.22l-.51,1.2a4.68,4.68,0,0,0-4.76,2.24,4.76,4.76,0,0,0,1.68,6.42,10.06,10.06,0,0,0,2.41,1,8.82,8.82,0,0,0,3.86,0,5.62,5.62,0,0,0,4.24-3c.67-1.44,1-3,1.55-4.52,0,.11-.09.22-.13.32a13.15,13.15,0,0,0,1.19-4.84,45.53,45.53,0,0,0-.46-6.06,30,30,0,0,0-.7-4.12c-.26-1.06-.49-2.13-.75-3.19-.49-2.06-.87-4.15-1.37-6.21a66.24,66.24,0,0,0-2-6.89c-.76-2.15-1.53-4.31-2.27-6.47s-1.35-4.36-2-6.55c-.32-1.08-.6-2.17-.94-3.24a36.42,36.42,0,0,0-1.65-4c-.45-1-.9-1.93-1.36-2.89a4.27,4.27,0,0,0-2.62-2,4.56,4.56,0,0,0-1.16-.15,4.42,4.42,0,0,0-2.23.6Zm11.61,54.25.16.07-.16-.07Z"/><path class="cls-1" d="M126,151.38a90.14,90.14,0,0,0-6.74,8.25c-1.27,1.79-2.46,3.64-3.65,5.48-1.4,2.14-2.81,4.27-4.08,6.49a69.33,69.33,0,0,0-3.07,6.6c-1.13,2.64-2.2,5.29-3.26,8-.84,2-1.7,4-2.55,6l-.05.11c0,.09-.07.19-.11.28-2,4.83-3.64,9.79-5.31,14.74-.88,2.59-1.74,5.17-2.59,7.77s-1.47,5-2.13,7.5-1.26,4.8-1.79,7.22a77.2,77.2,0,0,0-1.23,8.55,62.65,62.65,0,0,0-.19,15,23.52,23.52,0,0,0,.66,3.56,20.27,20.27,0,0,0,1.27,3.09c1.38,2.91,4.08,5.47,7.44,5.57,2.93.09,5.16-1.83,7.23-3.64a23,23,0,0,0,3.87-4.8c.93-1.41,1.81-2.83,2.78-4.21s1.93-2.87,2.86-4.33c1.84-2.88,3.71-5.78,5.73-8.54.75-.93,1.51-1.85,2.27-2.78v0c1.42-1.72,2.92-3.58,4.35-5.47.72-.94,1.66-2.17,2.56-3.42l.6-.85.61-.84a13.22,13.22,0,0,0,1.42-2.78,5.7,5.7,0,0,0,0-2.9,5.58,5.58,0,0,0-2.51-3.26,5.19,5.19,0,0,0-2.68-.73,5.77,5.77,0,0,0-3.93,1.59,12.61,12.61,0,0,0-1.62,2l-.45.64-.87,1.2-.66.93c-.83,1.15-1.67,2.27-2.52,3.39L115.74,229c-1.39,1.69-2.82,3.45-4.14,5.24-1.17,1.59-2.28,3.28-3.34,4.91l-.07.11-1.27,1.93c-.42.63-.83,1.27-1.25,1.91l-.32.5c-.85,1.31-1.72,2.66-2.63,4-.59.85-1.15,1.74-1.73,2.66-.31.5-.62,1-.95,1.47l-.26.39v0l0,0,0-.11,0-.12a79.78,79.78,0,0,1,.5-16.24c.59-3.67,1.51-7.3,2.4-10.8l.38-1.5c1.06-4.22,2.47-8.5,3.72-12.27l.66-2,.72-2.24c1.22-3.71,2.47-7.55,4-11.23.31-.77.63-1.55,1-2.32l.14-.33c.58-1.37,1.17-2.78,1.72-4.19.83-2.17,1.65-4.28,2.52-6.39a65.19,65.19,0,0,1,4.08-8.21c.6-1,1.23-2,1.86-3l.17-.27.32-.48.16-.26c1.53-2.37,3.11-4.83,4.84-7.14,1.29-1.6,2.68-3.21,4.13-4.8h0a5,5,0,0,0-.07-6.88,5.06,5.06,0,0,0-3.56-1.42,4.52,4.52,0,0,0-3.39,1.42Z"/><path class="cls-1" d="M116.75,231.93a4.41,4.41,0,0,0-2.07,2.69c-.6,3.24-1.07,6.48-1.51,9.73l0-.14c-.4,2.91-.74,5.81-.9,8.75-.08,1.37-.06,2.73,0,4.09s0,2.52.12,3.77a4.79,4.79,0,0,0,2.3,4,4.64,4.64,0,0,0,5.62-.72,4.84,4.84,0,0,0,1.23-2.09,9.09,9.09,0,0,0,.19-2.09c0-.54,0-1.08,0-1.61,0-1.21,0-2.43,0-3.63,0-1.62.18-3.22.36-4.82l.06-.64.1-.91c.15-.93.3-1.92.53-2.89l.13-.58c.07-.31.14-.61.2-.92s.07-.37.1-.56a6.47,6.47,0,0,0,0-2.77,6,6,0,0,0-.38-.94c.13-.83.28-1.66.44-2.5l0,0,0-.12a4.82,4.82,0,0,0-.46-3.47,4.54,4.54,0,0,0-2.69-2.07,4.38,4.38,0,0,0-1.19-.16,4.62,4.62,0,0,0-2.29.61Z"/><path class="cls-1" d="M195.77,110.65c-1.14.1-2.26.23-3.42.4a8.91,8.91,0,0,0-1.5.38,7.81,7.81,0,0,0-3.86,3.13,13.85,13.85,0,0,0-1.45,2.88,8.24,8.24,0,0,0-.19,4.74,5.23,5.23,0,0,0,1.51,2.48,11.5,11.5,0,0,0,1.79,1.37,9.21,9.21,0,0,0,4.17,1.35,8.37,8.37,0,0,0,6.42-2.65,8.55,8.55,0,0,0,.76-.93v0a7.74,7.74,0,0,0,.28-8.46.92.92,0,0,0,0-.16A4.5,4.5,0,0,0,199,112a4.42,4.42,0,0,0-3-1.33Zm-1.3,9.51.05.35c0-.12,0-.23-.05-.35Z"/><path class="cls-1" d="M192.74,118.53l-1.13.47a4.91,4.91,0,0,0-1.69,1.7l-3,4h0l-1.62,2.11q-1.68,2.1-3.39,4.2l-.75.91-.74.9-.15.18-.15.17-.53.66c-.11.13-.22.26-.32.4a5.25,5.25,0,0,0-1.13,1.88l-.09.22a4.69,4.69,0,0,0,0,2.41,4.6,4.6,0,0,0,6.76,2.7,5.84,5.84,0,0,0,1.56-1.35l.25-.28c.4-.43.78-.88,1.21-1.37l.28-.32c.74-.85,1.44-1.73,2.15-2.61l.58-.73c.42-.51.83-1,1.24-1.54l.69-.84c1.79-2.3,3.55-4.62,5.32-6.94a4.53,4.53,0,0,0,.47-3.63,4.69,4.69,0,0,0-4.54-3.46,4.83,4.83,0,0,0-1.25.17Z"/><path class="cls-1" d="M193.56,119.3a4.88,4.88,0,0,0-2.91,2.24,4.69,4.69,0,0,0-.49,3.76c.8,2,1.61,4,2.46,6,.12.27.23.55.36.82v0a17,17,0,0,0,3,4.83,4.5,4.5,0,0,0,3.32,1.38,4.73,4.73,0,0,0,4.81-4.75l-.08-.63-.08-.63a4.76,4.76,0,0,0-1-1.9,25,25,0,0,1-1.47-2.93c-.51-1.22-1-2.43-1.49-3.67h0c-.15-.35-.29-.71-.43-1.07s-.33-.77-.5-1.16a4.74,4.74,0,0,0-1.75-1.75,4.86,4.86,0,0,0-2.46-.67,4.8,4.8,0,0,0-1.3.18Z"/><path class="cls-1" d="M210.41,66.83A4.15,4.15,0,0,0,209.22,70l.1,1.7,0,.41c.22,3.38.45,6.87.76,10.3.15,1.7.32,3.4.49,5.1.06.55.13,1.11.2,1.66l.05.4c.08.67.18,1.33.29,2l.1.6a7.44,7.44,0,0,0,.64,1.86l.19.43a4.55,4.55,0,0,0,2.86,2.2,5.16,5.16,0,0,0,1.25.16,4.63,4.63,0,0,0,3.4-1.4A5.88,5.88,0,0,0,221.06,93a14.81,14.81,0,0,0,.48-2.71l.07-.63a21.81,21.81,0,0,0,.13-2.87v-.63c0-1.33,0-2.65,0-4v-.8c0-.64,0-1.27,0-1.91V79c0-.53,0-1.06,0-1.59a34.23,34.23,0,0,0-.4-5.92,4.54,4.54,0,0,0-1.19-2,4.62,4.62,0,0,0-1.85-1.14,4.36,4.36,0,0,0-1.07-1.69A4.77,4.77,0,0,0,214,65.24a5,5,0,0,0-3.54,1.59Z"/><path class="cls-1" d="M163.18,69.26a4.45,4.45,0,0,0-1.3,3.29c.05,1.61.12,3.22.2,4.85,0,.36,0,.72,0,1.15,0,.8.06,1.63.15,2.44l.07.77c.09,1.09.2,2.19.33,3.28a17.36,17.36,0,0,0,1.24,5.17,7.11,7.11,0,0,0,1.39,2.06,14.71,14.71,0,0,0,1.89,1.57,5.78,5.78,0,0,0,1.19.6l.9.38.25.1a13.09,13.09,0,0,0,1.93.22h.2a4.7,4.7,0,0,0,2.62-.93l.68-.53.29-.22c.36-.46.72-.92,1.06-1.37l.25-.58.24-.57a3.71,3.71,0,0,0,.39-1.37,17,17,0,0,0,.26-2.71,9.65,9.65,0,0,0-.1-1.63l-.06-.51c-.07-.73-.17-1.46-.27-2.19l-.1-.71a58.52,58.52,0,0,0-1.65-7.8,4.75,4.75,0,0,0-4.18-3.42,4.77,4.77,0,0,0-4.39-2.88,4.93,4.93,0,0,0-3.52,1.54Zm9.49,16.85.23.3-.23-.3Z"/><path class="cls-1" d="M242,39.58c-1.4,2.54-2.81,5.08-4.2,7.62a4.68,4.68,0,0,0,1.66,6.36,4.7,4.7,0,0,0,6.37-1.67L248,48l.63-1.13,1.41-2.54a4.7,4.7,0,0,0-1.67-6.38A4.74,4.74,0,0,0,242,39.58Z"/><path class="cls-1" d="M135.47,34.44a4.65,4.65,0,0,0-2.12,2.77,5,5,0,0,0,.46,3.56l2.69,5.86a4.58,4.58,0,0,0,4,2.28,4.58,4.58,0,0,0,4.46-3.39,5,5,0,0,0-.46-3.56l-1.32-2.87-1.35-3A4.6,4.6,0,0,0,139,34a5,5,0,0,0-1.22-.15,4.69,4.69,0,0,0-2.35.62Z"/><path class="cls-1" d="M18.56,154.3a31.84,31.84,0,0,0-4.28,2.17c-1.11.59-2.2,1.23-3.26,1.9a48.65,48.65,0,0,0-4.72,3.36,17.48,17.48,0,0,0-3.37,4,18.76,18.76,0,0,0-2.41,6.47A16.59,16.59,0,0,0,.44,180a22.6,22.6,0,0,0,1.23,3.07,11.05,11.05,0,0,0,2,3.37,13,13,0,0,0,4,2.67c.72.33,1.43.69,2.14,1a11.45,11.45,0,0,0,3.34,1.17,20.14,20.14,0,0,0,3.46.19,43.43,43.43,0,0,0,5.21-.56,33.22,33.22,0,0,1,6-.39,15.67,15.67,0,0,1,2.11.57l.45.23a18.92,18.92,0,0,1,1.08,2.1c.56,1.38,1.09,2.78,1.54,4.21A48.43,48.43,0,0,1,34.18,203c.33,1.67.65,3.34,1,5,.44,2,1,3.88,1.4,5.83.77,3.52,1.44,7.08,2.12,10.63s1.29,7,1.86,10.55c.24,2.2.36,4.4.53,6.61.21,2.76.58,5.5,1,8.23.67,4.63,1.69,9.17,2.67,13.74.48,2.19,1,4.38,1.57,6.54a43.91,43.91,0,0,0,2.88,7.38c.91,2,1.73,4,2.8,5.85s2.14,3.53,3.24,5.28a123.62,123.62,0,0,0,8.44,11.77A23.09,23.09,0,0,0,67.76,304,39.92,39.92,0,0,0,71,306.48a23.79,23.79,0,0,0,4.38,1.93c2,.74,3.94,1.62,6,2.26a57.17,57.17,0,0,0,7,1.8c2.73.5,5.43,1,8.19,1.32a38,38,0,0,0,7.07.31c2.34-.17,4.68-.74,7-1.09,2-.3,3.9-.71,5.86-1l.5-.07a5.54,5.54,0,0,0-1.47-10.88c-.4,0-.81,0-1.21.06v0c-1.26.11-2.6.36-3.67.56l-.27,0c-.65.12-1.29.24-1.93.33-1.63.23-3.25.49-4.87.75-.65.06-1.31.09-2,.09a49.73,49.73,0,0,1-5.65-.41c-.91-.14-1.81-.3-2.8-.48l-.48-.09-1.06-.18c-1.8-.32-3.55-.76-5.33-1.22a39.72,39.72,0,0,1-4.63-1.5l-2.2-.82-1.7-.63A15.44,15.44,0,0,1,75.09,296l-.39-.3-.18-.14-.35-.27a20.94,20.94,0,0,1-1.93-1.68,15.13,15.13,0,0,1-1.08-1.23l-.15-.2-.12-.16c-1.23-1.62-2.49-3.29-3.69-5-.92-1.28-1.78-2.64-2.54-3.85-.35-.56-.71-1.12-1.07-1.68a54.45,54.45,0,0,1-3.1-5.25c-1-1.94-1.85-3.93-2.68-5.8A45.15,45.15,0,0,1,56.18,265c-.62-2.56-1.1-4.66-1.5-6.58-.15-.73-.32-1.47-.48-2.2l-.09-.38c-.28-1.28-.57-2.6-.81-3.91-.38-2.1-.72-4.2-1-6.4-.24-2-.4-4-.55-5.82a84.74,84.74,0,0,0-1.1-9.3c-.34-1.78-.65-3.57-1-5.36l-.12-.64-.07-.4c-.44-2.47-.89-5-1.4-7.51l-.56-2.82c-.25-1.34-.51-2.68-.8-4-.23-1.08-.5-2.14-.76-3.2l0-.14c-.3-1.2-.61-2.45-.86-3.69L44.72,201l0-.18c-.29-1.47-.59-3-.93-4.46a42.19,42.19,0,0,0-2.06-5.95l-.21-.51c-.48-1.18-.87-2.07-1.27-2.89a14.68,14.68,0,0,0-1.78-2.68,12.5,12.5,0,0,0-6.15-3.75,11,11,0,0,0-2.05-.47l-.15,0a25.22,25.22,0,0,0-3.21-.3h-.15a29.74,29.74,0,0,0-4.54.46l.22,0-.26,0-.08,0H22l-.28,0,.67-.07q-2.16.3-4.32.63a25.14,25.14,0,0,1-2.66.18H15l-.46-.13-1.13-.53-.12,0c-.7-.32-1.35-.61-2-1-.25-.46-.47-.94-.69-1.42-.12-.32-.22-.66-.32-1a11.27,11.27,0,0,1,0-1.16,23.07,23.07,0,0,1,.89-3.54,13.45,13.45,0,0,1,.87-1.53,14.23,14.23,0,0,1,1.51-1.5,57.7,57.7,0,0,1,8.3-4.89l.31-.08c.33,0,.67,0,1,0a34.59,34.59,0,0,1,4.18.32c1.35.25,2.37.46,3.31.7a22,22,0,0,1,2.5.82,60.16,60.16,0,0,1,8.78,5.28c1.37,1.14,2.52,2.16,3.61,3.18,1.37,1.3,2.61,2.66,3.73,3.94a31.75,31.75,0,0,1,2.82,4.2c.94,1.74,1.83,3.6,2.9,6,.69,1.75,1.25,3.39,1.71,5a40.68,40.68,0,0,1,1.12,5.5,142.77,142.77,0,0,1,1,14.64c0,2.84.13,5.68.21,8.51q.12,3.68.2,7.35l0,2.61c0,1.75.06,3.5.1,5.25V238c0,2.4.11,4.88.36,7.29.28,2.91.62,6,1.14,9.13a79.87,79.87,0,0,0,2,9.33A42.63,42.63,0,0,0,69,276.43l.29.41a41.51,41.51,0,0,0,3.92,4.93,46.33,46.33,0,0,0,3.65,3.48,22.18,22.18,0,0,0,4,2.63c1.49.76,3.1,1.4,4.66,2,1.72.68,3.54,1.19,5.33,1.7l.74.22a67.57,67.57,0,0,0,8.13,1.62c1.19.18,2.37.37,3.52.6a5.73,5.73,0,0,1,1.52-2.69,5.84,5.84,0,0,1,2.55-1.49l.76-.1.77-.11,3.22-.38,1.27-.15.54-.06c1.77-.21,3.52-.43,5.28-.66l1.8-.29.25-.05a5.08,5.08,0,0,0-1.36-2.47,4.84,4.84,0,0,0-3.59-1.49,40.86,40.86,0,0,1-9.11.26c-3.12-.6-6.27-1.16-9.4-1.73a45.5,45.5,0,0,1-4.85-1.27c-1.61-.48-3.21-1-4.78-1.65a25.5,25.5,0,0,1-3.75-2,37.62,37.62,0,0,1-4.48-4.62c-.61-.82-1.2-1.65-1.79-2.49a38.65,38.65,0,0,1-3.46-6.14,49.69,49.69,0,0,1-2.64-9.68c-.34-2.06-.66-4.14-1-6.21-.5-5.29-.69-10.58-.77-15.89s-.29-10.53-.41-15.8c0-2.47-.06-5-.21-7.42-.17-2.8-.38-5.59-.63-8.39-.14-1.45-.34-2.92-.57-4.37s-.37-2.68-.69-4a58.49,58.49,0,0,0-2.4-7.43,78.85,78.85,0,0,0-3.85-8.22,33,33,0,0,0-2-3,43.87,43.87,0,0,0-3-3.9A49.19,49.19,0,0,0,51,164.74c-1.29-1.06-2.56-2.11-3.92-3.06s-2.47-1.65-3.75-2.44a41.19,41.19,0,0,0-7.64-3.72,38.28,38.28,0,0,0-8.55-1.73,32,32,0,0,0-3.39-.23h-.37a14.49,14.49,0,0,0-4.78.75Z"/><path class="cls-2" d="M255.52,14.22h0c-.86.64-1.72,1.28-2.57,1.93a80,80,0,0,0-6.06,5.34,70.35,70.35,0,0,0-5,5.37,131.52,131.52,0,0,0-7.58,11.66,5.29,5.29,0,0,1-4.59,2.6,5.11,5.11,0,0,1-4-1.81c-4.75.13-9.73.22-15.22.28l-1.86,0h-.36c-1.57,0-3.2,0-4.79.08l-1.62.07h-.1c-1.12,0-2.27.11-3.39.11-.72,0-1.35,0-1.93-.07-.86-.05-1.72-.13-2.58-.21h-.16c-1.4-.13-2.86-.26-4.29-.3l-1.15,0c-1.79,0-3.6.11-5.35.22l-.93,0-1.59.09c-1.75.09-3.61.2-5.41.35s-3.62.38-5.79.67l-.53.07a26.34,26.34,0,0,0-5.5,1.18c-1.34.57-2.46,1-3.52,1.42l-.45.17a11.81,11.81,0,0,1-4.3,1.09l-.42,0a5.9,5.9,0,0,1-4-1.66,5.72,5.72,0,0,1-1.62-3.3,6.31,6.31,0,0,1-2.74-2.35c-1.45-2-2.89-3.91-4.35-5.87a66.64,66.64,0,0,0-4.44-5.24l-.48-.5c-1.34-1.4-2.73-2.85-4.24-4.15-.45-.3-.91-.59-1.37-.87l-.78-.48-.81-.52-2.12-1.37c0,1-.06,2-.07,2.94v1.6c0,3.39,0,6.22.19,9.12.15.88.33,1.74.5,2.6s.38,1.84.53,2.76a17.33,17.33,0,0,1,.11,7.08A5.09,5.09,0,0,1,128,46a5.27,5.27,0,0,1-1.35,2.64c-1.91,2-3.81,4.16-5.81,6.57a49.66,49.66,0,0,0-4.45,7.25c-.47.93-.93,1.93-1.5,3.22a34.76,34.76,0,0,0-1.5,4.58c-.42,1.69-.72,3.37-1,5.09-.61,3.49-1.16,7-1.7,10.79l0,.54c-.16,1.42-.34,3-.39,4.58-.06,1.82-.07,3.79,0,6,0,3,.26,6.2.66,9.87.3,1.57.69,3.43,1.24,5.29l.7,2.32.24.77c.25.82.5,1.64.74,2.46l.23.76c.88,2.94,1.88,6.27,3.12,9.37a50.51,50.51,0,0,0,4.34,7.92c1.75,2.57,3.69,5.25,5.76,8a16.14,16.14,0,0,0,1.92,2l.76.64.24.21.82.7c.65.59,1.28,1.25,1.84,1.83l.83.86a5.88,5.88,0,0,1,.13,8.1l-.78-.15c-1.46,1.59-2.85,3.2-4.14,4.8-1.73,2.31-3.31,4.77-4.84,7.14l-.16.26-.32.48-.17.28c-.63,1-1.26,1.95-1.87,2.95a66.46,66.46,0,0,0-4.07,8.21c-.87,2.11-1.69,4.22-2.52,6.39-.55,1.41-1.14,2.82-1.72,4.19l-.14.33c-.32.77-.65,1.55-1,2.32-1.5,3.68-2.75,7.52-4,11.23l-.73,2.24-.65,2c-1.25,3.77-2.67,8-3.73,12.26l-.37,1.5c-.89,3.5-1.81,7.13-2.4,10.8a79.78,79.78,0,0,0-.5,16.24l0,.12,0,.11c.44-.61.83-1.23,1.23-1.85.58-.93,1.14-1.82,1.73-2.67.9-1.3,1.78-2.65,2.63-4l.32-.5c.42-.64.83-1.28,1.25-1.91s.85-1.29,1.27-1.93l.07-.11c1.07-1.63,2.17-3.32,3.34-4.91,1.32-1.79,2.75-3.55,4.13-5.24.64-.78,1.27-1.56,1.9-2.35.85-1.12,1.69-2.24,2.52-3.39l.66-.93.87-1.2.45-.64a11.68,11.68,0,0,1,1.62-2,5.76,5.76,0,0,1,3.93-1.59,5.19,5.19,0,0,1,2.68.73,5.55,5.55,0,0,1,2.51,3.26,5.7,5.7,0,0,1,0,2.9,13.22,13.22,0,0,1-1.42,2.78l-.61.84-.6.84c-.9,1.26-1.84,2.49-2.56,3.43-1.43,1.89-2.94,3.75-4.35,5.48-.16.83-.3,1.66-.44,2.49a5.1,5.1,0,0,1,.37.94,6.31,6.31,0,0,1,0,2.77c0,.19-.06.37-.1.56s-.13.61-.2.92l-.13.58c-.23,1-.38,2-.52,2.89l-.11.91c-.24,2.74-.37,5.29-.41,7.79-.06,4.76-.09,9.86.09,14.91,0,1.23.09,2.45.13,3.68.1,3.4.22,7.23.49,11l.05.6,0,.6-1.68.31c-.64.11-1.22.21-1.8.29-1.76.23-3.51.45-5.28.66l-.54.06-1.27.15-3.22.39-.77.1-.76.1a5.88,5.88,0,0,0-2.55,1.49,5.73,5.73,0,0,0-1.52,2.69c-1.15-.23-2.33-.41-3.52-.6a67.57,67.57,0,0,1-8.13-1.62l-.74-.22c-1.79-.51-3.61-1-5.33-1.7a49.19,49.19,0,0,1-4.66-2,22.18,22.18,0,0,1-4-2.63,46.33,46.33,0,0,1-3.65-3.48,41.51,41.51,0,0,1-3.92-4.93l-.29-.42a42.46,42.46,0,0,1-6.18-12.69,79.44,79.44,0,0,1-2-9.33c-.52-3.11-.86-6.23-1.15-9.13-.24-2.41-.3-4.89-.35-7.3v-.41c-.05-1.75-.07-3.5-.1-5.25l0-2.61c-.05-2.45-.13-4.9-.2-7.35-.09-2.83-.17-5.67-.21-8.51a142.77,142.77,0,0,0-1-14.64,42.34,42.34,0,0,0-1.11-5.5c-.47-1.61-1-3.25-1.72-5-1.07-2.44-2-4.3-2.89-6a31.48,31.48,0,0,0-2.83-4.2c-1.12-1.27-2.36-2.64-3.73-3.94-1.09-1-2.24-2-3.61-3.18a59.63,59.63,0,0,0-8.78-5.28,21.34,21.34,0,0,0-2.5-.82c-.94-.24-2-.45-3.31-.7a34.59,34.59,0,0,0-4.18-.32c-.33,0-.67,0-1,0l-.31.08a58.26,58.26,0,0,0-8.3,4.89,14.23,14.23,0,0,0-1.51,1.5,13.45,13.45,0,0,0-.87,1.53,23.07,23.07,0,0,0-.89,3.54c0,.39,0,.78,0,1.16a9.94,9.94,0,0,0,.32,1c.22.48.44,1,.69,1.42.65.37,1.31.66,2,1l.12.06,1.13.53.46.13h.45a25.14,25.14,0,0,0,2.66-.18q2.16-.33,4.32-.63l-1.41.15,1.08-.12a30.11,30.11,0,0,1,4.65-.49h.15a25.22,25.22,0,0,1,3.21.3l.14,0a10.88,10.88,0,0,1,2.06.47,12.5,12.5,0,0,1,6.15,3.75A14.68,14.68,0,0,1,40.22,187c.4.82.79,1.71,1.27,2.89l.2.51a39.83,39.83,0,0,1,2.07,5.95c.34,1.48.64,3,.93,4.46l0,.18.32,1.64c.25,1.24.56,2.49.86,3.69l0,.13c.26,1.07.52,2.13.75,3.2.29,1.33.56,2.67.82,4,.19,1,.37,1.92.55,2.83.51,2.49,1,5,1.4,7.51l.07.41.12.63q.47,2.69,1,5.36a84.74,84.74,0,0,1,1.1,9.3c.15,1.82.31,3.84.55,5.83.31,2.19.65,4.29,1,6.39.24,1.31.53,2.63.81,3.9l.09.39c.16.73.33,1.47.48,2.2.4,1.93.88,4,1.5,6.58a45.15,45.15,0,0,0,1.63,5.48c.83,1.87,1.73,3.86,2.68,5.8a54.45,54.45,0,0,0,3.1,5.25c.36.56.72,1.12,1.07,1.68.76,1.21,1.62,2.57,2.54,3.85,1.2,1.67,2.47,3.34,3.69,4.95l.12.17.15.2a15.13,15.13,0,0,0,1.08,1.23,20.94,20.94,0,0,0,1.93,1.68l.35.27.18.14.39.3a15.44,15.44,0,0,0,2.55,1.56l1.7.63,2.2.82a39.72,39.72,0,0,0,4.63,1.5c1.78.46,3.53.9,5.33,1.22l1.06.18L93,302c1,.18,1.89.34,2.8.48a49.75,49.75,0,0,0,5.65.4c.71,0,1.37,0,2-.08,1.62-.26,3.24-.52,4.87-.75.64-.09,1.28-.21,1.93-.33l.27-.05c1.07-.2,2.4-.44,3.67-.55l0-.62,1.18-.12,1.06-.13,1.39-.17H118c1.84-.22,3.75-.44,5.59-.78,0,.58.1,1.18.16,1.78.69,5,1.32,9.5,2.15,14,.92,5.1,1.93,10.32,3,15.53.52,2.56,1.09,4.84,1.74,7,.75,2.49,1.51,5,2.3,7.47,1.28,4.05,2.83,8.26,4.59,12.51.91,2.07,1.71,3.71,2.53,5.19l.33.61.52.93.18-.86.14-.76c.18-1,.38-2.05.58-3.08.14-.69.27-1.38.4-2.08l.23-1.22.09-.52c.2-1.07.4-2.15.62-3.22.08-.4.16-.8.25-1.19.17-.77.34-1.54.46-2.32l.19-1.43,0-.16c.21-2,.38-4.11.53-6.11.09-1.09.17-2.09.25-3.1a5.46,5.46,0,0,1,1.52-3.67,6,6,0,0,1,.54-.46,4.66,4.66,0,0,1,.08-1.94,4.54,4.54,0,0,1,2-2.67,4.39,4.39,0,0,1,2.22-.59,6,6,0,0,1,1.23.14q3.1.67,6.23,1.31c.75.15,1.5.31,2.25.49s1.68.37,2.52.54c3.23.35,6.77.64,11.15.91l2.39.17c1.38.1,2.71.2,4,.26l2.87.07h.48l2.6.06c2.29.07,4.67.21,6.77.33,1.7.1,3.4.2,5.1.28,1.24.05,2.45.1,3.67.12a6.74,6.74,0,0,1,1-.56c.27-.1.53-.22.79-.34.7-.31,1.38-.61,2.07-.85a28.2,28.2,0,0,1,7.49-1.09H214c1-.05,2-.11,3-.21.71-.1,1.4-.21,2.1-.3H219l-.29,0a13.87,13.87,0,0,1,1.39-.15h.15a6,6,0,0,1,1.65.23l.44-.1a11,11,0,0,1,1.1-.65,6.64,6.64,0,0,1,2.86-.74,5,5,0,0,1,1.36.19,5.57,5.57,0,0,1,3.28,2.52,5.48,5.48,0,0,1-.86,6.64c-.58.47-1.18.95-1.79,1.41l.37,1.62c.5,2.13,1.06,4.55,1.79,6.82.21.65.41,1.3.62,1.95l.26.84c.56,1.77,1.12,3.54,1.71,5.31.21.66.43,1.32.64,2a14.09,14.09,0,0,0,.7-1.47c.71-1.7,1.45-3.38,2.19-5.06l.75-1.71c1.83-4.49,3.31-9,5-14.49.64-2.07,1.35-4.18,2-6.17.8-2.34,1.7-5,2.44-7.56s1.32-4.63,1.88-6.76,1-4.06,1.42-6l.34-1.51c1.26-5.7,2.21-10.49,3-15.07l.22-1.26c.35-2.11.71-4.21,1.11-6.31.15-.8.32-1.61.48-2.41l0-.12c.28-1.38.58-2.82.8-4.24.48-4.39.61-8.88.73-13.23v-.15q0-2.07.12-4.14c.16-4.47.13-9,.1-13.43V243.6c0-2.19,0-4.41-.08-6.6,0-.77-.06-1.55-.09-2.32l0-.58c-.08-1.68-.15-3.19-.16-4.7l0-1.93c0-2.08,0-4.17-.11-6.22-.05-1.21-.11-2.41-.18-3.62l0-.53c-.07-1.18-.13-2.36-.17-3.54-.09-2.43-.23-5.31-.53-8.19-.25-2.37-.55-4.71-.81-6.77l-.05-.34c-.35-2.48-.74-5.3-1.22-8-.39-2.28-.89-4.57-1.37-6.79l0-.22-.14-.65-.42-1.95c-.91-4.32-2.12-8.64-3.29-12.82l-.12-.44c-.59-2.12-1.18-4.24-1.74-6.38a5,5,0,0,1,2-5.37,7.45,7.45,0,0,1,1-1.31,5.24,5.24,0,0,1,.54-.51l.52-.47.66-.7c.14-.23.27-.46.4-.69s.4-.7.62-1c.47-.7,1-1.35,1.46-1.95a91.11,91.11,0,0,0,5.12-8c.56-1,1.08-1.94,1.6-2.92l.06-.11.4-.75.46-.85.05-.09c.44-.82.9-1.66,1.3-2.52.76-1.9,1.36-3.63,1.84-5.27.62-2.12,1-4.4,1.41-6.4l0-.22c.78-4.24,1.42-8.46,1.94-12,.12-1,.25-2.42.31-3.83,0-1.18,0-2.36,0-3.54V100.9c0-2.63,0-5.2-.08-7.7-.18-6.17-.91-12.43-1.58-17.81l-.25-1.87A74.31,74.31,0,0,0,262.3,57.2a48.45,48.45,0,0,0-2.3-4.44l-.8,1.06a3,3,0,0,0-.17-.53l-.16-.33c-.61-1.21-1.24-2.47-1.79-3.75a23,23,0,0,1-1.52-4.42c-.05-.14-.09-.29-.14-.44-.15-.56-.3-1.13-.43-1.7a5.53,5.53,0,0,1,.49-3.9l0-.62c.1-1.8.22-4,.22-6.19q0-6.51-.05-13c0-1.46-.07-3-.14-4.67l0,0Zm-115,34.7a4.65,4.65,0,0,1-4-2.29l-2.69-5.86a5,5,0,0,1-.46-3.56,4.61,4.61,0,0,1,4.47-3.4A5,5,0,0,1,139,34a4.55,4.55,0,0,1,2.76,2.13l1.36,3L144.48,42a5,5,0,0,1,.46,3.55,4.61,4.61,0,0,1-4.46,3.4ZM241.8,54.18a4.59,4.59,0,0,1-2.33-.62,4.68,4.68,0,0,1-1.66-6.36c1.39-2.54,2.8-5.08,4.2-7.62a4.58,4.58,0,0,1,4.05-2.28,4.62,4.62,0,0,1,4,7l-1.41,2.54L248,48l-2.18,3.93a4.58,4.58,0,0,1-4,2.29ZM216.17,96.79a4.71,4.71,0,0,1-1.25-.16,4.55,4.55,0,0,1-2.86-2.2l-.19-.43a7.06,7.06,0,0,1-.64-1.86l-.11-.61c-.11-.66-.2-1.31-.28-2l-.05-.4c-.07-.55-.14-1.11-.2-1.66-.17-1.7-.34-3.4-.49-5.1-.31-3.43-.54-6.92-.75-10.3l0-.41-.11-1.7a4.2,4.2,0,0,1,1.2-3.15A5,5,0,0,1,214,65.24a4.77,4.77,0,0,1,3.35,1.39,4.36,4.36,0,0,1,1.07,1.69,4.68,4.68,0,0,1,3,3.17,34.23,34.23,0,0,1,.4,5.92c0,.53,0,1.06,0,1.59v.48c0,.64,0,1.27,0,1.91v.8c0,1.33,0,2.65,0,4v.63a23.61,23.61,0,0,1-.12,2.87l-.07.63a15.73,15.73,0,0,1-.49,2.71,6.09,6.09,0,0,1-1.49,2.39,4.67,4.67,0,0,1-3.4,1.39Zm-44.51-1.64h-.2a14.59,14.59,0,0,1-1.93-.22l-.25-.11-.9-.37a6.32,6.32,0,0,1-1.19-.6,14.71,14.71,0,0,1-1.89-1.57,7.11,7.11,0,0,1-1.39-2.06A17.35,17.35,0,0,1,162.67,85c-.14-1.09-.24-2.18-.34-3.27l-.07-.77c-.08-.81-.11-1.64-.14-2.44,0-.43,0-.79,0-1.15-.08-1.63-.15-3.24-.21-4.85a4.5,4.5,0,0,1,1.31-3.29,4.93,4.93,0,0,1,3.52-1.54,4.77,4.77,0,0,1,4.39,2.88A4.75,4.75,0,0,1,175.27,74a58.52,58.52,0,0,1,1.65,7.8l.1.71c.1.73.21,1.46.27,2.19l.06.51a10.8,10.8,0,0,1,.11,1.63,18.08,18.08,0,0,1-.27,2.71,3.91,3.91,0,0,1-.39,1.37l-.25.57-.24.58c-.34.45-.7.91-1.06,1.37l-.29.22-.68.53a4.72,4.72,0,0,1-2.62.94Zm10.75,46.92a4.54,4.54,0,0,1-2.29-.61,4.61,4.61,0,0,1-2.1-2.72,4.73,4.73,0,0,1,0-2.42l.09-.22a5.36,5.36,0,0,1,1.12-1.88l.33-.4c.17-.23.35-.44.53-.65l.15-.18.15-.18.74-.91.75-.9q1.71-2.1,3.39-4.2l1.62-2.11a5.2,5.2,0,0,1-1.54-2.5,8.1,8.1,0,0,1,.2-4.75,13.36,13.36,0,0,1,1.44-2.88,7.81,7.81,0,0,1,3.86-3.13,8.91,8.91,0,0,1,1.5-.38c1.16-.17,2.28-.3,3.42-.4H196a4.42,4.42,0,0,1,3,1.33,4.52,4.52,0,0,1,1.32,3.19v.16a7.72,7.72,0,0,1-.29,8.46c.49,1.24,1,2.45,1.49,3.67a25,25,0,0,0,1.47,2.93,4.76,4.76,0,0,1,1,1.9l.08.63.08.63a4.73,4.73,0,0,1-4.81,4.75,4.5,4.5,0,0,1-3.32-1.38,17,17,0,0,1-3-4.83l-.94,1.15c-.41.51-.82,1-1.24,1.54l-.58.73c-.71.88-1.41,1.76-2.15,2.61l-.28.32c-.43.49-.82.94-1.21,1.37l-.25.28a5.69,5.69,0,0,1-1.56,1.35,4.6,4.6,0,0,1-2.37.64Z"/><path class="cls-1" d="M259.7,0a9.67,9.67,0,0,0-4.85,1.67,55,55,0,0,0-5.07,3.5c-2.25,1.71-4.49,3.41-6.63,5.27a70.69,70.69,0,0,0-9.69,10,114.86,114.86,0,0,0-8.32,12.72,5.3,5.3,0,0,0,9.15,5.34,131.26,131.26,0,0,1,7.58-11.65,69.14,69.14,0,0,1,5-5.38c1.91-1.89,4-3.64,6-5.34l2.57-1.92c.08,1.55.13,3.11.14,4.67,0,4.34.05,8.69.06,13,0,2.07-.11,4.13-.22,6.19a40.45,40.45,0,0,0-.19,5,18.15,18.15,0,0,0,1.76,6c.59,1.39,1.27,2.73,1.95,4.08l.2.53c.56-.79,1.12-1.57,1.69-2.35Q264,47.21,267.2,43c-.1-.3-.19-.6-.27-.91,0-.72,0-1.44.05-2.16,0-1.22.1-2.44.17-3.66.12-2.52.1-5.05.1-7.58,0-4.78.15-9.6-.14-14.37a56.45,56.45,0,0,0-1-8.51A10.88,10.88,0,0,0,265,3a6.12,6.12,0,0,0-5.18-3Z"/><path class="cls-1" d="M217.5,339.36l1.17-.67c1.84-1.05,3.67-2.14,5.47-3.28a5.66,5.66,0,0,0-6.64,3.95Z"/><path class="cls-1" d="M186.19,28.25c-2.46,0-4.93.21-7.39.32s-5.12.31-7.68.59c-2.87.31-5.74.59-8.6,1A15.24,15.24,0,0,0,159,31.25l.08,0c-.9.36-1.8.69-2.71,1A25.34,25.34,0,0,1,153,33.39a5.7,5.7,0,0,0-2.51,9.52,5.94,5.94,0,0,0,4,1.67,12.14,12.14,0,0,0,5.18-1.24c1.18-.45,2.35-.93,3.51-1.42a28.82,28.82,0,0,1,6-1.25c1.92-.26,3.85-.5,5.78-.67,2.33-.2,4.66-.31,7-.44s4.94-.32,7.43-.25,4.68.36,7,.53a66.21,66.21,0,0,0,7-.13c2.33-.09,4.67-.07,7-.1,5.33-.06,10.67-.15,16-.31a5.3,5.3,0,0,0,0-10.59c-5.74.17-11.48.23-17.22.23-2.44,0-4.89-.07-7.33,0a45.11,45.11,0,0,1-7.53-.23,63.21,63.21,0,0,0-7.77-.5Z"/><path class="cls-1" d="M120.64,3.92a6.6,6.6,0,0,0-2.5,2.42A15,15,0,0,0,117,9.73a54.77,54.77,0,0,0-.89,10.47c0,3.28,0,6.56.1,9.84a48.27,48.27,0,0,0,.78,6.22c.22,1.29.55,2.56.77,3.84,0,.31,0,.61,0,.91,0,.62-.1,1.23-.1,1.85a5.63,5.63,0,0,0,11,1.5,17.64,17.64,0,0,0-.1-7.09c-.3-1.8-.73-3.56-1-5.35-.23-3-.21-6.08-.19-9.13,0-1.5,0-3,.06-4.52,1,.64,2,1.26,2.93,1.88.72.46,1.45.88,2.15,1.36,1.67,1.44,3.19,3,4.72,4.64s3,3.45,4.44,5.25q2.17,2.93,4.34,5.86a5.86,5.86,0,0,0,3.27,2.51A5.46,5.46,0,0,0,156.07,36a5.22,5.22,0,0,0-.55-4.21c-2.34-3.17-4.69-6.35-7.12-9.45A76.69,76.69,0,0,0,142.74,16a32.86,32.86,0,0,0-3.05-2.85c-1.25-1-2.54-1.82-3.87-2.69C133.9,9.22,132,8,130.16,6.6c-1.54-1.26-3-2.76-5-3.27a5.74,5.74,0,0,0-1.46-.19,7.09,7.09,0,0,0-3.07.78Z"/><path class="cls-1" d="M119.55,41.57c-2.13,2.22-4.13,4.51-6.09,6.87A50.77,50.77,0,0,0,106.38,60c-.64,1.4-1.34,2.81-1.86,4.26-.42,1.2-.82,2.41-1.15,3.64-.63,2.29-1,4.63-1.43,7-.49,2.84-1,5.68-1.39,8.53a85.5,85.5,0,0,0-1,8.59,113.21,113.21,0,0,0,.52,16.26,48.61,48.61,0,0,0,1.81,8.44c.7,2.43,1.43,4.86,2.12,7.3a74.15,74.15,0,0,0,5.16,13.67,85.85,85.85,0,0,0,7,10.88c1,1.35,1.92,2.71,3,4a20.28,20.28,0,0,0,2.54,2.62c.28.24.55.5.81.76a23,23,0,0,0,5.09,1.43c2.08.29,4.11.74,6.17,1.09a5.9,5.9,0,0,0-.12-8.12c-.89-.9-1.73-1.85-2.68-2.69-.59-.53-1.21-1-1.81-1.55a14.78,14.78,0,0,1-1.92-2q-3-3.92-5.76-8a49.38,49.38,0,0,1-4.34-7.91c-1.32-3.32-2.32-6.72-3.35-10.14-.55-1.85-1.13-3.69-1.68-5.55s-.89-3.5-1.24-5.28c-.36-3.28-.61-6.57-.66-9.86,0-2,0-4,0-6,0-1.71.26-3.42.45-5.12q.76-5.4,1.69-10.79c.3-1.71.6-3.4,1-5.08a36.1,36.1,0,0,1,1.51-4.58c.48-1.08,1-2.16,1.5-3.22a50.32,50.32,0,0,1,4.45-7.25c1.87-2.25,3.78-4.44,5.8-6.56a5,5,0,0,0-3.6-8.58,4.81,4.81,0,0,0-3.51,1.46Zm8,102.78.43.56-.43-.56Z"/><path class="cls-1" d="M126,150.27a5.23,5.23,0,0,0-2.92,2.24l-1.76,2.55.5.41c.23.15.45.29.69.42a23.33,23.33,0,0,0,5.11,1.44c1.2.16,2.38.38,3.55.61l.35-.5a4.76,4.76,0,0,0,.49-3.76,4.94,4.94,0,0,0-2.24-2.92,4.89,4.89,0,0,0-2.47-.66,4.74,4.74,0,0,0-1.3.17Z"/><path class="cls-1" d="M119.92,247.89a101.34,101.34,0,0,1-7.35,9.86c-.17,5-.1,10,.05,15s.17,10.05.56,15.06c.43,5.61.72,11.23,1.49,16.81.69,5,1.36,10,2.21,15s1.8,10.07,2.77,15.08c.48,2.48,1.19,4.88,1.91,7.29s1.31,4.56,2,6.81c1.54,4.76,3.25,9.47,5.2,14.08l-.1-.21c.06.13.12.26.17.4,0-.06-.05-.12-.07-.19.88,2,1.83,4,2.85,6a31.51,31.51,0,0,0,3,4.81,17.58,17.58,0,0,0,2.13,2.5c2,1.75,4.82,2.78,7.44,1.84a6.31,6.31,0,0,0,2.52-1.45A9.18,9.18,0,0,0,148,375a10.26,10.26,0,0,0,.61-1.3,9.84,9.84,0,0,1,.69-1.18,11.81,11.81,0,0,0,1.39-3.67c1.16-4.73,1.81-9.57,3-14.29a73.3,73.3,0,0,0,1.57-15.42c0-.27,0-.54,0-.81a5.2,5.2,0,0,0-8.89-3.68,5.51,5.51,0,0,0-1.53,3.68c-.26,3.07-.45,6.14-.79,9.2l-.21,1.6c-.19,1.17-.47,2.33-.71,3.5-.33,1.65-.63,3.31-.94,5s-.68,3.43-1,5.16c-.1.54-.19,1.08-.29,1.61-.28-.51-.56-1-.85-1.54-.93-1.69-1.75-3.43-2.52-5.19-1.7-4.1-3.26-8.29-4.59-12.51-.79-2.49-1.55-5-2.3-7.47-.7-2.31-1.26-4.62-1.74-7q-1.6-7.76-3-15.53c-.85-4.65-1.5-9.35-2.15-14.05s-.9-9.66-1.25-14.5-.44-9.76-.62-14.65-.15-9.94-.08-14.91a120.44,120.44,0,0,1,1-13.42c-1,1.43-1.9,2.88-2.89,4.29Z"/><path class="cls-1" d="M128.7,362.66c-.1-.25-.21-.5-.31-.74.1.24.21.49.31.74Z"/><path class="cls-1" d="M128.91,363.13l0-.07,0,.07Z"/><path class="cls-1" d="M149,329.55a4.48,4.48,0,0,0,1.07,8.2c2.55.56,5.1,1.08,7.65,1.66,1,.21,1.91.47,2.86.71a36.16,36.16,0,0,0,4.65.67c4.94.64,9.92,1.21,14.89,1.6,2.46.2,4.92.23,7.38.38s4.79.27,7.18.44a94.71,94.71,0,0,0,14,.38c.47,0,.94-.08,1.41-.14.16-.12.34-.24.52-.35,1.25-.75,2.57-1.38,3.85-2.08s2.79-1.53,4.18-2.33c2.18-1.24,4.33-2.53,6.43-3.9a19.73,19.73,0,0,1,2.1-1.46,4.31,4.31,0,0,1,.64-.33,5.23,5.23,0,0,0-6-2.61c-2.25.66-4.55,1.1-6.81,1.69-2,.52-4,1-6.07,1.39a72.29,72.29,0,0,1-10.09,0c-4-.17-7.91-.48-11.87-.6-2-.06-4-.07-6-.15-2.15-.08-4.29-.29-6.43-.42-3.72-.23-7.44-.51-11.15-.91-1.59-.31-3.17-.72-4.77-1-2.08-.42-4.15-.86-6.23-1.31a5.73,5.73,0,0,0-1.23-.14,4.32,4.32,0,0,0-2.22.59Z"/><path class="cls-1" d="M258.63,36.21A5.31,5.31,0,0,0,255,42.65c.13.58.28,1.14.44,1.71a15.23,15.23,0,0,0,1.8,3.83c.71,1.16,1.41,2.3,2.11,3.46a52.82,52.82,0,0,1,3,5.56,75.23,75.23,0,0,1,3.87,16.31c.08.63.17,1.25.25,1.87.74,5.92,1.41,11.85,1.58,17.81.08,2.81.07,5.62.08,8.43,0,1.45,0,2.91,0,4.36,0,1.29-.16,2.56-.3,3.84-.59,4-1.2,8-1.94,12a67.26,67.26,0,0,1-1.45,6.62c-.52,1.78-1.15,3.55-1.84,5.28-.55,1.17-1.19,2.3-1.81,3.45s-1.34,2.53-2.05,3.78a91.19,91.19,0,0,1-5.13,7.95c-.5.63-1,1.27-1.46,2s-.67,1.16-1,1.73q-.32.35-.66.69c-.34.34-.73.63-1.05,1a5.88,5.88,0,0,0-1.68,4.06,5.74,5.74,0,0,0,5.73,5.73,6,6,0,0,0,4.05-1.68,11.08,11.08,0,0,0,1-1.06,23.3,23.3,0,0,0,2.18-2.77c.5-.79.87-1.64,1.38-2.42s1.27-1.75,1.87-2.65c1.32-2,2.61-3.94,3.8-6,1.05-1.82,2-3.68,3-5.53a50.75,50.75,0,0,0,5.1-14.16c.94-4.74,1.67-9.49,2.41-14.25a62.72,62.72,0,0,0,.84-8.31c.05-2.46,0-4.92,0-7.38s0-4.77-.1-7.15c-.07-2.56-.36-5.11-.59-7.65-.5-5.32-1.19-10.63-2.13-15.89-.43-2.41-.9-4.82-1.54-7.19a54.11,54.11,0,0,0-2.79-7.57,49.79,49.79,0,0,0-3-5.34c-1.1-1.85-2.39-3.6-3.4-5.5-.16-.56-.31-1.13-.44-1.7A5.25,5.25,0,0,0,260,36a5,5,0,0,0-1.33.18Zm7.35,36c0,.25.06.49.1.74,0-.24-.07-.49-.1-.74Zm.51,3.86.06.46-.06-.46Zm-12.32,72c-.07.08-.13.17-.2.26.07-.09.13-.18.2-.26Z"/><path class="cls-1" d="M249.84,154.89a5,5,0,0,0-3.46,6.09c1.71,6.55,3.75,13,5.15,19.64.68,3.2,1.42,6.37,2,9.6.49,2.78.88,5.58,1.26,8.38.3,2.25.58,4.51.82,6.77.28,2.73.42,5.45.53,8.19.09,2.56.27,5.12.37,7.68.11,2.72.1,5.44.13,8.16,0,2.53.2,5.07.28,7.6s.08,5.06.09,7.59c0,5.3.1,10.61-.09,15.9-.21,5.84-.22,11.71-.86,17.52-.36,2.27-.88,4.51-1.31,6.77-.47,2.52-.9,5-1.33,7.57-.86,5-1.89,10.06-3,15.06-.57,2.52-1.1,5-1.76,7.55-.6,2.26-1.22,4.52-1.87,6.76-1.34,4.63-3.07,9.12-4.48,13.73-1.49,4.89-3,9.75-5,14.49-1,2.25-2,4.5-2.94,6.77-.21.5-.43,1-.67,1.47-.21-.66-.42-1.32-.64-2-.89-2.69-1.72-5.4-2.58-8.1s-1.49-5.59-2.17-8.42c.61-.45,1.21-.93,1.8-1.41a5.5,5.5,0,0,0,1.41-2.42,5.5,5.5,0,0,0-3.84-6.77,5.81,5.81,0,0,0-4.24.56,10,10,0,0,0-1.33.8,5.91,5.91,0,0,0-2-.28,18.09,18.09,0,0,0-2,.26l1-.13-2.1.3c-3.52.35-7.24.17-10.6,1.32-1,.32-1.91.78-2.85,1.19a6.21,6.21,0,0,0-3.73,5.52,5.75,5.75,0,0,0,1.67,4.15,10.29,10.29,0,0,0,1.25,1,6.43,6.43,0,0,0,3.15.81,26.94,26.94,0,0,0,3,0c1.74,0,3.47-.17,5.2-.29,1-.06,2-.12,3-.22l.18.76c.46,2,1,3.89,1.55,5.81,1.16,3.79,2.48,7.54,3.8,11.27.77,2.18,1.51,4.38,2.47,6.49a7.77,7.77,0,0,0,1.42,2.16,7,7,0,0,0,3.2,2,7.32,7.32,0,0,0,3.94-.11c.84-.31,1.67-.67,2.48-1.06a15.77,15.77,0,0,0,5.69-5.38,31,31,0,0,0,3-6.11c1-2.38,2.15-4.73,3.13-7.14.87-2.16,1.72-4.33,2.48-6.53,1.6-4.69,2.87-9.49,4.47-14.17.78-2.26,1.54-4.51,2.23-6.81s1.26-4.58,1.9-6.87,1.16-4.82,1.7-7.24,1.08-5,1.59-7.55,1-5.09,1.48-7.65.89-5.19,1.37-7.77,1.11-5,1.45-7.5a73.93,73.93,0,0,0,.82-8.53c.11-5.33.36-10.65.38-16s0-10.44-.16-15.65-.45-10.37-.58-15.55q-.09-4-.37-8c-.16-2.45-.23-4.9-.43-7.35-.45-5.59-1.27-11.14-2.13-16.68-.39-2.49-.84-5-1.3-7.45s-1.15-4.95-1.7-7.42c-1.48-6.61-3.52-13.07-5.23-19.61a5,5,0,0,0-4.81-3.63,4.64,4.64,0,0,0-1.28.17ZM235.56,363.78l.06.09-.06-.09Z"/><path class="cls-1" d="M257.19,190.9a4.38,4.38,0,0,0-2,2.62,4.63,4.63,0,0,0,.44,3.38c.56,1.18,1.12,2.36,1.67,3.55s.79,2.46,1.14,3.71c.44,1.55.87,3.11,1.33,4.66.9,3.09,2,6.11,3.08,9.15a74.37,74.37,0,0,1,2.54,9.42c.29,1.42.57,2.85.89,4.26s.68,2.74.9,4.13c.12,1.22.24,2.44.32,3.67a20.49,20.49,0,0,1,.07,2.48,9.1,9.1,0,0,1-.39,1.22l-.51,1.2a4.68,4.68,0,0,0-4.76,2.24,4.76,4.76,0,0,0,1.68,6.42,10.06,10.06,0,0,0,2.41,1,8.82,8.82,0,0,0,3.86,0,5.62,5.62,0,0,0,4.24-3c.67-1.44,1-3,1.55-4.52,0,.11-.09.22-.13.32a13.15,13.15,0,0,0,1.19-4.84,45.53,45.53,0,0,0-.46-6.06,30,30,0,0,0-.7-4.12c-.26-1.06-.49-2.13-.75-3.19-.49-2.06-.87-4.15-1.37-6.21a66.24,66.24,0,0,0-2-6.89c-.76-2.15-1.53-4.31-2.27-6.47s-1.35-4.36-2-6.55c-.32-1.08-.6-2.17-.94-3.24a36.42,36.42,0,0,0-1.65-4c-.45-1-.9-1.93-1.36-2.89a4.27,4.27,0,0,0-2.62-2,4.56,4.56,0,0,0-1.16-.15,4.42,4.42,0,0,0-2.23.6Zm11.61,54.25.16.07-.16-.07Z"/><path class="cls-1" d="M126,151.38a91.72,91.72,0,0,0-6.73,8.25c-1.27,1.79-2.46,3.64-3.65,5.48-1.4,2.14-2.81,4.27-4.08,6.49a67,67,0,0,0-3.07,6.6c-1.13,2.64-2.2,5.29-3.26,8-.85,2-1.72,4-2.57,6,.06-.16.13-.31.19-.47-.07.17-.14.35-.22.52s-.19.46-.29.69c.1-.22.19-.45.29-.68-2,4.92-3.72,10-5.43,15-.87,2.58-1.73,5.16-2.58,7.76s-1.48,5-2.13,7.5-1.26,4.8-1.79,7.22a74.9,74.9,0,0,0-1.23,8.55,63.18,63.18,0,0,0-.2,15,24.82,24.82,0,0,0,.66,3.56,20.32,20.32,0,0,0,1.28,3.09c1.38,2.92,4.08,5.47,7.44,5.57,2.93.09,5.16-1.83,7.23-3.64a23.28,23.28,0,0,0,3.87-4.8c.93-1.41,1.81-2.83,2.78-4.21s1.93-2.87,2.86-4.33c1.84-2.88,3.71-5.78,5.73-8.54,2.23-2.75,4.49-5.46,6.64-8.27.87-1.13,1.72-2.27,2.55-3.44l1.21-1.68a12.56,12.56,0,0,0,1.42-2.78,5.5,5.5,0,0,0-2.51-6.19,5.58,5.58,0,0,0-6.64.86,17.94,17.94,0,0,0-2.07,2.65c-.52.71-1,1.42-1.53,2.13-.82,1.14-1.66,2.27-2.51,3.39-2,2.52-4.12,5-6,7.59-1.65,2.24-3.13,4.62-4.67,6.95-1.42,2.12-2.75,4.28-4.21,6.37-1,1.48-1.93,3-2.92,4.53a1.85,1.85,0,0,0,0-.23,79.38,79.38,0,0,1,.5-16.23c.67-4.15,1.75-8.22,2.77-12.3,1.21-4.82,2.83-9.52,4.38-14.24,1.48-4.51,2.91-9.07,4.69-13.47.93-2.28,1.94-4.54,2.83-6.85.82-2.13,1.64-4.26,2.52-6.38a64.6,64.6,0,0,1,4.07-8.21c.76-1.25,1.56-2.48,2.35-3.71,1.62-2.5,3.22-5,5-7.39,1.31-1.63,2.67-3.2,4.07-4.74a5,5,0,0,0,0-7,5.06,5.06,0,0,0-3.56-1.42,4.56,4.56,0,0,0-3.4,1.42Z"/><path class="cls-1" d="M116.75,231.93a4.41,4.41,0,0,0-2.07,2.69c-.63,3.43-1.13,6.87-1.59,10.33,0-.25.07-.49.1-.74-.4,2.92-.74,5.81-.9,8.75-.08,1.37-.06,2.73,0,4.09s0,2.52.12,3.77a4.79,4.79,0,0,0,2.3,4,4.63,4.63,0,0,0,5.62-.73,4.75,4.75,0,0,0,1.23-2.08,9.12,9.12,0,0,0,.19-2.1c0-.53,0-1.07,0-1.6,0-1.22,0-2.43,0-3.63.06-2.14.29-4.25.55-6.37.14-1,.3-1.93.51-2.88.11-.5.25-1,.34-1.51,0-.19.07-.37.1-.56a6.36,6.36,0,0,0,0-2.78,4.75,4.75,0,0,0-.37-.93c.15-.88.3-1.76.46-2.64a4.76,4.76,0,0,0-.45-3.47,4.54,4.54,0,0,0-2.69-2.07,4.38,4.38,0,0,0-1.19-.16,4.62,4.62,0,0,0-2.29.61Z"/><path class="cls-1" d="M195.77,110.63c-1.14.1-2.28.23-3.42.4a7.69,7.69,0,0,0-1.5.39,7.77,7.77,0,0,0-3.88,3.13,13.61,13.61,0,0,0-1.44,2.88,8.14,8.14,0,0,0-.2,4.76c.4,1.71,1.92,2.94,3.32,3.84a9.21,9.21,0,0,0,4.17,1.35,8.34,8.34,0,0,0,6.42-2.65,7.82,7.82,0,0,0,2.17-5,7.67,7.67,0,0,0-1.11-4.47v-.15A4.55,4.55,0,0,0,199,112a4.49,4.49,0,0,0-3-1.33Zm-1.3,9.53c0,.12,0,.24.05.35,0-.11,0-.23-.05-.35Z"/><path class="cls-1" d="M192.74,118.53l-1.13.47a4.88,4.88,0,0,0-1.69,1.69q-2.31,3.06-4.67,6.09c-1.12,1.4-2.25,2.81-3.39,4.2-.49.61-1,1.21-1.49,1.82-.28.33-.56.66-.83,1-.11.13-.22.26-.32.4a5.79,5.79,0,0,0-1.22,2.11,4.77,4.77,0,0,0,0,2.43,4.56,4.56,0,0,0,2.11,2.73,4.66,4.66,0,0,0,4.68,0,6.86,6.86,0,0,0,1.81-1.64c.51-.55,1-1.12,1.49-1.69.95-1.09,1.84-2.22,2.74-3.34,2.47-3.06,4.85-6.2,7.23-9.33a4.53,4.53,0,0,0,.47-3.63,4.69,4.69,0,0,0-4.54-3.46,4.83,4.83,0,0,0-1.25.17Z"/><path class="cls-1" d="M193.56,119.3a4.84,4.84,0,0,0-2.91,2.24,4.69,4.69,0,0,0-.49,3.76c.8,2,1.61,4,2.46,6a18.55,18.55,0,0,0,3.37,5.65,4.79,4.79,0,0,0,8.17-3.39c0-.42-.11-.85-.16-1.27a4.84,4.84,0,0,0-1-1.9,26.65,26.65,0,0,1-1.46-2.93q-1-2.37-1.93-4.74c-.17-.38-.33-.77-.5-1.16a4.84,4.84,0,0,0-4.22-2.42,4.78,4.78,0,0,0-1.29.18Z"/><path class="cls-1" d="M209.19,70c.27,4.14.51,8.29.88,12.42.16,1.7.32,3.4.5,5.1.07.69.16,1.38.25,2.06s.17,1.32.28,2c0,.2.07.41.1.61a10.08,10.08,0,0,0,.84,2.3,4.56,4.56,0,0,0,2.87,2.2,4.82,4.82,0,0,0,4.67-1.23,5.89,5.89,0,0,0,1.49-2.4,18.65,18.65,0,0,0,.57-3.34,29.25,29.25,0,0,0,.13-3.5c0-1.6,0-3.19,0-4.78,0-1.33,0-2.66.05-4a34.64,34.64,0,0,0-.4-5.93,4.69,4.69,0,0,0-1.19-2,4.61,4.61,0,0,0-1.85-1.13,4.51,4.51,0,0,0-1.08-1.7A4.76,4.76,0,0,0,209.19,70Z"/><path class="cls-1" d="M161.85,72.55c.06,1.61.13,3.22.21,4.84.06,1.19.07,2.41.18,3.6.13,1.35.24,2.7.41,4a17.29,17.29,0,0,0,1.24,5.18,7.31,7.31,0,0,0,1.39,2.07,15.92,15.92,0,0,0,1.9,1.58,7,7,0,0,0,1.19.6l1.16.48a13.91,13.91,0,0,0,1.93.22,4.69,4.69,0,0,0,2.84-.93l1-.76,1.06-1.38.48-1.15a3.67,3.67,0,0,0,.4-1.37,17.52,17.52,0,0,0,.27-2.71,15.31,15.31,0,0,0-.17-2.14c-.08-1-.23-1.94-.36-2.9A60.92,60.92,0,0,0,175.29,74a4.74,4.74,0,0,0-4.19-3.42,4.79,4.79,0,0,0-4.39-2.9,4.89,4.89,0,0,0-4.86,4.86Zm10.82,13.56.23.3a3.4,3.4,0,0,1-.23-.3Z"/><path class="cls-1" d="M242,39.57q-2.12,3.81-4.21,7.62a4.67,4.67,0,1,0,8.07,4.71l4.22-7.6a4.75,4.75,0,0,0-1.68-6.4,4.66,4.66,0,0,0-2.34-.62A4.61,4.61,0,0,0,242,39.57Z"/><path class="cls-1" d="M135.47,34.43a4.65,4.65,0,0,0-2.14,2.77,5,5,0,0,0,.47,3.58l2.68,5.86a4.46,4.46,0,0,0,2.78,2.13,4.64,4.64,0,0,0,5.7-3.24,4.93,4.93,0,0,0-.47-3.57l-2.67-5.87A4.44,4.44,0,0,0,139.05,34a4.74,4.74,0,0,0-1.23-.17,4.64,4.64,0,0,0-2.35.64Z"/><path class="cls-1" d="M18.56,154.3a31.84,31.84,0,0,0-4.28,2.17c-1.11.59-2.2,1.23-3.26,1.9a48.65,48.65,0,0,0-4.72,3.36,17.48,17.48,0,0,0-3.37,4,18.73,18.73,0,0,0-2.41,6.48A16.54,16.54,0,0,0,.44,180a22.6,22.6,0,0,0,1.23,3.07,11.22,11.22,0,0,0,2,3.38,13.12,13.12,0,0,0,4,2.66l2.14,1a11.45,11.45,0,0,0,3.34,1.17,20.14,20.14,0,0,0,3.46.19,41.48,41.48,0,0,0,5.21-.56,33.16,33.16,0,0,1,6-.39,15.28,15.28,0,0,1,2.11.57,4.92,4.92,0,0,1,.45.24,18,18,0,0,1,1.08,2.09c.55,1.39,1.09,2.78,1.54,4.21A49,49,0,0,1,34.18,203c.33,1.67.65,3.34,1,5,.44,2,1,3.88,1.4,5.83.77,3.52,1.44,7.09,2.12,10.63s1.29,7,1.86,10.55c.24,2.2.36,4.4.53,6.61.21,2.76.58,5.5,1,8.23.67,4.63,1.69,9.18,2.67,13.74.48,2.19,1,4.38,1.57,6.54a43.58,43.58,0,0,0,2.88,7.38c.91,2,1.73,4,2.8,5.85s2.14,3.53,3.24,5.28a123.62,123.62,0,0,0,8.44,11.77A23.09,23.09,0,0,0,67.76,304,39.92,39.92,0,0,0,71,306.48a23.13,23.13,0,0,0,4.38,1.93c2,.74,3.94,1.62,6,2.26a57.17,57.17,0,0,0,7,1.8c2.73.5,5.43,1,8.19,1.32a37.25,37.25,0,0,0,7.08.31c2.33-.17,4.67-.74,7-1.09,2-.3,3.92-.72,5.9-1l-.31,0,.76-.1a5.54,5.54,0,0,0-1.47-10.88,51.53,51.53,0,0,0-7.08,1c-1.63.23-3.25.49-4.87.75a38.61,38.61,0,0,1-7.67-.32c-1.45-.23-2.89-.5-4.34-.75-1.8-.31-3.55-.76-5.32-1.22a37.86,37.86,0,0,1-4.63-1.5c-1.29-.5-2.61-.95-3.9-1.45A15.68,15.68,0,0,1,75.11,296l-.58-.44-.62-.48.34.26a22.06,22.06,0,0,1-2-1.74,15.56,15.56,0,0,1-1.07-1.22c-1.34-1.77-2.67-3.52-4-5.31s-2.41-3.69-3.61-5.54a52,52,0,0,1-3.1-5.25c-.94-1.9-1.82-3.86-2.69-5.8A44.79,44.79,0,0,1,56.2,265c-.53-2.18-1-4.38-1.5-6.57s-1-4.31-1.37-6.49-.74-4.25-1-6.39c-.62-5.05-.68-10.13-1.64-15.13-.9-4.64-1.63-9.29-2.57-13.91-.46-2.28-.87-4.56-1.36-6.83s-1.17-4.66-1.65-7c-.42-2.1-.81-4.2-1.29-6.28a43.57,43.57,0,0,0-2.28-6.47c-.39-1-.8-1.94-1.26-2.89a15.21,15.21,0,0,0-1.78-2.68c-1.55-2-3.85-3-6.16-3.76a12.06,12.06,0,0,0-2.06-.47,27.27,27.27,0,0,0-3.36-.32,38.74,38.74,0,0,0-5.88.64l1.41-.19q-2.16.3-4.32.63a21.63,21.63,0,0,1-3.11.18l-.44-.13-1.14-.54c-.73-.32-1.43-.64-2.11-1-.25-.46-.47-.93-.69-1.41s-.23-.66-.32-1,0-.78,0-1.17a24,24,0,0,1,.88-3.53,15.28,15.28,0,0,1,.87-1.52,13.37,13.37,0,0,1,1.51-1.5,59.51,59.51,0,0,1,8.29-4.89l.3-.08a29,29,0,0,1,5.18.3c1.12.2,2.21.41,3.32.69a20.71,20.71,0,0,1,2.49.82,59.19,59.19,0,0,1,8.78,5.27c1.23,1,2.43,2.08,3.61,3.19s2.53,2.58,3.73,3.94a32.33,32.33,0,0,1,2.82,4.19c1.06,2,2,4,2.9,6,.64,1.66,1.21,3.31,1.71,5a41.35,41.35,0,0,1,1.1,5.49,137.89,137.89,0,0,1,1,14.65c.09,5.28.31,10.56.41,15.85,0,2.62.08,5.24.15,7.86s.11,5.16.36,7.71c.3,3.06.64,6.11,1.15,9.13a77.87,77.87,0,0,0,2,9.34A42.63,42.63,0,0,0,69,276.44a45.75,45.75,0,0,0,4.13,5.26,43.35,43.35,0,0,0,3.74,3.56,21.77,21.77,0,0,0,4,2.64c1.5.77,3.09,1.39,4.66,2,2,.77,4,1.33,6.07,1.92,3.8,1.09,7.81,1.5,11.69,2.21a43.73,43.73,0,0,0,6.35.69,42.17,42.17,0,0,0,6.63-.48l1.35-.18a5,5,0,0,0,2.24-1.31,5.07,5.07,0,0,0,0-7.18,4.84,4.84,0,0,0-3.59-1.49,40.27,40.27,0,0,1-9.11.26c-3.13-.6-6.27-1.16-9.4-1.73a43.24,43.24,0,0,1-4.85-1.27c-1.61-.48-3.21-1-4.78-1.65a25.5,25.5,0,0,1-3.75-2,36.92,36.92,0,0,1-4.48-4.62c-.61-.82-1.2-1.65-1.79-2.49a38.65,38.65,0,0,1-3.46-6.14,49.69,49.69,0,0,1-2.64-9.68q-.51-3.09-1-6.21c-.49-5.29-.68-10.57-.76-15.89s-.29-10.53-.41-15.8c0-2.47-.06-5-.21-7.42q-.25-4.2-.63-8.38c-.14-1.46-.34-2.93-.57-4.37s-.37-2.68-.69-4a56.93,56.93,0,0,0-2.4-7.43,79.82,79.82,0,0,0-3.85-8.22,32.81,32.81,0,0,0-2-3,42.61,42.61,0,0,0-3-3.91A50.07,50.07,0,0,0,51,164.74c-1.29-1.05-2.56-2.11-3.92-3.06s-2.47-1.65-3.75-2.44a41.19,41.19,0,0,0-7.64-3.72,38.85,38.85,0,0,0-8.55-1.73,32,32,0,0,0-3.39-.23h-.37a14.49,14.49,0,0,0-4.78.74ZM70.94,292.08l0,0,0,0Z"/><path class="cls-1" d="M176.44,30.75a4.61,4.61,0,1,0,0,9.21c1.39-.05,2.78-.08,4.17-.1a5.63,5.63,0,0,0-1.66,1.8,4.62,4.62,0,0,0,1.64,6.26,6.29,6.29,0,0,0,1.51.7,18.5,18.5,0,0,0,2.57.37c1.35.11,2.7.11,4.05.12a4.78,4.78,0,0,0-1.56,2.38,4.62,4.62,0,0,0,1.19,4.5,3.89,3.89,0,0,0,1.52,1.15l-.14.17a9.74,9.74,0,0,0-2.06,3.46,4.68,4.68,0,0,0,8.91,2.87c.51-.8,1.16-1.54,1.71-2.31,1.45-2,3.06-4,3.25-6.61a4.27,4.27,0,0,0-.12-1.81,5,5,0,0,0-.27-.72c.48-.36.95-.74,1.42-1.11a4.26,4.26,0,0,0,.8-.84,6.83,6.83,0,0,0,1.52-2.65,14.86,14.86,0,0,0,.29-1.89,5.79,5.79,0,0,0-.75-2.69,5.65,5.65,0,0,0-.57-.8l2.27-.4a10.54,10.54,0,0,0,2.51-.42A4.64,4.64,0,0,0,212,37a4.57,4.57,0,0,0-3.34-4.39A36.7,36.7,0,0,0,204,32l-3.34-.33c-2.31-.22-4.62-.45-6.93-.63s-4.6-.4-6.91-.41l-4,0c-2.13,0-4.24,0-6.37.11Z"/><path class="cls-1" d="M104.68,96.27a75.75,75.75,0,0,0,1.42,16.18c.49,2.59,1.13,5.13,1.75,7.69.36,1.51.8,3,1.26,4.49.35,1.16.7,2.32,1.07,3.47a9.7,9.7,0,0,0,1.88,3.58,4.53,4.53,0,0,0,3.79,1.76,4.23,4.23,0,0,0,3.09-1.28,4.65,4.65,0,0,0,1.28-3.09,24.82,24.82,0,0,0,.11-3l.3.73a9.67,9.67,0,0,0,1.91,3.11,5.11,5.11,0,0,0,3.54,1.45,9.59,9.59,0,0,0,1.5-.18,5.25,5.25,0,0,0,2.37-1.52,8.14,8.14,0,0,0,1.63-3.09l0-.06.42.14a6.66,6.66,0,0,0,1.72.17,4.78,4.78,0,0,0,2.37-.64,6.63,6.63,0,0,0,2.84-2.78l.08-.16.17.1a5.56,5.56,0,0,0,6-.53.44.44,0,0,0,.08.11,5,5,0,0,0,2.81,2.17,4.71,4.71,0,0,0,5.78-3.29,4.54,4.54,0,0,0-.47-3.62,20.94,20.94,0,0,1-1.74-3.44c-.32-.68-.7-1.32-1-2a10.71,10.71,0,0,0-1.31-1.83,6.42,6.42,0,0,0-2.84-1.54,3.85,3.85,0,0,0-2.23-.09,30.81,30.81,0,0,0-.69-3.52,4.66,4.66,0,0,0-8.52-1.11,12.7,12.7,0,0,0-1,2.14c-.18.61-.32,1.22-.45,1.83a13.76,13.76,0,0,0-.81-2.12,4.58,4.58,0,0,0-5.18-2.1,4.41,4.41,0,0,0-2.87,2.44c-.28-1.3-.56-2.6-.83-3.9-.22-1-.42-2-.64-3.07-.14-.65-.33-1.28-.49-1.92a6.63,6.63,0,0,0-.74-2,5.47,5.47,0,0,0-1.84-2,5.25,5.25,0,0,0-2.41-.69,4.34,4.34,0,0,0-2.41.59,5.88,5.88,0,0,0-1.8,1.88c-.1.22-.21.43-.3.64v-.14a4.31,4.31,0,1,0-8.62,0Z"/><path class="cls-1" d="M266.88,97.2c0,1.9,0,3.79,0,5.69,0,1.21,0,2.44-.07,3.66,0,.55-.09,1.1-.13,1.66a4.45,4.45,0,0,0-2.21-1.41,4.65,4.65,0,0,0-5.15,2.1c-1.29,2-2.48,4.07-3.61,6.17a5.07,5.07,0,0,0-.91-1.2,4.76,4.76,0,0,0-5.65-.73,5.31,5.31,0,0,0-1.37,1c-.11-.24-.23-.48-.33-.71a4.57,4.57,0,0,0-2.84-2.19,4.82,4.82,0,0,0-3.66.48,7,7,0,0,0-2.09,1.74c-.12.14-.23.29-.34.43a5.53,5.53,0,0,0-2.41-.62,5.06,5.06,0,0,0-2.69.67,10.11,10.11,0,0,0-1.94,1.57,49.21,49.21,0,0,0-3.41,4.2,4.61,4.61,0,0,0-.48,3.7,4.82,4.82,0,0,0,2.21,2.87,4.69,4.69,0,0,0,1.88.62c0,.29.11.58.19.87a4.81,4.81,0,0,0,1.24,2.12c.41.33.84.65,1.26,1a4.82,4.82,0,0,0,5.84-.75l.1-.12c.11.26.23.53.34.8a4.55,4.55,0,0,0,2.85,2.18,4.72,4.72,0,0,0,2.53,0,4.67,4.67,0,0,0,1.36-.62,8,8,0,0,0,.91,3.3,4.73,4.73,0,0,0,4,2.32,4.6,4.6,0,0,0,4.05-2.32,34.9,34.9,0,0,0,1.22-3.28c.32-.9.7-1.78,1.07-2.66-.15.36-.31.74-.47,1.1.45-1,.89-2,1.34-2.92.13,1.16.29,2.32.53,3.47a9.22,9.22,0,0,0,.73,2,6.24,6.24,0,0,0,1.21,1.88,5.35,5.35,0,0,0,2.26,1.41,5,5,0,0,0,3.66-.48c1.84-1.08,2.58-3.11,3.2-5,.34-1.06.6-2.14.88-3.21.56-2.15,1.19-4.31,1.61-6.48.5-2.65.86-5.31,1.18-8,.3-2.44.45-4.89.63-7.33.09-1.23,0-2.48,0-3.7,0-1.75,0-3.51,0-5.26a4.3,4.3,0,0,0-8.59,0Z"/><path class="cls-1" d="M112.39,174.25c-.8,1.44-1.5,2.9-2.2,4.39s-1.35,2.77-1.93,4.21a113.15,113.15,0,0,0-4.2,11.37,4.39,4.39,0,0,0,.44,3.36,4.46,4.46,0,0,0,2.6,2,4.24,4.24,0,0,0,1.5.27,4.36,4.36,0,0,0,2.52-.56,9,9,0,0,0,2.86-2.57c.28-.32.55-.65.83-1-.2.75-.4,1.5-.56,2.26a14.8,14.8,0,0,0-.34,2.48,5.33,5.33,0,0,0,.82,2.66,5.66,5.66,0,0,0,1.93,1.87,4.63,4.63,0,0,0,2.68.58,8,8,0,0,0,4.21-1.8,22.84,22.84,0,0,0,2.94-2.62c.21-.23.42-.45.64-.67a2.77,2.77,0,0,0,.26.48,5.14,5.14,0,0,0,2.89,2.33,5.92,5.92,0,0,0,3.18-.08,8.1,8.1,0,0,0,3-1.86,18.88,18.88,0,0,0,2-2l.21-.23a4.75,4.75,0,0,0,2.43.68,5.3,5.3,0,0,0,.69,0,4.48,4.48,0,0,0,3.68,1.89,4.64,4.64,0,0,0,4.61-4.62C150,196,150,195,150,193.91a15.26,15.26,0,0,0-.27-3.17,6.32,6.32,0,0,0-.57-1.46,6,6,0,0,0-1.86-1.81,4.58,4.58,0,0,0-1.37-.53,1.76,1.76,0,0,0-.14-.23,4.52,4.52,0,0,0-3.93-2.26c-.49,0-1,.11-1.47.19a6.55,6.55,0,0,0-2.38,1.45,9.44,9.44,0,0,0-1.07,1.12l-.8.91a5.34,5.34,0,0,0-3.43-2.78c-3-.78-5.14,1.69-7,3.69.23-.95.43-1.9.63-2.86.3-1.57.86-3.36.36-4.94a6,6,0,0,0-1.28-2.45,6.72,6.72,0,0,0-1.6-1.24,5.7,5.7,0,0,0-2.59-.67,3.69,3.69,0,0,0-.76.08,4.35,4.35,0,0,0-2.1-4.26,4.38,4.38,0,0,0-5.94,1.56Z"/><path class="cls-1" d="M251,171.42a4.36,4.36,0,0,0-2.62,2,4.7,4.7,0,0,0-.44,3.37c.05.29.1.57.14.86.13,1,.26,2,.38,2.92a5.53,5.53,0,0,0-3.39-.17,6.5,6.5,0,0,0-3.8,3.56,17.06,17.06,0,0,0-1.44,4.85,5.88,5.88,0,0,0-1.29.21,5.68,5.68,0,0,0-2.87,2.07l-.26-.31a5.19,5.19,0,0,0-2.68-1.83l-.47-.11a4.88,4.88,0,0,0-2.46,0,5.22,5.22,0,0,0-2.91,1.54,15.25,15.25,0,0,0-1.36,1.78,8.15,8.15,0,0,0-1.91-.88,7.89,7.89,0,0,0-1.53-.18,4.67,4.67,0,0,0-2.34.64,5,5,0,0,0-1.81,1.41,4.88,4.88,0,0,0-1.36,3.29,4.64,4.64,0,0,0,4,4.6,20.75,20.75,0,0,0,.82,2.79,4.57,4.57,0,0,0,1.19,2.05,4.66,4.66,0,0,0,6.6,0,5.29,5.29,0,0,0,.92-1.13,9.76,9.76,0,0,0,.72-1.84c.12-.36.24-.72.37-1.07a7.22,7.22,0,0,0,2.61,2.35,4.64,4.64,0,0,0,2.35.64,6.35,6.35,0,0,0,2.7-.79,7.16,7.16,0,0,0,.78-.58,4,4,0,0,0,.47.54,4.59,4.59,0,0,0,2,1.2l1.23.16a4.63,4.63,0,0,0,2.35-.63,4.35,4.35,0,0,0,2.21-2.81,10.72,10.72,0,0,0,.16-2.46c0-.83,0-1.66,0-2.49,0-.63,0-1.26.07-1.89.53,1.08,1,2.17,1.55,3.27.31.77.59,1.54.84,2.34a5.72,5.72,0,0,0,1.35,2.66,4.52,4.52,0,0,0,5.47.71,4.58,4.58,0,0,0,2.08-5.1c-.12-.46-.25-.9-.4-1.35s-.18-1-.26-1.56c-.9-7.19-1.24-14.44-2.44-21.59a4.23,4.23,0,0,0-2-2.62,4.48,4.48,0,0,0-3.37-.44Zm7.9,25.34c0,.1,0,.21.05.32,0-.11,0-.22-.05-.32Z"/><path class="cls-1" d="M117.18,254.75c.27,5.68.54,11.36.84,17a36.51,36.51,0,0,1,.1,4,6.33,6.33,0,0,0,1.6,4.86,5.18,5.18,0,0,0,4.94,1.22,5.32,5.32,0,0,0,3.23-2.86c.46-1,.65-2,1-2.95l.52-1.27a5.08,5.08,0,0,0,3.39,1.49,7,7,0,0,0,2.06-.19,5.32,5.32,0,0,0,1.89-1,7,7,0,0,0,.85,2.07,4.88,4.88,0,0,0,3.19,2.21,6.54,6.54,0,0,0,2.92-.09,3.63,3.63,0,0,0,1.6-.84,4.58,4.58,0,0,0,1.65-1.65,16.87,16.87,0,0,0,2-3.55,6,6,0,0,0,3,0,4.66,4.66,0,0,0,1.52-.7,5.22,5.22,0,0,0,2,1,5.9,5.9,0,0,0,5.9-2.16,5.05,5.05,0,0,0,1.4-3.39,4.86,4.86,0,0,0-1.4-3.4,4.7,4.7,0,0,0-1.43-1l-.09-.48c-.15-.83-.31-1.66-.52-2.48-.6-2.38-2.61-4.58-5.2-4.58a5.5,5.5,0,0,0-2.61.69,5.64,5.64,0,0,0-2.33,3.12c-.14.37-.26.73-.37,1.1-.49-.08-1-.15-1.47-.2a4.49,4.49,0,0,0-3.25,1.34l-.09.1L144,262a4.46,4.46,0,0,0-1.16-2,4.3,4.3,0,0,0-3.19-1.32,10.11,10.11,0,0,0-1.83.28l-.18.06,0-.66a5.1,5.1,0,0,0-2.69-4.73,4.45,4.45,0,0,0-5.4.7,11.12,11.12,0,0,0-1.68,2.18c-.28.48-.47,1-.71,1.52l-.75,1.6-.24-4.88a4.5,4.5,0,0,0-9,0Zm37.39,9.95Z"/><path class="cls-1" d="M254.07,253.28q0,3.57.15,7.16a7.16,7.16,0,0,0-1.93,1.18,4.49,4.49,0,0,0-.39.36,4.6,4.6,0,0,0-.32-.67,6.44,6.44,0,0,0-2.24-2.1,4.48,4.48,0,0,0-2.34-.64,4.42,4.42,0,0,0-3.27,1.36l-.36.45a7.75,7.75,0,0,0-2.24-.34,7.06,7.06,0,0,0-4.73,2.28l-.09.08a5.38,5.38,0,0,0-3.17-2.56,5.45,5.45,0,0,0-1.77-.18c-.11-.29-.24-.57-.36-.86a5.81,5.81,0,0,0-1.89-1.93,6.5,6.5,0,0,0-3.39-.79c-2.24.05-4.08,1.5-5.7,2.87a8.48,8.48,0,0,0-2.85,4.21,4.76,4.76,0,0,0,3.28,5.8c.18.05.36.08.53.11a4.75,4.75,0,0,0,8.38,3.81,7.61,7.61,0,0,0,.65,1.31,6.1,6.1,0,0,0,1.91,1.84,4.72,4.72,0,0,0,1.36.54,4.82,4.82,0,0,0,3.6-.48,7.38,7.38,0,0,0,2.16-2.15.61.61,0,0,0,.07.1,4.61,4.61,0,0,0,1.67,1.67,4.92,4.92,0,0,0,1.24.51,4.65,4.65,0,0,0,1.36,3.14l.94.73a4.61,4.61,0,0,0,2.35.64,4.46,4.46,0,0,0,3.62-1.32,16.24,16.24,0,0,0,1.46-2c.55-.76,1.08-1.54,1.62-2.32l.78-1.12a15.68,15.68,0,0,0,.77,1.66,4.54,4.54,0,0,0,6.21,1.63,4.79,4.79,0,0,0,2.09-2.71,9.31,9.31,0,0,0,.31-3.64c0-.84-.06-1.67-.09-2.51-.06-1.45-.12-2.9-.17-4.34-.13-3.61-.23-7.22-.28-10.83a4.47,4.47,0,1,0-8.93,0Z"/><path class="cls-1" d="M160.6,295.38a6.88,6.88,0,0,0-4.36,3.92l-.3.71,0-.09a7.63,7.63,0,0,0-1.57-2.7,4.38,4.38,0,0,0-4.39-1.16,5.06,5.06,0,0,0-2.23,1.23,5.35,5.35,0,0,0-1.35,2.52c-.18.68-.35,1.37-.55,2-.26-.68-.55-1.35-.88-2a4.41,4.41,0,0,0-3.84-2.2,4.32,4.32,0,0,0-2.25.61,4.51,4.51,0,0,0-1.6,1.59,7.1,7.1,0,0,0-1.15,3.52c-.15,1-.36,2-.56,3,0-.13-.07-.26-.11-.39-.28-.9-.51-1.8-.81-2.69s-.76-1.81-1.15-2.7a4.31,4.31,0,0,0-3.78-2.17,4.16,4.16,0,0,0-2.39.75,4.57,4.57,0,0,0-4.88-1.85,4.39,4.39,0,0,0-2.61,2,4.55,4.55,0,0,0-.44,3.37c.59,2.8,1.28,5.58,2,8.36.28,1.13.66,2.26,1,3.38a59.09,59.09,0,0,0,1.83,5.7,4.53,4.53,0,0,0,1.13,1.94,4.43,4.43,0,0,0,1.94,1.13,4.35,4.35,0,0,0,4.27-1.13,11.32,11.32,0,0,0,1-1.37,7.88,7.88,0,0,0,.74.55,5.6,5.6,0,0,0,1.57.72,4.61,4.61,0,0,0,2.39,0,5.68,5.68,0,0,0,2.35-1.36,16.64,16.64,0,0,0,3.31-6.43l.12-.42.12.08,1.61.68a4.38,4.38,0,0,0,1.76.12,4.52,4.52,0,0,0,2.3-.63,6,6,0,0,0,2.23-1.69,11.74,11.74,0,0,0,1-1.41c.29.19.59.36.87.52a6.91,6.91,0,0,0,3.17.84,9.67,9.67,0,0,0,2-.31A6.53,6.53,0,0,0,161,310a11.64,11.64,0,0,0,2-3.06c.2-.44.39-.88.58-1.32a4.89,4.89,0,0,0,2.88.11,4.64,4.64,0,0,0,3.24-5.7,4.44,4.44,0,0,0-1.49-2.26l.08.05a16.28,16.28,0,0,0-2.18-1.69,6.32,6.32,0,0,0-2.14-.77,13.57,13.57,0,0,0-1.91-.18,4.78,4.78,0,0,0-1.4.19Zm-3.46,7.79.16,0h-.16Zm7.38.12-.08.06h0l.08-.06Zm-7,.15.06,0-.06,0Z"/><path class="cls-1" d="M250.79,293.38a4.26,4.26,0,0,0-2.61,2c-.56,1.21-1.11,2.44-1.58,3.71-.1.28-.19.56-.27.85a4.31,4.31,0,0,0-.49.11,10.38,10.38,0,0,0-4.48,3.22,25,25,0,0,0-2.07,2.72l-1.41,2c-.1-.24-.21-.47-.32-.71s-.27-.56-.43-.83a6.47,6.47,0,0,0-2.16-2.1,11.69,11.69,0,0,0-1.69-.77,13.8,13.8,0,0,0-2.72-.28,12.18,12.18,0,0,0-2.82.43l-.05-.14a4.6,4.6,0,0,0-1.18-2c-.42-.37-.86-.72-1.31-1.05a5.9,5.9,0,0,0-3.28-.79h-.14a5.47,5.47,0,0,0-2.79-1.87,5.78,5.78,0,0,0-4.25.61,4.64,4.64,0,0,0-1.65,6.32,5,5,0,0,0,.71.93,5.27,5.27,0,0,0,1.57,3.41,4.9,4.9,0,0,0,3.37,1.37,4.15,4.15,0,0,0,.74,2.14,4.78,4.78,0,0,0,2.73,2.1,4.49,4.49,0,0,0,3.51-.46,17.77,17.77,0,0,1,1.88-1c.78-.29,1.57-.55,2.38-.77a29.94,29.94,0,0,0,1.72,4,7,7,0,0,0,2.4,2.56,10.64,10.64,0,0,0,1.54.69,4.73,4.73,0,0,0,2.42,0,7.3,7.3,0,0,0,3.93-2.54,38.47,38.47,0,0,0,2.8-3.59,4.41,4.41,0,0,0,3.92,2.42,4.48,4.48,0,0,0,4.28-3.26,21.81,21.81,0,0,0,.44-3.27c.15-1,.32-2.06.49-3.09a31.94,31.94,0,0,1,1.29-5.55l.51-1.13a4.58,4.58,0,0,0,.44-3.36,4.36,4.36,0,0,0-4.22-3.21,4.56,4.56,0,0,0-1.15.16Zm-32.15,13.38,0,0h0l0,0Zm11.3,5.67h0l-.15,0,.15,0Z"/><path class="cls-1" d="M84.93,282.47a6.83,6.83,0,0,0-5.57,3.23,5.74,5.74,0,0,0-.78,2.73l.22,1.66c.14.35.28.69.43,1a10.1,10.1,0,0,0-1,.84,5.69,5.69,0,0,0-1.52,5.4c0,.13.07.27.11.4A4.79,4.79,0,0,0,78,299.86c.1.13.2.24.3.35a4.79,4.79,0,0,0,1,5.39,4.59,4.59,0,0,0,3.4,1.41c.76-.07,1.51-.17,2.27-.28a7.1,7.1,0,0,0,2.92-.89,6.51,6.51,0,0,0,2.34-2.35,5.67,5.67,0,0,0,.42-1,14.07,14.07,0,0,0,1.57-.21,4.58,4.58,0,0,0,2.9-2.24c.25-.52.47-1.06.69-1.6a4.91,4.91,0,0,0,0-2.58,7.14,7.14,0,0,0-1-2.58,4.71,4.71,0,0,0,1.21-1.38,4.89,4.89,0,0,0,.49-3.72,4.71,4.71,0,0,0-2.22-2.9,55.08,55.08,0,0,0-5.09-2.11,12.64,12.64,0,0,0-4-.72Zm-2,17.07h0l-.46.06a3.64,3.64,0,0,1,.44-.07Z"/><path class="cls-1" d="M54.94,251.59l0,0a3.94,3.94,0,0,0-1.81,1.86,4.81,4.81,0,0,0-4.27.28,4.9,4.9,0,0,0-1.75,6.64c1.18,2,2.39,3.94,3.53,5.94.5.87,1,1.75,1.43,2.65a21.61,21.61,0,0,0,1.86,3.49l.76,1a4.83,4.83,0,0,0,2.15,1.25,5,5,0,0,0,3.75-.49A5.6,5.6,0,0,0,63.32,271a12,12,0,0,0,.4-4.74c0-.31,0-.62-.07-.93a6.29,6.29,0,0,0,1.15-.2,4.66,4.66,0,0,0,2.11-1.23,5.63,5.63,0,0,0,1.59-2.54c.09-.57.18-1.15.24-1.72a15.05,15.05,0,0,0-.25-2.24,14.38,14.38,0,0,0-.49-1.85,4.86,4.86,0,0,0-2.15-2.8,4.7,4.7,0,0,0-3.61-.47,4.51,4.51,0,0,0-1.23.54,4.71,4.71,0,0,0-2.47-1.67L57.3,251a4.65,4.65,0,0,0-2.36.64Z"/><path class="cls-1" d="M43.29,204.05a4.58,4.58,0,0,0-1.42,3.42c.27,2.45.54,4.9.84,7.34.44,3.72.89,7.55,3.56,10.42a5.59,5.59,0,0,0,3.92,1.53,6.94,6.94,0,0,0,4.46-2.09,7.13,7.13,0,0,0,.8-.93A10.65,10.65,0,0,0,57,221.28c.31-.7.57-1.39.83-2.11,0-.1.07-.2.1-.3l.26.06a8.11,8.11,0,0,0,3.6-.08A4.83,4.83,0,0,0,62.92,210a4.53,4.53,0,0,0-2.49-.62l-.35-.36-.33-.5a6.36,6.36,0,0,0-1.93-2,5.2,5.2,0,0,0-4.3-.59,4.7,4.7,0,0,0-2,1.14l-.12-.9a4.78,4.78,0,0,0-1.25-2.14,4.83,4.83,0,0,0-6.86,0ZM60,209.37l.12,0h0l-.11,0Zm.13,0Z"/><path class="cls-1" d="M42.05,165.36a4.65,4.65,0,0,0-2.79,2.14,4.51,4.51,0,0,0-.58,2.73,7,7,0,0,0-2.62-.61,5.47,5.47,0,0,0-4.66,2.73c-1.06,1.8-1,4.05-.89,6.06.11,2.54.3,5.07.48,7.61a4.83,4.83,0,0,0,1.36,3.28,4.67,4.67,0,0,0,3.29,1.37c2.4,0,4.82-2.12,4.64-4.65-.12-1.77-.25-3.54-.35-5.31,0-.07,0-.15,0-.22.6.18,1.21.34,1.81.5.4.1.81.18,1.21.25.69.11,1.38.19,2.07.25a6.47,6.47,0,0,0,1.64-.27A5.86,5.86,0,0,0,49,179.81a6.46,6.46,0,0,0,1.38-2.53,6.3,6.3,0,0,0,0-3,9.9,9.9,0,0,0-.34-1.18,4.64,4.64,0,0,0,.52-1.2,4.7,4.7,0,0,0-3.26-5.74c-.72-.17-1.43-.34-2.14-.58l-.46-.18a3.59,3.59,0,0,0-1.26-.21,5.94,5.94,0,0,0-1.42.19Zm0,8.9.19.08h0l-.18-.08Zm.38.16.06,0-.06,0Z"/><path class="cls-1" d="M13.86,160.1a6.68,6.68,0,0,0-2.82.83,20,20,0,0,0-2.4,1.83,10.06,10.06,0,0,0-1.2,1.32,13.92,13.92,0,0,0-1.63,2.45A11.49,11.49,0,0,0,5,168.8a4.45,4.45,0,0,0,0,2.4A4.05,4.05,0,0,0,5.53,173a8.61,8.61,0,0,0,1.26,1.61,8.86,8.86,0,0,0,3.3,1.76,16.82,16.82,0,0,0,2.82.59c.31.06.63.1.95.14a15.54,15.54,0,0,0-1.31,2.76,4.17,4.17,0,0,0,.44,3.37,4.12,4.12,0,0,0,.43.6,4.44,4.44,0,0,0,.59,1.9,4.54,4.54,0,0,0,1.62,1.61A5.17,5.17,0,0,0,18,188a4.7,4.7,0,0,0,2.45-.72,6.44,6.44,0,0,0,2.73-4.22,26.87,26.87,0,0,0,.53-4.38,21.49,21.49,0,0,0-.3-4.6,7.74,7.74,0,0,0-2.06-4.18,4.41,4.41,0,0,0-2.18-1.24,4.37,4.37,0,0,0,1.13-1.26,4.53,4.53,0,0,0,.45-3.47,4.78,4.78,0,0,0-2.06-2.69,7.26,7.26,0,0,0-4-1.17c-.27,0-.54,0-.8,0Z"/><path class="cls-1" d="M11.54,170.6c-1.1,0-2.19.06-3.29.18L7,171a4.72,4.72,0,0,0-2.09,7.9,4.51,4.51,0,0,0,3.34,1.39c1.1-.12,2.19-.16,3.29-.17a4.74,4.74,0,0,0,.05-9.47Z"/></g></g></svg>